<svg width="659" height="65" viewBox="0 0 659 65" fill="none" xmlns="http://www.w3.org/2000/svg">
<path d="M26.1341 12.76C26.1341 11.576 26.3741 10.496 26.8541 9.52C27.3501 8.528 28.0221 7.736 28.8701 7.144C29.7341 6.552 30.7181 6.256 31.8221 6.256C32.8301 6.256 33.7341 6.52 34.5341 7.048C35.3341 7.576 35.9581 8.216 36.4061 8.968V1.48H38.5181V16.6C38.5181 16.856 38.5661 17.048 38.6621 17.176C38.7741 17.288 38.9501 17.352 39.1901 17.368V19C38.7901 19.064 38.4781 19.096 38.2541 19.096C37.8381 19.096 37.4701 18.952 37.1501 18.664C36.8461 18.376 36.6941 18.056 36.6941 17.704V16.648C36.1981 17.448 35.5341 18.08 34.7021 18.544C33.8701 19.008 33.0061 19.24 32.1101 19.24C31.2461 19.24 30.4461 19.072 29.7101 18.736C28.9901 18.384 28.3581 17.904 27.8141 17.296C27.2861 16.688 26.8701 16 26.5661 15.232C26.2781 14.448 26.1341 13.624 26.1341 12.76ZM36.4061 14.608V11.008C36.2141 10.464 35.9021 9.976 35.4701 9.544C35.0381 9.096 34.5501 8.744 34.0061 8.488C33.4781 8.216 32.9501 8.08 32.4221 8.08C31.7981 8.08 31.2301 8.216 30.7181 8.488C30.2221 8.744 29.7901 9.096 29.4221 9.544C29.0701 9.976 28.7981 10.472 28.6061 11.032C28.4141 11.592 28.3181 12.176 28.3181 12.784C28.3181 13.408 28.4221 14 28.6301 14.56C28.8541 15.12 29.1581 15.616 29.5421 16.048C29.9421 16.48 30.3981 16.816 30.9101 17.056C31.4381 17.296 32.0061 17.416 32.6141 17.416C32.9981 17.416 33.3901 17.344 33.7901 17.2C34.2061 17.056 34.5981 16.856 34.9661 16.6C35.3341 16.344 35.6461 16.048 35.9021 15.712C36.1581 15.36 36.3261 14.992 36.4061 14.608ZM42.0438 19V6.472H44.1558V19H42.0438ZM42.0438 4.12V1.48H44.1558V4.12H42.0438ZM51.8711 19.24C50.8311 19.24 49.8551 19.072 48.9431 18.736C48.0311 18.384 47.2471 17.864 46.5911 17.176L47.4071 15.688C48.1271 16.36 48.8471 16.84 49.5671 17.128C50.2871 17.416 51.0231 17.56 51.7751 17.56C52.6391 17.56 53.3431 17.4 53.8871 17.08C54.4311 16.744 54.7031 16.256 54.7031 15.616C54.7031 15.152 54.5591 14.808 54.2711 14.584C53.9991 14.36 53.6071 14.176 53.0951 14.032C52.5831 13.872 51.9751 13.696 51.2711 13.504C50.4071 13.248 49.6791 12.976 49.0871 12.688C48.4951 12.4 48.0471 12.04 47.7431 11.608C47.4391 11.176 47.2871 10.632 47.2871 9.976C47.2871 9.176 47.4951 8.504 47.9111 7.96C48.3271 7.4 48.8951 6.976 49.6151 6.688C50.3511 6.4 51.1831 6.256 52.1111 6.256C53.0391 6.256 53.8791 6.4 54.6311 6.688C55.3831 6.976 56.0311 7.4 56.5751 7.96L55.6151 9.424C55.1191 8.912 54.5751 8.536 53.9831 8.296C53.3911 8.04 52.7271 7.912 51.9911 7.912C51.5591 7.912 51.1351 7.968 50.7191 8.08C50.3031 8.176 49.9591 8.36 49.6871 8.632C49.4151 8.888 49.2791 9.256 49.2791 9.736C49.2791 10.136 49.3831 10.456 49.5911 10.696C49.8151 10.92 50.1351 11.112 50.5511 11.272C50.9831 11.432 51.5031 11.608 52.1111 11.8C53.0551 12.072 53.8711 12.344 54.5591 12.616C55.2631 12.888 55.8071 13.24 56.1911 13.672C56.5751 14.104 56.7671 14.704 56.7671 15.472C56.7671 16.656 56.3191 17.584 55.4231 18.256C54.5271 18.912 53.3431 19.24 51.8711 19.24ZM64.8378 19.24C63.8938 19.24 63.0298 19.072 62.2458 18.736C61.4778 18.384 60.8058 17.904 60.2298 17.296C59.6698 16.688 59.2298 15.992 58.9098 15.208C58.6058 14.424 58.4538 13.592 58.4538 12.712C58.4538 11.528 58.7178 10.448 59.2458 9.472C59.7738 8.496 60.5178 7.72 61.4778 7.144C62.4378 6.552 63.5498 6.256 64.8138 6.256C66.0458 6.256 67.1178 6.536 68.0298 7.096C68.9578 7.64 69.6458 8.376 70.0938 9.304L68.0298 9.952C67.7098 9.36 67.2618 8.904 66.6858 8.584C66.1098 8.248 65.4698 8.08 64.7658 8.08C63.9978 8.08 63.2938 8.28 62.6538 8.68C62.0298 9.08 61.5338 9.632 61.1658 10.336C60.7978 11.024 60.6138 11.816 60.6138 12.712C60.6138 13.592 60.7978 14.392 61.1658 15.112C61.5498 15.816 62.0538 16.376 62.6778 16.792C63.3178 17.208 64.0218 17.416 64.7898 17.416C65.2858 17.416 65.7578 17.328 66.2058 17.152C66.6698 16.976 67.0698 16.744 67.4058 16.456C67.7578 16.152 67.9978 15.824 68.1258 15.472L70.1898 16.096C69.9338 16.704 69.5418 17.248 69.0138 17.728C68.5018 18.192 67.8858 18.56 67.1658 18.832C66.4618 19.104 65.6858 19.24 64.8378 19.24ZM77.9377 19.24C76.9937 19.24 76.1377 19.072 75.3697 18.736C74.6017 18.384 73.9377 17.912 73.3777 17.32C72.8177 16.712 72.3857 16.016 72.0817 15.232C71.7777 14.448 71.6257 13.624 71.6257 12.76C71.6257 11.88 71.7777 11.048 72.0817 10.264C72.3857 9.48 72.8177 8.792 73.3777 8.2C73.9377 7.592 74.6017 7.12 75.3697 6.784C76.1537 6.432 77.0097 6.256 77.9377 6.256C78.8817 6.256 79.7377 6.432 80.5057 6.784C81.2737 7.12 81.9377 7.592 82.4977 8.2C83.0737 8.792 83.5137 9.48 83.8177 10.264C84.1217 11.048 84.2737 11.88 84.2737 12.76C84.2737 13.624 84.1217 14.448 83.8177 15.232C83.5137 16.016 83.0817 16.712 82.5217 17.32C81.9617 17.912 81.2897 18.384 80.5057 18.736C79.7377 19.072 78.8817 19.24 77.9377 19.24ZM73.7857 12.784C73.7857 13.648 73.9697 14.432 74.3377 15.136C74.7217 15.84 75.2257 16.4 75.8497 16.816C76.4737 17.216 77.1697 17.416 77.9377 17.416C78.7057 17.416 79.4017 17.208 80.0257 16.792C80.6657 16.376 81.1697 15.816 81.5377 15.112C81.9217 14.392 82.1137 13.6 82.1137 12.736C82.1137 11.872 81.9217 11.088 81.5377 10.384C81.1697 9.68 80.6657 9.12 80.0257 8.704C79.4017 8.288 78.7057 8.08 77.9377 8.08C77.1697 8.08 76.4737 8.296 75.8497 8.728C75.2257 9.144 74.7217 9.704 74.3377 10.408C73.9697 11.112 73.7857 11.904 73.7857 12.784ZM90.011 19L85.091 6.472H87.299L91.235 16.984L95.171 6.472H97.235L92.315 19H90.011ZM104.471 19.24C103.527 19.24 102.663 19.072 101.879 18.736C101.111 18.384 100.439 17.912 99.8627 17.32C99.3027 16.712 98.8627 16.016 98.5427 15.232C98.2387 14.448 98.0867 13.616 98.0867 12.736C98.0867 11.552 98.3587 10.472 98.9027 9.496C99.4467 8.52 100.199 7.736 101.159 7.144C102.135 6.552 103.247 6.256 104.495 6.256C105.759 6.256 106.855 6.56 107.783 7.168C108.727 7.76 109.455 8.544 109.967 9.52C110.495 10.48 110.759 11.52 110.759 12.64C110.759 12.8 110.751 12.96 110.735 13.12C110.735 13.264 110.727 13.376 110.711 13.456H100.319C100.383 14.272 100.607 15 100.991 15.64C101.391 16.264 101.903 16.76 102.527 17.128C103.151 17.48 103.823 17.656 104.543 17.656C105.311 17.656 106.031 17.464 106.703 17.08C107.391 16.696 107.863 16.192 108.119 15.568L109.943 16.072C109.671 16.68 109.263 17.224 108.719 17.704C108.191 18.184 107.559 18.56 106.823 18.832C106.103 19.104 105.319 19.24 104.471 19.24ZM100.247 11.992H108.791C108.727 11.176 108.495 10.456 108.095 9.832C107.695 9.208 107.183 8.72 106.559 8.368C105.935 8.016 105.247 7.84 104.495 7.84C103.759 7.84 103.079 8.016 102.455 8.368C101.831 8.72 101.319 9.208 100.919 9.832C100.535 10.456 100.311 11.176 100.247 11.992ZM119.73 8.32C118.674 8.336 117.738 8.608 116.922 9.136C116.122 9.648 115.554 10.36 115.218 11.272V19H113.106V6.472H115.074V9.376C115.506 8.512 116.074 7.816 116.778 7.288C117.498 6.744 118.25 6.44 119.034 6.376C119.194 6.376 119.33 6.376 119.442 6.376C119.554 6.376 119.65 6.384 119.73 6.4V8.32ZM138.205 19H136.093V11.992C136.093 10.712 135.861 9.752 135.397 9.112C134.949 8.472 134.301 8.152 133.453 8.152C132.909 8.152 132.357 8.296 131.797 8.584C131.253 8.872 130.773 9.264 130.357 9.76C129.941 10.24 129.637 10.8 129.445 11.44V19H127.333V1.48H129.445V9.16C129.941 8.264 130.613 7.56 131.461 7.048C132.325 6.52 133.253 6.256 134.245 6.256C134.997 6.256 135.621 6.392 136.117 6.664C136.629 6.92 137.037 7.288 137.341 7.768C137.645 8.248 137.861 8.808 137.989 9.448C138.133 10.072 138.205 10.76 138.205 11.512V19ZM141.489 19V6.472H143.601V19H141.489ZM141.489 4.12V1.48H143.601V4.12H141.489ZM146.204 12.76C146.204 11.576 146.444 10.496 146.924 9.52C147.42 8.528 148.092 7.736 148.94 7.144C149.804 6.552 150.788 6.256 151.892 6.256C152.9 6.256 153.804 6.52 154.604 7.048C155.404 7.576 156.028 8.216 156.476 8.968V1.48H158.588V16.6C158.588 16.856 158.636 17.048 158.732 17.176C158.844 17.288 159.02 17.352 159.26 17.368V19C158.86 19.064 158.548 19.096 158.324 19.096C157.908 19.096 157.54 18.952 157.22 18.664C156.916 18.376 156.764 18.056 156.764 17.704V16.648C156.268 17.448 155.604 18.08 154.772 18.544C153.94 19.008 153.076 19.24 152.18 19.24C151.316 19.24 150.516 19.072 149.78 18.736C149.06 18.384 148.428 17.904 147.884 17.296C147.356 16.688 146.94 16 146.636 15.232C146.348 14.448 146.204 13.624 146.204 12.76ZM156.476 14.608V11.008C156.284 10.464 155.972 9.976 155.54 9.544C155.108 9.096 154.62 8.744 154.076 8.488C153.548 8.216 153.02 8.08 152.492 8.08C151.868 8.08 151.3 8.216 150.788 8.488C150.292 8.744 149.86 9.096 149.492 9.544C149.14 9.976 148.868 10.472 148.676 11.032C148.484 11.592 148.388 12.176 148.388 12.784C148.388 13.408 148.492 14 148.7 14.56C148.924 15.12 149.228 15.616 149.612 16.048C150.012 16.48 150.468 16.816 150.98 17.056C151.508 17.296 152.076 17.416 152.684 17.416C153.068 17.416 153.46 17.344 153.86 17.2C154.276 17.056 154.668 16.856 155.036 16.6C155.404 16.344 155.716 16.048 155.972 15.712C156.228 15.36 156.396 14.992 156.476 14.608ZM161.298 12.76C161.298 11.576 161.538 10.496 162.018 9.52C162.514 8.528 163.186 7.736 164.034 7.144C164.898 6.552 165.882 6.256 166.986 6.256C167.994 6.256 168.898 6.52 169.698 7.048C170.498 7.576 171.122 8.216 171.57 8.968V1.48H173.682V16.6C173.682 16.856 173.73 17.048 173.826 17.176C173.938 17.288 174.114 17.352 174.354 17.368V19C173.954 19.064 173.642 19.096 173.418 19.096C173.002 19.096 172.634 18.952 172.314 18.664C172.01 18.376 171.858 18.056 171.858 17.704V16.648C171.362 17.448 170.698 18.08 169.866 18.544C169.034 19.008 168.17 19.24 167.274 19.24C166.41 19.24 165.61 19.072 164.874 18.736C164.154 18.384 163.522 17.904 162.978 17.296C162.45 16.688 162.034 16 161.73 15.232C161.442 14.448 161.298 13.624 161.298 12.76ZM171.57 14.608V11.008C171.378 10.464 171.066 9.976 170.634 9.544C170.202 9.096 169.714 8.744 169.17 8.488C168.642 8.216 168.114 8.08 167.586 8.08C166.962 8.08 166.394 8.216 165.882 8.488C165.386 8.744 164.954 9.096 164.586 9.544C164.234 9.976 163.962 10.472 163.77 11.032C163.578 11.592 163.482 12.176 163.482 12.784C163.482 13.408 163.586 14 163.794 14.56C164.018 15.12 164.322 15.616 164.706 16.048C165.106 16.48 165.562 16.816 166.074 17.056C166.602 17.296 167.17 17.416 167.778 17.416C168.162 17.416 168.554 17.344 168.954 17.2C169.37 17.056 169.762 16.856 170.13 16.6C170.498 16.344 170.81 16.048 171.066 15.712C171.322 15.36 171.49 14.992 171.57 14.608ZM182.752 19.24C181.808 19.24 180.944 19.072 180.16 18.736C179.392 18.384 178.72 17.912 178.144 17.32C177.584 16.712 177.144 16.016 176.824 15.232C176.52 14.448 176.368 13.616 176.368 12.736C176.368 11.552 176.64 10.472 177.184 9.496C177.728 8.52 178.48 7.736 179.44 7.144C180.416 6.552 181.528 6.256 182.776 6.256C184.04 6.256 185.136 6.56 186.064 7.168C187.008 7.76 187.736 8.544 188.248 9.52C188.776 10.48 189.04 11.52 189.04 12.64C189.04 12.8 189.032 12.96 189.016 13.12C189.016 13.264 189.008 13.376 188.992 13.456H178.6C178.664 14.272 178.888 15 179.272 15.64C179.672 16.264 180.184 16.76 180.808 17.128C181.432 17.48 182.104 17.656 182.824 17.656C183.592 17.656 184.312 17.464 184.984 17.08C185.672 16.696 186.144 16.192 186.4 15.568L188.224 16.072C187.952 16.68 187.544 17.224 187 17.704C186.472 18.184 185.84 18.56 185.104 18.832C184.384 19.104 183.6 19.24 182.752 19.24ZM178.528 11.992H187.072C187.008 11.176 186.776 10.456 186.376 9.832C185.976 9.208 185.464 8.72 184.84 8.368C184.216 8.016 183.528 7.84 182.776 7.84C182.04 7.84 181.36 8.016 180.736 8.368C180.112 8.72 179.6 9.208 179.2 9.832C178.816 10.456 178.592 11.176 178.528 11.992ZM202.26 19H200.148V11.992C200.148 10.664 199.94 9.696 199.524 9.088C199.124 8.464 198.508 8.152 197.676 8.152C197.1 8.152 196.524 8.296 195.948 8.584C195.388 8.872 194.884 9.264 194.436 9.76C194.004 10.24 193.692 10.8 193.5 11.44V19H191.388V6.472H193.308V9.16C193.644 8.568 194.076 8.056 194.604 7.624C195.132 7.192 195.732 6.856 196.404 6.616C197.076 6.376 197.78 6.256 198.516 6.256C199.236 6.256 199.836 6.392 200.316 6.664C200.812 6.92 201.196 7.288 201.468 7.768C201.756 8.232 201.956 8.784 202.068 9.424C202.196 10.064 202.26 10.76 202.26 11.512V19ZM215.91 19.24C214.87 19.24 213.894 19.072 212.982 18.736C212.07 18.384 211.286 17.864 210.63 17.176L211.446 15.688C212.166 16.36 212.886 16.84 213.606 17.128C214.326 17.416 215.062 17.56 215.814 17.56C216.678 17.56 217.382 17.4 217.926 17.08C218.47 16.744 218.742 16.256 218.742 15.616C218.742 15.152 218.598 14.808 218.31 14.584C218.038 14.36 217.646 14.176 217.134 14.032C216.622 13.872 216.014 13.696 215.31 13.504C214.446 13.248 213.718 12.976 213.126 12.688C212.534 12.4 212.086 12.04 211.782 11.608C211.478 11.176 211.326 10.632 211.326 9.976C211.326 9.176 211.534 8.504 211.95 7.96C212.366 7.4 212.934 6.976 213.654 6.688C214.39 6.4 215.222 6.256 216.15 6.256C217.078 6.256 217.918 6.4 218.67 6.688C219.422 6.976 220.07 7.4 220.614 7.96L219.654 9.424C219.158 8.912 218.614 8.536 218.022 8.296C217.43 8.04 216.766 7.912 216.03 7.912C215.598 7.912 215.174 7.968 214.758 8.08C214.342 8.176 213.998 8.36 213.726 8.632C213.454 8.888 213.318 9.256 213.318 9.736C213.318 10.136 213.422 10.456 213.63 10.696C213.854 10.92 214.174 11.112 214.59 11.272C215.022 11.432 215.542 11.608 216.15 11.8C217.094 12.072 217.91 12.344 218.598 12.616C219.302 12.888 219.846 13.24 220.23 13.672C220.614 14.104 220.806 14.704 220.806 15.472C220.806 16.656 220.358 17.584 219.462 18.256C218.566 18.912 217.382 19.24 215.91 19.24ZM230.077 19.24C229.053 19.24 228.141 18.984 227.341 18.472C226.541 17.96 225.909 17.312 225.445 16.528V24.112H223.333V6.472H225.205V8.824C225.701 8.056 226.349 7.44 227.149 6.976C227.949 6.496 228.821 6.256 229.765 6.256C230.629 6.256 231.421 6.432 232.141 6.784C232.861 7.136 233.485 7.616 234.013 8.224C234.541 8.832 234.949 9.528 235.237 10.312C235.541 11.08 235.693 11.888 235.693 12.736C235.693 13.92 235.453 15.008 234.973 16C234.509 16.992 233.853 17.784 233.005 18.376C232.157 18.952 231.181 19.24 230.077 19.24ZM229.429 17.416C230.053 17.416 230.613 17.288 231.109 17.032C231.621 16.76 232.053 16.408 232.405 15.976C232.773 15.528 233.053 15.024 233.245 14.464C233.437 13.904 233.533 13.328 233.533 12.736C233.533 12.112 233.421 11.52 233.197 10.96C232.989 10.4 232.685 9.904 232.285 9.472C231.901 9.04 231.445 8.704 230.917 8.464C230.405 8.208 229.845 8.08 229.237 8.08C228.853 8.08 228.453 8.152 228.037 8.296C227.637 8.44 227.253 8.648 226.885 8.92C226.517 9.176 226.205 9.472 225.949 9.808C225.693 10.144 225.525 10.504 225.445 10.888V14.464C225.685 15.008 226.005 15.504 226.405 15.952C226.805 16.4 227.269 16.76 227.797 17.032C228.325 17.288 228.869 17.416 229.429 17.416ZM243.758 19.24C242.814 19.24 241.958 19.072 241.19 18.736C240.422 18.384 239.758 17.912 239.198 17.32C238.638 16.712 238.206 16.016 237.902 15.232C237.598 14.448 237.446 13.624 237.446 12.76C237.446 11.88 237.598 11.048 237.902 10.264C238.206 9.48 238.638 8.792 239.198 8.2C239.758 7.592 240.422 7.12 241.19 6.784C241.974 6.432 242.83 6.256 243.758 6.256C244.702 6.256 245.558 6.432 246.326 6.784C247.094 7.12 247.758 7.592 248.318 8.2C248.894 8.792 249.334 9.48 249.638 10.264C249.942 11.048 250.094 11.88 250.094 12.76C250.094 13.624 249.942 14.448 249.638 15.232C249.334 16.016 248.902 16.712 248.342 17.32C247.782 17.912 247.11 18.384 246.326 18.736C245.558 19.072 244.702 19.24 243.758 19.24ZM239.606 12.784C239.606 13.648 239.79 14.432 240.158 15.136C240.542 15.84 241.046 16.4 241.67 16.816C242.294 17.216 242.99 17.416 243.758 17.416C244.526 17.416 245.222 17.208 245.846 16.792C246.486 16.376 246.99 15.816 247.358 15.112C247.742 14.392 247.934 13.6 247.934 12.736C247.934 11.872 247.742 11.088 247.358 10.384C246.99 9.68 246.486 9.12 245.846 8.704C245.222 8.288 244.526 8.08 243.758 8.08C242.99 8.08 242.294 8.296 241.67 8.728C241.046 9.144 240.542 9.704 240.158 10.408C239.79 11.112 239.606 11.904 239.606 12.784ZM258.946 18.376C258.77 18.456 258.53 18.56 258.226 18.688C257.922 18.816 257.57 18.928 257.17 19.024C256.77 19.12 256.346 19.168 255.898 19.168C255.386 19.168 254.914 19.08 254.482 18.904C254.05 18.712 253.706 18.424 253.45 18.04C253.194 17.64 253.066 17.144 253.066 16.552V8.128H251.362V6.472H253.066V2.296H255.178V6.472H257.986V8.128H255.178V15.904C255.21 16.352 255.362 16.688 255.634 16.912C255.906 17.12 256.226 17.224 256.594 17.224C257.01 17.224 257.394 17.152 257.746 17.008C258.098 16.864 258.33 16.76 258.442 16.696L258.946 18.376ZM265.199 19.24C264.159 19.24 263.183 19.072 262.271 18.736C261.359 18.384 260.575 17.864 259.919 17.176L260.735 15.688C261.455 16.36 262.175 16.84 262.895 17.128C263.615 17.416 264.351 17.56 265.103 17.56C265.967 17.56 266.671 17.4 267.215 17.08C267.759 16.744 268.031 16.256 268.031 15.616C268.031 15.152 267.887 14.808 267.599 14.584C267.327 14.36 266.935 14.176 266.423 14.032C265.911 13.872 265.303 13.696 264.599 13.504C263.735 13.248 263.007 12.976 262.415 12.688C261.823 12.4 261.375 12.04 261.071 11.608C260.767 11.176 260.615 10.632 260.615 9.976C260.615 9.176 260.823 8.504 261.239 7.96C261.655 7.4 262.223 6.976 262.943 6.688C263.679 6.4 264.511 6.256 265.439 6.256C266.367 6.256 267.207 6.4 267.959 6.688C268.711 6.976 269.359 7.4 269.903 7.96L268.943 9.424C268.447 8.912 267.903 8.536 267.311 8.296C266.719 8.04 266.055 7.912 265.319 7.912C264.887 7.912 264.463 7.968 264.047 8.08C263.631 8.176 263.287 8.36 263.015 8.632C262.743 8.888 262.607 9.256 262.607 9.736C262.607 10.136 262.711 10.456 262.919 10.696C263.143 10.92 263.463 11.112 263.879 11.272C264.311 11.432 264.831 11.608 265.439 11.8C266.383 12.072 267.199 12.344 267.887 12.616C268.591 12.888 269.135 13.24 269.519 13.672C269.903 14.104 270.095 14.704 270.095 15.472C270.095 16.656 269.647 17.584 268.751 18.256C267.855 18.912 266.671 19.24 265.199 19.24ZM277.708 15.376C277.708 14.576 277.932 13.888 278.38 13.312C278.844 12.72 279.476 12.264 280.276 11.944C281.076 11.624 282.004 11.464 283.06 11.464C283.62 11.464 284.212 11.512 284.836 11.608C285.46 11.688 286.012 11.816 286.492 11.992V11.08C286.492 10.12 286.204 9.368 285.628 8.824C285.052 8.264 284.236 7.984 283.18 7.984C282.492 7.984 281.828 8.112 281.188 8.368C280.564 8.608 279.9 8.96 279.196 9.424L278.428 7.936C279.244 7.376 280.06 6.96 280.876 6.688C281.692 6.4 282.54 6.256 283.42 6.256C285.02 6.256 286.284 6.704 287.212 7.6C288.14 8.48 288.604 9.712 288.604 11.296V16.6C288.604 16.856 288.652 17.048 288.748 17.176C288.86 17.288 289.036 17.352 289.276 17.368V19C289.068 19.032 288.884 19.056 288.724 19.072C288.58 19.088 288.46 19.096 288.364 19.096C287.868 19.096 287.492 18.96 287.236 18.688C286.996 18.416 286.86 18.128 286.828 17.824L286.78 17.032C286.236 17.736 285.524 18.28 284.644 18.664C283.764 19.048 282.892 19.24 282.028 19.24C281.196 19.24 280.452 19.072 279.796 18.736C279.14 18.384 278.628 17.92 278.26 17.344C277.892 16.752 277.708 16.096 277.708 15.376ZM285.868 16.264C286.06 16.04 286.212 15.816 286.324 15.592C286.436 15.352 286.492 15.152 286.492 14.992V13.432C285.996 13.24 285.476 13.096 284.932 13C284.388 12.888 283.852 12.832 283.324 12.832C282.252 12.832 281.38 13.048 280.708 13.48C280.052 13.896 279.724 14.472 279.724 15.208C279.724 15.608 279.828 16 280.036 16.384C280.26 16.752 280.58 17.056 280.996 17.296C281.428 17.536 281.956 17.656 282.58 17.656C283.236 17.656 283.86 17.528 284.452 17.272C285.044 17 285.516 16.664 285.868 16.264ZM302.853 19H300.741V11.992C300.741 10.664 300.533 9.696 300.117 9.088C299.717 8.464 299.101 8.152 298.269 8.152C297.693 8.152 297.117 8.296 296.541 8.584C295.981 8.872 295.477 9.264 295.029 9.76C294.597 10.24 294.285 10.8 294.093 11.44V19H291.981V6.472H293.901V9.16C294.237 8.568 294.669 8.056 295.197 7.624C295.725 7.192 296.325 6.856 296.997 6.616C297.669 6.376 298.373 6.256 299.109 6.256C299.829 6.256 300.429 6.392 300.909 6.664C301.405 6.92 301.789 7.288 302.061 7.768C302.349 8.232 302.549 8.784 302.661 9.424C302.789 10.064 302.853 10.76 302.853 11.512V19ZM305.322 12.76C305.322 11.576 305.562 10.496 306.042 9.52C306.538 8.528 307.21 7.736 308.058 7.144C308.922 6.552 309.906 6.256 311.01 6.256C312.018 6.256 312.922 6.52 313.722 7.048C314.522 7.576 315.146 8.216 315.594 8.968V1.48H317.706V16.6C317.706 16.856 317.754 17.048 317.85 17.176C317.962 17.288 318.138 17.352 318.378 17.368V19C317.978 19.064 317.666 19.096 317.442 19.096C317.026 19.096 316.658 18.952 316.338 18.664C316.034 18.376 315.882 18.056 315.882 17.704V16.648C315.386 17.448 314.722 18.08 313.89 18.544C313.058 19.008 312.194 19.24 311.298 19.24C310.434 19.24 309.634 19.072 308.898 18.736C308.178 18.384 307.546 17.904 307.002 17.296C306.474 16.688 306.058 16 305.754 15.232C305.466 14.448 305.322 13.624 305.322 12.76ZM315.594 14.608V11.008C315.402 10.464 315.09 9.976 314.658 9.544C314.226 9.096 313.738 8.744 313.194 8.488C312.666 8.216 312.138 8.08 311.61 8.08C310.986 8.08 310.418 8.216 309.906 8.488C309.41 8.744 308.978 9.096 308.61 9.544C308.258 9.976 307.986 10.472 307.794 11.032C307.602 11.592 307.506 12.176 307.506 12.784C307.506 13.408 307.61 14 307.818 14.56C308.042 15.12 308.346 15.616 308.73 16.048C309.13 16.48 309.586 16.816 310.098 17.056C310.626 17.296 311.194 17.416 311.802 17.416C312.186 17.416 312.578 17.344 312.978 17.2C313.394 17.056 313.786 16.856 314.154 16.6C314.522 16.344 314.834 16.048 315.09 15.712C315.346 15.36 315.514 14.992 315.594 14.608ZM327.35 1.48H329.462V15.76C329.462 16.448 329.558 16.872 329.75 17.032C329.942 17.192 330.174 17.272 330.446 17.272C330.782 17.272 331.102 17.24 331.406 17.176C331.71 17.096 331.966 17.016 332.174 16.936L332.51 18.664C332.158 18.808 331.742 18.928 331.262 19.024C330.782 19.12 330.358 19.168 329.99 19.168C329.174 19.168 328.526 18.936 328.046 18.472C327.582 18.008 327.35 17.36 327.35 16.528V1.48ZM339.641 19.24C338.697 19.24 337.841 19.072 337.073 18.736C336.305 18.384 335.641 17.912 335.081 17.32C334.521 16.712 334.089 16.016 333.785 15.232C333.481 14.448 333.329 13.624 333.329 12.76C333.329 11.88 333.481 11.048 333.785 10.264C334.089 9.48 334.521 8.792 335.081 8.2C335.641 7.592 336.305 7.12 337.073 6.784C337.857 6.432 338.713 6.256 339.641 6.256C340.585 6.256 341.441 6.432 342.209 6.784C342.977 7.12 343.641 7.592 344.201 8.2C344.777 8.792 345.217 9.48 345.521 10.264C345.825 11.048 345.977 11.88 345.977 12.76C345.977 13.624 345.825 14.448 345.521 15.232C345.217 16.016 344.785 16.712 344.225 17.32C343.665 17.912 342.993 18.384 342.209 18.736C341.441 19.072 340.585 19.24 339.641 19.24ZM335.489 12.784C335.489 13.648 335.673 14.432 336.041 15.136C336.425 15.84 336.929 16.4 337.553 16.816C338.177 17.216 338.873 17.416 339.641 17.416C340.409 17.416 341.105 17.208 341.729 16.792C342.369 16.376 342.873 15.816 343.241 15.112C343.625 14.392 343.817 13.6 343.817 12.736C343.817 11.872 343.625 11.088 343.241 10.384C342.873 9.68 342.369 9.12 341.729 8.704C341.105 8.288 340.409 8.08 339.641 8.08C338.873 8.08 338.177 8.296 337.553 8.728C336.929 9.144 336.425 9.704 336.041 10.408C335.673 11.112 335.489 11.904 335.489 12.784ZM354.08 19.24C353.136 19.24 352.272 19.072 351.488 18.736C350.72 18.384 350.048 17.904 349.472 17.296C348.912 16.688 348.472 15.992 348.152 15.208C347.848 14.424 347.696 13.592 347.696 12.712C347.696 11.528 347.96 10.448 348.488 9.472C349.016 8.496 349.76 7.72 350.72 7.144C351.68 6.552 352.792 6.256 354.056 6.256C355.288 6.256 356.36 6.536 357.272 7.096C358.2 7.64 358.888 8.376 359.336 9.304L357.272 9.952C356.952 9.36 356.504 8.904 355.928 8.584C355.352 8.248 354.712 8.08 354.008 8.08C353.24 8.08 352.536 8.28 351.896 8.68C351.272 9.08 350.776 9.632 350.408 10.336C350.04 11.024 349.856 11.816 349.856 12.712C349.856 13.592 350.04 14.392 350.408 15.112C350.792 15.816 351.296 16.376 351.92 16.792C352.56 17.208 353.264 17.416 354.032 17.416C354.528 17.416 355 17.328 355.448 17.152C355.912 16.976 356.312 16.744 356.648 16.456C357 16.152 357.24 15.824 357.368 15.472L359.432 16.096C359.176 16.704 358.784 17.248 358.256 17.728C357.744 18.192 357.128 18.56 356.408 18.832C355.704 19.104 354.928 19.24 354.08 19.24ZM360.841 15.376C360.841 14.576 361.065 13.888 361.513 13.312C361.977 12.72 362.609 12.264 363.409 11.944C364.209 11.624 365.137 11.464 366.193 11.464C366.753 11.464 367.345 11.512 367.969 11.608C368.593 11.688 369.145 11.816 369.625 11.992V11.08C369.625 10.12 369.337 9.368 368.761 8.824C368.185 8.264 367.369 7.984 366.313 7.984C365.625 7.984 364.961 8.112 364.321 8.368C363.697 8.608 363.033 8.96 362.329 9.424L361.561 7.936C362.377 7.376 363.193 6.96 364.009 6.688C364.825 6.4 365.673 6.256 366.553 6.256C368.153 6.256 369.417 6.704 370.345 7.6C371.273 8.48 371.737 9.712 371.737 11.296V16.6C371.737 16.856 371.785 17.048 371.881 17.176C371.993 17.288 372.169 17.352 372.409 17.368V19C372.201 19.032 372.017 19.056 371.857 19.072C371.713 19.088 371.593 19.096 371.497 19.096C371.001 19.096 370.625 18.96 370.369 18.688C370.129 18.416 369.993 18.128 369.961 17.824L369.913 17.032C369.369 17.736 368.657 18.28 367.777 18.664C366.897 19.048 366.025 19.24 365.161 19.24C364.329 19.24 363.585 19.072 362.929 18.736C362.273 18.384 361.761 17.92 361.393 17.344C361.025 16.752 360.841 16.096 360.841 15.376ZM369.001 16.264C369.193 16.04 369.345 15.816 369.457 15.592C369.569 15.352 369.625 15.152 369.625 14.992V13.432C369.129 13.24 368.609 13.096 368.065 13C367.521 12.888 366.985 12.832 366.457 12.832C365.385 12.832 364.513 13.048 363.841 13.48C363.185 13.896 362.857 14.472 362.857 15.208C362.857 15.608 362.961 16 363.169 16.384C363.393 16.752 363.713 17.056 364.129 17.296C364.561 17.536 365.089 17.656 365.713 17.656C366.369 17.656 366.993 17.528 367.585 17.272C368.177 17 368.649 16.664 369.001 16.264ZM381.5 18.376C381.324 18.456 381.084 18.56 380.78 18.688C380.476 18.816 380.124 18.928 379.724 19.024C379.324 19.12 378.9 19.168 378.452 19.168C377.94 19.168 377.468 19.08 377.036 18.904C376.604 18.712 376.26 18.424 376.004 18.04C375.748 17.64 375.62 17.144 375.62 16.552V8.128H373.916V6.472H375.62V2.296H377.732V6.472H380.54V8.128H377.732V15.904C377.764 16.352 377.916 16.688 378.188 16.912C378.46 17.12 378.78 17.224 379.148 17.224C379.564 17.224 379.948 17.152 380.3 17.008C380.652 16.864 380.884 16.76 380.996 16.696L381.5 18.376ZM383.458 19V6.472H385.57V19H383.458ZM383.458 4.12V1.48H385.57V4.12H383.458ZM394.461 19.24C393.517 19.24 392.661 19.072 391.893 18.736C391.125 18.384 390.461 17.912 389.901 17.32C389.341 16.712 388.909 16.016 388.605 15.232C388.301 14.448 388.149 13.624 388.149 12.76C388.149 11.88 388.301 11.048 388.605 10.264C388.909 9.48 389.341 8.792 389.901 8.2C390.461 7.592 391.125 7.12 391.893 6.784C392.677 6.432 393.533 6.256 394.461 6.256C395.405 6.256 396.261 6.432 397.029 6.784C397.797 7.12 398.461 7.592 399.021 8.2C399.597 8.792 400.037 9.48 400.341 10.264C400.645 11.048 400.797 11.88 400.797 12.76C400.797 13.624 400.645 14.448 400.341 15.232C400.037 16.016 399.605 16.712 399.045 17.32C398.485 17.912 397.813 18.384 397.029 18.736C396.261 19.072 395.405 19.24 394.461 19.24ZM390.309 12.784C390.309 13.648 390.493 14.432 390.861 15.136C391.245 15.84 391.749 16.4 392.373 16.816C392.997 17.216 393.693 17.416 394.461 17.416C395.229 17.416 395.925 17.208 396.549 16.792C397.189 16.376 397.693 15.816 398.061 15.112C398.445 14.392 398.637 13.6 398.637 12.736C398.637 11.872 398.445 11.088 398.061 10.384C397.693 9.68 397.189 9.12 396.549 8.704C395.925 8.288 395.229 8.08 394.461 8.08C393.693 8.08 392.997 8.296 392.373 8.728C391.749 9.144 391.245 9.704 390.861 10.408C390.493 11.112 390.309 11.904 390.309 12.784ZM414.228 19H412.116V11.992C412.116 10.664 411.908 9.696 411.492 9.088C411.092 8.464 410.476 8.152 409.644 8.152C409.068 8.152 408.492 8.296 407.916 8.584C407.356 8.872 406.852 9.264 406.404 9.76C405.972 10.24 405.66 10.8 405.468 11.44V19H403.356V6.472H405.276V9.16C405.612 8.568 406.044 8.056 406.572 7.624C407.1 7.192 407.7 6.856 408.372 6.616C409.044 6.376 409.748 6.256 410.484 6.256C411.204 6.256 411.804 6.392 412.284 6.664C412.78 6.92 413.164 7.288 413.436 7.768C413.724 8.232 413.924 8.784 414.036 9.424C414.164 10.064 414.228 10.76 414.228 11.512V19ZM421.809 19.24C420.769 19.24 419.793 19.072 418.881 18.736C417.969 18.384 417.185 17.864 416.529 17.176L417.345 15.688C418.065 16.36 418.785 16.84 419.505 17.128C420.225 17.416 420.961 17.56 421.713 17.56C422.577 17.56 423.281 17.4 423.825 17.08C424.369 16.744 424.641 16.256 424.641 15.616C424.641 15.152 424.497 14.808 424.209 14.584C423.937 14.36 423.545 14.176 423.033 14.032C422.521 13.872 421.913 13.696 421.209 13.504C420.345 13.248 419.617 12.976 419.025 12.688C418.433 12.4 417.985 12.04 417.681 11.608C417.377 11.176 417.225 10.632 417.225 9.976C417.225 9.176 417.433 8.504 417.849 7.96C418.265 7.4 418.833 6.976 419.553 6.688C420.289 6.4 421.121 6.256 422.049 6.256C422.977 6.256 423.817 6.4 424.569 6.688C425.321 6.976 425.969 7.4 426.513 7.96L425.553 9.424C425.057 8.912 424.513 8.536 423.921 8.296C423.329 8.04 422.665 7.912 421.929 7.912C421.497 7.912 421.073 7.968 420.657 8.08C420.241 8.176 419.897 8.36 419.625 8.632C419.353 8.888 419.217 9.256 419.217 9.736C419.217 10.136 419.321 10.456 419.529 10.696C419.753 10.92 420.073 11.112 420.489 11.272C420.921 11.432 421.441 11.608 422.049 11.8C422.993 12.072 423.809 12.344 424.497 12.616C425.201 12.888 425.745 13.24 426.129 13.672C426.513 14.104 426.705 14.704 426.705 15.472C426.705 16.656 426.257 17.584 425.361 18.256C424.465 18.912 423.281 19.24 421.809 19.24ZM441.782 18.376C441.606 18.456 441.366 18.56 441.062 18.688C440.758 18.816 440.406 18.928 440.006 19.024C439.606 19.12 439.182 19.168 438.734 19.168C438.222 19.168 437.75 19.08 437.318 18.904C436.886 18.712 436.542 18.424 436.286 18.04C436.03 17.64 435.902 17.144 435.902 16.552V8.128H434.198V6.472H435.902V2.296H438.014V6.472H440.822V8.128H438.014V15.904C438.046 16.352 438.198 16.688 438.47 16.912C438.742 17.12 439.062 17.224 439.43 17.224C439.846 17.224 440.23 17.152 440.582 17.008C440.934 16.864 441.166 16.76 441.278 16.696L441.782 18.376ZM454.611 19H452.499V11.992C452.499 10.712 452.267 9.752 451.803 9.112C451.355 8.472 450.707 8.152 449.859 8.152C449.315 8.152 448.763 8.296 448.203 8.584C447.659 8.872 447.179 9.264 446.763 9.76C446.347 10.24 446.043 10.8 445.851 11.44V19H443.739V1.48H445.851V9.16C446.347 8.264 447.019 7.56 447.867 7.048C448.731 6.52 449.659 6.256 450.651 6.256C451.403 6.256 452.027 6.392 452.523 6.664C453.035 6.92 453.443 7.288 453.747 7.768C454.051 8.248 454.267 8.808 454.395 9.448C454.539 10.072 454.611 10.76 454.611 11.512V19ZM456.911 15.376C456.911 14.576 457.135 13.888 457.583 13.312C458.047 12.72 458.679 12.264 459.479 11.944C460.279 11.624 461.207 11.464 462.263 11.464C462.823 11.464 463.415 11.512 464.039 11.608C464.663 11.688 465.215 11.816 465.695 11.992V11.08C465.695 10.12 465.407 9.368 464.831 8.824C464.255 8.264 463.439 7.984 462.383 7.984C461.695 7.984 461.031 8.112 460.391 8.368C459.767 8.608 459.103 8.96 458.399 9.424L457.631 7.936C458.447 7.376 459.263 6.96 460.079 6.688C460.895 6.4 461.743 6.256 462.623 6.256C464.223 6.256 465.487 6.704 466.415 7.6C467.343 8.48 467.807 9.712 467.807 11.296V16.6C467.807 16.856 467.855 17.048 467.951 17.176C468.063 17.288 468.239 17.352 468.479 17.368V19C468.271 19.032 468.087 19.056 467.927 19.072C467.783 19.088 467.663 19.096 467.567 19.096C467.071 19.096 466.695 18.96 466.439 18.688C466.199 18.416 466.063 18.128 466.031 17.824L465.983 17.032C465.439 17.736 464.727 18.28 463.847 18.664C462.967 19.048 462.095 19.24 461.231 19.24C460.399 19.24 459.655 19.072 458.999 18.736C458.343 18.384 457.831 17.92 457.463 17.344C457.095 16.752 456.911 16.096 456.911 15.376ZM465.071 16.264C465.263 16.04 465.415 15.816 465.527 15.592C465.639 15.352 465.695 15.152 465.695 14.992V13.432C465.199 13.24 464.679 13.096 464.135 13C463.591 12.888 463.055 12.832 462.527 12.832C461.455 12.832 460.583 13.048 459.911 13.48C459.255 13.896 458.927 14.472 458.927 15.208C458.927 15.608 459.031 16 459.239 16.384C459.463 16.752 459.783 17.056 460.199 17.296C460.631 17.536 461.159 17.656 461.783 17.656C462.439 17.656 463.063 17.528 463.655 17.272C464.247 17 464.719 16.664 465.071 16.264ZM477.571 18.376C477.395 18.456 477.155 18.56 476.851 18.688C476.547 18.816 476.195 18.928 475.795 19.024C475.395 19.12 474.971 19.168 474.523 19.168C474.011 19.168 473.539 19.08 473.107 18.904C472.675 18.712 472.331 18.424 472.075 18.04C471.819 17.64 471.691 17.144 471.691 16.552V8.128H469.987V6.472H471.691V2.296H473.803V6.472H476.611V8.128H473.803V15.904C473.835 16.352 473.987 16.688 474.259 16.912C474.531 17.12 474.851 17.224 475.219 17.224C475.635 17.224 476.019 17.152 476.371 17.008C476.723 16.864 476.955 16.76 477.067 16.696L477.571 18.376ZM486.271 8.128H484.567V6.472H486.271V6.208C486.271 5.584 486.367 4.984 486.559 4.408C486.751 3.816 487.039 3.28 487.423 2.8C487.807 2.32 488.287 1.944 488.863 1.672C489.439 1.384 490.119 1.24 490.903 1.24C491.495 1.24 492.039 1.304 492.535 1.432C493.031 1.56 493.471 1.72 493.855 1.912C494.255 2.104 494.583 2.296 494.839 2.488L493.927 4.048C493.623 3.776 493.207 3.544 492.679 3.352C492.167 3.16 491.615 3.064 491.023 3.064C490.415 3.064 489.911 3.216 489.511 3.52C489.127 3.824 488.839 4.216 488.647 4.696C488.471 5.16 488.383 5.64 488.383 6.136V6.472H494.791V19H492.679V8.128H488.383V19H486.271V8.128ZM504.688 18.376C504.512 18.456 504.272 18.56 503.968 18.688C503.664 18.816 503.312 18.928 502.912 19.024C502.512 19.12 502.088 19.168 501.64 19.168C501.128 19.168 500.656 19.08 500.224 18.904C499.792 18.712 499.448 18.424 499.192 18.04C498.936 17.64 498.808 17.144 498.808 16.552V8.128H497.104V6.472H498.808V2.296H500.92V6.472H503.728V8.128H500.92V15.904C500.952 16.352 501.104 16.688 501.376 16.912C501.648 17.12 501.968 17.224 502.336 17.224C502.752 17.224 503.136 17.152 503.488 17.008C503.84 16.864 504.072 16.76 504.184 16.696L504.688 18.376ZM512.635 22.408C512.843 22.424 513.051 22.44 513.259 22.456C513.467 22.488 513.627 22.504 513.739 22.504C513.995 22.504 514.219 22.416 514.411 22.24C514.603 22.064 514.811 21.72 515.035 21.208C515.275 20.712 515.579 19.976 515.947 19L510.643 6.472H512.875L517.099 16.864L520.915 6.472H523.003L516.907 22.288C516.763 22.656 516.547 23 516.259 23.32C515.987 23.656 515.635 23.92 515.203 24.112C514.771 24.304 514.251 24.4 513.643 24.4C513.499 24.4 513.347 24.392 513.187 24.376C513.043 24.36 512.859 24.328 512.635 24.28V22.408ZM530.164 19.24C529.22 19.24 528.364 19.072 527.596 18.736C526.828 18.384 526.164 17.912 525.604 17.32C525.044 16.712 524.612 16.016 524.308 15.232C524.004 14.448 523.852 13.624 523.852 12.76C523.852 11.88 524.004 11.048 524.308 10.264C524.612 9.48 525.044 8.792 525.604 8.2C526.164 7.592 526.828 7.12 527.596 6.784C528.38 6.432 529.236 6.256 530.164 6.256C531.108 6.256 531.964 6.432 532.732 6.784C533.5 7.12 534.164 7.592 534.724 8.2C535.3 8.792 535.74 9.48 536.044 10.264C536.348 11.048 536.5 11.88 536.5 12.76C536.5 13.624 536.348 14.448 536.044 15.232C535.74 16.016 535.308 16.712 534.748 17.32C534.188 17.912 533.516 18.384 532.732 18.736C531.964 19.072 531.108 19.24 530.164 19.24ZM526.012 12.784C526.012 13.648 526.196 14.432 526.564 15.136C526.948 15.84 527.452 16.4 528.076 16.816C528.7 17.216 529.396 17.416 530.164 17.416C530.932 17.416 531.628 17.208 532.252 16.792C532.892 16.376 533.396 15.816 533.764 15.112C534.148 14.392 534.34 13.6 534.34 12.736C534.34 11.872 534.148 11.088 533.764 10.384C533.396 9.68 532.892 9.12 532.252 8.704C531.628 8.288 530.932 8.08 530.164 8.08C529.396 8.08 528.7 8.296 528.076 8.728C527.452 9.144 526.948 9.704 526.564 10.408C526.196 11.112 526.012 11.904 526.012 12.784ZM538.939 13.984V6.472H541.051V13.576C541.051 14.856 541.275 15.816 541.723 16.456C542.171 17.096 542.835 17.416 543.715 17.416C544.291 17.416 544.843 17.296 545.371 17.056C545.915 16.8 546.403 16.44 546.835 15.976C547.267 15.512 547.603 14.96 547.843 14.32V6.472H549.955V16.6C549.955 16.856 550.003 17.048 550.099 17.176C550.211 17.288 550.387 17.352 550.627 17.368V19C550.387 19.032 550.195 19.048 550.051 19.048C549.923 19.064 549.795 19.072 549.667 19.072C549.267 19.072 548.923 18.952 548.635 18.712C548.347 18.456 548.195 18.144 548.179 17.776L548.131 16.312C547.587 17.24 546.851 17.96 545.923 18.472C545.011 18.984 544.011 19.24 542.923 19.24C541.611 19.24 540.619 18.8 539.947 17.92C539.275 17.024 538.939 15.712 538.939 13.984ZM560.098 8.32C559.042 8.336 558.106 8.608 557.29 9.136C556.49 9.648 555.922 10.36 555.586 11.272V19H553.474V6.472H555.442V9.376C555.874 8.512 556.442 7.816 557.146 7.288C557.866 6.744 558.618 6.44 559.402 6.376C559.562 6.376 559.698 6.376 559.81 6.376C559.922 6.376 560.018 6.384 560.098 6.4V8.32ZM570.301 18.928L565.981 6.112L570.037 5.752L572.437 6.952L573.157 9.256L574.285 5.608L578.101 5.272L580.501 6.472L576.061 19.84L572.701 20.128L570.301 18.928ZM574.477 5.848L572.149 13.384L569.845 6.016L566.317 6.328L570.445 18.688L573.493 18.424L577.765 5.56L574.477 5.848ZM581.775 18.928V5.728L583.407 5.608L581.727 4.768V0.688L585.735 0.352L588.135 1.552V5.632L586.431 5.776L588.063 6.592V19.768L584.175 20.104L581.775 18.928ZM581.967 0.904V4.504L585.495 4.216V0.615999L581.967 0.904ZM582.015 5.944V18.664L585.423 18.376V5.656L582.015 5.944ZM590.468 19.216V0.975999L594.38 0.639999L596.78 1.84V5.176C597.148 5.128 597.5 5.104 597.836 5.104C598.972 5.104 600.012 5.392 600.956 5.968C601.916 6.528 602.684 7.384 603.26 8.536C603.852 9.672 604.148 11.112 604.148 12.856C604.148 15.16 603.692 16.928 602.78 18.16C601.884 19.376 600.692 20.048 599.204 20.176C599.156 20.176 599.1 20.176 599.036 20.176C598.988 20.192 598.932 20.2 598.868 20.2C598.356 20.2 597.844 20.112 597.332 19.936C596.836 19.776 596.444 19.6 596.156 19.408L595.676 20.176L592.868 20.416L590.468 19.216ZM593.924 17.584C594.148 17.808 594.46 18.064 594.86 18.352C595.276 18.64 595.804 18.784 596.444 18.784C596.492 18.784 596.54 18.784 596.588 18.784C596.652 18.768 596.716 18.76 596.78 18.76C598.22 18.632 599.364 17.976 600.212 16.792C601.076 15.592 601.508 13.88 601.508 11.656C601.508 9.592 601.132 8.032 600.38 6.976C599.644 5.92 598.588 5.392 597.212 5.392C597.148 5.392 597.068 5.392 596.972 5.392C596.892 5.392 596.812 5.4 596.732 5.416C595.996 5.48 595.428 5.712 595.028 6.112C594.628 6.512 594.356 6.888 594.212 7.24L594.14 7.216V0.904L590.708 1.192V18.976L593.156 18.76L593.924 17.584ZM595.844 15.736C595.348 15.736 594.972 15.592 594.716 15.304C594.476 15.016 594.284 14.744 594.14 14.488V11.224C594.14 10.52 594.316 9.944 594.668 9.496C595.036 9.048 595.468 8.8 595.964 8.752H596.156C596.828 8.752 597.3 9.032 597.572 9.592C597.844 10.136 597.98 10.928 597.98 11.968C597.98 13.232 597.788 14.168 597.404 14.776C597.036 15.368 596.572 15.688 596.012 15.736H595.844ZM596.78 15.16C597.084 14.92 597.316 14.536 597.476 14.008C597.652 13.48 597.74 12.8 597.74 11.968C597.74 11.696 597.732 11.424 597.716 11.152C597.7 10.88 597.668 10.664 597.62 10.504C597.3 10.6 597.076 10.808 596.948 11.128C596.836 11.448 596.78 11.88 596.78 12.424V15.16ZM618.995 15.784C618.563 17.128 617.923 18.216 617.075 19.048C616.243 19.88 615.107 20.36 613.667 20.488C613.491 20.504 613.315 20.512 613.139 20.512C612.979 20.528 612.811 20.536 612.635 20.536C611.243 20.536 609.987 20.248 608.867 19.672C607.763 19.112 606.883 18.264 606.227 17.128C605.571 15.992 605.243 14.584 605.243 12.904C605.243 11.432 605.491 10.16 605.987 9.088C606.499 8.016 607.187 7.176 608.051 6.568C608.931 5.944 609.931 5.584 611.051 5.488C611.163 5.472 611.275 5.464 611.387 5.464C611.515 5.464 611.635 5.464 611.747 5.464C612.643 5.464 613.523 5.624 614.387 5.944C615.267 6.248 616.059 6.728 616.763 7.384C617.483 8.04 618.051 8.888 618.467 9.928C618.899 10.952 619.115 12.184 619.115 13.624C619.115 13.752 619.115 13.888 619.115 14.032C619.115 14.16 619.107 14.288 619.091 14.416L616.571 14.632L618.995 15.784ZM613.331 13.936C613.187 14.48 612.923 14.928 612.539 15.28C612.155 15.632 611.659 15.84 611.051 15.904H610.859C610.315 15.904 609.867 15.704 609.515 15.304C609.163 14.904 608.987 14.352 608.987 13.648L616.451 13C616.467 12.84 616.475 12.688 616.475 12.544C616.475 12.384 616.475 12.232 616.475 12.088C616.475 10.072 616.043 8.504 615.179 7.384C614.315 6.264 613.123 5.704 611.603 5.704C611.523 5.704 611.435 5.704 611.339 5.704C611.259 5.704 611.171 5.712 611.075 5.728C610.003 5.808 609.043 6.152 608.195 6.76C607.347 7.352 606.683 8.168 606.203 9.208C605.723 10.248 605.483 11.48 605.483 12.904C605.483 14.968 605.947 16.512 606.875 17.536C607.803 18.56 609.035 19.072 610.571 19.072C610.683 19.072 610.795 19.072 610.907 19.072C611.019 19.072 611.131 19.064 611.243 19.048C612.619 18.936 613.707 18.488 614.507 17.704C615.323 16.92 615.907 15.944 616.259 14.776L613.331 13.936ZM609.107 10.96C609.107 10.432 609.291 9.976 609.659 9.592C610.027 9.208 610.499 8.992 611.075 8.944H611.291C611.771 8.944 612.163 9.088 612.467 9.376C612.787 9.648 612.947 10.064 612.947 10.624L609.107 10.96ZM611.051 15.136C611.051 15.216 611.083 15.296 611.147 15.376C611.227 15.456 611.307 15.536 611.387 15.616C611.675 15.536 611.899 15.44 612.059 15.328C612.219 15.216 612.355 15.104 612.467 14.992L611.051 15.136ZM639.835 19C639.323 19.432 638.747 19.784 638.107 20.056C637.467 20.344 636.819 20.512 636.163 20.56C635.987 20.576 635.811 20.584 635.635 20.584C635.475 20.6 635.307 20.608 635.131 20.608C633.675 20.608 632.403 20.336 631.315 19.792C630.227 19.248 629.387 18.472 628.795 17.464C628.203 16.456 627.907 15.248 627.907 13.84C627.907 12.832 628.115 11.92 628.531 11.104C628.963 10.272 629.555 9.512 630.307 8.824C629.827 8.216 629.475 7.632 629.251 7.072C629.027 6.512 628.915 5.84 628.915 5.056C628.915 4.176 629.099 3.376 629.467 2.656C629.851 1.936 630.363 1.352 631.003 0.904C631.659 0.455999 632.395 0.191998 633.211 0.111999C633.339 0.0959988 633.451 0.0879989 633.547 0.0879989C633.659 0.0879989 633.771 0.0879989 633.883 0.0879989C634.955 0.0879989 635.955 0.311999 636.883 0.759999C637.811 1.208 638.563 1.84 639.139 2.656C639.715 3.456 640.003 4.4 640.003 5.488C640.003 6.288 639.771 7.128 639.307 8.008L640.723 7.888L643.123 9.088C643.123 10.256 643.051 11.32 642.907 12.28C642.763 13.224 642.555 14.096 642.283 14.896L646.051 19.216L641.131 19.624L639.835 19ZM639.619 13.768C639.891 12.968 640.099 12.104 640.243 11.176C640.403 10.232 640.483 9.224 640.483 8.152L637.267 8.44C637.267 8.872 637.251 9.288 637.219 9.688C637.187 10.072 637.139 10.448 637.075 10.816L635.275 8.752C635.931 8.032 636.443 7.28 636.811 6.496C637.179 5.712 637.363 4.976 637.363 4.288C637.363 3.072 637.035 2.112 636.379 1.408C635.723 0.687999 634.827 0.327999 633.691 0.327999C633.627 0.327999 633.555 0.327999 633.475 0.327999C633.395 0.327999 633.315 0.335999 633.235 0.352C632.467 0.415999 631.771 0.663999 631.147 1.096C630.539 1.528 630.051 2.088 629.683 2.776C629.331 3.448 629.155 4.208 629.155 5.056C629.155 5.84 629.275 6.52 629.515 7.096C629.755 7.656 630.131 8.248 630.643 8.872C629.859 9.544 629.243 10.288 628.795 11.104C628.363 11.92 628.147 12.832 628.147 13.84C628.147 15.424 628.555 16.704 629.371 17.68C630.187 18.656 631.419 19.144 633.067 19.144C633.195 19.144 633.315 19.144 633.427 19.144C633.555 19.144 633.675 19.136 633.787 19.12C635.323 18.992 636.659 18.304 637.795 17.056L638.803 18.184L643.123 17.8L639.619 13.768ZM632.467 4.576C632.467 4.272 632.555 4.016 632.731 3.808C632.907 3.6 633.147 3.48 633.451 3.448H633.547C633.835 3.448 634.059 3.536 634.219 3.712C634.379 3.888 634.459 4.128 634.459 4.432C634.459 4.704 634.355 5.032 634.147 5.416C633.955 5.784 633.699 6.168 633.379 6.568C633.139 6.248 632.931 5.928 632.755 5.608C632.595 5.272 632.499 4.968 632.467 4.696V4.576ZM635.635 14.584C635.379 14.904 635.091 15.168 634.771 15.376C634.451 15.568 634.123 15.68 633.787 15.712C633.739 15.712 633.683 15.72 633.619 15.736C633.571 15.736 633.523 15.736 633.475 15.736C632.835 15.736 632.339 15.536 631.987 15.136C631.651 14.736 631.483 14.208 631.483 13.552C631.483 12.576 631.843 11.752 632.563 11.08L635.635 14.584ZM0.194406 59.216V40.976L4.10641 40.64L6.50641 41.84V45.176C6.87441 45.128 7.22641 45.104 7.56241 45.104C8.69841 45.104 9.73841 45.392 10.6824 45.968C11.6424 46.528 12.4104 47.384 12.9864 48.536C13.5784 49.672 13.8744 51.112 13.8744 52.856C13.8744 55.16 13.4184 56.928 12.5064 58.16C11.6104 59.376 10.4184 60.048 8.93041 60.176C8.88241 60.176 8.82641 60.176 8.76241 60.176C8.71441 60.192 8.65841 60.2 8.59441 60.2C8.08241 60.2 7.57041 60.112 7.05841 59.936C6.56241 59.776 6.17041 59.6 5.88241 59.408L5.40241 60.176L2.59441 60.416L0.194406 59.216ZM3.65041 57.584C3.87441 57.808 4.18641 58.064 4.58641 58.352C5.00241 58.64 5.53041 58.784 6.17041 58.784C6.21841 58.784 6.26641 58.784 6.31441 58.784C6.37841 58.768 6.44241 58.76 6.50641 58.76C7.94641 58.632 9.09041 57.976 9.93841 56.792C10.8024 55.592 11.2344 53.88 11.2344 51.656C11.2344 49.592 10.8584 48.032 10.1064 46.976C9.37041 45.92 8.31441 45.392 6.93841 45.392C6.87441 45.392 6.79441 45.392 6.69841 45.392C6.61841 45.392 6.53841 45.4 6.45841 45.416C5.72241 45.48 5.15441 45.712 4.75441 46.112C4.35441 46.512 4.08241 46.888 3.93841 47.24L3.86641 47.216V40.904L0.434406 41.192V58.976L2.88241 58.76L3.65041 57.584ZM5.57041 55.736C5.07441 55.736 4.69841 55.592 4.44241 55.304C4.20241 55.016 4.01041 54.744 3.86641 54.488V51.224C3.86641 50.52 4.04241 49.944 4.39441 49.496C4.76241 49.048 5.19441 48.8 5.69041 48.752H5.88241C6.55441 48.752 7.02641 49.032 7.29841 49.592C7.57041 50.136 7.70641 50.928 7.70641 51.968C7.70641 53.232 7.51441 54.168 7.13041 54.776C6.76241 55.368 6.29841 55.688 5.73841 55.736H5.57041ZM6.50641 55.16C6.81041 54.92 7.04241 54.536 7.20241 54.008C7.37841 53.48 7.46641 52.8 7.46641 51.968C7.46641 51.696 7.45841 51.424 7.44241 51.152C7.42641 50.88 7.39441 50.664 7.34641 50.504C7.02641 50.6 6.80241 50.808 6.67441 51.128C6.56241 51.448 6.50641 51.88 6.50641 52.424V55.16ZM23.778 59.672C23.602 59.832 23.322 59.984 22.938 60.128C22.57 60.272 22.17 60.36 21.738 60.392C21.658 60.408 21.57 60.416 21.474 60.416C21.378 60.416 21.29 60.416 21.21 60.416C20.57 60.416 19.914 60.328 19.242 60.152C18.586 59.992 17.978 59.728 17.418 59.36C16.858 59.008 16.402 58.544 16.05 57.968C15.714 57.376 15.546 56.672 15.546 55.856V46.04L19.458 45.704L21.618 46.76V54.752C21.698 54.672 21.77 54.624 21.834 54.608C21.914 54.576 21.986 54.504 22.05 54.392V45.704L25.938 45.368L28.338 46.568V59.768L24.642 60.08L23.778 59.672ZM22.29 45.92V54.44C22.13 54.744 21.914 54.992 21.642 55.184C21.386 55.36 21.034 55.472 20.586 55.52H20.466C20.13 55.52 19.834 55.408 19.578 55.184C19.338 54.96 19.218 54.576 19.218 54.032V45.968L15.786 46.256V55.856C15.786 56.96 16.09 57.76 16.698 58.256C17.306 58.752 18.058 59 18.954 59H19.41C20.178 58.92 20.834 58.68 21.378 58.28C21.938 57.864 22.282 57.36 22.41 56.768L22.482 56.792V58.64L25.698 58.352V45.632L22.29 45.92ZM39.4728 59.504C39.2168 59.712 38.9128 59.896 38.5608 60.056C38.2248 60.216 37.8248 60.312 37.3608 60.344C37.2328 60.36 37.0968 60.368 36.9528 60.368C36.8088 60.368 36.6728 60.368 36.5448 60.368C35.2648 60.368 34.1288 60.096 33.1368 59.552C32.1608 59.024 31.3928 58.192 30.8328 57.056C30.2888 55.92 30.0168 54.448 30.0168 52.64C30.0168 50.368 30.4488 48.616 31.3128 47.384C32.1928 46.152 33.4248 45.464 35.0088 45.32C35.0728 45.32 35.1288 45.32 35.1768 45.32C35.2408 45.304 35.3048 45.296 35.3688 45.296C35.8168 45.296 36.2008 45.344 36.5208 45.44C36.8408 45.536 37.1288 45.624 37.3848 45.704V40.376L41.2968 40.04L43.6968 41.24V59.504L40.0248 59.792L39.4728 59.504ZM37.6248 40.592V46.592L37.5528 46.616C37.4408 46.296 37.1928 46.04 36.8088 45.848C36.4248 45.64 35.9448 45.536 35.3688 45.536C35.3208 45.536 35.2648 45.544 35.2008 45.56C35.1528 45.56 35.0968 45.56 35.0328 45.56C33.5128 45.704 32.3368 46.376 31.5048 47.576C30.6728 48.76 30.2568 50.448 30.2568 52.64C30.2568 54.752 30.6408 56.336 31.4088 57.392C32.1928 58.432 33.2408 58.952 34.5528 58.952C34.6328 58.952 34.7048 58.952 34.7688 58.952C34.8488 58.952 34.9208 58.944 34.9848 58.928C35.7368 58.848 36.3448 58.616 36.8088 58.232C37.2728 57.832 37.6008 57.384 37.7928 56.888L37.8648 56.912V58.352L41.0568 58.088V40.304L37.6248 40.592ZM35.6088 55.76C35.0968 55.76 34.6568 55.496 34.2888 54.968C33.9368 54.424 33.7608 53.544 33.7608 52.328C33.7608 51.112 33.9288 50.232 34.2648 49.688C34.6008 49.144 35.1128 48.84 35.8008 48.776H36.0168C36.4328 48.776 36.7848 48.88 37.0728 49.088C37.3608 49.296 37.5448 49.568 37.6248 49.904V53.216C37.6248 53.936 37.4488 54.528 37.0968 54.992C36.7608 55.456 36.3128 55.712 35.7528 55.76H35.6088ZM37.3848 50.48C37.0328 50.528 36.7768 50.784 36.6168 51.248C36.4728 51.712 36.4008 52.472 36.4008 53.528C36.4008 53.864 36.4088 54.184 36.4248 54.488C36.4408 54.776 36.4888 55.016 36.5688 55.208C37.1128 54.76 37.3848 54.096 37.3848 53.216V50.48ZM46.3524 59.648C46.5924 59.664 46.8324 59.672 47.0724 59.672C47.3124 59.672 47.5444 59.672 47.7684 59.672C48.2804 59.672 48.7524 59.656 49.1844 59.624C49.6164 59.608 49.9844 59.584 50.2884 59.552C50.4324 59.536 50.5684 59.512 50.6964 59.48C50.8404 59.464 50.9764 59.448 51.1044 59.432C50.3044 59.288 49.5524 59.08 48.8484 58.808C48.1604 58.52 47.5524 58.12 47.0244 57.608C46.5124 57.08 46.1044 56.384 45.8004 55.52C45.5124 54.656 45.3684 53.568 45.3684 52.256C45.3684 50.64 45.6084 49.344 46.0884 48.368C46.5684 47.376 47.1764 46.648 47.9124 46.184C48.6644 45.704 49.4404 45.432 50.2404 45.368C50.3364 45.352 50.4324 45.344 50.5284 45.344C50.6244 45.344 50.7124 45.344 50.7924 45.344C51.3204 45.344 51.7764 45.424 52.1604 45.584C52.5444 45.728 52.8324 45.912 53.0244 46.136L53.3124 45.392L56.6484 45.104L59.0484 46.304V58.76C59.0484 60.008 58.8324 61.032 58.4004 61.832C57.9684 62.632 57.2404 63.256 56.2164 63.704C55.1924 64.168 53.8004 64.504 52.0404 64.712C51.7844 64.744 51.4484 64.768 51.0324 64.784C50.6324 64.8 50.2484 64.808 49.8804 64.808L47.4804 63.608L46.3524 59.648ZM53.4564 45.632L53.0004 47C52.8884 46.488 52.6404 46.128 52.2564 45.92C51.8884 45.696 51.4164 45.584 50.8404 45.584C50.7604 45.584 50.6644 45.584 50.5524 45.584C50.4564 45.584 50.3604 45.592 50.2644 45.608C49.4964 45.672 48.7524 45.936 48.0324 46.4C47.3284 46.848 46.7444 47.552 46.2804 48.512C45.8324 49.456 45.6084 50.704 45.6084 52.256C45.6084 53.76 45.7924 54.936 46.1604 55.784C46.5444 56.632 47.0484 57.232 47.6724 57.584C48.2964 57.936 48.9764 58.112 49.7124 58.112C49.7924 58.112 49.8804 58.112 49.9764 58.112C50.0724 58.112 50.1604 58.104 50.2404 58.088C51.3764 57.976 52.2884 57.52 52.9764 56.72V57.848C52.9764 58.472 52.7524 58.928 52.3044 59.216C51.8564 59.504 51.1924 59.696 50.3124 59.792C49.6404 59.872 48.8324 59.912 47.8884 59.912C47.6804 59.912 47.4724 59.912 47.2644 59.912C47.0564 59.912 46.8564 59.904 46.6644 59.888L47.6724 63.368C47.9444 63.368 48.2724 63.36 48.6564 63.344C49.0404 63.328 49.3604 63.304 49.6164 63.272C51.3124 63.064 52.6564 62.744 53.6484 62.312C54.6404 61.88 55.3444 61.28 55.7604 60.512C56.1924 59.744 56.4084 58.76 56.4084 57.56V45.368L53.4564 45.632ZM52.9764 52.448C52.9764 53.152 52.8004 53.704 52.4484 54.104C52.0964 54.504 51.6884 54.72 51.2244 54.752C51.1764 54.752 51.1284 54.76 51.0804 54.776C51.0324 54.776 50.9844 54.776 50.9364 54.776C50.3764 54.776 49.9444 54.576 49.6404 54.176C49.3364 53.776 49.1844 53.072 49.1844 52.064C49.1844 51.232 49.2644 50.592 49.4244 50.144C49.6004 49.68 49.8324 49.352 50.1204 49.16C50.4084 48.952 50.7284 48.832 51.0804 48.8H51.2484C51.7284 48.8 52.1044 48.944 52.3764 49.232C52.6484 49.504 52.8484 49.752 52.9764 49.976V52.448ZM52.7364 50.504C52.5444 50.504 52.3764 50.576 52.2324 50.72C52.1044 50.864 52.0004 51.136 51.9204 51.536C51.8564 51.92 51.8244 52.496 51.8244 53.264C51.8244 53.648 51.8484 53.984 51.8964 54.272C52.4564 53.984 52.7364 53.376 52.7364 52.448V50.504ZM74.472 55.784C74.04 57.128 73.4 58.216 72.552 59.048C71.72 59.88 70.584 60.36 69.144 60.488C68.968 60.504 68.792 60.512 68.616 60.512C68.456 60.528 68.288 60.536 68.112 60.536C66.72 60.536 65.464 60.248 64.344 59.672C63.24 59.112 62.36 58.264 61.704 57.128C61.048 55.992 60.72 54.584 60.72 52.904C60.72 51.432 60.968 50.16 61.464 49.088C61.976 48.016 62.664 47.176 63.528 46.568C64.408 45.944 65.408 45.584 66.528 45.488C66.64 45.472 66.752 45.464 66.864 45.464C66.992 45.464 67.112 45.464 67.224 45.464C68.12 45.464 69 45.624 69.864 45.944C70.744 46.248 71.536 46.728 72.24 47.384C72.96 48.04 73.528 48.888 73.944 49.928C74.376 50.952 74.592 52.184 74.592 53.624C74.592 53.752 74.592 53.888 74.592 54.032C74.592 54.16 74.584 54.288 74.568 54.416L72.048 54.632L74.472 55.784ZM68.808 53.936C68.664 54.48 68.4 54.928 68.016 55.28C67.632 55.632 67.136 55.84 66.528 55.904H66.336C65.792 55.904 65.344 55.704 64.992 55.304C64.64 54.904 64.464 54.352 64.464 53.648L71.928 53C71.944 52.84 71.952 52.688 71.952 52.544C71.952 52.384 71.952 52.232 71.952 52.088C71.952 50.072 71.52 48.504 70.656 47.384C69.792 46.264 68.6 45.704 67.08 45.704C67 45.704 66.912 45.704 66.816 45.704C66.736 45.704 66.648 45.712 66.552 45.728C65.48 45.808 64.52 46.152 63.672 46.76C62.824 47.352 62.16 48.168 61.68 49.208C61.2 50.248 60.96 51.48 60.96 52.904C60.96 54.968 61.424 56.512 62.352 57.536C63.28 58.56 64.512 59.072 66.048 59.072C66.16 59.072 66.272 59.072 66.384 59.072C66.496 59.072 66.608 59.064 66.72 59.048C68.096 58.936 69.184 58.488 69.984 57.704C70.8 56.92 71.384 55.944 71.736 54.776L68.808 53.936ZM64.584 50.96C64.584 50.432 64.768 49.976 65.136 49.592C65.504 49.208 65.976 48.992 66.552 48.944H66.768C67.248 48.944 67.64 49.088 67.944 49.376C68.264 49.648 68.424 50.064 68.424 50.624L64.584 50.96ZM66.528 55.136C66.528 55.216 66.56 55.296 66.624 55.376C66.704 55.456 66.784 55.536 66.864 55.616C67.152 55.536 67.376 55.44 67.536 55.328C67.696 55.216 67.832 55.104 67.944 54.992L66.528 55.136ZM85.6325 60.128C85.2645 60.144 84.9045 60.16 84.5525 60.176C84.2165 60.208 83.8885 60.224 83.5685 60.224C81.2965 60.224 79.6165 59.808 78.5285 58.976C77.4405 58.144 76.8965 56.776 76.8965 54.872V50.288L75.3605 49.52V45.896L76.8965 45.776V41.864L80.7845 41.504L83.1845 42.704V45.464L85.1765 46.448V50.072L83.1845 50.24V55.064L84.0005 54.992L86.4005 56.192L85.6325 60.128ZM83.6885 55.28C83.3365 55.312 83.0245 55.344 82.7525 55.376C82.4965 55.392 82.2565 55.4 82.0325 55.4C81.3605 55.4 80.9445 55.28 80.7845 55.04C80.6245 54.8 80.5445 54.384 80.5445 53.792V48.824L82.5365 48.656V45.512L80.5445 45.68V41.768L77.1365 42.08V45.992L75.6005 46.112V49.256L77.1365 49.136V54.872C77.1365 55.832 77.2565 56.6 77.4965 57.176C77.7365 57.752 78.1445 58.168 78.7205 58.424C79.3125 58.68 80.1285 58.808 81.1685 58.808C81.4405 58.808 81.7285 58.8 82.0325 58.784C82.3365 58.768 82.6645 58.744 83.0165 58.712L83.6885 55.28ZM87.1318 59.36V54.656L91.4518 54.272L93.8518 55.472V60.2L89.5318 60.56L87.1318 59.36ZM87.3718 54.872V59.096L91.2118 58.784V54.536L87.3718 54.872ZM114.099 45.536C113.907 45.312 113.651 45.096 113.331 44.888C113.011 44.68 112.651 44.496 112.251 44.336C111.851 44.16 111.411 44.024 110.931 43.928C110.467 43.816 109.979 43.76 109.467 43.76C108.155 43.76 107.187 44.008 106.563 44.504C105.939 45 105.627 45.68 105.627 46.544C105.627 47.152 105.787 47.632 106.107 47.984C106.427 48.336 106.915 48.624 107.571 48.848C108.243 49.072 109.091 49.304 110.115 49.544C111.299 49.8 112.323 50.112 113.187 50.48C114.051 50.848 114.715 51.344 115.179 51.968C115.643 52.576 115.875 53.392 115.875 54.416C115.875 55.232 115.715 55.944 115.395 56.552C115.091 57.144 114.659 57.64 114.099 58.04C113.539 58.424 112.883 58.712 112.131 58.904C111.379 59.08 110.563 59.168 109.683 59.168C108.819 59.168 107.971 59.08 107.139 58.904C106.323 58.712 105.547 58.44 104.811 58.088C104.075 57.736 103.387 57.296 102.747 56.768L103.779 54.944C104.035 55.216 104.363 55.488 104.763 55.76C105.179 56.016 105.643 56.256 106.155 56.48C106.683 56.704 107.251 56.888 107.859 57.032C108.467 57.16 109.091 57.224 109.731 57.224C110.947 57.224 111.891 57.008 112.563 56.576C113.235 56.128 113.571 55.48 113.571 54.632C113.571 53.992 113.379 53.48 112.995 53.096C112.627 52.712 112.075 52.392 111.339 52.136C110.603 51.88 109.707 51.624 108.651 51.368C107.499 51.08 106.531 50.768 105.747 50.432C104.963 50.08 104.371 49.624 103.971 49.064C103.587 48.504 103.395 47.776 103.395 46.88C103.395 45.792 103.659 44.872 104.187 44.12C104.715 43.368 105.443 42.8 106.371 42.416C107.299 42.032 108.347 41.84 109.515 41.84C110.283 41.84 110.995 41.92 111.651 42.08C112.323 42.24 112.947 42.464 113.523 42.752C114.099 43.04 114.627 43.384 115.107 43.784L114.099 45.536ZM117.396 55.376C117.396 54.576 117.62 53.888 118.068 53.312C118.532 52.72 119.164 52.264 119.964 51.944C120.764 51.624 121.692 51.464 122.748 51.464C123.308 51.464 123.9 51.512 124.524 51.608C125.148 51.688 125.7 51.816 126.18 51.992V51.08C126.18 50.12 125.892 49.368 125.316 48.824C124.74 48.264 123.924 47.984 122.868 47.984C122.18 47.984 121.516 48.112 120.876 48.368C120.252 48.608 119.588 48.96 118.884 49.424L118.116 47.936C118.932 47.376 119.748 46.96 120.564 46.688C121.38 46.4 122.228 46.256 123.108 46.256C124.708 46.256 125.972 46.704 126.9 47.6C127.828 48.48 128.292 49.712 128.292 51.296V56.6C128.292 56.856 128.34 57.048 128.436 57.176C128.548 57.288 128.724 57.352 128.964 57.368V59C128.756 59.032 128.572 59.056 128.412 59.072C128.268 59.088 128.148 59.096 128.052 59.096C127.556 59.096 127.18 58.96 126.924 58.688C126.684 58.416 126.548 58.128 126.516 57.824L126.468 57.032C125.924 57.736 125.212 58.28 124.332 58.664C123.452 59.048 122.58 59.24 121.716 59.24C120.884 59.24 120.14 59.072 119.484 58.736C118.828 58.384 118.316 57.92 117.948 57.344C117.58 56.752 117.396 56.096 117.396 55.376ZM125.556 56.264C125.748 56.04 125.9 55.816 126.012 55.592C126.124 55.352 126.18 55.152 126.18 54.992V53.432C125.684 53.24 125.164 53.096 124.62 53C124.076 52.888 123.54 52.832 123.012 52.832C121.94 52.832 121.068 53.048 120.396 53.48C119.74 53.896 119.412 54.472 119.412 55.208C119.412 55.608 119.516 56 119.724 56.384C119.948 56.752 120.268 57.056 120.684 57.296C121.116 57.536 121.644 57.656 122.268 57.656C122.924 57.656 123.548 57.528 124.14 57.272C124.732 57 125.204 56.664 125.556 56.264ZM134.87 59L129.95 46.472H132.158L136.094 56.984L140.03 46.472H142.094L137.174 59H134.87ZM147.808 59L142.888 46.472H145.096L149.032 56.984L152.968 46.472H155.032L150.112 59H147.808ZM162.268 59.24C161.324 59.24 160.46 59.072 159.676 58.736C158.908 58.384 158.236 57.912 157.66 57.32C157.1 56.712 156.66 56.016 156.34 55.232C156.036 54.448 155.884 53.616 155.884 52.736C155.884 51.552 156.156 50.472 156.7 49.496C157.244 48.52 157.996 47.736 158.956 47.144C159.932 46.552 161.044 46.256 162.292 46.256C163.556 46.256 164.652 46.56 165.58 47.168C166.524 47.76 167.252 48.544 167.764 49.52C168.292 50.48 168.556 51.52 168.556 52.64C168.556 52.8 168.548 52.96 168.532 53.12C168.532 53.264 168.524 53.376 168.508 53.456H158.116C158.18 54.272 158.404 55 158.788 55.64C159.188 56.264 159.7 56.76 160.324 57.128C160.948 57.48 161.62 57.656 162.34 57.656C163.108 57.656 163.828 57.464 164.5 57.08C165.188 56.696 165.66 56.192 165.916 55.568L167.74 56.072C167.468 56.68 167.06 57.224 166.516 57.704C165.988 58.184 165.356 58.56 164.62 58.832C163.9 59.104 163.116 59.24 162.268 59.24ZM158.044 51.992H166.588C166.524 51.176 166.292 50.456 165.892 49.832C165.492 49.208 164.98 48.72 164.356 48.368C163.732 48.016 163.044 47.84 162.292 47.84C161.556 47.84 160.876 48.016 160.252 48.368C159.628 48.72 159.116 49.208 158.716 49.832C158.332 50.456 158.108 51.176 158.044 51.992ZM177.266 58.376C177.09 58.456 176.85 58.56 176.546 58.688C176.242 58.816 175.89 58.928 175.49 59.024C175.09 59.12 174.666 59.168 174.218 59.168C173.706 59.168 173.234 59.08 172.802 58.904C172.37 58.712 172.026 58.424 171.77 58.04C171.514 57.64 171.386 57.144 171.386 56.552V48.128H169.682V46.472H171.386V42.296H173.498V46.472H176.306V48.128H173.498V55.904C173.53 56.352 173.682 56.688 173.954 56.912C174.226 57.12 174.546 57.224 174.914 57.224C175.33 57.224 175.714 57.152 176.066 57.008C176.418 56.864 176.65 56.76 176.762 56.696L177.266 58.376ZM177.958 46.976L178.438 44.216H177.718V41.48H179.71V44.216L178.99 46.976H177.958ZM185.395 59.24C184.355 59.24 183.379 59.072 182.467 58.736C181.555 58.384 180.771 57.864 180.115 57.176L180.931 55.688C181.651 56.36 182.371 56.84 183.091 57.128C183.811 57.416 184.547 57.56 185.299 57.56C186.163 57.56 186.867 57.4 187.411 57.08C187.955 56.744 188.227 56.256 188.227 55.616C188.227 55.152 188.083 54.808 187.795 54.584C187.523 54.36 187.131 54.176 186.619 54.032C186.107 53.872 185.499 53.696 184.795 53.504C183.931 53.248 183.203 52.976 182.611 52.688C182.019 52.4 181.571 52.04 181.267 51.608C180.963 51.176 180.811 50.632 180.811 49.976C180.811 49.176 181.019 48.504 181.435 47.96C181.851 47.4 182.419 46.976 183.139 46.688C183.875 46.4 184.707 46.256 185.635 46.256C186.563 46.256 187.403 46.4 188.155 46.688C188.907 46.976 189.555 47.4 190.099 47.96L189.139 49.424C188.643 48.912 188.099 48.536 187.507 48.296C186.915 48.04 186.251 47.912 185.515 47.912C185.083 47.912 184.659 47.968 184.243 48.08C183.827 48.176 183.483 48.36 183.211 48.632C182.939 48.888 182.803 49.256 182.803 49.736C182.803 50.136 182.907 50.456 183.115 50.696C183.339 50.92 183.659 51.112 184.075 51.272C184.507 51.432 185.027 51.608 185.635 51.8C186.579 52.072 187.395 52.344 188.083 52.616C188.787 52.888 189.331 53.24 189.715 53.672C190.099 54.104 190.291 54.704 190.291 55.472C190.291 56.656 189.843 57.584 188.947 58.256C188.051 58.912 186.867 59.24 185.395 59.24ZM209.76 59H207.648V51.992C207.648 50.712 207.416 49.752 206.952 49.112C206.504 48.472 205.856 48.152 205.008 48.152C204.464 48.152 203.912 48.296 203.352 48.584C202.808 48.872 202.328 49.264 201.912 49.76C201.496 50.24 201.192 50.8 201 51.44V59H198.888V41.48H201V49.16C201.496 48.264 202.168 47.56 203.016 47.048C203.88 46.52 204.808 46.256 205.8 46.256C206.552 46.256 207.176 46.392 207.672 46.664C208.184 46.92 208.592 47.288 208.896 47.768C209.2 48.248 209.416 48.808 209.544 49.448C209.688 50.072 209.76 50.76 209.76 51.512V59ZM218.588 59.24C217.644 59.24 216.78 59.072 215.996 58.736C215.228 58.384 214.556 57.912 213.98 57.32C213.42 56.712 212.98 56.016 212.66 55.232C212.356 54.448 212.204 53.616 212.204 52.736C212.204 51.552 212.476 50.472 213.02 49.496C213.564 48.52 214.316 47.736 215.276 47.144C216.252 46.552 217.364 46.256 218.612 46.256C219.876 46.256 220.972 46.56 221.9 47.168C222.844 47.76 223.572 48.544 224.084 49.52C224.612 50.48 224.876 51.52 224.876 52.64C224.876 52.8 224.868 52.96 224.852 53.12C224.852 53.264 224.844 53.376 224.828 53.456H214.436C214.5 54.272 214.724 55 215.108 55.64C215.508 56.264 216.02 56.76 216.644 57.128C217.268 57.48 217.94 57.656 218.66 57.656C219.428 57.656 220.148 57.464 220.82 57.08C221.508 56.696 221.98 56.192 222.236 55.568L224.06 56.072C223.788 56.68 223.38 57.224 222.836 57.704C222.308 58.184 221.676 58.56 220.94 58.832C220.22 59.104 219.436 59.24 218.588 59.24ZM214.364 51.992H222.908C222.844 51.176 222.612 50.456 222.212 49.832C221.812 49.208 221.3 48.72 220.676 48.368C220.052 48.016 219.364 47.84 218.612 47.84C217.876 47.84 217.196 48.016 216.572 48.368C215.948 48.72 215.436 49.208 215.036 49.832C214.652 50.456 214.428 51.176 214.364 51.992ZM233.848 48.32C232.792 48.336 231.856 48.608 231.04 49.136C230.24 49.648 229.672 50.36 229.336 51.272V59H227.224V46.472H229.192V49.376C229.624 48.512 230.192 47.816 230.896 47.288C231.616 46.744 232.368 46.44 233.152 46.376C233.312 46.376 233.448 46.376 233.56 46.376C233.672 46.376 233.768 46.384 233.848 46.4V48.32ZM241.182 59.24C240.238 59.24 239.374 59.072 238.59 58.736C237.822 58.384 237.15 57.912 236.574 57.32C236.014 56.712 235.574 56.016 235.254 55.232C234.95 54.448 234.798 53.616 234.798 52.736C234.798 51.552 235.07 50.472 235.614 49.496C236.158 48.52 236.91 47.736 237.87 47.144C238.846 46.552 239.958 46.256 241.206 46.256C242.47 46.256 243.566 46.56 244.494 47.168C245.438 47.76 246.166 48.544 246.678 49.52C247.206 50.48 247.47 51.52 247.47 52.64C247.47 52.8 247.462 52.96 247.446 53.12C247.446 53.264 247.438 53.376 247.422 53.456H237.03C237.094 54.272 237.318 55 237.702 55.64C238.102 56.264 238.614 56.76 239.238 57.128C239.862 57.48 240.534 57.656 241.254 57.656C242.022 57.656 242.742 57.464 243.414 57.08C244.102 56.696 244.574 56.192 244.83 55.568L246.654 56.072C246.382 56.68 245.974 57.224 245.43 57.704C244.902 58.184 244.27 58.56 243.534 58.832C242.814 59.104 242.03 59.24 241.182 59.24ZM236.958 51.992H245.502C245.438 51.176 245.206 50.456 244.806 49.832C244.406 49.208 243.894 48.72 243.27 48.368C242.646 48.016 241.958 47.84 241.206 47.84C240.47 47.84 239.79 48.016 239.166 48.368C238.542 48.72 238.03 49.208 237.63 49.832C237.246 50.456 237.022 51.176 236.958 51.992ZM262.368 58.376C262.192 58.456 261.952 58.56 261.648 58.688C261.344 58.816 260.992 58.928 260.592 59.024C260.192 59.12 259.768 59.168 259.32 59.168C258.808 59.168 258.336 59.08 257.904 58.904C257.472 58.712 257.128 58.424 256.872 58.04C256.616 57.64 256.488 57.144 256.488 56.552V48.128H254.784V46.472H256.488V42.296H258.6V46.472H261.408V48.128H258.6V55.904C258.632 56.352 258.784 56.688 259.056 56.912C259.328 57.12 259.648 57.224 260.016 57.224C260.432 57.224 260.816 57.152 261.168 57.008C261.52 56.864 261.752 56.76 261.864 56.696L262.368 58.376ZM269.633 59.24C268.689 59.24 267.833 59.072 267.065 58.736C266.297 58.384 265.633 57.912 265.073 57.32C264.513 56.712 264.081 56.016 263.777 55.232C263.473 54.448 263.321 53.624 263.321 52.76C263.321 51.88 263.473 51.048 263.777 50.264C264.081 49.48 264.513 48.792 265.073 48.2C265.633 47.592 266.297 47.12 267.065 46.784C267.849 46.432 268.705 46.256 269.633 46.256C270.577 46.256 271.433 46.432 272.201 46.784C272.969 47.12 273.633 47.592 274.193 48.2C274.769 48.792 275.209 49.48 275.513 50.264C275.817 51.048 275.969 51.88 275.969 52.76C275.969 53.624 275.817 54.448 275.513 55.232C275.209 56.016 274.777 56.712 274.217 57.32C273.657 57.912 272.985 58.384 272.201 58.736C271.433 59.072 270.577 59.24 269.633 59.24ZM265.481 52.784C265.481 53.648 265.665 54.432 266.033 55.136C266.417 55.84 266.921 56.4 267.545 56.816C268.169 57.216 268.865 57.416 269.633 57.416C270.401 57.416 271.097 57.208 271.721 56.792C272.361 56.376 272.865 55.816 273.233 55.112C273.617 54.392 273.809 53.6 273.809 52.736C273.809 51.872 273.617 51.088 273.233 50.384C272.865 49.68 272.361 49.12 271.721 48.704C271.097 48.288 270.401 48.08 269.633 48.08C268.865 48.08 268.169 48.296 267.545 48.728C266.921 49.144 266.417 49.704 266.033 50.408C265.665 51.112 265.481 51.904 265.481 52.784ZM295.471 59H293.359V51.992C293.359 50.712 293.127 49.752 292.663 49.112C292.215 48.472 291.567 48.152 290.719 48.152C290.175 48.152 289.623 48.296 289.063 48.584C288.519 48.872 288.039 49.264 287.623 49.76C287.207 50.24 286.903 50.8 286.711 51.44V59H284.599V41.48H286.711V49.16C287.207 48.264 287.879 47.56 288.727 47.048C289.591 46.52 290.519 46.256 291.511 46.256C292.263 46.256 292.887 46.392 293.383 46.664C293.895 46.92 294.303 47.288 294.607 47.768C294.911 48.248 295.127 48.808 295.255 49.448C295.399 50.072 295.471 50.76 295.471 51.512V59ZM304.299 59.24C303.355 59.24 302.491 59.072 301.707 58.736C300.939 58.384 300.267 57.912 299.691 57.32C299.131 56.712 298.691 56.016 298.371 55.232C298.067 54.448 297.915 53.616 297.915 52.736C297.915 51.552 298.187 50.472 298.731 49.496C299.275 48.52 300.027 47.736 300.987 47.144C301.963 46.552 303.075 46.256 304.323 46.256C305.587 46.256 306.683 46.56 307.611 47.168C308.555 47.76 309.283 48.544 309.795 49.52C310.323 50.48 310.587 51.52 310.587 52.64C310.587 52.8 310.579 52.96 310.563 53.12C310.563 53.264 310.555 53.376 310.539 53.456H300.147C300.211 54.272 300.435 55 300.819 55.64C301.219 56.264 301.731 56.76 302.355 57.128C302.979 57.48 303.651 57.656 304.371 57.656C305.139 57.656 305.859 57.464 306.531 57.08C307.219 56.696 307.691 56.192 307.947 55.568L309.771 56.072C309.499 56.68 309.091 57.224 308.547 57.704C308.019 58.184 307.387 58.56 306.651 58.832C305.931 59.104 305.147 59.24 304.299 59.24ZM300.075 51.992H308.619C308.555 51.176 308.323 50.456 307.923 49.832C307.523 49.208 307.011 48.72 306.387 48.368C305.763 48.016 305.075 47.84 304.323 47.84C303.587 47.84 302.907 48.016 302.283 48.368C301.659 48.72 301.147 49.208 300.747 49.832C300.363 50.456 300.139 51.176 300.075 51.992ZM312.982 41.48H315.094V55.76C315.094 56.448 315.19 56.872 315.382 57.032C315.574 57.192 315.806 57.272 316.078 57.272C316.414 57.272 316.734 57.24 317.038 57.176C317.342 57.096 317.598 57.016 317.806 56.936L318.142 58.664C317.79 58.808 317.374 58.928 316.894 59.024C316.414 59.12 315.99 59.168 315.622 59.168C314.806 59.168 314.158 58.936 313.678 58.472C313.214 58.008 312.982 57.36 312.982 56.528V41.48ZM326.546 59.24C325.522 59.24 324.61 58.984 323.81 58.472C323.01 57.96 322.378 57.312 321.914 56.528V64.112H319.802V46.472H321.674V48.824C322.17 48.056 322.818 47.44 323.618 46.976C324.418 46.496 325.29 46.256 326.234 46.256C327.098 46.256 327.89 46.432 328.61 46.784C329.33 47.136 329.954 47.616 330.482 48.224C331.01 48.832 331.418 49.528 331.706 50.312C332.01 51.08 332.162 51.888 332.162 52.736C332.162 53.92 331.922 55.008 331.442 56C330.978 56.992 330.322 57.784 329.474 58.376C328.626 58.952 327.65 59.24 326.546 59.24ZM325.898 57.416C326.522 57.416 327.082 57.288 327.578 57.032C328.09 56.76 328.522 56.408 328.874 55.976C329.242 55.528 329.522 55.024 329.714 54.464C329.906 53.904 330.002 53.328 330.002 52.736C330.002 52.112 329.89 51.52 329.666 50.96C329.458 50.4 329.154 49.904 328.754 49.472C328.37 49.04 327.914 48.704 327.386 48.464C326.874 48.208 326.314 48.08 325.706 48.08C325.322 48.08 324.922 48.152 324.506 48.296C324.106 48.44 323.722 48.648 323.354 48.92C322.986 49.176 322.674 49.472 322.418 49.808C322.162 50.144 321.994 50.504 321.914 50.888V54.464C322.154 55.008 322.474 55.504 322.874 55.952C323.274 56.4 323.738 56.76 324.266 57.032C324.794 57.288 325.338 57.416 325.898 57.416ZM340.745 62.408C340.953 62.424 341.161 62.44 341.369 62.456C341.577 62.488 341.737 62.504 341.849 62.504C342.105 62.504 342.329 62.416 342.521 62.24C342.713 62.064 342.921 61.72 343.145 61.208C343.385 60.712 343.689 59.976 344.057 59L338.753 46.472H340.985L345.209 56.864L349.025 46.472H351.113L345.017 62.288C344.873 62.656 344.657 63 344.369 63.32C344.097 63.656 343.745 63.92 343.313 64.112C342.881 64.304 342.361 64.4 341.753 64.4C341.609 64.4 341.457 64.392 341.297 64.376C341.153 64.36 340.969 64.328 340.745 64.28V62.408ZM358.274 59.24C357.33 59.24 356.474 59.072 355.706 58.736C354.938 58.384 354.274 57.912 353.714 57.32C353.154 56.712 352.722 56.016 352.418 55.232C352.114 54.448 351.962 53.624 351.962 52.76C351.962 51.88 352.114 51.048 352.418 50.264C352.722 49.48 353.154 48.792 353.714 48.2C354.274 47.592 354.938 47.12 355.706 46.784C356.49 46.432 357.346 46.256 358.274 46.256C359.218 46.256 360.074 46.432 360.842 46.784C361.61 47.12 362.274 47.592 362.834 48.2C363.41 48.792 363.85 49.48 364.154 50.264C364.458 51.048 364.61 51.88 364.61 52.76C364.61 53.624 364.458 54.448 364.154 55.232C363.85 56.016 363.418 56.712 362.858 57.32C362.298 57.912 361.626 58.384 360.842 58.736C360.074 59.072 359.218 59.24 358.274 59.24ZM354.122 52.784C354.122 53.648 354.306 54.432 354.674 55.136C355.058 55.84 355.562 56.4 356.186 56.816C356.81 57.216 357.506 57.416 358.274 57.416C359.042 57.416 359.738 57.208 360.362 56.792C361.002 56.376 361.506 55.816 361.874 55.112C362.258 54.392 362.45 53.6 362.45 52.736C362.45 51.872 362.258 51.088 361.874 50.384C361.506 49.68 361.002 49.12 360.362 48.704C359.738 48.288 359.042 48.08 358.274 48.08C357.506 48.08 356.81 48.296 356.186 48.728C355.562 49.144 355.058 49.704 354.674 50.408C354.306 51.112 354.122 51.904 354.122 52.784ZM367.049 53.984V46.472H369.161V53.576C369.161 54.856 369.385 55.816 369.833 56.456C370.281 57.096 370.945 57.416 371.825 57.416C372.401 57.416 372.953 57.296 373.481 57.056C374.025 56.8 374.513 56.44 374.945 55.976C375.377 55.512 375.713 54.96 375.953 54.32V46.472H378.065V56.6C378.065 56.856 378.113 57.048 378.209 57.176C378.321 57.288 378.497 57.352 378.737 57.368V59C378.497 59.032 378.305 59.048 378.161 59.048C378.033 59.064 377.905 59.072 377.777 59.072C377.377 59.072 377.033 58.952 376.745 58.712C376.457 58.456 376.305 58.144 376.289 57.776L376.241 56.312C375.697 57.24 374.961 57.96 374.033 58.472C373.121 58.984 372.121 59.24 371.033 59.24C369.721 59.24 368.729 58.8 368.057 57.92C367.385 57.024 367.049 55.712 367.049 53.984ZM393.197 59.24C392.253 59.24 391.389 59.072 390.605 58.736C389.837 58.384 389.165 57.912 388.589 57.32C388.029 56.712 387.589 56.016 387.269 55.232C386.965 54.448 386.813 53.616 386.813 52.736C386.813 51.552 387.085 50.472 387.629 49.496C388.173 48.52 388.925 47.736 389.885 47.144C390.861 46.552 391.973 46.256 393.221 46.256C394.485 46.256 395.581 46.56 396.509 47.168C397.453 47.76 398.181 48.544 398.693 49.52C399.221 50.48 399.485 51.52 399.485 52.64C399.485 52.8 399.477 52.96 399.461 53.12C399.461 53.264 399.453 53.376 399.437 53.456H389.045C389.109 54.272 389.333 55 389.717 55.64C390.117 56.264 390.629 56.76 391.253 57.128C391.877 57.48 392.549 57.656 393.269 57.656C394.037 57.656 394.757 57.464 395.429 57.08C396.117 56.696 396.589 56.192 396.845 55.568L398.669 56.072C398.397 56.68 397.989 57.224 397.445 57.704C396.917 58.184 396.285 58.56 395.549 58.832C394.829 59.104 394.045 59.24 393.197 59.24ZM388.973 51.992H397.517C397.453 51.176 397.221 50.456 396.821 49.832C396.421 49.208 395.909 48.72 395.285 48.368C394.661 48.016 393.973 47.84 393.221 47.84C392.485 47.84 391.805 48.016 391.181 48.368C390.557 48.72 390.045 49.208 389.645 49.832C389.261 50.456 389.037 51.176 388.973 51.992ZM402.3 46.472L405.612 51.08L405.804 51.464L406.02 51.08L409.308 46.472H411.66L407.028 52.76L411.684 59H409.332L406.02 54.416L405.804 54.056L405.612 54.416L402.3 59H399.948L404.604 52.76L399.972 46.472H402.3ZM420.413 59.24C419.389 59.24 418.477 58.984 417.677 58.472C416.877 57.96 416.245 57.312 415.781 56.528V64.112H413.669V46.472H415.541V48.824C416.037 48.056 416.685 47.44 417.485 46.976C418.285 46.496 419.157 46.256 420.101 46.256C420.965 46.256 421.757 46.432 422.477 46.784C423.197 47.136 423.821 47.616 424.349 48.224C424.877 48.832 425.285 49.528 425.573 50.312C425.877 51.08 426.029 51.888 426.029 52.736C426.029 53.92 425.789 55.008 425.309 56C424.845 56.992 424.189 57.784 423.341 58.376C422.493 58.952 421.517 59.24 420.413 59.24ZM419.765 57.416C420.389 57.416 420.949 57.288 421.445 57.032C421.957 56.76 422.389 56.408 422.741 55.976C423.109 55.528 423.389 55.024 423.581 54.464C423.773 53.904 423.869 53.328 423.869 52.736C423.869 52.112 423.757 51.52 423.533 50.96C423.325 50.4 423.021 49.904 422.621 49.472C422.237 49.04 421.781 48.704 421.253 48.464C420.741 48.208 420.181 48.08 419.573 48.08C419.189 48.08 418.789 48.152 418.373 48.296C417.973 48.44 417.589 48.648 417.221 48.92C416.853 49.176 416.541 49.472 416.285 49.808C416.029 50.144 415.861 50.504 415.781 50.888V54.464C416.021 55.008 416.341 55.504 416.741 55.952C417.141 56.4 417.605 56.76 418.133 57.032C418.661 57.288 419.205 57.416 419.765 57.416ZM428.67 41.48H430.782V55.76C430.782 56.448 430.878 56.872 431.07 57.032C431.262 57.192 431.494 57.272 431.766 57.272C432.102 57.272 432.422 57.24 432.726 57.176C433.03 57.096 433.286 57.016 433.494 56.936L433.83 58.664C433.478 58.808 433.062 58.928 432.582 59.024C432.102 59.12 431.678 59.168 431.31 59.168C430.494 59.168 429.846 58.936 429.366 58.472C428.902 58.008 428.67 57.36 428.67 56.528V41.48ZM440.961 59.24C440.017 59.24 439.161 59.072 438.393 58.736C437.625 58.384 436.961 57.912 436.401 57.32C435.841 56.712 435.409 56.016 435.105 55.232C434.801 54.448 434.649 53.624 434.649 52.76C434.649 51.88 434.801 51.048 435.105 50.264C435.409 49.48 435.841 48.792 436.401 48.2C436.961 47.592 437.625 47.12 438.393 46.784C439.177 46.432 440.033 46.256 440.961 46.256C441.905 46.256 442.761 46.432 443.529 46.784C444.297 47.12 444.961 47.592 445.521 48.2C446.097 48.792 446.537 49.48 446.841 50.264C447.145 51.048 447.297 51.88 447.297 52.76C447.297 53.624 447.145 54.448 446.841 55.232C446.537 56.016 446.105 56.712 445.545 57.32C444.985 57.912 444.313 58.384 443.529 58.736C442.761 59.072 441.905 59.24 440.961 59.24ZM436.809 52.784C436.809 53.648 436.993 54.432 437.361 55.136C437.745 55.84 438.249 56.4 438.873 56.816C439.497 57.216 440.193 57.416 440.961 57.416C441.729 57.416 442.425 57.208 443.049 56.792C443.689 56.376 444.193 55.816 444.561 55.112C444.945 54.392 445.137 53.6 445.137 52.736C445.137 51.872 444.945 51.088 444.561 50.384C444.193 49.68 443.689 49.12 443.049 48.704C442.425 48.288 441.729 48.08 440.961 48.08C440.193 48.08 439.497 48.296 438.873 48.728C438.249 49.144 437.745 49.704 437.361 50.408C436.993 51.112 436.809 51.904 436.809 52.784ZM456.48 48.32C455.424 48.336 454.488 48.608 453.672 49.136C452.872 49.648 452.304 50.36 451.968 51.272V59H449.856V46.472H451.824V49.376C452.256 48.512 452.824 47.816 453.528 47.288C454.248 46.744 455 46.44 455.784 46.376C455.944 46.376 456.08 46.376 456.192 46.376C456.304 46.376 456.4 46.384 456.48 46.4V48.32ZM463.814 59.24C462.87 59.24 462.006 59.072 461.222 58.736C460.454 58.384 459.782 57.912 459.206 57.32C458.646 56.712 458.206 56.016 457.886 55.232C457.582 54.448 457.43 53.616 457.43 52.736C457.43 51.552 457.702 50.472 458.246 49.496C458.79 48.52 459.542 47.736 460.502 47.144C461.478 46.552 462.59 46.256 463.838 46.256C465.102 46.256 466.198 46.56 467.126 47.168C468.07 47.76 468.798 48.544 469.31 49.52C469.838 50.48 470.102 51.52 470.102 52.64C470.102 52.8 470.094 52.96 470.078 53.12C470.078 53.264 470.07 53.376 470.054 53.456H459.662C459.726 54.272 459.95 55 460.334 55.64C460.734 56.264 461.246 56.76 461.87 57.128C462.494 57.48 463.166 57.656 463.886 57.656C464.654 57.656 465.374 57.464 466.046 57.08C466.734 56.696 467.206 56.192 467.462 55.568L469.286 56.072C469.014 56.68 468.606 57.224 468.062 57.704C467.534 58.184 466.902 58.56 466.166 58.832C465.446 59.104 464.662 59.24 463.814 59.24ZM459.59 51.992H468.134C468.07 51.176 467.838 50.456 467.438 49.832C467.038 49.208 466.526 48.72 465.902 48.368C465.278 48.016 464.59 47.84 463.838 47.84C463.102 47.84 462.422 48.016 461.798 48.368C461.174 48.72 460.662 49.208 460.262 49.832C459.878 50.456 459.654 51.176 459.59 51.992ZM493.537 46.472H495.577L490.249 59H488.401L485.977 53.096L483.577 59H481.729L476.401 46.472H478.417L482.737 56.912L484.753 51.776L482.641 46.496H484.489L485.977 50.48L487.465 46.496H489.313L487.225 51.776L489.241 56.912L493.537 46.472ZM497.552 59V46.472H499.664V59H497.552ZM497.552 44.12V41.48H499.664V44.12H497.552ZM509.563 58.376C509.387 58.456 509.147 58.56 508.843 58.688C508.539 58.816 508.187 58.928 507.787 59.024C507.387 59.12 506.963 59.168 506.515 59.168C506.003 59.168 505.531 59.08 505.099 58.904C504.667 58.712 504.323 58.424 504.067 58.04C503.811 57.64 503.683 57.144 503.683 56.552V48.128H501.979V46.472H503.683V42.296H505.795V46.472H508.603V48.128H505.795V55.904C505.827 56.352 505.979 56.688 506.251 56.912C506.523 57.12 506.843 57.224 507.211 57.224C507.627 57.224 508.011 57.152 508.363 57.008C508.715 56.864 508.947 56.76 509.059 56.696L509.563 58.376ZM522.392 59H520.28V51.992C520.28 50.712 520.048 49.752 519.584 49.112C519.136 48.472 518.488 48.152 517.64 48.152C517.096 48.152 516.544 48.296 515.984 48.584C515.44 48.872 514.96 49.264 514.544 49.76C514.128 50.24 513.824 50.8 513.632 51.44V59H511.52V41.48H513.632V49.16C514.128 48.264 514.8 47.56 515.648 47.048C516.512 46.52 517.44 46.256 518.432 46.256C519.184 46.256 519.808 46.392 520.304 46.664C520.816 46.92 521.224 47.288 521.528 47.768C521.832 48.248 522.048 48.808 522.176 49.448C522.32 50.072 522.392 50.76 522.392 51.512V59ZM537.291 59.24C536.347 59.24 535.483 59.072 534.699 58.736C533.931 58.384 533.259 57.904 532.683 57.296C532.123 56.688 531.683 55.992 531.363 55.208C531.059 54.424 530.907 53.592 530.907 52.712C530.907 51.528 531.171 50.448 531.699 49.472C532.227 48.496 532.971 47.72 533.931 47.144C534.891 46.552 536.003 46.256 537.267 46.256C538.499 46.256 539.571 46.536 540.483 47.096C541.411 47.64 542.099 48.376 542.547 49.304L540.483 49.952C540.163 49.36 539.715 48.904 539.139 48.584C538.563 48.248 537.923 48.08 537.219 48.08C536.451 48.08 535.747 48.28 535.107 48.68C534.483 49.08 533.987 49.632 533.619 50.336C533.251 51.024 533.067 51.816 533.067 52.712C533.067 53.592 533.251 54.392 533.619 55.112C534.003 55.816 534.507 56.376 535.131 56.792C535.771 57.208 536.475 57.416 537.243 57.416C537.739 57.416 538.211 57.328 538.659 57.152C539.123 56.976 539.523 56.744 539.859 56.456C540.211 56.152 540.451 55.824 540.579 55.472L542.643 56.096C542.387 56.704 541.995 57.248 541.467 57.728C540.955 58.192 540.339 58.56 539.619 58.832C538.915 59.104 538.139 59.24 537.291 59.24ZM550.391 59.24C549.447 59.24 548.591 59.072 547.823 58.736C547.055 58.384 546.391 57.912 545.831 57.32C545.271 56.712 544.839 56.016 544.535 55.232C544.231 54.448 544.079 53.624 544.079 52.76C544.079 51.88 544.231 51.048 544.535 50.264C544.839 49.48 545.271 48.792 545.831 48.2C546.391 47.592 547.055 47.12 547.823 46.784C548.607 46.432 549.463 46.256 550.391 46.256C551.335 46.256 552.191 46.432 552.959 46.784C553.727 47.12 554.391 47.592 554.951 48.2C555.527 48.792 555.967 49.48 556.271 50.264C556.575 51.048 556.727 51.88 556.727 52.76C556.727 53.624 556.575 54.448 556.271 55.232C555.967 56.016 555.535 56.712 554.975 57.32C554.415 57.912 553.743 58.384 552.959 58.736C552.191 59.072 551.335 59.24 550.391 59.24ZM546.239 52.784C546.239 53.648 546.423 54.432 546.791 55.136C547.175 55.84 547.679 56.4 548.303 56.816C548.927 57.216 549.623 57.416 550.391 57.416C551.159 57.416 551.855 57.208 552.479 56.792C553.119 56.376 553.623 55.816 553.991 55.112C554.375 54.392 554.567 53.6 554.567 52.736C554.567 51.872 554.375 51.088 553.991 50.384C553.623 49.68 553.119 49.12 552.479 48.704C551.855 48.288 551.159 48.08 550.391 48.08C549.623 48.08 548.927 48.296 548.303 48.728C547.679 49.144 547.175 49.704 546.791 50.408C546.423 51.112 546.239 51.904 546.239 52.784ZM570.158 59H568.046V51.992C568.046 50.664 567.838 49.696 567.422 49.088C567.022 48.464 566.406 48.152 565.574 48.152C564.998 48.152 564.422 48.296 563.846 48.584C563.286 48.872 562.782 49.264 562.334 49.76C561.902 50.24 561.59 50.8 561.398 51.44V59H559.286V46.472H561.206V49.16C561.542 48.568 561.974 48.056 562.502 47.624C563.03 47.192 563.63 46.856 564.302 46.616C564.974 46.376 565.678 46.256 566.414 46.256C567.134 46.256 567.734 46.392 568.214 46.664C568.71 46.92 569.094 47.288 569.366 47.768C569.654 48.232 569.854 48.784 569.966 49.424C570.094 50.064 570.158 50.76 570.158 51.512V59ZM573.997 48.128H572.293V46.472H573.997V46.208C573.997 45.584 574.093 44.984 574.285 44.408C574.477 43.816 574.765 43.28 575.149 42.8C575.533 42.32 576.013 41.944 576.589 41.672C577.165 41.384 577.845 41.24 578.629 41.24C579.221 41.24 579.765 41.304 580.261 41.432C580.757 41.56 581.197 41.72 581.581 41.912C581.981 42.104 582.309 42.296 582.565 42.488L581.653 44.048C581.349 43.776 580.933 43.544 580.405 43.352C579.893 43.16 579.341 43.064 578.749 43.064C578.141 43.064 577.637 43.216 577.237 43.52C576.853 43.824 576.565 44.216 576.373 44.696C576.197 45.16 576.109 45.64 576.109 46.136V46.472H582.517V59H580.405V48.128H576.109V59H573.997V48.128ZM585.118 52.76C585.118 51.576 585.358 50.496 585.838 49.52C586.334 48.528 587.006 47.736 587.854 47.144C588.718 46.552 589.702 46.256 590.806 46.256C591.814 46.256 592.718 46.52 593.518 47.048C594.318 47.576 594.942 48.216 595.39 48.968V41.48H597.502V56.6C597.502 56.856 597.55 57.048 597.646 57.176C597.758 57.288 597.934 57.352 598.174 57.368V59C597.774 59.064 597.462 59.096 597.238 59.096C596.822 59.096 596.454 58.952 596.134 58.664C595.83 58.376 595.678 58.056 595.678 57.704V56.648C595.182 57.448 594.518 58.08 593.686 58.544C592.854 59.008 591.99 59.24 591.094 59.24C590.23 59.24 589.43 59.072 588.694 58.736C587.974 58.384 587.342 57.904 586.798 57.296C586.27 56.688 585.854 56 585.55 55.232C585.262 54.448 585.118 53.624 585.118 52.76ZM595.39 54.608V51.008C595.198 50.464 594.886 49.976 594.454 49.544C594.022 49.096 593.534 48.744 592.99 48.488C592.462 48.216 591.934 48.08 591.406 48.08C590.782 48.08 590.214 48.216 589.702 48.488C589.206 48.744 588.774 49.096 588.406 49.544C588.054 49.976 587.782 50.472 587.59 51.032C587.398 51.592 587.302 52.176 587.302 52.784C587.302 53.408 587.406 54 587.614 54.56C587.838 55.12 588.142 55.616 588.526 56.048C588.926 56.48 589.382 56.816 589.894 57.056C590.422 57.296 590.99 57.416 591.598 57.416C591.982 57.416 592.374 57.344 592.774 57.2C593.19 57.056 593.582 56.856 593.95 56.6C594.318 56.344 594.63 56.048 594.886 55.712C595.142 55.36 595.31 54.992 595.39 54.608ZM606.572 59.24C605.628 59.24 604.764 59.072 603.98 58.736C603.212 58.384 602.54 57.912 601.964 57.32C601.404 56.712 600.964 56.016 600.644 55.232C600.34 54.448 600.188 53.616 600.188 52.736C600.188 51.552 600.46 50.472 601.004 49.496C601.548 48.52 602.3 47.736 603.26 47.144C604.236 46.552 605.348 46.256 606.596 46.256C607.86 46.256 608.956 46.56 609.884 47.168C610.828 47.76 611.556 48.544 612.068 49.52C612.596 50.48 612.86 51.52 612.86 52.64C612.86 52.8 612.852 52.96 612.836 53.12C612.836 53.264 612.828 53.376 612.812 53.456H602.42C602.484 54.272 602.708 55 603.092 55.64C603.492 56.264 604.004 56.76 604.628 57.128C605.252 57.48 605.924 57.656 606.644 57.656C607.412 57.656 608.132 57.464 608.804 57.08C609.492 56.696 609.964 56.192 610.22 55.568L612.044 56.072C611.772 56.68 611.364 57.224 610.82 57.704C610.292 58.184 609.66 58.56 608.924 58.832C608.204 59.104 607.42 59.24 606.572 59.24ZM602.348 51.992H610.892C610.828 51.176 610.596 50.456 610.196 49.832C609.796 49.208 609.284 48.72 608.66 48.368C608.036 48.016 607.348 47.84 606.596 47.84C605.86 47.84 605.18 48.016 604.556 48.368C603.932 48.72 603.42 49.208 603.02 49.832C602.636 50.456 602.412 51.176 602.348 51.992ZM626.08 59H623.968V51.992C623.968 50.664 623.76 49.696 623.344 49.088C622.944 48.464 622.328 48.152 621.496 48.152C620.92 48.152 620.344 48.296 619.768 48.584C619.208 48.872 618.704 49.264 618.256 49.76C617.824 50.24 617.512 50.8 617.32 51.44V59H615.208V46.472H617.128V49.16C617.464 48.568 617.896 48.056 618.424 47.624C618.952 47.192 619.552 46.856 620.224 46.616C620.896 46.376 621.6 46.256 622.336 46.256C623.056 46.256 623.656 46.392 624.136 46.664C624.632 46.92 625.016 47.288 625.288 47.768C625.576 48.232 625.776 48.784 625.888 49.424C626.016 50.064 626.08 50.76 626.08 51.512V59ZM634.908 59.24C633.964 59.24 633.1 59.072 632.316 58.736C631.548 58.384 630.876 57.904 630.3 57.296C629.74 56.688 629.3 55.992 628.98 55.208C628.676 54.424 628.524 53.592 628.524 52.712C628.524 51.528 628.788 50.448 629.316 49.472C629.844 48.496 630.588 47.72 631.548 47.144C632.508 46.552 633.62 46.256 634.884 46.256C636.116 46.256 637.188 46.536 638.1 47.096C639.028 47.64 639.716 48.376 640.164 49.304L638.1 49.952C637.78 49.36 637.332 48.904 636.756 48.584C636.18 48.248 635.54 48.08 634.836 48.08C634.068 48.08 633.364 48.28 632.724 48.68C632.1 49.08 631.604 49.632 631.236 50.336C630.868 51.024 630.684 51.816 630.684 52.712C630.684 53.592 630.868 54.392 631.236 55.112C631.62 55.816 632.124 56.376 632.748 56.792C633.388 57.208 634.092 57.416 634.86 57.416C635.356 57.416 635.828 57.328 636.276 57.152C636.74 56.976 637.14 56.744 637.476 56.456C637.828 56.152 638.068 55.824 638.196 55.472L640.26 56.096C640.004 56.704 639.612 57.248 639.084 57.728C638.572 58.192 637.956 58.56 637.236 58.832C636.532 59.104 635.756 59.24 634.908 59.24ZM648.08 59.24C647.136 59.24 646.272 59.072 645.488 58.736C644.72 58.384 644.048 57.912 643.472 57.32C642.912 56.712 642.472 56.016 642.152 55.232C641.848 54.448 641.696 53.616 641.696 52.736C641.696 51.552 641.968 50.472 642.512 49.496C643.056 48.52 643.808 47.736 644.768 47.144C645.744 46.552 646.856 46.256 648.104 46.256C649.368 46.256 650.464 46.56 651.392 47.168C652.336 47.76 653.064 48.544 653.576 49.52C654.104 50.48 654.368 51.52 654.368 52.64C654.368 52.8 654.36 52.96 654.344 53.12C654.344 53.264 654.336 53.376 654.32 53.456H643.928C643.992 54.272 644.216 55 644.6 55.64C645 56.264 645.512 56.76 646.136 57.128C646.76 57.48 647.432 57.656 648.152 57.656C648.92 57.656 649.64 57.464 650.312 57.08C651 56.696 651.472 56.192 651.728 55.568L653.552 56.072C653.28 56.68 652.872 57.224 652.328 57.704C651.8 58.184 651.168 58.56 650.432 58.832C649.712 59.104 648.928 59.24 648.08 59.24ZM643.856 51.992H652.4C652.336 51.176 652.104 50.456 651.704 49.832C651.304 49.208 650.792 48.72 650.168 48.368C649.544 48.016 648.856 47.84 648.104 47.84C647.368 47.84 646.688 48.016 646.064 48.368C645.44 48.72 644.928 49.208 644.528 49.832C644.144 50.456 643.92 51.176 643.856 51.992ZM656.548 59V56.312H658.324V59H656.548Z" fill="#3B3548"/>
</svg>
