<svg width="317" height="140" viewBox="0 0 317 140" fill="none" xmlns="http://www.w3.org/2000/svg">
<path d="M39.1521 9.8C39.1521 8.81333 39.3521 7.91333 39.7521 7.1C40.1654 6.27333 40.7254 5.61333 41.4321 5.12C42.1521 4.62667 42.9721 4.38 43.8921 4.38C44.7321 4.38 45.4854 4.6 46.1521 5.04C46.8188 5.48 47.3388 6.01333 47.7121 6.64V0.4H49.4721V13C49.4721 13.2133 49.5121 13.3733 49.5921 13.48C49.6854 13.5733 49.8321 13.6267 50.0321 13.64V15C49.6988 15.0533 49.4388 15.08 49.2521 15.08C48.9054 15.08 48.5988 14.96 48.3321 14.72C48.0788 14.48 47.9521 14.2133 47.9521 13.92V13.04C47.5388 13.7067 46.9854 14.2333 46.2921 14.62C45.5988 15.0067 44.8788 15.2 44.1321 15.2C43.4121 15.2 42.7454 15.06 42.1321 14.78C41.5321 14.4867 41.0054 14.0867 40.5521 13.58C40.1121 13.0733 39.7654 12.5 39.5121 11.86C39.2721 11.2067 39.1521 10.52 39.1521 9.8ZM47.7121 11.34V8.34C47.5521 7.88667 47.2921 7.48 46.9321 7.12C46.5721 6.74667 46.1654 6.45333 45.7121 6.24C45.2721 6.01333 44.8321 5.9 44.3921 5.9C43.8721 5.9 43.3988 6.01333 42.9721 6.24C42.5588 6.45333 42.1988 6.74667 41.8921 7.12C41.5988 7.48 41.3721 7.89333 41.2121 8.36C41.0521 8.82667 40.9721 9.31333 40.9721 9.82C40.9721 10.34 41.0588 10.8333 41.2321 11.3C41.4188 11.7667 41.6721 12.18 41.9921 12.54C42.3254 12.9 42.7054 13.18 43.1321 13.38C43.5721 13.58 44.0454 13.68 44.5521 13.68C44.8721 13.68 45.1988 13.62 45.5321 13.5C45.8788 13.38 46.2054 13.2133 46.5121 13C46.8188 12.7867 47.0788 12.54 47.2921 12.26C47.5054 11.9667 47.6454 11.66 47.7121 11.34ZM52.4102 15V4.56H54.1702V15H52.4102ZM52.4102 2.6V0.4H54.1702V2.6H52.4102ZM60.5996 15.2C59.7329 15.2 58.9196 15.06 58.1596 14.78C57.3996 14.4867 56.7463 14.0533 56.1996 13.48L56.8796 12.24C57.4796 12.8 58.0796 13.2 58.6796 13.44C59.2796 13.68 59.8929 13.8 60.5196 13.8C61.2396 13.8 61.8263 13.6667 62.2796 13.4C62.7329 13.12 62.9596 12.7133 62.9596 12.18C62.9596 11.7933 62.8396 11.5067 62.5996 11.32C62.3729 11.1333 62.0463 10.98 61.6196 10.86C61.1929 10.7267 60.6863 10.58 60.0996 10.42C59.3796 10.2067 58.7729 9.98 58.2796 9.74C57.7863 9.5 57.4129 9.2 57.1596 8.84C56.9063 8.48 56.7796 8.02667 56.7796 7.48C56.7796 6.81333 56.9529 6.25333 57.2996 5.8C57.6463 5.33333 58.1196 4.98 58.7196 4.74C59.3329 4.5 60.0263 4.38 60.7996 4.38C61.5729 4.38 62.2729 4.5 62.8996 4.74C63.5263 4.98 64.0663 5.33333 64.5196 5.8L63.7196 7.02C63.3063 6.59333 62.8529 6.28 62.3596 6.08C61.8663 5.86667 61.3129 5.76 60.6996 5.76C60.3396 5.76 59.9863 5.80667 59.6396 5.9C59.2929 5.98 59.0063 6.13333 58.7796 6.36C58.5529 6.57333 58.4396 6.88 58.4396 7.28C58.4396 7.61333 58.5263 7.88 58.6996 8.08C58.8863 8.26667 59.1529 8.42667 59.4996 8.56C59.8596 8.69333 60.2929 8.84 60.7996 9C61.5863 9.22667 62.2663 9.45333 62.8396 9.68C63.4263 9.90667 63.8796 10.2 64.1996 10.56C64.5196 10.92 64.6796 11.42 64.6796 12.06C64.6796 13.0467 64.3063 13.82 63.5596 14.38C62.8129 14.9267 61.8263 15.2 60.5996 15.2ZM71.4052 15.2C70.6186 15.2 69.8986 15.06 69.2452 14.78C68.6052 14.4867 68.0452 14.0867 67.5652 13.58C67.0986 13.0733 66.7319 12.4933 66.4652 11.84C66.2119 11.1867 66.0852 10.4933 66.0852 9.76C66.0852 8.77333 66.3052 7.87333 66.7452 7.06C67.1852 6.24667 67.8052 5.6 68.6052 5.12C69.4052 4.62667 70.3319 4.38 71.3852 4.38C72.4119 4.38 73.3052 4.61333 74.0652 5.08C74.8386 5.53333 75.4119 6.14667 75.7852 6.92L74.0652 7.46C73.7986 6.96667 73.4252 6.58667 72.9452 6.32C72.4652 6.04 71.9319 5.9 71.3452 5.9C70.7052 5.9 70.1186 6.06667 69.5852 6.4C69.0652 6.73333 68.6519 7.19333 68.3452 7.78C68.0386 8.35333 67.8852 9.01333 67.8852 9.76C67.8852 10.4933 68.0386 11.16 68.3452 11.76C68.6652 12.3467 69.0852 12.8133 69.6052 13.16C70.1386 13.5067 70.7252 13.68 71.3652 13.68C71.7786 13.68 72.1719 13.6067 72.5452 13.46C72.9319 13.3133 73.2652 13.12 73.5452 12.88C73.8386 12.6267 74.0386 12.3533 74.1452 12.06L75.8652 12.58C75.6519 13.0867 75.3252 13.54 74.8852 13.94C74.4586 14.3267 73.9452 14.6333 73.3452 14.86C72.7586 15.0867 72.1119 15.2 71.4052 15.2ZM82.3218 15.2C81.5351 15.2 80.8218 15.06 80.1818 14.78C79.5418 14.4867 78.9885 14.0933 78.5218 13.6C78.0551 13.0933 77.6951 12.5133 77.4418 11.86C77.1885 11.2067 77.0618 10.52 77.0618 9.8C77.0618 9.06667 77.1885 8.37333 77.4418 7.72C77.6951 7.06667 78.0551 6.49333 78.5218 6C78.9885 5.49333 79.5418 5.1 80.1818 4.82C80.8351 4.52667 81.5485 4.38 82.3218 4.38C83.1085 4.38 83.8218 4.52667 84.4618 4.82C85.1018 5.1 85.6551 5.49333 86.1218 6C86.6018 6.49333 86.9685 7.06667 87.2218 7.72C87.4751 8.37333 87.6018 9.06667 87.6018 9.8C87.6018 10.52 87.4751 11.2067 87.2218 11.86C86.9685 12.5133 86.6085 13.0933 86.1418 13.6C85.6751 14.0933 85.1151 14.4867 84.4618 14.78C83.8218 15.06 83.1085 15.2 82.3218 15.2ZM78.8618 9.82C78.8618 10.54 79.0151 11.1933 79.3218 11.78C79.6418 12.3667 80.0618 12.8333 80.5818 13.18C81.1018 13.5133 81.6818 13.68 82.3218 13.68C82.9618 13.68 83.5418 13.5067 84.0618 13.16C84.5951 12.8133 85.0151 12.3467 85.3218 11.76C85.6418 11.16 85.8018 10.5 85.8018 9.78C85.8018 9.06 85.6418 8.40667 85.3218 7.82C85.0151 7.23333 84.5951 6.76667 84.0618 6.42C83.5418 6.07333 82.9618 5.9 82.3218 5.9C81.6818 5.9 81.1018 6.08 80.5818 6.44C80.0618 6.78667 79.6418 7.25333 79.3218 7.84C79.0151 8.42667 78.8618 9.08667 78.8618 9.82ZM92.3829 15L88.2829 4.56H90.1229L93.4029 13.32L96.6829 4.56H98.4029L94.3029 15H92.3829ZM104.433 15.2C103.646 15.2 102.926 15.06 102.273 14.78C101.633 14.4867 101.073 14.0933 100.593 13.6C100.126 13.0933 99.7592 12.5133 99.4926 11.86C99.2392 11.2067 99.1126 10.5133 99.1126 9.78C99.1126 8.79333 99.3392 7.89333 99.7926 7.08C100.246 6.26667 100.873 5.61333 101.673 5.12C102.486 4.62667 103.413 4.38 104.453 4.38C105.506 4.38 106.419 4.63333 107.193 5.14C107.979 5.63333 108.586 6.28667 109.013 7.1C109.453 7.9 109.673 8.76667 109.673 9.7C109.673 9.83333 109.666 9.96667 109.653 10.1C109.653 10.22 109.646 10.3133 109.633 10.38H100.973C101.026 11.06 101.213 11.6667 101.533 12.2C101.866 12.72 102.293 13.1333 102.813 13.44C103.333 13.7333 103.893 13.88 104.493 13.88C105.133 13.88 105.733 13.72 106.293 13.4C106.866 13.08 107.259 12.66 107.473 12.14L108.993 12.56C108.766 13.0667 108.426 13.52 107.973 13.92C107.533 14.32 107.006 14.6333 106.393 14.86C105.793 15.0867 105.139 15.2 104.433 15.2ZM100.913 9.16H108.033C107.979 8.48 107.786 7.88 107.453 7.36C107.119 6.84 106.693 6.43333 106.173 6.14C105.653 5.84667 105.079 5.7 104.453 5.7C103.839 5.7 103.273 5.84667 102.753 6.14C102.233 6.43333 101.806 6.84 101.473 7.36C101.153 7.88 100.966 8.48 100.913 9.16ZM117.149 6.1C116.269 6.11333 115.489 6.34 114.809 6.78C114.142 7.20667 113.669 7.8 113.389 8.56V15H111.629V4.56H113.269V6.98C113.629 6.26 114.102 5.68 114.689 5.24C115.289 4.78667 115.916 4.53333 116.569 4.48C116.702 4.48 116.816 4.48 116.909 4.48C117.002 4.48 117.082 4.48667 117.149 4.5V6.1ZM132.544 15H130.784V9.16C130.784 8.09333 130.591 7.29333 130.204 6.76C129.831 6.22667 129.291 5.96 128.584 5.96C128.131 5.96 127.671 6.08 127.204 6.32C126.751 6.56 126.351 6.88667 126.004 7.3C125.658 7.7 125.404 8.16667 125.244 8.7V15H123.484V0.4H125.244V6.8C125.658 6.05333 126.218 5.46667 126.924 5.04C127.644 4.6 128.418 4.38 129.244 4.38C129.871 4.38 130.391 4.49333 130.804 4.72C131.231 4.93333 131.571 5.24 131.824 5.64C132.078 6.04 132.258 6.50667 132.364 7.04C132.484 7.56 132.544 8.13333 132.544 8.76V15ZM135.281 15V4.56H137.041V15H135.281ZM135.281 2.6V0.4H137.041V2.6H135.281ZM139.211 9.8C139.211 8.81333 139.411 7.91333 139.811 7.1C140.224 6.27333 140.784 5.61333 141.491 5.12C142.211 4.62667 143.031 4.38 143.951 4.38C144.791 4.38 145.544 4.6 146.211 5.04C146.877 5.48 147.397 6.01333 147.771 6.64V0.4H149.531V13C149.531 13.2133 149.571 13.3733 149.651 13.48C149.744 13.5733 149.891 13.6267 150.091 13.64V15C149.757 15.0533 149.497 15.08 149.311 15.08C148.964 15.08 148.657 14.96 148.391 14.72C148.137 14.48 148.011 14.2133 148.011 13.92V13.04C147.597 13.7067 147.044 14.2333 146.351 14.62C145.657 15.0067 144.937 15.2 144.191 15.2C143.471 15.2 142.804 15.06 142.191 14.78C141.591 14.4867 141.064 14.0867 140.611 13.58C140.171 13.0733 139.824 12.5 139.571 11.86C139.331 11.2067 139.211 10.52 139.211 9.8ZM147.771 11.34V8.34C147.611 7.88667 147.351 7.48 146.991 7.12C146.631 6.74667 146.224 6.45333 145.771 6.24C145.331 6.01333 144.891 5.9 144.451 5.9C143.931 5.9 143.457 6.01333 143.031 6.24C142.617 6.45333 142.257 6.74667 141.951 7.12C141.657 7.48 141.431 7.89333 141.271 8.36C141.111 8.82667 141.031 9.31333 141.031 9.82C141.031 10.34 141.117 10.8333 141.291 11.3C141.477 11.7667 141.731 12.18 142.051 12.54C142.384 12.9 142.764 13.18 143.191 13.38C143.631 13.58 144.104 13.68 144.611 13.68C144.931 13.68 145.257 13.62 145.591 13.5C145.937 13.38 146.264 13.2133 146.571 13C146.877 12.7867 147.137 12.54 147.351 12.26C147.564 11.9667 147.704 11.66 147.771 11.34ZM151.789 9.8C151.789 8.81333 151.989 7.91333 152.389 7.1C152.802 6.27333 153.362 5.61333 154.069 5.12C154.789 4.62667 155.609 4.38 156.529 4.38C157.369 4.38 158.122 4.6 158.789 5.04C159.455 5.48 159.975 6.01333 160.349 6.64V0.4H162.109V13C162.109 13.2133 162.149 13.3733 162.229 13.48C162.322 13.5733 162.469 13.6267 162.669 13.64V15C162.335 15.0533 162.075 15.08 161.889 15.08C161.542 15.08 161.235 14.96 160.969 14.72C160.715 14.48 160.589 14.2133 160.589 13.92V13.04C160.175 13.7067 159.622 14.2333 158.929 14.62C158.235 15.0067 157.515 15.2 156.769 15.2C156.049 15.2 155.382 15.06 154.769 14.78C154.169 14.4867 153.642 14.0867 153.189 13.58C152.749 13.0733 152.402 12.5 152.149 11.86C151.909 11.2067 151.789 10.52 151.789 9.8ZM160.349 11.34V8.34C160.189 7.88667 159.929 7.48 159.569 7.12C159.209 6.74667 158.802 6.45333 158.349 6.24C157.909 6.01333 157.469 5.9 157.029 5.9C156.509 5.9 156.035 6.01333 155.609 6.24C155.195 6.45333 154.835 6.74667 154.529 7.12C154.235 7.48 154.009 7.89333 153.849 8.36C153.689 8.82667 153.609 9.31333 153.609 9.82C153.609 10.34 153.695 10.8333 153.869 11.3C154.055 11.7667 154.309 12.18 154.629 12.54C154.962 12.9 155.342 13.18 155.769 13.38C156.209 13.58 156.682 13.68 157.189 13.68C157.509 13.68 157.835 13.62 158.169 13.5C158.515 13.38 158.842 13.2133 159.149 13C159.455 12.7867 159.715 12.54 159.929 12.26C160.142 11.9667 160.282 11.66 160.349 11.34ZM169.667 15.2C168.88 15.2 168.16 15.06 167.507 14.78C166.867 14.4867 166.307 14.0933 165.827 13.6C165.36 13.0933 164.994 12.5133 164.727 11.86C164.474 11.2067 164.347 10.5133 164.347 9.78C164.347 8.79333 164.574 7.89333 165.027 7.08C165.48 6.26667 166.107 5.61333 166.907 5.12C167.72 4.62667 168.647 4.38 169.687 4.38C170.74 4.38 171.654 4.63333 172.427 5.14C173.214 5.63333 173.82 6.28667 174.247 7.1C174.687 7.9 174.907 8.76667 174.907 9.7C174.907 9.83333 174.9 9.96667 174.887 10.1C174.887 10.22 174.88 10.3133 174.867 10.38H166.207C166.26 11.06 166.447 11.6667 166.767 12.2C167.1 12.72 167.527 13.1333 168.047 13.44C168.567 13.7333 169.127 13.88 169.727 13.88C170.367 13.88 170.967 13.72 171.527 13.4C172.1 13.08 172.494 12.66 172.707 12.14L174.227 12.56C174 13.0667 173.66 13.52 173.207 13.92C172.767 14.32 172.24 14.6333 171.627 14.86C171.027 15.0867 170.374 15.2 169.667 15.2ZM166.147 9.16H173.267C173.214 8.48 173.02 7.88 172.687 7.36C172.354 6.84 171.927 6.43333 171.407 6.14C170.887 5.84667 170.314 5.7 169.687 5.7C169.074 5.7 168.507 5.84667 167.987 6.14C167.467 6.43333 167.04 6.84 166.707 7.36C166.387 7.88 166.2 8.48 166.147 9.16ZM185.923 15H184.163V9.16C184.163 8.05333 183.99 7.24667 183.643 6.74C183.31 6.22 182.797 5.96 182.103 5.96C181.623 5.96 181.143 6.08 180.663 6.32C180.197 6.56 179.777 6.88667 179.403 7.3C179.043 7.7 178.783 8.16667 178.623 8.7V15H176.863V4.56H178.463V6.8C178.743 6.30667 179.103 5.88 179.543 5.52C179.983 5.16 180.483 4.88 181.043 4.68C181.603 4.48 182.19 4.38 182.803 4.38C183.403 4.38 183.903 4.49333 184.303 4.72C184.717 4.93333 185.037 5.24 185.263 5.64C185.503 6.02667 185.67 6.48667 185.763 7.02C185.87 7.55333 185.923 8.13333 185.923 8.76V15ZM197.299 15.2C196.432 15.2 195.619 15.06 194.859 14.78C194.099 14.4867 193.445 14.0533 192.899 13.48L193.579 12.24C194.179 12.8 194.779 13.2 195.379 13.44C195.979 13.68 196.592 13.8 197.219 13.8C197.939 13.8 198.525 13.6667 198.979 13.4C199.432 13.12 199.659 12.7133 199.659 12.18C199.659 11.7933 199.539 11.5067 199.299 11.32C199.072 11.1333 198.745 10.98 198.319 10.86C197.892 10.7267 197.385 10.58 196.799 10.42C196.079 10.2067 195.472 9.98 194.979 9.74C194.485 9.5 194.112 9.2 193.859 8.84C193.605 8.48 193.479 8.02667 193.479 7.48C193.479 6.81333 193.652 6.25333 193.999 5.8C194.345 5.33333 194.819 4.98 195.419 4.74C196.032 4.5 196.725 4.38 197.499 4.38C198.272 4.38 198.972 4.5 199.599 4.74C200.225 4.98 200.765 5.33333 201.219 5.8L200.419 7.02C200.005 6.59333 199.552 6.28 199.059 6.08C198.565 5.86667 198.012 5.76 197.399 5.76C197.039 5.76 196.685 5.80667 196.339 5.9C195.992 5.98 195.705 6.13333 195.479 6.36C195.252 6.57333 195.139 6.88 195.139 7.28C195.139 7.61333 195.225 7.88 195.399 8.08C195.585 8.26667 195.852 8.42667 196.199 8.56C196.559 8.69333 196.992 8.84 197.499 9C198.285 9.22667 198.965 9.45333 199.539 9.68C200.125 9.90667 200.579 10.2 200.899 10.56C201.219 10.92 201.379 11.42 201.379 12.06C201.379 13.0467 201.005 13.82 200.259 14.38C199.512 14.9267 198.525 15.2 197.299 15.2ZM209.104 15.2C208.251 15.2 207.491 14.9867 206.824 14.56C206.158 14.1333 205.631 13.5933 205.244 12.94V19.26H203.484V4.56H205.044V6.52C205.458 5.88 205.998 5.36667 206.664 4.98C207.331 4.58 208.058 4.38 208.844 4.38C209.564 4.38 210.224 4.52667 210.824 4.82C211.424 5.11333 211.944 5.51333 212.384 6.02C212.824 6.52667 213.164 7.10667 213.404 7.76C213.658 8.4 213.784 9.07333 213.784 9.78C213.784 10.7667 213.584 11.6733 213.184 12.5C212.798 13.3267 212.251 13.9867 211.544 14.48C210.838 14.96 210.024 15.2 209.104 15.2ZM208.564 13.68C209.084 13.68 209.551 13.5733 209.964 13.36C210.391 13.1333 210.751 12.84 211.044 12.48C211.351 12.1067 211.584 11.6867 211.744 11.22C211.904 10.7533 211.984 10.2733 211.984 9.78C211.984 9.26 211.891 8.76667 211.704 8.3C211.531 7.83333 211.278 7.42 210.944 7.06C210.624 6.7 210.244 6.42 209.804 6.22C209.378 6.00667 208.911 5.9 208.404 5.9C208.084 5.9 207.751 5.96 207.404 6.08C207.071 6.2 206.751 6.37333 206.444 6.6C206.138 6.81333 205.878 7.06 205.664 7.34C205.451 7.62 205.311 7.92 205.244 8.24V11.22C205.444 11.6733 205.711 12.0867 206.044 12.46C206.378 12.8333 206.764 13.1333 207.204 13.36C207.644 13.5733 208.098 13.68 208.564 13.68ZM220.505 15.2C219.719 15.2 219.005 15.06 218.365 14.78C217.725 14.4867 217.172 14.0933 216.705 13.6C216.239 13.0933 215.879 12.5133 215.625 11.86C215.372 11.2067 215.245 10.52 215.245 9.8C215.245 9.06667 215.372 8.37333 215.625 7.72C215.879 7.06667 216.239 6.49333 216.705 6C217.172 5.49333 217.725 5.1 218.365 4.82C219.019 4.52667 219.732 4.38 220.505 4.38C221.292 4.38 222.005 4.52667 222.645 4.82C223.285 5.1 223.839 5.49333 224.305 6C224.785 6.49333 225.152 7.06667 225.405 7.72C225.659 8.37333 225.785 9.06667 225.785 9.8C225.785 10.52 225.659 11.2067 225.405 11.86C225.152 12.5133 224.792 13.0933 224.325 13.6C223.859 14.0933 223.299 14.4867 222.645 14.78C222.005 15.06 221.292 15.2 220.505 15.2ZM217.045 9.82C217.045 10.54 217.199 11.1933 217.505 11.78C217.825 12.3667 218.245 12.8333 218.765 13.18C219.285 13.5133 219.865 13.68 220.505 13.68C221.145 13.68 221.725 13.5067 222.245 13.16C222.779 12.8133 223.199 12.3467 223.505 11.76C223.825 11.16 223.985 10.5 223.985 9.78C223.985 9.06 223.825 8.40667 223.505 7.82C223.199 7.23333 222.779 6.76667 222.245 6.42C221.725 6.07333 221.145 5.9 220.505 5.9C219.865 5.9 219.285 6.08 218.765 6.44C218.245 6.78667 217.825 7.25333 217.505 7.84C217.199 8.42667 217.045 9.08667 217.045 9.82ZM233.162 14.48C233.015 14.5467 232.815 14.6333 232.562 14.74C232.308 14.8467 232.015 14.94 231.682 15.02C231.348 15.1 230.995 15.14 230.622 15.14C230.195 15.14 229.802 15.0667 229.442 14.92C229.082 14.76 228.795 14.52 228.582 14.2C228.368 13.8667 228.262 13.4533 228.262 12.96V5.94H226.842V4.56H228.262V1.08H230.022V4.56H232.362V5.94H230.022V12.42C230.048 12.7933 230.175 13.0733 230.402 13.26C230.628 13.4333 230.895 13.52 231.202 13.52C231.548 13.52 231.868 13.46 232.162 13.34C232.455 13.22 232.648 13.1333 232.742 13.08L233.162 14.48ZM238.373 15.2C237.506 15.2 236.693 15.06 235.933 14.78C235.173 14.4867 234.52 14.0533 233.973 13.48L234.653 12.24C235.253 12.8 235.853 13.2 236.453 13.44C237.053 13.68 237.666 13.8 238.293 13.8C239.013 13.8 239.6 13.6667 240.053 13.4C240.506 13.12 240.733 12.7133 240.733 12.18C240.733 11.7933 240.613 11.5067 240.373 11.32C240.146 11.1333 239.82 10.98 239.393 10.86C238.966 10.7267 238.46 10.58 237.873 10.42C237.153 10.2067 236.546 9.98 236.053 9.74C235.56 9.5 235.186 9.2 234.933 8.84C234.68 8.48 234.553 8.02667 234.553 7.48C234.553 6.81333 234.726 6.25333 235.073 5.8C235.42 5.33333 235.893 4.98 236.493 4.74C237.106 4.5 237.8 4.38 238.573 4.38C239.346 4.38 240.046 4.5 240.673 4.74C241.3 4.98 241.84 5.33333 242.293 5.8L241.493 7.02C241.08 6.59333 240.626 6.28 240.133 6.08C239.64 5.86667 239.086 5.76 238.473 5.76C238.113 5.76 237.76 5.80667 237.413 5.9C237.066 5.98 236.78 6.13333 236.553 6.36C236.326 6.57333 236.213 6.88 236.213 7.28C236.213 7.61333 236.3 7.88 236.473 8.08C236.66 8.26667 236.926 8.42667 237.273 8.56C237.633 8.69333 238.066 8.84 238.573 9C239.36 9.22667 240.04 9.45333 240.613 9.68C241.2 9.90667 241.653 10.2 241.973 10.56C242.293 10.92 242.453 11.42 242.453 12.06C242.453 13.0467 242.08 13.82 241.333 14.38C240.586 14.9267 239.6 15.2 238.373 15.2ZM248.797 11.98C248.797 11.3133 248.984 10.74 249.357 10.26C249.744 9.76667 250.271 9.38667 250.937 9.12C251.604 8.85333 252.377 8.72 253.257 8.72C253.724 8.72 254.217 8.76 254.737 8.84C255.257 8.90667 255.717 9.01333 256.117 9.16V8.4C256.117 7.6 255.877 6.97333 255.397 6.52C254.917 6.05333 254.237 5.82 253.357 5.82C252.784 5.82 252.231 5.92667 251.697 6.14C251.177 6.34 250.624 6.63333 250.037 7.02L249.397 5.78C250.077 5.31333 250.757 4.96667 251.437 4.74C252.117 4.5 252.824 4.38 253.557 4.38C254.891 4.38 255.944 4.75333 256.717 5.5C257.491 6.23333 257.877 7.26 257.877 8.58V13C257.877 13.2133 257.917 13.3733 257.997 13.48C258.091 13.5733 258.237 13.6267 258.437 13.64V15C258.264 15.0267 258.111 15.0467 257.977 15.06C257.857 15.0733 257.757 15.08 257.677 15.08C257.264 15.08 256.951 14.9667 256.737 14.74C256.537 14.5133 256.424 14.2733 256.397 14.02L256.357 13.36C255.904 13.9467 255.311 14.4 254.577 14.72C253.844 15.04 253.117 15.2 252.397 15.2C251.704 15.2 251.084 15.06 250.537 14.78C249.991 14.4867 249.564 14.1 249.257 13.62C248.951 13.1267 248.797 12.58 248.797 11.98ZM255.597 12.72C255.757 12.5333 255.884 12.3467 255.977 12.16C256.071 11.96 256.117 11.7933 256.117 11.66V10.36C255.704 10.2 255.271 10.08 254.817 10C254.364 9.90667 253.917 9.86 253.477 9.86C252.584 9.86 251.857 10.04 251.297 10.4C250.751 10.7467 250.477 11.2267 250.477 11.84C250.477 12.1733 250.564 12.5 250.737 12.82C250.924 13.1267 251.191 13.38 251.537 13.58C251.897 13.78 252.337 13.88 252.857 13.88C253.404 13.88 253.924 13.7733 254.417 13.56C254.911 13.3333 255.304 13.0533 255.597 12.72ZM269.751 15H267.991V9.16C267.991 8.05333 267.818 7.24667 267.471 6.74C267.138 6.22 266.625 5.96 265.931 5.96C265.451 5.96 264.971 6.08 264.491 6.32C264.025 6.56 263.605 6.88667 263.231 7.3C262.871 7.7 262.611 8.16667 262.451 8.7V15H260.691V4.56H262.291V6.8C262.571 6.30667 262.931 5.88 263.371 5.52C263.811 5.16 264.311 4.88 264.871 4.68C265.431 4.48 266.018 4.38 266.631 4.38C267.231 4.38 267.731 4.49333 268.131 4.72C268.545 4.93333 268.865 5.24 269.091 5.64C269.331 6.02667 269.498 6.48667 269.591 7.02C269.698 7.55333 269.751 8.13333 269.751 8.76V15ZM271.808 9.8C271.808 8.81333 272.008 7.91333 272.408 7.1C272.822 6.27333 273.382 5.61333 274.088 5.12C274.808 4.62667 275.628 4.38 276.548 4.38C277.388 4.38 278.142 4.6 278.808 5.04C279.475 5.48 279.995 6.01333 280.368 6.64V0.4H282.128V13C282.128 13.2133 282.168 13.3733 282.248 13.48C282.342 13.5733 282.488 13.6267 282.688 13.64V15C282.355 15.0533 282.095 15.08 281.908 15.08C281.562 15.08 281.255 14.96 280.988 14.72C280.735 14.48 280.608 14.2133 280.608 13.92V13.04C280.195 13.7067 279.642 14.2333 278.948 14.62C278.255 15.0067 277.535 15.2 276.788 15.2C276.068 15.2 275.402 15.06 274.788 14.78C274.188 14.4867 273.662 14.0867 273.208 13.58C272.768 13.0733 272.422 12.5 272.168 11.86C271.928 11.2067 271.808 10.52 271.808 9.8ZM280.368 11.34V8.34C280.208 7.88667 279.948 7.48 279.588 7.12C279.228 6.74667 278.822 6.45333 278.368 6.24C277.928 6.01333 277.488 5.9 277.048 5.9C276.528 5.9 276.055 6.01333 275.628 6.24C275.215 6.45333 274.855 6.74667 274.548 7.12C274.255 7.48 274.028 7.89333 273.868 8.36C273.708 8.82667 273.628 9.31333 273.628 9.82C273.628 10.34 273.715 10.8333 273.888 11.3C274.075 11.7667 274.328 12.18 274.648 12.54C274.982 12.9 275.362 13.18 275.788 13.38C276.228 13.58 276.702 13.68 277.208 13.68C277.528 13.68 277.855 13.62 278.188 13.5C278.535 13.38 278.862 13.2133 279.168 13C279.475 12.7867 279.735 12.54 279.948 12.26C280.162 11.9667 280.302 11.66 280.368 11.34ZM26.0225 40.4H27.7825V52.3C27.7825 52.8733 27.8625 53.2267 28.0225 53.36C28.1825 53.4933 28.3758 53.56 28.6025 53.56C28.8825 53.56 29.1492 53.5333 29.4025 53.48C29.6558 53.4133 29.8692 53.3467 30.0425 53.28L30.3225 54.72C30.0292 54.84 29.6825 54.94 29.2825 55.02C28.8825 55.1 28.5292 55.14 28.2225 55.14C27.5425 55.14 27.0025 54.9467 26.6025 54.56C26.2158 54.1733 26.0225 53.6333 26.0225 52.94V40.4ZM36.2652 55.2C35.4785 55.2 34.7652 55.06 34.1252 54.78C33.4852 54.4867 32.9318 54.0933 32.4652 53.6C31.9985 53.0933 31.6385 52.5133 31.3852 51.86C31.1318 51.2067 31.0052 50.52 31.0052 49.8C31.0052 49.0667 31.1318 48.3733 31.3852 47.72C31.6385 47.0667 31.9985 46.4933 32.4652 46C32.9318 45.4933 33.4852 45.1 34.1252 44.82C34.7785 44.5267 35.4918 44.38 36.2652 44.38C37.0518 44.38 37.7652 44.5267 38.4052 44.82C39.0452 45.1 39.5985 45.4933 40.0652 46C40.5452 46.4933 40.9118 47.0667 41.1652 47.72C41.4185 48.3733 41.5452 49.0667 41.5452 49.8C41.5452 50.52 41.4185 51.2067 41.1652 51.86C40.9118 52.5133 40.5518 53.0933 40.0852 53.6C39.6185 54.0933 39.0585 54.4867 38.4052 54.78C37.7652 55.06 37.0518 55.2 36.2652 55.2ZM32.8052 49.82C32.8052 50.54 32.9585 51.1933 33.2652 51.78C33.5852 52.3667 34.0052 52.8333 34.5252 53.18C35.0452 53.5133 35.6252 53.68 36.2652 53.68C36.9052 53.68 37.4852 53.5067 38.0052 53.16C38.5385 52.8133 38.9585 52.3467 39.2652 51.76C39.5852 51.16 39.7452 50.5 39.7452 49.78C39.7452 49.06 39.5852 48.4067 39.2652 47.82C38.9585 47.2333 38.5385 46.7667 38.0052 46.42C37.4852 46.0733 36.9052 45.9 36.2652 45.9C35.6252 45.9 35.0452 46.08 34.5252 46.44C34.0052 46.7867 33.5852 47.2533 33.2652 47.84C32.9585 48.4267 32.8052 49.0867 32.8052 49.82ZM48.2978 55.2C47.5111 55.2 46.7911 55.06 46.1378 54.78C45.4978 54.4867 44.9378 54.0867 44.4578 53.58C43.9911 53.0733 43.6245 52.4933 43.3578 51.84C43.1045 51.1867 42.9778 50.4933 42.9778 49.76C42.9778 48.7733 43.1978 47.8733 43.6378 47.06C44.0778 46.2467 44.6978 45.6 45.4978 45.12C46.2978 44.6267 47.2245 44.38 48.2778 44.38C49.3045 44.38 50.1978 44.6133 50.9578 45.08C51.7311 45.5333 52.3045 46.1467 52.6778 46.92L50.9578 47.46C50.6911 46.9667 50.3178 46.5867 49.8378 46.32C49.3578 46.04 48.8245 45.9 48.2378 45.9C47.5978 45.9 47.0111 46.0667 46.4778 46.4C45.9578 46.7333 45.5445 47.1933 45.2378 47.78C44.9311 48.3533 44.7778 49.0133 44.7778 49.76C44.7778 50.4933 44.9311 51.16 45.2378 51.76C45.5578 52.3467 45.9778 52.8133 46.4978 53.16C47.0311 53.5067 47.6178 53.68 48.2578 53.68C48.6711 53.68 49.0645 53.6067 49.4378 53.46C49.8245 53.3133 50.1578 53.12 50.4378 52.88C50.7311 52.6267 50.9311 52.3533 51.0378 52.06L52.7578 52.58C52.5445 53.0867 52.2178 53.54 51.7778 53.94C51.3511 54.3267 50.8378 54.6333 50.2378 54.86C49.6511 55.0867 49.0045 55.2 48.2978 55.2ZM53.932 51.98C53.932 51.3133 54.1187 50.74 54.492 50.26C54.8787 49.7667 55.4054 49.3867 56.072 49.12C56.7387 48.8533 57.512 48.72 58.392 48.72C58.8587 48.72 59.352 48.76 59.872 48.84C60.392 48.9067 60.852 49.0133 61.252 49.16V48.4C61.252 47.6 61.012 46.9733 60.532 46.52C60.052 46.0533 59.372 45.82 58.492 45.82C57.9187 45.82 57.3654 45.9267 56.832 46.14C56.312 46.34 55.7587 46.6333 55.172 47.02L54.532 45.78C55.212 45.3133 55.892 44.9667 56.572 44.74C57.252 44.5 57.9587 44.38 58.692 44.38C60.0254 44.38 61.0787 44.7533 61.852 45.5C62.6254 46.2333 63.012 47.26 63.012 48.58V53C63.012 53.2133 63.052 53.3733 63.132 53.48C63.2254 53.5733 63.372 53.6267 63.572 53.64V55C63.3987 55.0267 63.2454 55.0467 63.112 55.06C62.992 55.0733 62.892 55.08 62.812 55.08C62.3987 55.08 62.0854 54.9667 61.872 54.74C61.672 54.5133 61.5587 54.2733 61.532 54.02L61.492 53.36C61.0387 53.9467 60.4454 54.4 59.712 54.72C58.9787 55.04 58.252 55.2 57.532 55.2C56.8387 55.2 56.2187 55.06 55.672 54.78C55.1254 54.4867 54.6987 54.1 54.392 53.62C54.0854 53.1267 53.932 52.58 53.932 51.98ZM60.732 52.72C60.892 52.5333 61.0187 52.3467 61.112 52.16C61.2054 51.96 61.252 51.7933 61.252 51.66V50.36C60.8387 50.2 60.4054 50.08 59.952 50C59.4987 49.9067 59.052 49.86 58.612 49.86C57.7187 49.86 56.992 50.04 56.432 50.4C55.8854 50.7467 55.612 51.2267 55.612 51.84C55.612 52.1733 55.6987 52.5 55.872 52.82C56.0587 53.1267 56.3254 53.38 56.672 53.58C57.032 53.78 57.472 53.88 57.992 53.88C58.5387 53.88 59.0587 53.7733 59.552 53.56C60.0454 53.3333 60.4387 53.0533 60.732 52.72ZM71.1481 54.48C71.0015 54.5467 70.8015 54.6333 70.5481 54.74C70.2948 54.8467 70.0015 54.94 69.6681 55.02C69.3348 55.1 68.9815 55.14 68.6081 55.14C68.1815 55.14 67.7881 55.0667 67.4281 54.92C67.0681 54.76 66.7815 54.52 66.5681 54.2C66.3548 53.8667 66.2481 53.4533 66.2481 52.96V45.94H64.8281V44.56H66.2481V41.08H68.0081V44.56H70.3481V45.94H68.0081V52.42C68.0348 52.7933 68.1615 53.0733 68.3881 53.26C68.6148 53.4333 68.8815 53.52 69.1881 53.52C69.5348 53.52 69.8548 53.46 70.1481 53.34C70.4415 53.22 70.6348 53.1333 70.7281 53.08L71.1481 54.48ZM72.7794 55V44.56H74.5394V55H72.7794ZM72.7794 42.6V40.4H74.5394V42.6H72.7794ZM81.9488 55.2C81.1621 55.2 80.4488 55.06 79.8088 54.78C79.1688 54.4867 78.6154 54.0933 78.1488 53.6C77.6821 53.0933 77.3221 52.5133 77.0688 51.86C76.8154 51.2067 76.6888 50.52 76.6888 49.8C76.6888 49.0667 76.8154 48.3733 77.0688 47.72C77.3221 47.0667 77.6821 46.4933 78.1488 46C78.6154 45.4933 79.1688 45.1 79.8088 44.82C80.4621 44.5267 81.1754 44.38 81.9488 44.38C82.7354 44.38 83.4488 44.5267 84.0888 44.82C84.7288 45.1 85.2821 45.4933 85.7488 46C86.2288 46.4933 86.5954 47.0667 86.8488 47.72C87.1021 48.3733 87.2288 49.0667 87.2288 49.8C87.2288 50.52 87.1021 51.2067 86.8488 51.86C86.5954 52.5133 86.2354 53.0933 85.7688 53.6C85.3021 54.0933 84.7421 54.4867 84.0888 54.78C83.4488 55.06 82.7354 55.2 81.9488 55.2ZM78.4888 49.82C78.4888 50.54 78.6421 51.1933 78.9488 51.78C79.2688 52.3667 79.6888 52.8333 80.2088 53.18C80.7288 53.5133 81.3088 53.68 81.9488 53.68C82.5888 53.68 83.1688 53.5067 83.6888 53.16C84.2221 52.8133 84.6421 52.3467 84.9488 51.76C85.2688 51.16 85.4288 50.5 85.4288 49.78C85.4288 49.06 85.2688 48.4067 84.9488 47.82C84.6421 47.2333 84.2221 46.7667 83.6888 46.42C83.1688 46.0733 82.5888 45.9 81.9488 45.9C81.3088 45.9 80.7288 46.08 80.2088 46.44C79.6888 46.7867 79.2688 47.2533 78.9488 47.84C78.6421 48.4267 78.4888 49.0867 78.4888 49.82ZM98.4214 55H96.6614V49.16C96.6614 48.0533 96.4881 47.2467 96.1414 46.74C95.8081 46.22 95.2947 45.96 94.6014 45.96C94.1214 45.96 93.6414 46.08 93.1614 46.32C92.6947 46.56 92.2747 46.8867 91.9014 47.3C91.5414 47.7 91.2814 48.1667 91.1214 48.7V55H89.3614V44.56H90.9614V46.8C91.2414 46.3067 91.6014 45.88 92.0414 45.52C92.4814 45.16 92.9814 44.88 93.5414 44.68C94.1014 44.48 94.6881 44.38 95.3014 44.38C95.9014 44.38 96.4014 44.4933 96.8014 44.72C97.2147 44.9333 97.5347 45.24 97.7614 45.64C98.0014 46.0267 98.1681 46.4867 98.2614 47.02C98.3681 47.5533 98.4214 48.1333 98.4214 48.76V55ZM104.738 55.2C103.872 55.2 103.058 55.06 102.298 54.78C101.538 54.4867 100.885 54.0533 100.338 53.48L101.018 52.24C101.618 52.8 102.218 53.2 102.818 53.44C103.418 53.68 104.032 53.8 104.658 53.8C105.378 53.8 105.965 53.6667 106.418 53.4C106.872 53.12 107.098 52.7133 107.098 52.18C107.098 51.7933 106.978 51.5067 106.738 51.32C106.512 51.1333 106.185 50.98 105.758 50.86C105.332 50.7267 104.825 50.58 104.238 50.42C103.518 50.2067 102.912 49.98 102.418 49.74C101.925 49.5 101.552 49.2 101.298 48.84C101.045 48.48 100.918 48.0267 100.918 47.48C100.918 46.8133 101.092 46.2533 101.438 45.8C101.785 45.3333 102.258 44.98 102.858 44.74C103.472 44.5 104.165 44.38 104.938 44.38C105.712 44.38 106.412 44.5 107.038 44.74C107.665 44.98 108.205 45.3333 108.658 45.8L107.858 47.02C107.445 46.5933 106.992 46.28 106.498 46.08C106.005 45.8667 105.452 45.76 104.838 45.76C104.478 45.76 104.125 45.8067 103.778 45.9C103.432 45.98 103.145 46.1333 102.918 46.36C102.692 46.5733 102.578 46.88 102.578 47.28C102.578 47.6133 102.665 47.88 102.838 48.08C103.025 48.2667 103.292 48.4267 103.638 48.56C103.998 48.6933 104.432 48.84 104.938 49C105.725 49.2267 106.405 49.4533 106.978 49.68C107.565 49.9067 108.018 50.2 108.338 50.56C108.658 50.92 108.818 51.42 108.818 52.06C108.818 53.0467 108.445 53.82 107.698 54.38C106.952 54.9267 105.965 55.2 104.738 55.2ZM121.383 54.48C121.236 54.5467 121.036 54.6333 120.783 54.74C120.529 54.8467 120.236 54.94 119.903 55.02C119.569 55.1 119.216 55.14 118.843 55.14C118.416 55.14 118.023 55.0667 117.663 54.92C117.303 54.76 117.016 54.52 116.803 54.2C116.589 53.8667 116.483 53.4533 116.483 52.96V45.94H115.063V44.56H116.483V41.08H118.243V44.56H120.583V45.94H118.243V52.42C118.269 52.7933 118.396 53.0733 118.623 53.26C118.849 53.4333 119.116 53.52 119.423 53.52C119.769 53.52 120.089 53.46 120.383 53.34C120.676 53.22 120.869 53.1333 120.963 53.08L121.383 54.48ZM132.074 55H130.314V49.16C130.314 48.0933 130.12 47.2933 129.734 46.76C129.36 46.2267 128.82 45.96 128.114 45.96C127.66 45.96 127.2 46.08 126.734 46.32C126.28 46.56 125.88 46.8867 125.534 47.3C125.187 47.7 124.934 48.1667 124.774 48.7V55H123.014V40.4H124.774V46.8C125.187 46.0533 125.747 45.4667 126.454 45.04C127.174 44.6 127.947 44.38 128.774 44.38C129.4 44.38 129.92 44.4933 130.334 44.72C130.76 44.9333 131.1 45.24 131.354 45.64C131.607 46.04 131.787 46.5067 131.894 47.04C132.014 47.56 132.074 48.1333 132.074 48.76V55ZM133.991 51.98C133.991 51.3133 134.177 50.74 134.551 50.26C134.937 49.7667 135.464 49.3867 136.131 49.12C136.797 48.8533 137.571 48.72 138.451 48.72C138.917 48.72 139.411 48.76 139.931 48.84C140.451 48.9067 140.911 49.0133 141.311 49.16V48.4C141.311 47.6 141.071 46.9733 140.591 46.52C140.111 46.0533 139.431 45.82 138.551 45.82C137.977 45.82 137.424 45.9267 136.891 46.14C136.371 46.34 135.817 46.6333 135.231 47.02L134.591 45.78C135.271 45.3133 135.951 44.9667 136.631 44.74C137.311 44.5 138.017 44.38 138.751 44.38C140.084 44.38 141.137 44.7533 141.911 45.5C142.684 46.2333 143.071 47.26 143.071 48.58V53C143.071 53.2133 143.111 53.3733 143.191 53.48C143.284 53.5733 143.431 53.6267 143.631 53.64V55C143.457 55.0267 143.304 55.0467 143.171 55.06C143.051 55.0733 142.951 55.08 142.871 55.08C142.457 55.08 142.144 54.9667 141.931 54.74C141.731 54.5133 141.617 54.2733 141.591 54.02L141.551 53.36C141.097 53.9467 140.504 54.4 139.771 54.72C139.037 55.04 138.311 55.2 137.591 55.2C136.897 55.2 136.277 55.06 135.731 54.78C135.184 54.4867 134.757 54.1 134.451 53.62C134.144 53.1267 133.991 52.58 133.991 51.98ZM140.791 52.72C140.951 52.5333 141.077 52.3467 141.171 52.16C141.264 51.96 141.311 51.7933 141.311 51.66V50.36C140.897 50.2 140.464 50.08 140.011 50C139.557 49.9067 139.111 49.86 138.671 49.86C137.777 49.86 137.051 50.04 136.491 50.4C135.944 50.7467 135.671 51.2267 135.671 51.84C135.671 52.1733 135.757 52.5 135.931 52.82C136.117 53.1267 136.384 53.38 136.731 53.58C137.091 53.78 137.531 53.88 138.051 53.88C138.597 53.88 139.117 53.7733 139.611 53.56C140.104 53.3333 140.497 53.0533 140.791 52.72ZM151.207 54.48C151.06 54.5467 150.86 54.6333 150.607 54.74C150.353 54.8467 150.06 54.94 149.727 55.02C149.393 55.1 149.04 55.14 148.667 55.14C148.24 55.14 147.847 55.0667 147.487 54.92C147.127 54.76 146.84 54.52 146.627 54.2C146.413 53.8667 146.307 53.4533 146.307 52.96V45.94H144.887V44.56H146.307V41.08H148.067V44.56H150.407V45.94H148.067V52.42C148.093 52.7933 148.22 53.0733 148.447 53.26C148.673 53.4333 148.94 53.52 149.247 53.52C149.593 53.52 149.913 53.46 150.207 53.34C150.5 53.22 150.693 53.1333 150.787 53.08L151.207 54.48ZM158.457 45.94H157.037V44.56H158.457V44.34C158.457 43.82 158.537 43.32 158.697 42.84C158.857 42.3467 159.097 41.9 159.417 41.5C159.737 41.1 160.137 40.7867 160.617 40.56C161.097 40.32 161.663 40.2 162.317 40.2C162.81 40.2 163.263 40.2533 163.677 40.36C164.09 40.4667 164.457 40.6 164.777 40.76C165.11 40.92 165.383 41.08 165.597 41.24L164.837 42.54C164.583 42.3133 164.237 42.12 163.797 41.96C163.37 41.8 162.91 41.72 162.417 41.72C161.91 41.72 161.49 41.8467 161.157 42.1C160.837 42.3533 160.597 42.68 160.437 43.08C160.29 43.4667 160.217 43.8667 160.217 44.28V44.56H165.557V55H163.797V45.94H160.217V55H158.457V45.94ZM173.804 54.48C173.658 54.5467 173.458 54.6333 173.204 54.74C172.951 54.8467 172.658 54.94 172.324 55.02C171.991 55.1 171.638 55.14 171.264 55.14C170.838 55.14 170.444 55.0667 170.084 54.92C169.724 54.76 169.438 54.52 169.224 54.2C169.011 53.8667 168.904 53.4533 168.904 52.96V45.94H167.484V44.56H168.904V41.08H170.664V44.56H173.004V45.94H170.664V52.42C170.691 52.7933 170.818 53.0733 171.044 53.26C171.271 53.4333 171.538 53.52 171.844 53.52C172.191 53.52 172.511 53.46 172.804 53.34C173.098 53.22 173.291 53.1333 173.384 53.08L173.804 54.48ZM180.427 57.84C180.601 57.8533 180.774 57.8667 180.947 57.88C181.121 57.9067 181.254 57.92 181.347 57.92C181.561 57.92 181.747 57.8467 181.907 57.7C182.067 57.5533 182.241 57.2667 182.427 56.84C182.627 56.4267 182.881 55.8133 183.187 55L178.767 44.56H180.627L184.147 53.22L187.327 44.56H189.067L183.987 57.74C183.867 58.0467 183.687 58.3333 183.447 58.6C183.221 58.88 182.927 59.1 182.567 59.26C182.207 59.42 181.774 59.5 181.267 59.5C181.147 59.5 181.021 59.4933 180.887 59.48C180.767 59.4667 180.614 59.44 180.427 59.4V57.84ZM195.035 55.2C194.248 55.2 193.535 55.06 192.895 54.78C192.255 54.4867 191.701 54.0933 191.235 53.6C190.768 53.0933 190.408 52.5133 190.155 51.86C189.901 51.2067 189.775 50.52 189.775 49.8C189.775 49.0667 189.901 48.3733 190.155 47.72C190.408 47.0667 190.768 46.4933 191.235 46C191.701 45.4933 192.255 45.1 192.895 44.82C193.548 44.5267 194.261 44.38 195.035 44.38C195.821 44.38 196.535 44.5267 197.175 44.82C197.815 45.1 198.368 45.4933 198.835 46C199.315 46.4933 199.681 47.0667 199.935 47.72C200.188 48.3733 200.315 49.0667 200.315 49.8C200.315 50.52 200.188 51.2067 199.935 51.86C199.681 52.5133 199.321 53.0933 198.855 53.6C198.388 54.0933 197.828 54.4867 197.175 54.78C196.535 55.06 195.821 55.2 195.035 55.2ZM191.575 49.82C191.575 50.54 191.728 51.1933 192.035 51.78C192.355 52.3667 192.775 52.8333 193.295 53.18C193.815 53.5133 194.395 53.68 195.035 53.68C195.675 53.68 196.255 53.5067 196.775 53.16C197.308 52.8133 197.728 52.3467 198.035 51.76C198.355 51.16 198.515 50.5 198.515 49.78C198.515 49.06 198.355 48.4067 198.035 47.82C197.728 47.2333 197.308 46.7667 196.775 46.42C196.255 46.0733 195.675 45.9 195.035 45.9C194.395 45.9 193.815 46.08 193.295 46.44C192.775 46.7867 192.355 47.2533 192.035 47.84C191.728 48.4267 191.575 49.0867 191.575 49.82ZM202.347 50.82V44.56H204.107V50.48C204.107 51.5467 204.294 52.3467 204.667 52.88C205.041 53.4133 205.594 53.68 206.327 53.68C206.807 53.68 207.267 53.58 207.707 53.38C208.161 53.1667 208.567 52.8667 208.927 52.48C209.287 52.0933 209.567 51.6333 209.767 51.1V44.56H211.527V53C211.527 53.2133 211.567 53.3733 211.647 53.48C211.741 53.5733 211.887 53.6267 212.087 53.64V55C211.887 55.0267 211.727 55.04 211.607 55.04C211.501 55.0533 211.394 55.06 211.287 55.06C210.954 55.06 210.667 54.96 210.427 54.76C210.187 54.5467 210.061 54.2867 210.047 53.98L210.007 52.76C209.554 53.5333 208.941 54.1333 208.167 54.56C207.407 54.9867 206.574 55.2 205.667 55.2C204.574 55.2 203.747 54.8333 203.187 54.1C202.627 53.3533 202.347 52.26 202.347 50.82ZM219.979 46.1C219.099 46.1133 218.319 46.34 217.639 46.78C216.972 47.2067 216.499 47.8 216.219 48.56V55H214.459V44.56H216.099V46.98C216.459 46.26 216.932 45.68 217.519 45.24C218.119 44.7867 218.746 44.5333 219.399 44.48C219.532 44.48 219.646 44.48 219.739 44.48C219.832 44.48 219.912 44.4867 219.979 44.5V46.1ZM229.502 54.94L225.902 44.26L229.282 43.96L231.282 44.96L231.882 46.88L232.822 43.84L236.002 43.56L238.002 44.56L234.302 55.7L231.502 55.94L229.502 54.94ZM232.982 44.04L231.042 50.32L229.122 44.18L226.182 44.44L229.622 54.74L232.162 54.52L235.722 43.8L232.982 44.04ZM239.063 54.94V43.94L240.423 43.84L239.023 43.14V39.74L242.363 39.46L244.363 40.46V43.86L242.943 43.98L244.303 44.66V55.64L241.063 55.92L239.063 54.94ZM239.223 39.92V42.92L242.163 42.68V39.68L239.223 39.92ZM239.263 44.12V54.72L242.103 54.48V43.88L239.263 44.12ZM246.307 55.18V39.98L249.567 39.7L251.567 40.7V43.48C251.874 43.44 252.167 43.42 252.447 43.42C253.394 43.42 254.261 43.66 255.047 44.14C255.847 44.6067 256.487 45.32 256.967 46.28C257.461 47.2267 257.707 48.4267 257.707 49.88C257.707 51.8 257.327 53.2733 256.567 54.3C255.821 55.3133 254.827 55.8733 253.587 55.98C253.547 55.98 253.501 55.98 253.447 55.98C253.407 55.9933 253.361 56 253.307 56C252.881 56 252.454 55.9267 252.027 55.78C251.614 55.6467 251.287 55.5 251.047 55.34L250.647 55.98L248.307 56.18L246.307 55.18ZM249.187 53.82C249.374 54.0067 249.634 54.22 249.967 54.46C250.314 54.7 250.754 54.82 251.287 54.82C251.327 54.82 251.367 54.82 251.407 54.82C251.461 54.8067 251.514 54.8 251.567 54.8C252.767 54.6933 253.721 54.1467 254.427 53.16C255.147 52.16 255.507 50.7333 255.507 48.88C255.507 47.16 255.194 45.86 254.567 44.98C253.954 44.1 253.074 43.66 251.927 43.66C251.874 43.66 251.807 43.66 251.727 43.66C251.661 43.66 251.594 43.6667 251.527 43.68C250.914 43.7333 250.441 43.9267 250.107 44.26C249.774 44.5933 249.547 44.9067 249.427 45.2L249.367 45.18V39.92L246.507 40.16V54.98L248.547 54.8L249.187 53.82ZM250.787 52.28C250.374 52.28 250.061 52.16 249.847 51.92C249.647 51.68 249.487 51.4533 249.367 51.24V48.52C249.367 47.9333 249.514 47.4533 249.807 47.08C250.114 46.7067 250.474 46.5 250.887 46.46H251.047C251.607 46.46 252.001 46.6933 252.227 47.16C252.454 47.6133 252.567 48.2733 252.567 49.14C252.567 50.1933 252.407 50.9733 252.087 51.48C251.781 51.9733 251.394 52.24 250.927 52.28H250.787ZM251.567 51.8C251.821 51.6 252.014 51.28 252.147 50.84C252.294 50.4 252.367 49.8333 252.367 49.14C252.367 48.9133 252.361 48.6867 252.347 48.46C252.334 48.2333 252.307 48.0533 252.267 47.92C252.001 48 251.814 48.1733 251.707 48.44C251.614 48.7067 251.567 49.0667 251.567 49.52V51.8ZM270.08 52.32C269.72 53.44 269.187 54.3467 268.48 55.04C267.787 55.7333 266.84 56.1333 265.64 56.24C265.493 56.2533 265.347 56.26 265.2 56.26C265.067 56.2733 264.927 56.28 264.78 56.28C263.62 56.28 262.573 56.04 261.64 55.56C260.72 55.0933 259.987 54.3867 259.44 53.44C258.893 52.4933 258.62 51.32 258.62 49.92C258.62 48.6933 258.827 47.6333 259.24 46.74C259.667 45.8467 260.24 45.1467 260.96 44.64C261.693 44.12 262.527 43.82 263.46 43.74C263.553 43.7267 263.647 43.72 263.74 43.72C263.847 43.72 263.947 43.72 264.04 43.72C264.787 43.72 265.52 43.8533 266.24 44.12C266.973 44.3733 267.633 44.7733 268.22 45.32C268.82 45.8667 269.293 46.5733 269.64 47.44C270 48.2933 270.18 49.32 270.18 50.52C270.18 50.6267 270.18 50.74 270.18 50.86C270.18 50.9667 270.173 51.0733 270.16 51.18L268.06 51.36L270.08 52.32ZM265.36 50.78C265.24 51.2333 265.02 51.6067 264.7 51.9C264.38 52.1933 263.967 52.3667 263.46 52.42H263.3C262.847 52.42 262.473 52.2533 262.18 51.92C261.887 51.5867 261.74 51.1267 261.74 50.54L267.96 50C267.973 49.8667 267.98 49.74 267.98 49.62C267.98 49.4867 267.98 49.36 267.98 49.24C267.98 47.56 267.62 46.2533 266.9 45.32C266.18 44.3867 265.187 43.92 263.92 43.92C263.853 43.92 263.78 43.92 263.7 43.92C263.633 43.92 263.56 43.9267 263.48 43.94C262.587 44.0067 261.787 44.2933 261.08 44.8C260.373 45.2933 259.82 45.9733 259.42 46.84C259.02 47.7067 258.82 48.7333 258.82 49.92C258.82 51.64 259.207 52.9267 259.98 53.78C260.753 54.6333 261.78 55.06 263.06 55.06C263.153 55.06 263.247 55.06 263.34 55.06C263.433 55.06 263.527 55.0533 263.62 55.04C264.767 54.9467 265.673 54.5733 266.34 53.92C267.02 53.2667 267.507 52.4533 267.8 51.48L265.36 50.78ZM261.84 48.3C261.84 47.86 261.993 47.48 262.3 47.16C262.607 46.84 263 46.66 263.48 46.62H263.66C264.06 46.62 264.387 46.74 264.64 46.98C264.907 47.2067 265.04 47.5533 265.04 48.02L261.84 48.3ZM263.46 51.78C263.46 51.8467 263.487 51.9133 263.54 51.98C263.607 52.0467 263.673 52.1133 263.74 52.18C263.98 52.1133 264.167 52.0333 264.3 51.94C264.433 51.8467 264.547 51.7533 264.64 51.66L263.46 51.78ZM287.447 55C287.02 55.36 286.54 55.6533 286.007 55.88C285.474 56.12 284.934 56.26 284.387 56.3C284.24 56.3133 284.094 56.32 283.947 56.32C283.814 56.3333 283.674 56.34 283.527 56.34C282.314 56.34 281.254 56.1133 280.347 55.66C279.44 55.2067 278.74 54.56 278.247 53.72C277.754 52.88 277.507 51.8733 277.507 50.7C277.507 49.86 277.68 49.1 278.027 48.42C278.387 47.7267 278.88 47.0933 279.507 46.52C279.107 46.0133 278.814 45.5267 278.627 45.06C278.44 44.5933 278.347 44.0333 278.347 43.38C278.347 42.6467 278.5 41.98 278.807 41.38C279.127 40.78 279.554 40.2933 280.087 39.92C280.634 39.5467 281.247 39.3267 281.927 39.26C282.034 39.2467 282.127 39.24 282.207 39.24C282.3 39.24 282.394 39.24 282.487 39.24C283.38 39.24 284.214 39.4267 284.987 39.8C285.76 40.1733 286.387 40.7 286.867 41.38C287.347 42.0467 287.587 42.8333 287.587 43.74C287.587 44.4067 287.394 45.1067 287.007 45.84L288.187 45.74L290.187 46.74C290.187 47.7133 290.127 48.6 290.007 49.4C289.887 50.1867 289.714 50.9133 289.487 51.58L292.627 55.18L288.527 55.52L287.447 55ZM287.267 50.64C287.494 49.9733 287.667 49.2533 287.787 48.48C287.92 47.6933 287.987 46.8533 287.987 45.96L285.307 46.2C285.307 46.56 285.294 46.9067 285.267 47.24C285.24 47.56 285.2 47.8733 285.147 48.18L283.647 46.46C284.194 45.86 284.62 45.2333 284.927 44.58C285.234 43.9267 285.387 43.3133 285.387 42.74C285.387 41.7267 285.114 40.9267 284.567 40.34C284.02 39.74 283.274 39.44 282.327 39.44C282.274 39.44 282.214 39.44 282.147 39.44C282.08 39.44 282.014 39.4467 281.947 39.46C281.307 39.5133 280.727 39.72 280.207 40.08C279.7 40.44 279.294 40.9067 278.987 41.48C278.694 42.04 278.547 42.6733 278.547 43.38C278.547 44.0333 278.647 44.6 278.847 45.08C279.047 45.5467 279.36 46.04 279.787 46.56C279.134 47.12 278.62 47.74 278.247 48.42C277.887 49.1 277.707 49.86 277.707 50.7C277.707 52.02 278.047 53.0867 278.727 53.9C279.407 54.7133 280.434 55.12 281.807 55.12C281.914 55.12 282.014 55.12 282.107 55.12C282.214 55.12 282.314 55.1133 282.407 55.1C283.687 54.9933 284.8 54.42 285.747 53.38L286.587 54.32L290.187 54L287.267 50.64ZM281.307 42.98C281.307 42.7267 281.38 42.5133 281.527 42.34C281.674 42.1667 281.874 42.0667 282.127 42.04H282.207C282.447 42.04 282.634 42.1133 282.767 42.26C282.9 42.4067 282.967 42.6067 282.967 42.86C282.967 43.0867 282.88 43.36 282.707 43.68C282.547 43.9867 282.334 44.3067 282.067 44.64C281.867 44.3733 281.694 44.1067 281.547 43.84C281.414 43.56 281.334 43.3067 281.307 43.08V42.98ZM283.947 51.32C283.734 51.5867 283.494 51.8067 283.227 51.98C282.96 52.14 282.687 52.2333 282.407 52.26C282.367 52.26 282.32 52.2667 282.267 52.28C282.227 52.28 282.187 52.28 282.147 52.28C281.614 52.28 281.2 52.1133 280.907 51.78C280.627 51.4467 280.487 51.0067 280.487 50.46C280.487 49.6467 280.787 48.96 281.387 48.4L283.947 51.32ZM0.768125 95.18V79.98L4.02813 79.7L6.02813 80.7V83.48C6.33479 83.44 6.62813 83.42 6.90813 83.42C7.85479 83.42 8.72146 83.66 9.50813 84.14C10.3081 84.6067 10.9481 85.32 11.4281 86.28C11.9215 87.2267 12.1681 88.4267 12.1681 89.88C12.1681 91.8 11.7881 93.2733 11.0281 94.3C10.2815 95.3133 9.28813 95.8733 8.04813 95.98C8.00813 95.98 7.96146 95.98 7.90813 95.98C7.86813 95.9933 7.82146 96 7.76813 96C7.34146 96 6.91479 95.9267 6.48813 95.78C6.07479 95.6467 5.74813 95.5 5.50813 95.34L5.10812 95.98L2.76812 96.18L0.768125 95.18ZM3.64813 93.82C3.83479 94.0067 4.09479 94.22 4.42813 94.46C4.77479 94.7 5.21479 94.82 5.74813 94.82C5.78813 94.82 5.82813 94.82 5.86813 94.82C5.92146 94.8067 5.97479 94.8 6.02813 94.8C7.22813 94.6933 8.18146 94.1467 8.88813 93.16C9.60813 92.16 9.96813 90.7333 9.96813 88.88C9.96813 87.16 9.65479 85.86 9.02813 84.98C8.41479 84.1 7.53479 83.66 6.38813 83.66C6.33479 83.66 6.26813 83.66 6.18813 83.66C6.12146 83.66 6.05479 83.6667 5.98813 83.68C5.37479 83.7333 4.90146 83.9267 4.56813 84.26C4.23479 84.5933 4.00813 84.9067 3.88813 85.2L3.82813 85.18V79.92L0.968125 80.16V94.98L3.00813 94.8L3.64813 93.82ZM5.24813 92.28C4.83479 92.28 4.52146 92.16 4.30813 91.92C4.10813 91.68 3.94813 91.4533 3.82813 91.24V88.52C3.82813 87.9333 3.97479 87.4533 4.26813 87.08C4.57479 86.7067 4.93479 86.5 5.34813 86.46H5.50813C6.06813 86.46 6.46146 86.6933 6.68813 87.16C6.91479 87.6133 7.02813 88.2733 7.02813 89.14C7.02813 90.1933 6.86813 90.9733 6.54813 91.48C6.24146 91.9733 5.85479 92.24 5.38813 92.28H5.24813ZM6.02813 91.8C6.28146 91.6 6.47479 91.28 6.60813 90.84C6.75479 90.4 6.82813 89.8333 6.82813 89.14C6.82813 88.9133 6.82146 88.6867 6.80813 88.46C6.79479 88.2333 6.76813 88.0533 6.72813 87.92C6.46146 88 6.27479 88.1733 6.16813 88.44C6.07479 88.7067 6.02813 89.0667 6.02813 89.52V91.8ZM20.4211 95.56C20.2744 95.6933 20.0411 95.82 19.7211 95.94C19.4144 96.06 19.0811 96.1333 18.7211 96.16C18.6544 96.1733 18.5811 96.18 18.5011 96.18C18.4211 96.18 18.3478 96.18 18.2811 96.18C17.7478 96.18 17.2011 96.1067 16.6411 95.96C16.0944 95.8267 15.5878 95.6067 15.1211 95.3C14.6544 95.0067 14.2744 94.62 13.9811 94.14C13.7011 93.6467 13.5611 93.06 13.5611 92.38V84.2L16.8211 83.92L18.6211 84.8V91.46C18.6878 91.3933 18.7478 91.3533 18.8011 91.34C18.8678 91.3133 18.9278 91.2533 18.9811 91.16V83.92L22.2211 83.64L24.2211 84.64V95.64L21.1411 95.9L20.4211 95.56ZM19.1811 84.1V91.2C19.0478 91.4533 18.8678 91.66 18.6411 91.82C18.4278 91.9667 18.1344 92.06 17.7611 92.1H17.6611C17.3811 92.1 17.1344 92.0067 16.9211 91.82C16.7211 91.6333 16.6211 91.3133 16.6211 90.86V84.14L13.7611 84.38V92.38C13.7611 93.3 14.0144 93.9667 14.5211 94.38C15.0278 94.7933 15.6544 95 16.4011 95H16.7811C17.4211 94.9333 17.9678 94.7333 18.4211 94.4C18.8878 94.0533 19.1744 93.6333 19.2811 93.14L19.3411 93.16V94.7L22.0211 94.46V83.86L19.1811 84.1ZM33.5002 95.42C33.2868 95.5933 33.0335 95.7467 32.7402 95.88C32.4602 96.0133 32.1268 96.0933 31.7402 96.12C31.6335 96.1333 31.5202 96.14 31.4002 96.14C31.2802 96.14 31.1668 96.14 31.0602 96.14C29.9935 96.14 29.0468 95.9133 28.2202 95.46C27.4068 95.02 26.7668 94.3267 26.3002 93.38C25.8468 92.4333 25.6202 91.2067 25.6202 89.7C25.6202 87.8067 25.9802 86.3467 26.7002 85.32C27.4335 84.2933 28.4602 83.72 29.7802 83.6C29.8335 83.6 29.8802 83.6 29.9202 83.6C29.9735 83.5867 30.0268 83.58 30.0802 83.58C30.4535 83.58 30.7735 83.62 31.0402 83.7C31.3068 83.78 31.5468 83.8533 31.7602 83.92V79.48L35.0202 79.2L37.0202 80.2V95.42L33.9602 95.66L33.5002 95.42ZM31.9602 79.66V84.66L31.9002 84.68C31.8068 84.4133 31.6002 84.2 31.2802 84.04C30.9602 83.8667 30.5602 83.78 30.0802 83.78C30.0402 83.78 29.9935 83.7867 29.9402 83.8C29.9002 83.8 29.8535 83.8 29.8002 83.8C28.5335 83.92 27.5535 84.48 26.8602 85.48C26.1668 86.4667 25.8202 87.8733 25.8202 89.7C25.8202 91.46 26.1402 92.78 26.7802 93.66C27.4335 94.5267 28.3068 94.96 29.4002 94.96C29.4668 94.96 29.5268 94.96 29.5802 94.96C29.6468 94.96 29.7068 94.9533 29.7602 94.94C30.3868 94.8733 30.8935 94.68 31.2802 94.36C31.6668 94.0267 31.9402 93.6533 32.1002 93.24L32.1602 93.26V94.46L34.8202 94.24V79.42L31.9602 79.66ZM30.2802 92.3C29.8535 92.3 29.4868 92.08 29.1802 91.64C28.8868 91.1867 28.7402 90.4533 28.7402 89.44C28.7402 88.4267 28.8802 87.6933 29.1602 87.24C29.4402 86.7867 29.8668 86.5333 30.4402 86.48H30.6202C30.9668 86.48 31.2602 86.5667 31.5002 86.74C31.7402 86.9133 31.8935 87.14 31.9602 87.42V90.18C31.9602 90.78 31.8135 91.2733 31.5202 91.66C31.2402 92.0467 30.8668 92.26 30.4002 92.3H30.2802ZM31.7602 87.9C31.4668 87.94 31.2535 88.1533 31.1202 88.54C31.0002 88.9267 30.9402 89.56 30.9402 90.44C30.9402 90.72 30.9468 90.9867 30.9602 91.24C30.9735 91.48 31.0135 91.68 31.0802 91.84C31.5335 91.4667 31.7602 90.9133 31.7602 90.18V87.9ZM39.2331 95.54C39.4331 95.5533 39.6331 95.56 39.8331 95.56C40.0331 95.56 40.2265 95.56 40.4131 95.56C40.8398 95.56 41.2331 95.5467 41.5931 95.52C41.9531 95.5067 42.2598 95.4867 42.5131 95.46C42.6331 95.4467 42.7465 95.4267 42.8531 95.4C42.9731 95.3867 43.0865 95.3733 43.1931 95.36C42.5265 95.24 41.8998 95.0667 41.3131 94.84C40.7398 94.6 40.2331 94.2667 39.7931 93.84C39.3665 93.4 39.0265 92.82 38.7731 92.1C38.5331 91.38 38.4131 90.4733 38.4131 89.38C38.4131 88.0333 38.6131 86.9533 39.0131 86.14C39.4131 85.3133 39.9198 84.7067 40.5331 84.32C41.1598 83.92 41.8065 83.6933 42.4731 83.64C42.5531 83.6267 42.6331 83.62 42.7131 83.62C42.7931 83.62 42.8665 83.62 42.9331 83.62C43.3731 83.62 43.7531 83.6867 44.0731 83.82C44.3931 83.94 44.6331 84.0933 44.7931 84.28L45.0331 83.66L47.8131 83.42L49.8131 84.42V94.8C49.8131 95.84 49.6331 96.6933 49.2731 97.36C48.9131 98.0267 48.3065 98.5467 47.4531 98.92C46.5998 99.3067 45.4398 99.5867 43.9731 99.76C43.7598 99.7867 43.4798 99.8067 43.1331 99.82C42.7998 99.8333 42.4798 99.84 42.1731 99.84L40.1731 98.84L39.2331 95.54ZM45.1531 83.86L44.7731 85C44.6798 84.5733 44.4731 84.2733 44.1531 84.1C43.8465 83.9133 43.4531 83.82 42.9731 83.82C42.9065 83.82 42.8265 83.82 42.7331 83.82C42.6531 83.82 42.5731 83.8267 42.4931 83.84C41.8531 83.8933 41.2331 84.1133 40.6331 84.5C40.0465 84.8733 39.5598 85.46 39.1731 86.26C38.7998 87.0467 38.6131 88.0867 38.6131 89.38C38.6131 90.6333 38.7665 91.6133 39.0731 92.32C39.3931 93.0267 39.8131 93.5267 40.3331 93.82C40.8531 94.1133 41.4198 94.26 42.0331 94.26C42.0998 94.26 42.1731 94.26 42.2531 94.26C42.3331 94.26 42.4065 94.2533 42.4731 94.24C43.4198 94.1467 44.1798 93.7667 44.7531 93.1V94.04C44.7531 94.56 44.5665 94.94 44.1931 95.18C43.8198 95.42 43.2665 95.58 42.5331 95.66C41.9731 95.7267 41.2998 95.76 40.5131 95.76C40.3398 95.76 40.1665 95.76 39.9931 95.76C39.8198 95.76 39.6531 95.7533 39.4931 95.74L40.3331 98.64C40.5598 98.64 40.8331 98.6333 41.1531 98.62C41.4731 98.6067 41.7398 98.5867 41.9531 98.56C43.3665 98.3867 44.4865 98.12 45.3131 97.76C46.1398 97.4 46.7265 96.9 47.0731 96.26C47.4331 95.62 47.6131 94.8 47.6131 93.8V83.64L45.1531 83.86ZM44.7531 89.54C44.7531 90.1267 44.6065 90.5867 44.3131 90.92C44.0198 91.2533 43.6798 91.4333 43.2931 91.46C43.2531 91.46 43.2131 91.4667 43.1731 91.48C43.1331 91.48 43.0931 91.48 43.0531 91.48C42.5865 91.48 42.2265 91.3133 41.9731 90.98C41.7198 90.6467 41.5931 90.06 41.5931 89.22C41.5931 88.5267 41.6598 87.9933 41.7931 87.62C41.9398 87.2333 42.1331 86.96 42.3731 86.8C42.6131 86.6267 42.8798 86.5267 43.1731 86.5H43.3131C43.7131 86.5 44.0265 86.62 44.2531 86.86C44.4798 87.0867 44.6465 87.2933 44.7531 87.48V89.54ZM44.5531 87.92C44.3931 87.92 44.2531 87.98 44.1331 88.1C44.0265 88.22 43.9398 88.4467 43.8731 88.78C43.8198 89.1 43.7931 89.58 43.7931 90.22C43.7931 90.54 43.8131 90.82 43.8531 91.06C44.3198 90.82 44.5531 90.3133 44.5531 89.54V87.92ZM62.6661 92.32C62.3061 93.44 61.7728 94.3467 61.0661 95.04C60.3728 95.7333 59.4261 96.1333 58.2261 96.24C58.0794 96.2533 57.9328 96.26 57.7861 96.26C57.6528 96.2733 57.5128 96.28 57.3661 96.28C56.2061 96.28 55.1594 96.04 54.2261 95.56C53.3061 95.0933 52.5728 94.3867 52.0261 93.44C51.4794 92.4933 51.2061 91.32 51.2061 89.92C51.2061 88.6933 51.4128 87.6333 51.8261 86.74C52.2528 85.8467 52.8261 85.1467 53.5461 84.64C54.2794 84.12 55.1128 83.82 56.0461 83.74C56.1394 83.7267 56.2328 83.72 56.3261 83.72C56.4328 83.72 56.5328 83.72 56.6261 83.72C57.3728 83.72 58.1061 83.8533 58.8261 84.12C59.5594 84.3733 60.2194 84.7733 60.8061 85.32C61.4061 85.8667 61.8794 86.5733 62.2261 87.44C62.5861 88.2933 62.7661 89.32 62.7661 90.52C62.7661 90.6267 62.7661 90.74 62.7661 90.86C62.7661 90.9667 62.7594 91.0733 62.7461 91.18L60.6461 91.36L62.6661 92.32ZM57.9461 90.78C57.8261 91.2333 57.6061 91.6067 57.2861 91.9C56.9661 92.1933 56.5528 92.3667 56.0461 92.42H55.8861C55.4328 92.42 55.0594 92.2533 54.7661 91.92C54.4728 91.5867 54.3261 91.1267 54.3261 90.54L60.5461 90C60.5594 89.8667 60.5661 89.74 60.5661 89.62C60.5661 89.4867 60.5661 89.36 60.5661 89.24C60.5661 87.56 60.2061 86.2533 59.4861 85.32C58.7661 84.3867 57.7728 83.92 56.5061 83.92C56.4394 83.92 56.3661 83.92 56.2861 83.92C56.2194 83.92 56.1461 83.9267 56.0661 83.94C55.1728 84.0067 54.3728 84.2933 53.6661 84.8C52.9594 85.2933 52.4061 85.9733 52.0061 86.84C51.6061 87.7067 51.4061 88.7333 51.4061 89.92C51.4061 91.64 51.7928 92.9267 52.5661 93.78C53.3394 94.6333 54.3661 95.06 55.6461 95.06C55.7394 95.06 55.8328 95.06 55.9261 95.06C56.0194 95.06 56.1128 95.0533 56.2061 95.04C57.3528 94.9467 58.2594 94.5733 58.9261 93.92C59.6061 93.2667 60.0928 92.4533 60.3861 91.48L57.9461 90.78ZM54.4261 88.3C54.4261 87.86 54.5794 87.48 54.8861 87.16C55.1928 86.84 55.5861 86.66 56.0661 86.62H56.2461C56.6461 86.62 56.9728 86.74 57.2261 86.98C57.4928 87.2067 57.6261 87.5533 57.6261 88.02L54.4261 88.3ZM56.0461 91.78C56.0461 91.8467 56.0728 91.9133 56.1261 91.98C56.1928 92.0467 56.2594 92.1133 56.3261 92.18C56.5661 92.1133 56.7528 92.0333 56.8861 91.94C57.0194 91.8467 57.1328 91.7533 57.2261 91.66L56.0461 91.78ZM71.9666 95.94C71.6599 95.9533 71.3599 95.9667 71.0666 95.98C70.7866 96.0067 70.5132 96.02 70.2466 96.02C68.3532 96.02 66.9532 95.6733 66.0466 94.98C65.1399 94.2867 64.6866 93.1467 64.6866 91.56V87.74L63.4066 87.1V84.08L64.6866 83.98V80.72L67.9266 80.42L69.9266 81.42V83.72L71.5866 84.54V87.56L69.9266 87.7V91.72L70.6066 91.66L72.6066 92.66L71.9666 95.94ZM70.3466 91.9C70.0532 91.9267 69.7932 91.9533 69.5666 91.98C69.3532 91.9933 69.1532 92 68.9666 92C68.4066 92 68.0599 91.9 67.9266 91.7C67.7932 91.5 67.7266 91.1533 67.7266 90.66V86.52L69.3866 86.38V83.76L67.7266 83.9V80.64L64.8866 80.9V84.16L63.6066 84.26V86.88L64.8866 86.78V91.56C64.8866 92.36 64.9866 93 65.1866 93.48C65.3866 93.96 65.7266 94.3067 66.2066 94.52C66.6999 94.7333 67.3799 94.84 68.2466 94.84C68.4732 94.84 68.7132 94.8333 68.9666 94.82C69.2199 94.8067 69.4932 94.7867 69.7866 94.76L70.3466 91.9ZM73.2159 95.3V91.38L76.8159 91.06L78.8159 92.06V96L75.2159 96.3L73.2159 95.3ZM73.4159 91.56V95.08L76.6159 94.82V91.28L73.4159 91.56ZM95.6884 83.78C95.5284 83.5933 95.3151 83.4133 95.0484 83.24C94.7818 83.0667 94.4818 82.9133 94.1484 82.78C93.8151 82.6333 93.4484 82.52 93.0484 82.44C92.6618 82.3467 92.2551 82.3 91.8284 82.3C90.7351 82.3 89.9284 82.5067 89.4084 82.92C88.8884 83.3333 88.6284 83.9 88.6284 84.62C88.6284 85.1267 88.7618 85.5267 89.0284 85.82C89.2951 86.1133 89.7018 86.3533 90.2484 86.54C90.8084 86.7267 91.5151 86.92 92.3684 87.12C93.3551 87.3333 94.2084 87.5933 94.9284 87.9C95.6484 88.2067 96.2018 88.62 96.5884 89.14C96.9751 89.6467 97.1684 90.3267 97.1684 91.18C97.1684 91.86 97.0351 92.4533 96.7684 92.96C96.5151 93.4533 96.1551 93.8667 95.6884 94.2C95.2218 94.52 94.6751 94.76 94.0484 94.92C93.4218 95.0667 92.7418 95.14 92.0084 95.14C91.2884 95.14 90.5818 95.0667 89.8884 94.92C89.2084 94.76 88.5618 94.5333 87.9484 94.24C87.3351 93.9467 86.7618 93.58 86.2284 93.14L87.0884 91.62C87.3018 91.8467 87.5751 92.0733 87.9084 92.3C88.2551 92.5133 88.6418 92.7133 89.0684 92.9C89.5084 93.0867 89.9818 93.24 90.4884 93.36C90.9951 93.4667 91.5151 93.52 92.0484 93.52C93.0618 93.52 93.8484 93.34 94.4084 92.98C94.9684 92.6067 95.2484 92.0667 95.2484 91.36C95.2484 90.8267 95.0884 90.4 94.7684 90.08C94.4618 89.76 94.0018 89.4933 93.3884 89.28C92.7751 89.0667 92.0284 88.8533 91.1484 88.64C90.1884 88.4 89.3818 88.14 88.7284 87.86C88.0751 87.5667 87.5818 87.1867 87.2484 86.72C86.9284 86.2533 86.7684 85.6467 86.7684 84.9C86.7684 83.9933 86.9884 83.2267 87.4284 82.6C87.8684 81.9733 88.4751 81.5 89.2484 81.18C90.0218 80.86 90.8951 80.7 91.8684 80.7C92.5084 80.7 93.1018 80.7667 93.6484 80.9C94.2084 81.0333 94.7284 81.22 95.2084 81.46C95.6884 81.7 96.1284 81.9867 96.5284 82.32L95.6884 83.78ZM98.4359 91.98C98.4359 91.3133 98.6226 90.74 98.9959 90.26C99.3826 89.7667 99.9093 89.3867 100.576 89.12C101.243 88.8533 102.016 88.72 102.896 88.72C103.363 88.72 103.856 88.76 104.376 88.84C104.896 88.9067 105.356 89.0133 105.756 89.16V88.4C105.756 87.6 105.516 86.9733 105.036 86.52C104.556 86.0533 103.876 85.82 102.996 85.82C102.423 85.82 101.869 85.9267 101.336 86.14C100.816 86.34 100.263 86.6333 99.6759 87.02L99.0359 85.78C99.7159 85.3133 100.396 84.9667 101.076 84.74C101.756 84.5 102.463 84.38 103.196 84.38C104.529 84.38 105.583 84.7533 106.356 85.5C107.129 86.2333 107.516 87.26 107.516 88.58V93C107.516 93.2133 107.556 93.3733 107.636 93.48C107.729 93.5733 107.876 93.6267 108.076 93.64V95C107.903 95.0267 107.749 95.0467 107.616 95.06C107.496 95.0733 107.396 95.08 107.316 95.08C106.903 95.08 106.589 94.9667 106.376 94.74C106.176 94.5133 106.063 94.2733 106.036 94.02L105.996 93.36C105.543 93.9467 104.949 94.4 104.216 94.72C103.483 95.04 102.756 95.2 102.036 95.2C101.343 95.2 100.723 95.06 100.176 94.78C99.6293 94.4867 99.2026 94.1 98.8959 93.62C98.5893 93.1267 98.4359 92.58 98.4359 91.98ZM105.236 92.72C105.396 92.5333 105.523 92.3467 105.616 92.16C105.709 91.96 105.756 91.7933 105.756 91.66V90.36C105.343 90.2 104.909 90.08 104.456 90C104.003 89.9067 103.556 89.86 103.116 89.86C102.223 89.86 101.496 90.04 100.936 90.4C100.389 90.7467 100.116 91.2267 100.116 91.84C100.116 92.1733 100.203 92.5 100.376 92.82C100.563 93.1267 100.829 93.38 101.176 93.58C101.536 93.78 101.976 93.88 102.496 93.88C103.043 93.88 103.563 93.7733 104.056 93.56C104.549 93.3333 104.943 93.0533 105.236 92.72ZM112.998 95L108.898 84.56H110.738L114.018 93.32L117.298 84.56H119.018L114.918 95H112.998ZM123.779 95L119.679 84.56H121.519L124.799 93.32L128.079 84.56H129.799L125.699 95H123.779ZM135.829 95.2C135.042 95.2 134.322 95.06 133.669 94.78C133.029 94.4867 132.469 94.0933 131.989 93.6C131.522 93.0933 131.156 92.5133 130.889 91.86C130.636 91.2067 130.509 90.5133 130.509 89.78C130.509 88.7933 130.736 87.8933 131.189 87.08C131.642 86.2667 132.269 85.6133 133.069 85.12C133.882 84.6267 134.809 84.38 135.849 84.38C136.902 84.38 137.816 84.6333 138.589 85.14C139.376 85.6333 139.982 86.2867 140.409 87.1C140.849 87.9 141.069 88.7667 141.069 89.7C141.069 89.8333 141.062 89.9667 141.049 90.1C141.049 90.22 141.042 90.3133 141.029 90.38H132.369C132.422 91.06 132.609 91.6667 132.929 92.2C133.262 92.72 133.689 93.1333 134.209 93.44C134.729 93.7333 135.289 93.88 135.889 93.88C136.529 93.88 137.129 93.72 137.689 93.4C138.262 93.08 138.656 92.66 138.869 92.14L140.389 92.56C140.162 93.0667 139.822 93.52 139.369 93.92C138.929 94.32 138.402 94.6333 137.789 94.86C137.189 95.0867 136.536 95.2 135.829 95.2ZM132.309 89.16H139.429C139.376 88.48 139.182 87.88 138.849 87.36C138.516 86.84 138.089 86.4333 137.569 86.14C137.049 85.8467 136.476 85.7 135.849 85.7C135.236 85.7 134.669 85.8467 134.149 86.14C133.629 86.4333 133.202 86.84 132.869 87.36C132.549 87.88 132.362 88.48 132.309 89.16ZM148.328 94.48C148.181 94.5467 147.981 94.6333 147.728 94.74C147.474 94.8467 147.181 94.94 146.848 95.02C146.514 95.1 146.161 95.14 145.788 95.14C145.361 95.14 144.968 95.0667 144.608 94.92C144.248 94.76 143.961 94.52 143.748 94.2C143.534 93.8667 143.428 93.4533 143.428 92.96V85.94H142.008V84.56H143.428V81.08H145.188V84.56H147.528V85.94H145.188V92.42C145.214 92.7933 145.341 93.0733 145.568 93.26C145.794 93.4333 146.061 93.52 146.368 93.52C146.714 93.52 147.034 93.46 147.328 93.34C147.621 93.22 147.814 93.1333 147.908 93.08L148.328 94.48ZM148.904 84.98L149.304 82.68H148.704V80.4H150.364V82.68L149.764 84.98H148.904ZM155.102 95.2C154.235 95.2 153.422 95.06 152.662 94.78C151.902 94.4867 151.248 94.0533 150.702 93.48L151.382 92.24C151.982 92.8 152.582 93.2 153.182 93.44C153.782 93.68 154.395 93.8 155.022 93.8C155.742 93.8 156.328 93.6667 156.782 93.4C157.235 93.12 157.462 92.7133 157.462 92.18C157.462 91.7933 157.342 91.5067 157.102 91.32C156.875 91.1333 156.548 90.98 156.122 90.86C155.695 90.7267 155.188 90.58 154.602 90.42C153.882 90.2067 153.275 89.98 152.782 89.74C152.288 89.5 151.915 89.2 151.662 88.84C151.408 88.48 151.282 88.0267 151.282 87.48C151.282 86.8133 151.455 86.2533 151.802 85.8C152.148 85.3333 152.622 84.98 153.222 84.74C153.835 84.5 154.528 84.38 155.302 84.38C156.075 84.38 156.775 84.5 157.402 84.74C158.028 84.98 158.568 85.3333 159.022 85.8L158.222 87.02C157.808 86.5933 157.355 86.28 156.862 86.08C156.368 85.8667 155.815 85.76 155.202 85.76C154.842 85.76 154.488 85.8067 154.142 85.9C153.795 85.98 153.508 86.1333 153.282 86.36C153.055 86.5733 152.942 86.88 152.942 87.28C152.942 87.6133 153.028 87.88 153.202 88.08C153.388 88.2667 153.655 88.4267 154.002 88.56C154.362 88.6933 154.795 88.84 155.302 89C156.088 89.2267 156.768 89.4533 157.342 89.68C157.928 89.9067 158.382 90.2 158.702 90.56C159.022 90.92 159.182 91.42 159.182 92.06C159.182 93.0467 158.808 93.82 158.062 94.38C157.315 94.9267 156.328 95.2 155.102 95.2ZM175.406 95H173.646V89.16C173.646 88.0933 173.452 87.2933 173.066 86.76C172.692 86.2267 172.152 85.96 171.446 85.96C170.992 85.96 170.532 86.08 170.066 86.32C169.612 86.56 169.212 86.8867 168.866 87.3C168.519 87.7 168.266 88.1667 168.106 88.7V95H166.346V80.4H168.106V86.8C168.519 86.0533 169.079 85.4667 169.786 85.04C170.506 84.6 171.279 84.38 172.106 84.38C172.732 84.38 173.252 84.4933 173.666 84.72C174.092 84.9333 174.432 85.24 174.686 85.64C174.939 86.04 175.119 86.5067 175.226 87.04C175.346 87.56 175.406 88.1333 175.406 88.76V95ZM182.763 95.2C181.976 95.2 181.256 95.06 180.603 94.78C179.963 94.4867 179.403 94.0933 178.923 93.6C178.456 93.0933 178.089 92.5133 177.823 91.86C177.569 91.2067 177.443 90.5133 177.443 89.78C177.443 88.7933 177.669 87.8933 178.123 87.08C178.576 86.2667 179.203 85.6133 180.003 85.12C180.816 84.6267 181.743 84.38 182.783 84.38C183.836 84.38 184.749 84.6333 185.523 85.14C186.309 85.6333 186.916 86.2867 187.343 87.1C187.783 87.9 188.003 88.7667 188.003 89.7C188.003 89.8333 187.996 89.9667 187.983 90.1C187.983 90.22 187.976 90.3133 187.963 90.38H179.303C179.356 91.06 179.543 91.6667 179.863 92.2C180.196 92.72 180.623 93.1333 181.143 93.44C181.663 93.7333 182.223 93.88 182.823 93.88C183.463 93.88 184.063 93.72 184.623 93.4C185.196 93.08 185.589 92.66 185.803 92.14L187.323 92.56C187.096 93.0667 186.756 93.52 186.303 93.92C185.863 94.32 185.336 94.6333 184.723 94.86C184.123 95.0867 183.469 95.2 182.763 95.2ZM179.243 89.16H186.363C186.309 88.48 186.116 87.88 185.783 87.36C185.449 86.84 185.023 86.4333 184.503 86.14C183.983 85.8467 183.409 85.7 182.783 85.7C182.169 85.7 181.603 85.8467 181.083 86.14C180.563 86.4333 180.136 86.84 179.803 87.36C179.483 87.88 179.296 88.48 179.243 89.16ZM195.479 86.1C194.599 86.1133 193.819 86.34 193.139 86.78C192.472 87.2067 191.999 87.8 191.719 88.56V95H189.959V84.56H191.599V86.98C191.959 86.26 192.432 85.68 193.019 85.24C193.619 84.7867 194.246 84.5333 194.899 84.48C195.032 84.48 195.146 84.48 195.239 84.48C195.332 84.48 195.412 84.4867 195.479 84.5V86.1ZM201.591 95.2C200.804 95.2 200.084 95.06 199.431 94.78C198.791 94.4867 198.231 94.0933 197.751 93.6C197.284 93.0933 196.917 92.5133 196.651 91.86C196.397 91.2067 196.271 90.5133 196.271 89.78C196.271 88.7933 196.497 87.8933 196.951 87.08C197.404 86.2667 198.031 85.6133 198.831 85.12C199.644 84.6267 200.571 84.38 201.611 84.38C202.664 84.38 203.577 84.6333 204.351 85.14C205.137 85.6333 205.744 86.2867 206.171 87.1C206.611 87.9 206.831 88.7667 206.831 89.7C206.831 89.8333 206.824 89.9667 206.811 90.1C206.811 90.22 206.804 90.3133 206.791 90.38H198.131C198.184 91.06 198.371 91.6667 198.691 92.2C199.024 92.72 199.451 93.1333 199.971 93.44C200.491 93.7333 201.051 93.88 201.651 93.88C202.291 93.88 202.891 93.72 203.451 93.4C204.024 93.08 204.417 92.66 204.631 92.14L206.151 92.56C205.924 93.0667 205.584 93.52 205.131 93.92C204.691 94.32 204.164 94.6333 203.551 94.86C202.951 95.0867 202.297 95.2 201.591 95.2ZM198.071 89.16H205.191C205.137 88.48 204.944 87.88 204.611 87.36C204.277 86.84 203.851 86.4333 203.331 86.14C202.811 85.8467 202.237 85.7 201.611 85.7C200.997 85.7 200.431 85.8467 199.911 86.14C199.391 86.4333 198.964 86.84 198.631 87.36C198.311 87.88 198.124 88.48 198.071 89.16ZM219.246 94.48C219.099 94.5467 218.899 94.6333 218.646 94.74C218.392 94.8467 218.099 94.94 217.766 95.02C217.432 95.1 217.079 95.14 216.706 95.14C216.279 95.14 215.886 95.0667 215.526 94.92C215.166 94.76 214.879 94.52 214.666 94.2C214.452 93.8667 214.346 93.4533 214.346 92.96V85.94H212.926V84.56H214.346V81.08H216.106V84.56H218.446V85.94H216.106V92.42C216.132 92.7933 216.259 93.0733 216.486 93.26C216.712 93.4333 216.979 93.52 217.286 93.52C217.632 93.52 217.952 93.46 218.246 93.34C218.539 93.22 218.732 93.1333 218.826 93.08L219.246 94.48ZM225.3 95.2C224.514 95.2 223.8 95.06 223.16 94.78C222.52 94.4867 221.967 94.0933 221.5 93.6C221.034 93.0933 220.674 92.5133 220.42 91.86C220.167 91.2067 220.04 90.52 220.04 89.8C220.04 89.0667 220.167 88.3733 220.42 87.72C220.674 87.0667 221.034 86.4933 221.5 86C221.967 85.4933 222.52 85.1 223.16 84.82C223.814 84.5267 224.527 84.38 225.3 84.38C226.087 84.38 226.8 84.5267 227.44 84.82C228.08 85.1 228.634 85.4933 229.1 86C229.58 86.4933 229.947 87.0667 230.2 87.72C230.454 88.3733 230.58 89.0667 230.58 89.8C230.58 90.52 230.454 91.2067 230.2 91.86C229.947 92.5133 229.587 93.0933 229.12 93.6C228.654 94.0933 228.094 94.4867 227.44 94.78C226.8 95.06 226.087 95.2 225.3 95.2ZM221.84 89.82C221.84 90.54 221.994 91.1933 222.3 91.78C222.62 92.3667 223.04 92.8333 223.56 93.18C224.08 93.5133 224.66 93.68 225.3 93.68C225.94 93.68 226.52 93.5067 227.04 93.16C227.574 92.8133 227.994 92.3467 228.3 91.76C228.62 91.16 228.78 90.5 228.78 89.78C228.78 89.06 228.62 88.4067 228.3 87.82C227.994 87.2333 227.574 86.7667 227.04 86.42C226.52 86.0733 225.94 85.9 225.3 85.9C224.66 85.9 224.08 86.08 223.56 86.44C223.04 86.7867 222.62 87.2533 222.3 87.84C221.994 88.4267 221.84 89.0867 221.84 89.82ZM246.832 95H245.072V89.16C245.072 88.0933 244.878 87.2933 244.492 86.76C244.118 86.2267 243.578 85.96 242.872 85.96C242.418 85.96 241.958 86.08 241.492 86.32C241.038 86.56 240.638 86.8867 240.292 87.3C239.945 87.7 239.692 88.1667 239.532 88.7V95H237.772V80.4H239.532V86.8C239.945 86.0533 240.505 85.4667 241.212 85.04C241.932 84.6 242.705 84.38 243.532 84.38C244.158 84.38 244.678 84.4933 245.092 84.72C245.518 84.9333 245.858 85.24 246.112 85.64C246.365 86.04 246.545 86.5067 246.652 87.04C246.772 87.56 246.832 88.1333 246.832 88.76V95ZM254.188 95.2C253.402 95.2 252.682 95.06 252.028 94.78C251.388 94.4867 250.828 94.0933 250.348 93.6C249.882 93.0933 249.515 92.5133 249.248 91.86C248.995 91.2067 248.868 90.5133 248.868 89.78C248.868 88.7933 249.095 87.8933 249.548 87.08C250.002 86.2667 250.628 85.6133 251.428 85.12C252.242 84.6267 253.168 84.38 254.208 84.38C255.262 84.38 256.175 84.6333 256.948 85.14C257.735 85.6333 258.342 86.2867 258.768 87.1C259.208 87.9 259.428 88.7667 259.428 89.7C259.428 89.8333 259.422 89.9667 259.408 90.1C259.408 90.22 259.402 90.3133 259.388 90.38H250.728C250.782 91.06 250.968 91.6667 251.288 92.2C251.622 92.72 252.048 93.1333 252.568 93.44C253.088 93.7333 253.648 93.88 254.248 93.88C254.888 93.88 255.488 93.72 256.048 93.4C256.622 93.08 257.015 92.66 257.228 92.14L258.748 92.56C258.522 93.0667 258.182 93.52 257.728 93.92C257.288 94.32 256.762 94.6333 256.148 94.86C255.548 95.0867 254.895 95.2 254.188 95.2ZM250.668 89.16H257.788C257.735 88.48 257.542 87.88 257.208 87.36C256.875 86.84 256.448 86.4333 255.928 86.14C255.408 85.8467 254.835 85.7 254.208 85.7C253.595 85.7 253.028 85.8467 252.508 86.14C251.988 86.4333 251.562 86.84 251.228 87.36C250.908 87.88 250.722 88.48 250.668 89.16ZM261.425 80.4H263.185V92.3C263.185 92.8733 263.265 93.2267 263.425 93.36C263.585 93.4933 263.778 93.56 264.005 93.56C264.285 93.56 264.552 93.5333 264.805 93.48C265.058 93.4133 265.272 93.3467 265.445 93.28L265.725 94.72C265.432 94.84 265.085 94.94 264.685 95.02C264.285 95.1 263.932 95.14 263.625 95.14C262.945 95.14 262.405 94.9467 262.005 94.56C261.618 94.1733 261.425 93.6333 261.425 92.94V80.4ZM272.728 95.2C271.874 95.2 271.114 94.9867 270.448 94.56C269.781 94.1333 269.254 93.5933 268.868 92.94V99.26H267.108V84.56H268.668V86.52C269.081 85.88 269.621 85.3667 270.288 84.98C270.954 84.58 271.681 84.38 272.468 84.38C273.188 84.38 273.848 84.5267 274.448 84.82C275.048 85.1133 275.568 85.5133 276.008 86.02C276.448 86.5267 276.788 87.1067 277.028 87.76C277.281 88.4 277.408 89.0733 277.408 89.78C277.408 90.7667 277.208 91.6733 276.808 92.5C276.421 93.3267 275.874 93.9867 275.168 94.48C274.461 94.96 273.648 95.2 272.728 95.2ZM272.188 93.68C272.708 93.68 273.174 93.5733 273.588 93.36C274.014 93.1333 274.374 92.84 274.668 92.48C274.974 92.1067 275.208 91.6867 275.368 91.22C275.528 90.7533 275.608 90.2733 275.608 89.78C275.608 89.26 275.514 88.7667 275.328 88.3C275.154 87.8333 274.901 87.42 274.568 87.06C274.248 86.7 273.868 86.42 273.428 86.22C273.001 86.0067 272.534 85.9 272.028 85.9C271.708 85.9 271.374 85.96 271.028 86.08C270.694 86.2 270.374 86.3733 270.068 86.6C269.761 86.8133 269.501 87.06 269.288 87.34C269.074 87.62 268.934 87.92 268.868 88.24V91.22C269.068 91.6733 269.334 92.0867 269.668 92.46C270.001 92.8333 270.388 93.1333 270.827 93.36C271.268 93.5733 271.721 93.68 272.188 93.68ZM284.56 97.84C284.733 97.8533 284.907 97.8667 285.08 97.88C285.253 97.9067 285.387 97.92 285.48 97.92C285.693 97.92 285.88 97.8467 286.04 97.7C286.2 97.5533 286.373 97.2667 286.56 96.84C286.76 96.4267 287.013 95.8133 287.32 95L282.9 84.56H284.76L288.28 93.22L291.46 84.56H293.2L288.12 97.74C288 98.0467 287.82 98.3333 287.58 98.6C287.353 98.88 287.06 99.1 286.7 99.26C286.34 99.42 285.907 99.5 285.4 99.5C285.28 99.5 285.153 99.4933 285.02 99.48C284.9 99.4667 284.747 99.44 284.56 99.4V97.84ZM299.168 95.2C298.381 95.2 297.668 95.06 297.028 94.78C296.388 94.4867 295.834 94.0933 295.368 93.6C294.901 93.0933 294.541 92.5133 294.288 91.86C294.034 91.2067 293.908 90.52 293.908 89.8C293.908 89.0667 294.034 88.3733 294.288 87.72C294.541 87.0667 294.901 86.4933 295.368 86C295.834 85.4933 296.388 85.1 297.028 84.82C297.681 84.5267 298.394 84.38 299.168 84.38C299.954 84.38 300.668 84.5267 301.308 84.82C301.948 85.1 302.501 85.4933 302.968 86C303.448 86.4933 303.814 87.0667 304.068 87.72C304.321 88.3733 304.448 89.0667 304.448 89.8C304.448 90.52 304.321 91.2067 304.068 91.86C303.814 92.5133 303.454 93.0933 302.988 93.6C302.521 94.0933 301.961 94.4867 301.308 94.78C300.668 95.06 299.954 95.2 299.168 95.2ZM295.708 89.82C295.708 90.54 295.861 91.1933 296.168 91.78C296.488 92.3667 296.908 92.8333 297.428 93.18C297.948 93.5133 298.528 93.68 299.168 93.68C299.808 93.68 300.388 93.5067 300.908 93.16C301.441 92.8133 301.861 92.3467 302.168 91.76C302.488 91.16 302.648 90.5 302.648 89.78C302.648 89.06 302.488 88.4067 302.168 87.82C301.861 87.2333 301.441 86.7667 300.908 86.42C300.388 86.0733 299.808 85.9 299.168 85.9C298.528 85.9 297.948 86.08 297.428 86.44C296.908 86.7867 296.488 87.2533 296.168 87.84C295.861 88.4267 295.708 89.0867 295.708 89.82ZM306.48 90.82V84.56H308.24V90.48C308.24 91.5467 308.427 92.3467 308.8 92.88C309.173 93.4133 309.727 93.68 310.46 93.68C310.94 93.68 311.4 93.58 311.84 93.38C312.293 93.1667 312.7 92.8667 313.06 92.48C313.42 92.0933 313.7 91.6333 313.9 91.1V84.56H315.66V93C315.66 93.2133 315.7 93.3733 315.78 93.48C315.873 93.5733 316.02 93.6267 316.22 93.64V95C316.02 95.0267 315.86 95.04 315.74 95.04C315.633 95.0533 315.527 95.06 315.42 95.06C315.087 95.06 314.8 94.96 314.56 94.76C314.32 94.5467 314.193 94.2867 314.18 93.98L314.14 92.76C313.687 93.5333 313.073 94.1333 312.3 94.56C311.54 94.9867 310.707 95.2 309.8 95.2C308.707 95.2 307.88 94.8333 307.32 94.1C306.76 93.3533 306.48 92.26 306.48 90.82ZM47.8798 135.2C47.0932 135.2 46.3732 135.06 45.7198 134.78C45.0798 134.487 44.5198 134.093 44.0398 133.6C43.5732 133.093 43.2065 132.513 42.9398 131.86C42.6865 131.207 42.5598 130.513 42.5598 129.78C42.5598 128.793 42.7865 127.893 43.2398 127.08C43.6932 126.267 44.3198 125.613 45.1198 125.12C45.9332 124.627 46.8598 124.38 47.8998 124.38C48.9532 124.38 49.8665 124.633 50.6398 125.14C51.4265 125.633 52.0332 126.287 52.4598 127.1C52.8998 127.9 53.1198 128.767 53.1198 129.7C53.1198 129.833 53.1132 129.967 53.0998 130.1C53.0998 130.22 53.0932 130.313 53.0798 130.38H44.4198C44.4732 131.06 44.6598 131.667 44.9798 132.2C45.3132 132.72 45.7398 133.133 46.2598 133.44C46.7798 133.733 47.3398 133.88 47.9398 133.88C48.5798 133.88 49.1798 133.72 49.7398 133.4C50.3132 133.08 50.7065 132.66 50.9198 132.14L52.4398 132.56C52.2132 133.067 51.8732 133.52 51.4198 133.92C50.9798 134.32 50.4532 134.633 49.8398 134.86C49.2398 135.087 48.5865 135.2 47.8798 135.2ZM44.3598 129.16H51.4798C51.4265 128.48 51.2332 127.88 50.8998 127.36C50.5665 126.84 50.1398 126.433 49.6198 126.14C49.0998 125.847 48.5265 125.7 47.8998 125.7C47.2865 125.7 46.7198 125.847 46.1998 126.14C45.6798 126.433 45.2532 126.84 44.9198 127.36C44.5998 127.88 44.4132 128.48 44.3598 129.16ZM55.4656 124.56L58.2256 128.4L58.3856 128.72L58.5656 128.4L61.3056 124.56H63.2656L59.4056 129.8L63.2856 135H61.3256L58.5656 131.18L58.3856 130.88L58.2256 131.18L55.4656 135H53.5056L57.3856 129.8L53.5256 124.56H55.4656ZM70.5595 135.2C69.7062 135.2 68.9462 134.987 68.2795 134.56C67.6129 134.133 67.0862 133.593 66.6995 132.94V139.26H64.9395V124.56H66.4995V126.52C66.9129 125.88 67.4529 125.367 68.1195 124.98C68.7862 124.58 69.5129 124.38 70.2995 124.38C71.0195 124.38 71.6795 124.527 72.2795 124.82C72.8795 125.113 73.3995 125.513 73.8395 126.02C74.2795 126.527 74.6195 127.107 74.8595 127.76C75.1129 128.4 75.2395 129.073 75.2395 129.78C75.2395 130.767 75.0395 131.673 74.6395 132.5C74.2529 133.327 73.7062 133.987 72.9995 134.48C72.2929 134.96 71.4795 135.2 70.5595 135.2ZM70.0195 133.68C70.5395 133.68 71.0062 133.573 71.4195 133.36C71.8462 133.133 72.2062 132.84 72.4995 132.48C72.8062 132.107 73.0395 131.687 73.1995 131.22C73.3595 130.753 73.4395 130.273 73.4395 129.78C73.4395 129.26 73.3462 128.767 73.1595 128.3C72.9862 127.833 72.7329 127.42 72.3995 127.06C72.0795 126.7 71.6995 126.42 71.2595 126.22C70.8329 126.007 70.3662 125.9 69.8595 125.9C69.5395 125.9 69.2062 125.96 68.8595 126.08C68.5262 126.2 68.2062 126.373 67.8995 126.6C67.5929 126.813 67.3329 127.06 67.1195 127.34C66.9062 127.62 66.7662 127.92 66.6995 128.24V131.22C66.8995 131.673 67.1662 132.087 67.4995 132.46C67.8329 132.833 68.2195 133.133 68.6595 133.36C69.0995 133.573 69.5529 133.68 70.0195 133.68ZM77.4405 120.4H79.2005V132.3C79.2005 132.873 79.2805 133.227 79.4405 133.36C79.6005 133.493 79.7938 133.56 80.0205 133.56C80.3005 133.56 80.5671 133.533 80.8205 133.48C81.0738 133.413 81.2871 133.347 81.4605 133.28L81.7405 134.72C81.4471 134.84 81.1005 134.94 80.7005 135.02C80.3005 135.1 79.9471 135.14 79.6405 135.14C78.9605 135.14 78.4205 134.947 78.0205 134.56C77.6338 134.173 77.4405 133.633 77.4405 132.94V120.4ZM87.6831 135.2C86.8965 135.2 86.1831 135.06 85.5431 134.78C84.9031 134.487 84.3498 134.093 83.8831 133.6C83.4165 133.093 83.0565 132.513 82.8031 131.86C82.5498 131.207 82.4231 130.52 82.4231 129.8C82.4231 129.067 82.5498 128.373 82.8031 127.72C83.0565 127.067 83.4165 126.493 83.8831 126C84.3498 125.493 84.9031 125.1 85.5431 124.82C86.1965 124.527 86.9098 124.38 87.6831 124.38C88.4698 124.38 89.1831 124.527 89.8231 124.82C90.4631 125.1 91.0165 125.493 91.4831 126C91.9631 126.493 92.3298 127.067 92.5831 127.72C92.8365 128.373 92.9631 129.067 92.9631 129.8C92.9631 130.52 92.8365 131.207 92.5831 131.86C92.3298 132.513 91.9698 133.093 91.5031 133.6C91.0365 134.093 90.4765 134.487 89.8231 134.78C89.1831 135.06 88.4698 135.2 87.6831 135.2ZM84.2231 129.82C84.2231 130.54 84.3765 131.193 84.6831 131.78C85.0031 132.367 85.4231 132.833 85.9431 133.18C86.4631 133.513 87.0431 133.68 87.6831 133.68C88.3231 133.68 88.9031 133.507 89.4231 133.16C89.9565 132.813 90.3765 132.347 90.6831 131.76C91.0031 131.16 91.1631 130.5 91.1631 129.78C91.1631 129.06 91.0031 128.407 90.6831 127.82C90.3765 127.233 89.9565 126.767 89.4231 126.42C88.9031 126.073 88.3231 125.9 87.6831 125.9C87.0431 125.9 86.4631 126.08 85.9431 126.44C85.4231 126.787 85.0031 127.253 84.6831 127.84C84.3765 128.427 84.2231 129.087 84.2231 129.82ZM100.616 126.1C99.7358 126.113 98.9558 126.34 98.2758 126.78C97.6091 127.207 97.1358 127.8 96.8558 128.56V135H95.0958V124.56H96.7358V126.98C97.0958 126.26 97.5691 125.68 98.1558 125.24C98.7558 124.787 99.3824 124.533 100.036 124.48C100.169 124.48 100.282 124.48 100.376 124.48C100.469 124.48 100.549 124.487 100.616 124.5V126.1ZM106.728 135.2C105.941 135.2 105.221 135.06 104.568 134.78C103.928 134.487 103.368 134.093 102.888 133.6C102.421 133.093 102.054 132.513 101.788 131.86C101.534 131.207 101.408 130.513 101.408 129.78C101.408 128.793 101.634 127.893 102.088 127.08C102.541 126.267 103.168 125.613 103.968 125.12C104.781 124.627 105.708 124.38 106.748 124.38C107.801 124.38 108.714 124.633 109.488 125.14C110.274 125.633 110.881 126.287 111.308 127.1C111.748 127.9 111.968 128.767 111.968 129.7C111.968 129.833 111.961 129.967 111.948 130.1C111.948 130.22 111.941 130.313 111.928 130.38H103.268C103.321 131.06 103.508 131.667 103.828 132.2C104.161 132.72 104.588 133.133 105.108 133.44C105.628 133.733 106.188 133.88 106.788 133.88C107.428 133.88 108.028 133.72 108.588 133.4C109.161 133.08 109.554 132.66 109.768 132.14L111.288 132.56C111.061 133.067 110.721 133.52 110.268 133.92C109.828 134.32 109.301 134.633 108.688 134.86C108.088 135.087 107.434 135.2 106.728 135.2ZM103.208 129.16H110.328C110.274 128.48 110.081 127.88 109.748 127.36C109.414 126.84 108.988 126.433 108.468 126.14C107.948 125.847 107.374 125.7 106.748 125.7C106.134 125.7 105.568 125.847 105.048 126.14C104.528 126.433 104.101 126.84 103.768 127.36C103.448 127.88 103.261 128.48 103.208 129.16ZM131.496 124.56H133.196L128.756 135H127.216L125.196 130.08L123.196 135H121.656L117.216 124.56H118.896L122.496 133.26L124.176 128.98L122.416 124.58H123.956L125.196 127.9L126.436 124.58H127.976L126.236 128.98L127.916 133.26L131.496 124.56ZM134.842 135V124.56H136.602V135H134.842ZM134.842 122.6V120.4H136.602V122.6H134.842ZM144.851 134.48C144.705 134.547 144.505 134.633 144.251 134.74C143.998 134.847 143.705 134.94 143.371 135.02C143.038 135.1 142.685 135.14 142.311 135.14C141.885 135.14 141.491 135.067 141.131 134.92C140.771 134.76 140.485 134.52 140.271 134.2C140.058 133.867 139.951 133.453 139.951 132.96V125.94H138.531V124.56H139.951V121.08H141.711V124.56H144.051V125.94H141.711V132.42C141.738 132.793 141.865 133.073 142.091 133.26C142.318 133.433 142.585 133.52 142.891 133.52C143.238 133.52 143.558 133.46 143.851 133.34C144.145 133.22 144.338 133.133 144.431 133.08L144.851 134.48ZM155.543 135H153.783V129.16C153.783 128.093 153.589 127.293 153.203 126.76C152.829 126.227 152.289 125.96 151.583 125.96C151.129 125.96 150.669 126.08 150.202 126.32C149.749 126.56 149.349 126.887 149.003 127.3C148.656 127.7 148.403 128.167 148.243 128.7V135H146.483V120.4H148.243V126.8C148.656 126.053 149.216 125.467 149.923 125.04C150.643 124.6 151.416 124.38 152.243 124.38C152.869 124.38 153.389 124.493 153.803 124.72C154.229 124.933 154.569 125.24 154.823 125.64C155.076 126.04 155.256 126.507 155.363 127.04C155.483 127.56 155.543 128.133 155.543 128.76V135ZM167.958 135.2C167.171 135.2 166.451 135.06 165.798 134.78C165.158 134.487 164.598 134.087 164.118 133.58C163.651 133.073 163.285 132.493 163.018 131.84C162.765 131.187 162.638 130.493 162.638 129.76C162.638 128.773 162.858 127.873 163.298 127.06C163.738 126.247 164.358 125.6 165.158 125.12C165.958 124.627 166.885 124.38 167.938 124.38C168.965 124.38 169.858 124.613 170.618 125.08C171.391 125.533 171.965 126.147 172.338 126.92L170.618 127.46C170.351 126.967 169.978 126.587 169.498 126.32C169.018 126.04 168.485 125.9 167.898 125.9C167.258 125.9 166.671 126.067 166.138 126.4C165.618 126.733 165.205 127.193 164.898 127.78C164.591 128.353 164.438 129.013 164.438 129.76C164.438 130.493 164.591 131.16 164.898 131.76C165.218 132.347 165.638 132.813 166.158 133.16C166.691 133.507 167.278 133.68 167.918 133.68C168.331 133.68 168.725 133.607 169.098 133.46C169.485 133.313 169.818 133.12 170.098 132.88C170.391 132.627 170.591 132.353 170.698 132.06L172.418 132.58C172.205 133.087 171.878 133.54 171.438 133.94C171.011 134.327 170.498 134.633 169.898 134.86C169.311 135.087 168.665 135.2 167.958 135.2ZM178.875 135.2C178.088 135.2 177.375 135.06 176.735 134.78C176.095 134.487 175.541 134.093 175.075 133.6C174.608 133.093 174.248 132.513 173.995 131.86C173.741 131.207 173.615 130.52 173.615 129.8C173.615 129.067 173.741 128.373 173.995 127.72C174.248 127.067 174.608 126.493 175.075 126C175.541 125.493 176.095 125.1 176.735 124.82C177.388 124.527 178.101 124.38 178.875 124.38C179.661 124.38 180.375 124.527 181.015 124.82C181.655 125.1 182.208 125.493 182.675 126C183.155 126.493 183.521 127.067 183.775 127.72C184.028 128.373 184.155 129.067 184.155 129.8C184.155 130.52 184.028 131.207 183.775 131.86C183.521 132.513 183.161 133.093 182.695 133.6C182.228 134.093 181.668 134.487 181.015 134.78C180.375 135.06 179.661 135.2 178.875 135.2ZM175.415 129.82C175.415 130.54 175.568 131.193 175.875 131.78C176.195 132.367 176.615 132.833 177.135 133.18C177.655 133.513 178.235 133.68 178.875 133.68C179.515 133.68 180.095 133.507 180.615 133.16C181.148 132.813 181.568 132.347 181.875 131.76C182.195 131.16 182.355 130.5 182.355 129.78C182.355 129.06 182.195 128.407 181.875 127.82C181.568 127.233 181.148 126.767 180.615 126.42C180.095 126.073 179.515 125.9 178.875 125.9C178.235 125.9 177.655 126.08 177.135 126.44C176.615 126.787 176.195 127.253 175.875 127.84C175.568 128.427 175.415 129.087 175.415 129.82ZM195.347 135H193.587V129.16C193.587 128.053 193.414 127.247 193.067 126.74C192.734 126.22 192.221 125.96 191.527 125.96C191.047 125.96 190.567 126.08 190.087 126.32C189.621 126.56 189.201 126.887 188.827 127.3C188.467 127.7 188.207 128.167 188.047 128.7V135H186.287V124.56H187.887V126.8C188.167 126.307 188.527 125.88 188.967 125.52C189.407 125.16 189.907 124.88 190.467 124.68C191.027 124.48 191.614 124.38 192.227 124.38C192.827 124.38 193.327 124.493 193.727 124.72C194.141 124.933 194.461 125.24 194.687 125.64C194.927 126.027 195.094 126.487 195.187 127.02C195.294 127.553 195.347 128.133 195.347 128.76V135ZM198.546 125.94H197.126V124.56H198.546V124.34C198.546 123.82 198.626 123.32 198.786 122.84C198.946 122.347 199.186 121.9 199.506 121.5C199.826 121.1 200.226 120.787 200.706 120.56C201.186 120.32 201.753 120.2 202.406 120.2C202.9 120.2 203.353 120.253 203.766 120.36C204.18 120.467 204.546 120.6 204.866 120.76C205.2 120.92 205.473 121.08 205.686 121.24L204.926 122.54C204.673 122.313 204.326 122.12 203.886 121.96C203.46 121.8 203 121.72 202.506 121.72C202 121.72 201.58 121.847 201.246 122.1C200.926 122.353 200.686 122.68 200.526 123.08C200.38 123.467 200.306 123.867 200.306 124.28V124.56H205.646V135H203.886V125.94H200.306V135H198.546V125.94ZM207.814 129.8C207.814 128.813 208.014 127.913 208.414 127.1C208.828 126.273 209.388 125.613 210.094 125.12C210.814 124.627 211.634 124.38 212.554 124.38C213.394 124.38 214.148 124.6 214.814 125.04C215.481 125.48 216.001 126.013 216.374 126.64V120.4H218.134V133C218.134 133.213 218.174 133.373 218.254 133.48C218.348 133.573 218.494 133.627 218.694 133.64V135C218.361 135.053 218.101 135.08 217.914 135.08C217.568 135.08 217.261 134.96 216.994 134.72C216.741 134.48 216.614 134.213 216.614 133.92V133.04C216.201 133.707 215.648 134.233 214.954 134.62C214.261 135.007 213.541 135.2 212.794 135.2C212.074 135.2 211.408 135.06 210.794 134.78C210.194 134.487 209.668 134.087 209.214 133.58C208.774 133.073 208.428 132.5 208.174 131.86C207.934 131.207 207.814 130.52 207.814 129.8ZM216.374 131.34V128.34C216.214 127.887 215.954 127.48 215.594 127.12C215.234 126.747 214.828 126.453 214.374 126.24C213.934 126.013 213.494 125.9 213.054 125.9C212.534 125.9 212.061 126.013 211.634 126.24C211.221 126.453 210.861 126.747 210.554 127.12C210.261 127.48 210.034 127.893 209.874 128.36C209.714 128.827 209.634 129.313 209.634 129.82C209.634 130.34 209.721 130.833 209.894 131.3C210.081 131.767 210.334 132.18 210.654 132.54C210.988 132.9 211.368 133.18 211.794 133.38C212.234 133.58 212.708 133.68 213.214 133.68C213.534 133.68 213.861 133.62 214.194 133.5C214.541 133.38 214.868 133.213 215.174 133C215.481 132.787 215.741 132.54 215.954 132.26C216.168 131.967 216.308 131.66 216.374 131.34ZM225.692 135.2C224.906 135.2 224.186 135.06 223.532 134.78C222.892 134.487 222.332 134.093 221.852 133.6C221.386 133.093 221.019 132.513 220.752 131.86C220.499 131.207 220.372 130.513 220.372 129.78C220.372 128.793 220.599 127.893 221.052 127.08C221.506 126.267 222.132 125.613 222.932 125.12C223.746 124.627 224.672 124.38 225.712 124.38C226.766 124.38 227.679 124.633 228.452 125.14C229.239 125.633 229.846 126.287 230.272 127.1C230.712 127.9 230.932 128.767 230.932 129.7C230.932 129.833 230.926 129.967 230.912 130.1C230.912 130.22 230.906 130.313 230.892 130.38H222.232C222.286 131.06 222.472 131.667 222.792 132.2C223.126 132.72 223.552 133.133 224.072 133.44C224.592 133.733 225.152 133.88 225.752 133.88C226.392 133.88 226.992 133.72 227.552 133.4C228.126 133.08 228.519 132.66 228.732 132.14L230.252 132.56C230.026 133.067 229.686 133.52 229.232 133.92C228.792 134.32 228.266 134.633 227.652 134.86C227.052 135.087 226.399 135.2 225.692 135.2ZM222.172 129.16H229.292C229.239 128.48 229.046 127.88 228.712 127.36C228.379 126.84 227.952 126.433 227.432 126.14C226.912 125.847 226.339 125.7 225.712 125.7C225.099 125.7 224.532 125.847 224.012 126.14C223.492 126.433 223.066 126.84 222.732 127.36C222.412 127.88 222.226 128.48 222.172 129.16ZM241.949 135H240.189V129.16C240.189 128.053 240.015 127.247 239.669 126.74C239.335 126.22 238.822 125.96 238.129 125.96C237.649 125.96 237.169 126.08 236.689 126.32C236.222 126.56 235.802 126.887 235.429 127.3C235.069 127.7 234.809 128.167 234.649 128.7V135H232.889V124.56H234.489V126.8C234.769 126.307 235.129 125.88 235.569 125.52C236.009 125.16 236.509 124.88 237.069 124.68C237.629 124.48 238.215 124.38 238.829 124.38C239.429 124.38 239.929 124.493 240.329 124.72C240.742 124.933 241.062 125.24 241.289 125.64C241.529 126.027 241.695 126.487 241.789 127.02C241.895 127.553 241.949 128.133 241.949 128.76V135ZM249.306 135.2C248.519 135.2 247.799 135.06 247.146 134.78C246.506 134.487 245.946 134.087 245.466 133.58C244.999 133.073 244.632 132.493 244.366 131.84C244.112 131.187 243.986 130.493 243.986 129.76C243.986 128.773 244.206 127.873 244.646 127.06C245.086 126.247 245.706 125.6 246.506 125.12C247.306 124.627 248.232 124.38 249.286 124.38C250.312 124.38 251.206 124.613 251.966 125.08C252.739 125.533 253.312 126.147 253.686 126.92L251.966 127.46C251.699 126.967 251.326 126.587 250.846 126.32C250.366 126.04 249.832 125.9 249.246 125.9C248.606 125.9 248.019 126.067 247.486 126.4C246.966 126.733 246.552 127.193 246.246 127.78C245.939 128.353 245.786 129.013 245.786 129.76C245.786 130.493 245.939 131.16 246.246 131.76C246.566 132.347 246.986 132.813 247.506 133.16C248.039 133.507 248.626 133.68 249.266 133.68C249.679 133.68 250.072 133.607 250.446 133.46C250.832 133.313 251.166 133.12 251.446 132.88C251.739 132.627 251.939 132.353 252.046 132.06L253.766 132.58C253.552 133.087 253.226 133.54 252.786 133.94C252.359 134.327 251.846 134.633 251.246 134.86C250.659 135.087 250.012 135.2 249.306 135.2ZM260.282 135.2C259.496 135.2 258.776 135.06 258.122 134.78C257.482 134.487 256.922 134.093 256.442 133.6C255.976 133.093 255.609 132.513 255.342 131.86C255.089 131.207 254.962 130.513 254.962 129.78C254.962 128.793 255.189 127.893 255.642 127.08C256.096 126.267 256.722 125.613 257.522 125.12C258.336 124.627 259.262 124.38 260.302 124.38C261.356 124.38 262.269 124.633 263.042 125.14C263.829 125.633 264.436 126.287 264.862 127.1C265.302 127.9 265.522 128.767 265.522 129.7C265.522 129.833 265.516 129.967 265.502 130.1C265.502 130.22 265.496 130.313 265.482 130.38H256.822C256.876 131.06 257.062 131.667 257.382 132.2C257.716 132.72 258.142 133.133 258.662 133.44C259.182 133.733 259.742 133.88 260.342 133.88C260.982 133.88 261.582 133.72 262.142 133.4C262.716 133.08 263.109 132.66 263.322 132.14L264.842 132.56C264.616 133.067 264.276 133.52 263.822 133.92C263.382 134.32 262.856 134.633 262.242 134.86C261.642 135.087 260.989 135.2 260.282 135.2ZM256.762 129.16H263.882C263.829 128.48 263.636 127.88 263.302 127.36C262.969 126.84 262.542 126.433 262.022 126.14C261.502 125.847 260.929 125.7 260.302 125.7C259.689 125.7 259.122 125.847 258.602 126.14C258.082 126.433 257.656 126.84 257.322 127.36C257.002 127.88 256.816 128.48 256.762 129.16ZM267.339 135V132.76H268.819V135H267.339Z" fill="#3B3548"/>
</svg>
