<svg width="723" height="65" viewBox="0 0 723 65" fill="none" xmlns="http://www.w3.org/2000/svg">
<path d="M0.10675 12.76C0.10675 11.576 0.34675 10.496 0.82675 9.52C1.32275 8.528 1.99475 7.736 2.84275 7.144C3.70675 6.552 4.69075 6.256 5.79475 6.256C6.80275 6.256 7.70675 6.52 8.50675 7.048C9.30675 7.576 9.93075 8.216 10.3788 8.968V1.48H12.4908V16.6C12.4908 16.856 12.5388 17.048 12.6348 17.176C12.7468 17.288 12.9228 17.352 13.1628 17.368V19C12.7628 19.064 12.4508 19.096 12.2268 19.096C11.8108 19.096 11.4428 18.952 11.1228 18.664C10.8188 18.376 10.6668 18.056 10.6668 17.704V16.648C10.1708 17.448 9.50675 18.08 8.67475 18.544C7.84275 19.008 6.97875 19.24 6.08275 19.24C5.21875 19.24 4.41875 19.072 3.68275 18.736C2.96275 18.384 2.33075 17.904 1.78675 17.296C1.25875 16.688 0.84275 16 0.53875 15.232C0.25075 14.448 0.10675 13.624 0.10675 12.76ZM10.3788 14.608V11.008C10.1868 10.464 9.87475 9.976 9.44275 9.544C9.01075 9.096 8.52275 8.744 7.97875 8.488C7.45075 8.216 6.92275 8.08 6.39475 8.08C5.77075 8.08 5.20275 8.216 4.69075 8.488C4.19475 8.744 3.76275 9.096 3.39475 9.544C3.04275 9.976 2.77075 10.472 2.57875 11.032C2.38675 11.592 2.29075 12.176 2.29075 12.784C2.29075 13.408 2.39475 14 2.60275 14.56C2.82675 15.12 3.13075 15.616 3.51475 16.048C3.91475 16.48 4.37075 16.816 4.88275 17.056C5.41075 17.296 5.97875 17.416 6.58675 17.416C6.97075 17.416 7.36275 17.344 7.76275 17.2C8.17875 17.056 8.57075 16.856 8.93875 16.6C9.30675 16.344 9.61875 16.048 9.87475 15.712C10.1308 15.36 10.2988 14.992 10.3788 14.608ZM16.0165 19V6.472H18.1285V19H16.0165ZM16.0165 4.12V1.48H18.1285V4.12H16.0165ZM25.8438 19.24C24.8038 19.24 23.8278 19.072 22.9158 18.736C22.0038 18.384 21.2198 17.864 20.5638 17.176L21.3798 15.688C22.0998 16.36 22.8198 16.84 23.5398 17.128C24.2598 17.416 24.9958 17.56 25.7478 17.56C26.6118 17.56 27.3158 17.4 27.8598 17.08C28.4038 16.744 28.6758 16.256 28.6758 15.616C28.6758 15.152 28.5318 14.808 28.2438 14.584C27.9718 14.36 27.5798 14.176 27.0678 14.032C26.5558 13.872 25.9478 13.696 25.2438 13.504C24.3798 13.248 23.6518 12.976 23.0598 12.688C22.4678 12.4 22.0198 12.04 21.7158 11.608C21.4118 11.176 21.2598 10.632 21.2598 9.976C21.2598 9.176 21.4678 8.504 21.8838 7.96C22.2998 7.4 22.8678 6.976 23.5878 6.688C24.3238 6.4 25.1558 6.256 26.0838 6.256C27.0118 6.256 27.8518 6.4 28.6038 6.688C29.3558 6.976 30.0038 7.4 30.5478 7.96L29.5878 9.424C29.0918 8.912 28.5478 8.536 27.9558 8.296C27.3638 8.04 26.6998 7.912 25.9638 7.912C25.5318 7.912 25.1078 7.968 24.6918 8.08C24.2758 8.176 23.9318 8.36 23.6598 8.632C23.3878 8.888 23.2518 9.256 23.2518 9.736C23.2518 10.136 23.3558 10.456 23.5638 10.696C23.7878 10.92 24.1078 11.112 24.5238 11.272C24.9558 11.432 25.4758 11.608 26.0838 11.8C27.0278 12.072 27.8438 12.344 28.5318 12.616C29.2358 12.888 29.7798 13.24 30.1638 13.672C30.5478 14.104 30.7398 14.704 30.7398 15.472C30.7398 16.656 30.2918 17.584 29.3958 18.256C28.4998 18.912 27.3158 19.24 25.8438 19.24ZM38.8105 19.24C37.8665 19.24 37.0025 19.072 36.2185 18.736C35.4505 18.384 34.7785 17.904 34.2025 17.296C33.6425 16.688 33.2025 15.992 32.8825 15.208C32.5785 14.424 32.4265 13.592 32.4265 12.712C32.4265 11.528 32.6905 10.448 33.2185 9.472C33.7465 8.496 34.4905 7.72 35.4505 7.144C36.4105 6.552 37.5225 6.256 38.7865 6.256C40.0185 6.256 41.0905 6.536 42.0025 7.096C42.9305 7.64 43.6185 8.376 44.0665 9.304L42.0025 9.952C41.6825 9.36 41.2345 8.904 40.6585 8.584C40.0825 8.248 39.4425 8.08 38.7385 8.08C37.9705 8.08 37.2665 8.28 36.6265 8.68C36.0025 9.08 35.5065 9.632 35.1385 10.336C34.7705 11.024 34.5865 11.816 34.5865 12.712C34.5865 13.592 34.7705 14.392 35.1385 15.112C35.5225 15.816 36.0265 16.376 36.6505 16.792C37.2905 17.208 37.9945 17.416 38.7625 17.416C39.2585 17.416 39.7305 17.328 40.1785 17.152C40.6425 16.976 41.0425 16.744 41.3785 16.456C41.7305 16.152 41.9705 15.824 42.0985 15.472L44.1625 16.096C43.9065 16.704 43.5145 17.248 42.9865 17.728C42.4745 18.192 41.8585 18.56 41.1385 18.832C40.4345 19.104 39.6585 19.24 38.8105 19.24ZM51.9104 19.24C50.9664 19.24 50.1104 19.072 49.3424 18.736C48.5744 18.384 47.9104 17.912 47.3504 17.32C46.7904 16.712 46.3584 16.016 46.0544 15.232C45.7504 14.448 45.5984 13.624 45.5984 12.76C45.5984 11.88 45.7504 11.048 46.0544 10.264C46.3584 9.48 46.7904 8.792 47.3504 8.2C47.9104 7.592 48.5744 7.12 49.3424 6.784C50.1264 6.432 50.9824 6.256 51.9104 6.256C52.8544 6.256 53.7104 6.432 54.4784 6.784C55.2464 7.12 55.9104 7.592 56.4704 8.2C57.0464 8.792 57.4864 9.48 57.7904 10.264C58.0944 11.048 58.2464 11.88 58.2464 12.76C58.2464 13.624 58.0944 14.448 57.7904 15.232C57.4864 16.016 57.0544 16.712 56.4944 17.32C55.9344 17.912 55.2624 18.384 54.4784 18.736C53.7104 19.072 52.8544 19.24 51.9104 19.24ZM47.7584 12.784C47.7584 13.648 47.9424 14.432 48.3104 15.136C48.6944 15.84 49.1984 16.4 49.8224 16.816C50.4464 17.216 51.1424 17.416 51.9104 17.416C52.6784 17.416 53.3744 17.208 53.9984 16.792C54.6384 16.376 55.1424 15.816 55.5104 15.112C55.8944 14.392 56.0864 13.6 56.0864 12.736C56.0864 11.872 55.8944 11.088 55.5104 10.384C55.1424 9.68 54.6384 9.12 53.9984 8.704C53.3744 8.288 52.6784 8.08 51.9104 8.08C51.1424 8.08 50.4464 8.296 49.8224 8.728C49.1984 9.144 48.6944 9.704 48.3104 10.408C47.9424 11.112 47.7584 11.904 47.7584 12.784ZM63.9837 19L59.0637 6.472H61.2717L65.2077 16.984L69.1437 6.472H71.2077L66.2877 19H63.9837ZM78.4433 19.24C77.4993 19.24 76.6353 19.072 75.8513 18.736C75.0833 18.384 74.4113 17.912 73.8353 17.32C73.2753 16.712 72.8353 16.016 72.5153 15.232C72.2113 14.448 72.0593 13.616 72.0593 12.736C72.0593 11.552 72.3313 10.472 72.8753 9.496C73.4193 8.52 74.1713 7.736 75.1313 7.144C76.1073 6.552 77.2193 6.256 78.4673 6.256C79.7313 6.256 80.8273 6.56 81.7553 7.168C82.6993 7.76 83.4273 8.544 83.9393 9.52C84.4673 10.48 84.7313 11.52 84.7313 12.64C84.7313 12.8 84.7233 12.96 84.7073 13.12C84.7073 13.264 84.6993 13.376 84.6833 13.456H74.2913C74.3553 14.272 74.5793 15 74.9633 15.64C75.3633 16.264 75.8753 16.76 76.4993 17.128C77.1233 17.48 77.7953 17.656 78.5153 17.656C79.2833 17.656 80.0033 17.464 80.6753 17.08C81.3633 16.696 81.8353 16.192 82.0913 15.568L83.9153 16.072C83.6433 16.68 83.2353 17.224 82.6913 17.704C82.1633 18.184 81.5313 18.56 80.7953 18.832C80.0753 19.104 79.2913 19.24 78.4433 19.24ZM74.2193 11.992H82.7633C82.6993 11.176 82.4673 10.456 82.0673 9.832C81.6673 9.208 81.1553 8.72 80.5313 8.368C79.9073 8.016 79.2193 7.84 78.4673 7.84C77.7313 7.84 77.0513 8.016 76.4273 8.368C75.8033 8.72 75.2913 9.208 74.8913 9.832C74.5073 10.456 74.2833 11.176 74.2193 11.992ZM93.703 8.32C92.647 8.336 91.711 8.608 90.895 9.136C90.095 9.648 89.527 10.36 89.191 11.272V19H87.079V6.472H89.047V9.376C89.479 8.512 90.047 7.816 90.751 7.288C91.471 6.744 92.223 6.44 93.007 6.376C93.167 6.376 93.303 6.376 93.415 6.376C93.527 6.376 93.623 6.384 93.703 6.4V8.32ZM112.178 19H110.066V11.992C110.066 10.712 109.834 9.752 109.37 9.112C108.922 8.472 108.274 8.152 107.426 8.152C106.882 8.152 106.33 8.296 105.77 8.584C105.226 8.872 104.746 9.264 104.33 9.76C103.914 10.24 103.61 10.8 103.418 11.44V19H101.306V1.48H103.418V9.16C103.914 8.264 104.586 7.56 105.434 7.048C106.298 6.52 107.226 6.256 108.218 6.256C108.97 6.256 109.594 6.392 110.09 6.664C110.602 6.92 111.01 7.288 111.314 7.768C111.618 8.248 111.834 8.808 111.962 9.448C112.106 10.072 112.178 10.76 112.178 11.512V19ZM115.462 19V6.472H117.574V19H115.462ZM115.462 4.12V1.48H117.574V4.12H115.462ZM120.177 12.76C120.177 11.576 120.417 10.496 120.897 9.52C121.393 8.528 122.065 7.736 122.913 7.144C123.777 6.552 124.761 6.256 125.865 6.256C126.873 6.256 127.777 6.52 128.577 7.048C129.377 7.576 130.001 8.216 130.449 8.968V1.48H132.561V16.6C132.561 16.856 132.609 17.048 132.705 17.176C132.817 17.288 132.993 17.352 133.233 17.368V19C132.833 19.064 132.521 19.096 132.297 19.096C131.881 19.096 131.513 18.952 131.193 18.664C130.889 18.376 130.737 18.056 130.737 17.704V16.648C130.241 17.448 129.577 18.08 128.745 18.544C127.913 19.008 127.049 19.24 126.153 19.24C125.289 19.24 124.489 19.072 123.753 18.736C123.033 18.384 122.401 17.904 121.857 17.296C121.329 16.688 120.913 16 120.609 15.232C120.321 14.448 120.177 13.624 120.177 12.76ZM130.449 14.608V11.008C130.257 10.464 129.945 9.976 129.513 9.544C129.081 9.096 128.593 8.744 128.049 8.488C127.521 8.216 126.993 8.08 126.465 8.08C125.841 8.08 125.273 8.216 124.761 8.488C124.265 8.744 123.833 9.096 123.465 9.544C123.113 9.976 122.841 10.472 122.649 11.032C122.457 11.592 122.361 12.176 122.361 12.784C122.361 13.408 122.465 14 122.673 14.56C122.897 15.12 123.201 15.616 123.585 16.048C123.985 16.48 124.441 16.816 124.953 17.056C125.481 17.296 126.049 17.416 126.657 17.416C127.041 17.416 127.433 17.344 127.833 17.2C128.249 17.056 128.641 16.856 129.009 16.6C129.377 16.344 129.689 16.048 129.945 15.712C130.201 15.36 130.369 14.992 130.449 14.608ZM135.271 12.76C135.271 11.576 135.511 10.496 135.991 9.52C136.487 8.528 137.159 7.736 138.007 7.144C138.871 6.552 139.855 6.256 140.959 6.256C141.967 6.256 142.871 6.52 143.671 7.048C144.471 7.576 145.095 8.216 145.543 8.968V1.48H147.655V16.6C147.655 16.856 147.703 17.048 147.799 17.176C147.911 17.288 148.087 17.352 148.327 17.368V19C147.927 19.064 147.615 19.096 147.391 19.096C146.975 19.096 146.607 18.952 146.287 18.664C145.983 18.376 145.831 18.056 145.831 17.704V16.648C145.335 17.448 144.671 18.08 143.839 18.544C143.007 19.008 142.143 19.24 141.247 19.24C140.383 19.24 139.583 19.072 138.847 18.736C138.127 18.384 137.495 17.904 136.951 17.296C136.423 16.688 136.007 16 135.703 15.232C135.415 14.448 135.271 13.624 135.271 12.76ZM145.543 14.608V11.008C145.351 10.464 145.039 9.976 144.607 9.544C144.175 9.096 143.687 8.744 143.143 8.488C142.615 8.216 142.087 8.08 141.559 8.08C140.935 8.08 140.367 8.216 139.855 8.488C139.359 8.744 138.927 9.096 138.559 9.544C138.207 9.976 137.935 10.472 137.743 11.032C137.551 11.592 137.455 12.176 137.455 12.784C137.455 13.408 137.559 14 137.767 14.56C137.991 15.12 138.295 15.616 138.679 16.048C139.079 16.48 139.535 16.816 140.047 17.056C140.575 17.296 141.143 17.416 141.751 17.416C142.135 17.416 142.527 17.344 142.927 17.2C143.343 17.056 143.735 16.856 144.103 16.6C144.471 16.344 144.783 16.048 145.039 15.712C145.295 15.36 145.463 14.992 145.543 14.608ZM156.725 19.24C155.781 19.24 154.917 19.072 154.133 18.736C153.365 18.384 152.693 17.912 152.117 17.32C151.557 16.712 151.117 16.016 150.797 15.232C150.493 14.448 150.341 13.616 150.341 12.736C150.341 11.552 150.613 10.472 151.157 9.496C151.701 8.52 152.453 7.736 153.413 7.144C154.389 6.552 155.501 6.256 156.749 6.256C158.013 6.256 159.109 6.56 160.037 7.168C160.981 7.76 161.709 8.544 162.221 9.52C162.749 10.48 163.013 11.52 163.013 12.64C163.013 12.8 163.005 12.96 162.989 13.12C162.989 13.264 162.981 13.376 162.965 13.456H152.573C152.637 14.272 152.861 15 153.245 15.64C153.645 16.264 154.157 16.76 154.781 17.128C155.405 17.48 156.077 17.656 156.797 17.656C157.565 17.656 158.285 17.464 158.957 17.08C159.645 16.696 160.117 16.192 160.373 15.568L162.197 16.072C161.925 16.68 161.517 17.224 160.973 17.704C160.445 18.184 159.813 18.56 159.077 18.832C158.357 19.104 157.573 19.24 156.725 19.24ZM152.501 11.992H161.045C160.981 11.176 160.749 10.456 160.349 9.832C159.949 9.208 159.437 8.72 158.813 8.368C158.189 8.016 157.501 7.84 156.749 7.84C156.013 7.84 155.333 8.016 154.709 8.368C154.085 8.72 153.573 9.208 153.173 9.832C152.789 10.456 152.565 11.176 152.501 11.992ZM176.232 19H174.12V11.992C174.12 10.664 173.912 9.696 173.496 9.088C173.096 8.464 172.48 8.152 171.648 8.152C171.072 8.152 170.496 8.296 169.92 8.584C169.36 8.872 168.856 9.264 168.408 9.76C167.976 10.24 167.664 10.8 167.472 11.44V19H165.36V6.472H167.28V9.16C167.616 8.568 168.048 8.056 168.576 7.624C169.104 7.192 169.704 6.856 170.376 6.616C171.048 6.376 171.752 6.256 172.488 6.256C173.208 6.256 173.808 6.392 174.288 6.664C174.784 6.92 175.168 7.288 175.44 7.768C175.728 8.232 175.928 8.784 176.04 9.424C176.168 10.064 176.232 10.76 176.232 11.512V19ZM189.883 19.24C188.843 19.24 187.867 19.072 186.955 18.736C186.043 18.384 185.259 17.864 184.603 17.176L185.419 15.688C186.139 16.36 186.859 16.84 187.579 17.128C188.299 17.416 189.035 17.56 189.787 17.56C190.651 17.56 191.355 17.4 191.899 17.08C192.443 16.744 192.715 16.256 192.715 15.616C192.715 15.152 192.571 14.808 192.283 14.584C192.011 14.36 191.619 14.176 191.107 14.032C190.595 13.872 189.987 13.696 189.283 13.504C188.419 13.248 187.691 12.976 187.099 12.688C186.507 12.4 186.059 12.04 185.755 11.608C185.451 11.176 185.299 10.632 185.299 9.976C185.299 9.176 185.507 8.504 185.923 7.96C186.339 7.4 186.907 6.976 187.627 6.688C188.363 6.4 189.195 6.256 190.123 6.256C191.051 6.256 191.891 6.4 192.643 6.688C193.395 6.976 194.043 7.4 194.587 7.96L193.627 9.424C193.131 8.912 192.587 8.536 191.995 8.296C191.403 8.04 190.739 7.912 190.003 7.912C189.571 7.912 189.147 7.968 188.731 8.08C188.315 8.176 187.971 8.36 187.699 8.632C187.427 8.888 187.291 9.256 187.291 9.736C187.291 10.136 187.395 10.456 187.603 10.696C187.827 10.92 188.147 11.112 188.563 11.272C188.995 11.432 189.515 11.608 190.123 11.8C191.067 12.072 191.883 12.344 192.571 12.616C193.275 12.888 193.819 13.24 194.203 13.672C194.587 14.104 194.779 14.704 194.779 15.472C194.779 16.656 194.331 17.584 193.435 18.256C192.539 18.912 191.355 19.24 189.883 19.24ZM204.05 19.24C203.026 19.24 202.114 18.984 201.314 18.472C200.514 17.96 199.882 17.312 199.418 16.528V24.112H197.306V6.472H199.178V8.824C199.674 8.056 200.322 7.44 201.122 6.976C201.922 6.496 202.794 6.256 203.738 6.256C204.602 6.256 205.394 6.432 206.114 6.784C206.834 7.136 207.458 7.616 207.986 8.224C208.514 8.832 208.922 9.528 209.21 10.312C209.514 11.08 209.666 11.888 209.666 12.736C209.666 13.92 209.426 15.008 208.946 16C208.482 16.992 207.826 17.784 206.978 18.376C206.13 18.952 205.154 19.24 204.05 19.24ZM203.402 17.416C204.026 17.416 204.586 17.288 205.082 17.032C205.594 16.76 206.026 16.408 206.378 15.976C206.746 15.528 207.026 15.024 207.218 14.464C207.41 13.904 207.506 13.328 207.506 12.736C207.506 12.112 207.394 11.52 207.17 10.96C206.962 10.4 206.658 9.904 206.258 9.472C205.874 9.04 205.418 8.704 204.89 8.464C204.378 8.208 203.818 8.08 203.21 8.08C202.826 8.08 202.426 8.152 202.01 8.296C201.61 8.44 201.226 8.648 200.858 8.92C200.49 9.176 200.178 9.472 199.922 9.808C199.666 10.144 199.498 10.504 199.418 10.888V14.464C199.658 15.008 199.978 15.504 200.378 15.952C200.778 16.4 201.242 16.76 201.77 17.032C202.298 17.288 202.842 17.416 203.402 17.416ZM217.731 19.24C216.787 19.24 215.931 19.072 215.163 18.736C214.395 18.384 213.731 17.912 213.171 17.32C212.611 16.712 212.179 16.016 211.875 15.232C211.571 14.448 211.419 13.624 211.419 12.76C211.419 11.88 211.571 11.048 211.875 10.264C212.179 9.48 212.611 8.792 213.171 8.2C213.731 7.592 214.395 7.12 215.163 6.784C215.947 6.432 216.803 6.256 217.731 6.256C218.675 6.256 219.531 6.432 220.299 6.784C221.067 7.12 221.731 7.592 222.291 8.2C222.867 8.792 223.307 9.48 223.611 10.264C223.915 11.048 224.067 11.88 224.067 12.76C224.067 13.624 223.915 14.448 223.611 15.232C223.307 16.016 222.875 16.712 222.315 17.32C221.755 17.912 221.083 18.384 220.299 18.736C219.531 19.072 218.675 19.24 217.731 19.24ZM213.579 12.784C213.579 13.648 213.763 14.432 214.131 15.136C214.515 15.84 215.019 16.4 215.643 16.816C216.267 17.216 216.963 17.416 217.731 17.416C218.499 17.416 219.195 17.208 219.819 16.792C220.459 16.376 220.963 15.816 221.331 15.112C221.715 14.392 221.907 13.6 221.907 12.736C221.907 11.872 221.715 11.088 221.331 10.384C220.963 9.68 220.459 9.12 219.819 8.704C219.195 8.288 218.499 8.08 217.731 8.08C216.963 8.08 216.267 8.296 215.643 8.728C215.019 9.144 214.515 9.704 214.131 10.408C213.763 11.112 213.579 11.904 213.579 12.784ZM232.918 18.376C232.742 18.456 232.502 18.56 232.198 18.688C231.894 18.816 231.542 18.928 231.142 19.024C230.742 19.12 230.318 19.168 229.87 19.168C229.358 19.168 228.886 19.08 228.454 18.904C228.022 18.712 227.678 18.424 227.422 18.04C227.166 17.64 227.038 17.144 227.038 16.552V8.128H225.334V6.472H227.038V2.296H229.15V6.472H231.958V8.128H229.15V15.904C229.182 16.352 229.334 16.688 229.606 16.912C229.878 17.12 230.198 17.224 230.566 17.224C230.982 17.224 231.366 17.152 231.718 17.008C232.07 16.864 232.302 16.76 232.414 16.696L232.918 18.376ZM239.172 19.24C238.132 19.24 237.156 19.072 236.244 18.736C235.332 18.384 234.548 17.864 233.892 17.176L234.708 15.688C235.428 16.36 236.148 16.84 236.868 17.128C237.588 17.416 238.324 17.56 239.076 17.56C239.94 17.56 240.644 17.4 241.188 17.08C241.732 16.744 242.004 16.256 242.004 15.616C242.004 15.152 241.86 14.808 241.572 14.584C241.3 14.36 240.908 14.176 240.396 14.032C239.884 13.872 239.276 13.696 238.572 13.504C237.708 13.248 236.98 12.976 236.388 12.688C235.796 12.4 235.348 12.04 235.044 11.608C234.74 11.176 234.588 10.632 234.588 9.976C234.588 9.176 234.796 8.504 235.212 7.96C235.628 7.4 236.196 6.976 236.916 6.688C237.652 6.4 238.484 6.256 239.412 6.256C240.34 6.256 241.18 6.4 241.932 6.688C242.684 6.976 243.332 7.4 243.876 7.96L242.916 9.424C242.42 8.912 241.876 8.536 241.284 8.296C240.692 8.04 240.028 7.912 239.292 7.912C238.86 7.912 238.436 7.968 238.02 8.08C237.604 8.176 237.26 8.36 236.988 8.632C236.716 8.888 236.58 9.256 236.58 9.736C236.58 10.136 236.684 10.456 236.892 10.696C237.116 10.92 237.436 11.112 237.852 11.272C238.284 11.432 238.804 11.608 239.412 11.8C240.356 12.072 241.172 12.344 241.86 12.616C242.564 12.888 243.108 13.24 243.492 13.672C243.876 14.104 244.068 14.704 244.068 15.472C244.068 16.656 243.62 17.584 242.724 18.256C241.828 18.912 240.644 19.24 239.172 19.24ZM251.681 15.376C251.681 14.576 251.905 13.888 252.353 13.312C252.817 12.72 253.449 12.264 254.249 11.944C255.049 11.624 255.977 11.464 257.033 11.464C257.593 11.464 258.185 11.512 258.809 11.608C259.433 11.688 259.985 11.816 260.465 11.992V11.08C260.465 10.12 260.177 9.368 259.601 8.824C259.025 8.264 258.209 7.984 257.153 7.984C256.465 7.984 255.801 8.112 255.161 8.368C254.537 8.608 253.873 8.96 253.169 9.424L252.401 7.936C253.217 7.376 254.033 6.96 254.849 6.688C255.665 6.4 256.513 6.256 257.393 6.256C258.993 6.256 260.257 6.704 261.185 7.6C262.113 8.48 262.577 9.712 262.577 11.296V16.6C262.577 16.856 262.625 17.048 262.721 17.176C262.833 17.288 263.009 17.352 263.249 17.368V19C263.041 19.032 262.857 19.056 262.697 19.072C262.553 19.088 262.433 19.096 262.337 19.096C261.841 19.096 261.465 18.96 261.209 18.688C260.969 18.416 260.833 18.128 260.801 17.824L260.753 17.032C260.209 17.736 259.497 18.28 258.617 18.664C257.737 19.048 256.865 19.24 256.001 19.24C255.169 19.24 254.425 19.072 253.769 18.736C253.113 18.384 252.601 17.92 252.233 17.344C251.865 16.752 251.681 16.096 251.681 15.376ZM259.841 16.264C260.033 16.04 260.185 15.816 260.297 15.592C260.409 15.352 260.465 15.152 260.465 14.992V13.432C259.969 13.24 259.449 13.096 258.905 13C258.361 12.888 257.825 12.832 257.297 12.832C256.225 12.832 255.353 13.048 254.681 13.48C254.025 13.896 253.697 14.472 253.697 15.208C253.697 15.608 253.801 16 254.009 16.384C254.233 16.752 254.553 17.056 254.969 17.296C255.401 17.536 255.929 17.656 256.553 17.656C257.209 17.656 257.833 17.528 258.425 17.272C259.017 17 259.489 16.664 259.841 16.264ZM276.826 19H274.714V11.992C274.714 10.664 274.506 9.696 274.09 9.088C273.69 8.464 273.074 8.152 272.242 8.152C271.666 8.152 271.09 8.296 270.514 8.584C269.954 8.872 269.45 9.264 269.002 9.76C268.57 10.24 268.258 10.8 268.066 11.44V19H265.954V6.472H267.874V9.16C268.21 8.568 268.642 8.056 269.17 7.624C269.698 7.192 270.298 6.856 270.97 6.616C271.642 6.376 272.346 6.256 273.082 6.256C273.802 6.256 274.402 6.392 274.882 6.664C275.378 6.92 275.762 7.288 276.034 7.768C276.322 8.232 276.522 8.784 276.634 9.424C276.762 10.064 276.826 10.76 276.826 11.512V19ZM279.294 12.76C279.294 11.576 279.534 10.496 280.014 9.52C280.51 8.528 281.182 7.736 282.03 7.144C282.894 6.552 283.878 6.256 284.982 6.256C285.99 6.256 286.894 6.52 287.694 7.048C288.494 7.576 289.118 8.216 289.566 8.968V1.48H291.678V16.6C291.678 16.856 291.726 17.048 291.822 17.176C291.934 17.288 292.11 17.352 292.35 17.368V19C291.95 19.064 291.638 19.096 291.414 19.096C290.998 19.096 290.63 18.952 290.31 18.664C290.006 18.376 289.854 18.056 289.854 17.704V16.648C289.358 17.448 288.694 18.08 287.862 18.544C287.03 19.008 286.166 19.24 285.27 19.24C284.406 19.24 283.606 19.072 282.87 18.736C282.15 18.384 281.518 17.904 280.974 17.296C280.446 16.688 280.03 16 279.726 15.232C279.438 14.448 279.294 13.624 279.294 12.76ZM289.566 14.608V11.008C289.374 10.464 289.062 9.976 288.63 9.544C288.198 9.096 287.71 8.744 287.166 8.488C286.638 8.216 286.11 8.08 285.582 8.08C284.958 8.08 284.39 8.216 283.878 8.488C283.382 8.744 282.95 9.096 282.582 9.544C282.23 9.976 281.958 10.472 281.766 11.032C281.574 11.592 281.478 12.176 281.478 12.784C281.478 13.408 281.582 14 281.79 14.56C282.014 15.12 282.318 15.616 282.702 16.048C283.102 16.48 283.558 16.816 284.07 17.056C284.598 17.296 285.166 17.416 285.774 17.416C286.158 17.416 286.55 17.344 286.95 17.2C287.366 17.056 287.758 16.856 288.126 16.6C288.494 16.344 288.806 16.048 289.062 15.712C289.318 15.36 289.486 14.992 289.566 14.608ZM301.322 1.48H303.434V15.76C303.434 16.448 303.53 16.872 303.722 17.032C303.914 17.192 304.146 17.272 304.418 17.272C304.754 17.272 305.074 17.24 305.378 17.176C305.682 17.096 305.938 17.016 306.146 16.936L306.482 18.664C306.13 18.808 305.714 18.928 305.234 19.024C304.754 19.12 304.33 19.168 303.962 19.168C303.146 19.168 302.498 18.936 302.018 18.472C301.554 18.008 301.322 17.36 301.322 16.528V1.48ZM313.614 19.24C312.67 19.24 311.814 19.072 311.046 18.736C310.278 18.384 309.614 17.912 309.054 17.32C308.494 16.712 308.062 16.016 307.758 15.232C307.454 14.448 307.302 13.624 307.302 12.76C307.302 11.88 307.454 11.048 307.758 10.264C308.062 9.48 308.494 8.792 309.054 8.2C309.614 7.592 310.278 7.12 311.046 6.784C311.83 6.432 312.686 6.256 313.614 6.256C314.558 6.256 315.414 6.432 316.182 6.784C316.95 7.12 317.614 7.592 318.174 8.2C318.75 8.792 319.19 9.48 319.494 10.264C319.798 11.048 319.95 11.88 319.95 12.76C319.95 13.624 319.798 14.448 319.494 15.232C319.19 16.016 318.758 16.712 318.198 17.32C317.638 17.912 316.966 18.384 316.182 18.736C315.414 19.072 314.558 19.24 313.614 19.24ZM309.462 12.784C309.462 13.648 309.646 14.432 310.014 15.136C310.398 15.84 310.902 16.4 311.526 16.816C312.15 17.216 312.846 17.416 313.614 17.416C314.382 17.416 315.078 17.208 315.702 16.792C316.342 16.376 316.846 15.816 317.214 15.112C317.598 14.392 317.79 13.6 317.79 12.736C317.79 11.872 317.598 11.088 317.214 10.384C316.846 9.68 316.342 9.12 315.702 8.704C315.078 8.288 314.382 8.08 313.614 8.08C312.846 8.08 312.15 8.296 311.526 8.728C310.902 9.144 310.398 9.704 310.014 10.408C309.646 11.112 309.462 11.904 309.462 12.784ZM328.053 19.24C327.109 19.24 326.245 19.072 325.461 18.736C324.693 18.384 324.021 17.904 323.445 17.296C322.885 16.688 322.445 15.992 322.125 15.208C321.821 14.424 321.669 13.592 321.669 12.712C321.669 11.528 321.933 10.448 322.461 9.472C322.989 8.496 323.733 7.72 324.693 7.144C325.653 6.552 326.765 6.256 328.029 6.256C329.261 6.256 330.333 6.536 331.245 7.096C332.173 7.64 332.861 8.376 333.309 9.304L331.245 9.952C330.925 9.36 330.477 8.904 329.901 8.584C329.325 8.248 328.685 8.08 327.981 8.08C327.213 8.08 326.509 8.28 325.869 8.68C325.245 9.08 324.749 9.632 324.381 10.336C324.013 11.024 323.829 11.816 323.829 12.712C323.829 13.592 324.013 14.392 324.381 15.112C324.765 15.816 325.269 16.376 325.893 16.792C326.533 17.208 327.237 17.416 328.005 17.416C328.501 17.416 328.973 17.328 329.421 17.152C329.885 16.976 330.285 16.744 330.621 16.456C330.973 16.152 331.213 15.824 331.341 15.472L333.405 16.096C333.149 16.704 332.757 17.248 332.229 17.728C331.717 18.192 331.101 18.56 330.381 18.832C329.677 19.104 328.901 19.24 328.053 19.24ZM334.814 15.376C334.814 14.576 335.038 13.888 335.486 13.312C335.95 12.72 336.582 12.264 337.382 11.944C338.182 11.624 339.11 11.464 340.166 11.464C340.726 11.464 341.318 11.512 341.942 11.608C342.566 11.688 343.118 11.816 343.598 11.992V11.08C343.598 10.12 343.31 9.368 342.734 8.824C342.158 8.264 341.342 7.984 340.286 7.984C339.598 7.984 338.934 8.112 338.294 8.368C337.67 8.608 337.006 8.96 336.302 9.424L335.534 7.936C336.35 7.376 337.166 6.96 337.982 6.688C338.798 6.4 339.646 6.256 340.526 6.256C342.126 6.256 343.39 6.704 344.318 7.6C345.246 8.48 345.71 9.712 345.71 11.296V16.6C345.71 16.856 345.758 17.048 345.854 17.176C345.966 17.288 346.142 17.352 346.382 17.368V19C346.174 19.032 345.99 19.056 345.83 19.072C345.686 19.088 345.566 19.096 345.47 19.096C344.974 19.096 344.598 18.96 344.342 18.688C344.102 18.416 343.966 18.128 343.934 17.824L343.886 17.032C343.342 17.736 342.63 18.28 341.75 18.664C340.87 19.048 339.998 19.24 339.134 19.24C338.302 19.24 337.558 19.072 336.902 18.736C336.246 18.384 335.734 17.92 335.366 17.344C334.998 16.752 334.814 16.096 334.814 15.376ZM342.974 16.264C343.166 16.04 343.318 15.816 343.43 15.592C343.542 15.352 343.598 15.152 343.598 14.992V13.432C343.102 13.24 342.582 13.096 342.038 13C341.494 12.888 340.958 12.832 340.43 12.832C339.358 12.832 338.486 13.048 337.814 13.48C337.158 13.896 336.83 14.472 336.83 15.208C336.83 15.608 336.934 16 337.142 16.384C337.366 16.752 337.686 17.056 338.102 17.296C338.534 17.536 339.062 17.656 339.686 17.656C340.342 17.656 340.966 17.528 341.558 17.272C342.15 17 342.622 16.664 342.974 16.264ZM355.473 18.376C355.297 18.456 355.057 18.56 354.753 18.688C354.449 18.816 354.097 18.928 353.697 19.024C353.297 19.12 352.873 19.168 352.425 19.168C351.913 19.168 351.441 19.08 351.009 18.904C350.577 18.712 350.233 18.424 349.977 18.04C349.721 17.64 349.593 17.144 349.593 16.552V8.128H347.889V6.472H349.593V2.296H351.705V6.472H354.513V8.128H351.705V15.904C351.737 16.352 351.889 16.688 352.161 16.912C352.433 17.12 352.753 17.224 353.121 17.224C353.537 17.224 353.921 17.152 354.273 17.008C354.625 16.864 354.857 16.76 354.969 16.696L355.473 18.376ZM357.431 19V6.472H359.543V19H357.431ZM357.431 4.12V1.48H359.543V4.12H357.431ZM368.434 19.24C367.49 19.24 366.634 19.072 365.866 18.736C365.098 18.384 364.434 17.912 363.874 17.32C363.314 16.712 362.882 16.016 362.578 15.232C362.274 14.448 362.122 13.624 362.122 12.76C362.122 11.88 362.274 11.048 362.578 10.264C362.882 9.48 363.314 8.792 363.874 8.2C364.434 7.592 365.098 7.12 365.866 6.784C366.65 6.432 367.506 6.256 368.434 6.256C369.378 6.256 370.234 6.432 371.002 6.784C371.77 7.12 372.434 7.592 372.994 8.2C373.57 8.792 374.01 9.48 374.314 10.264C374.618 11.048 374.77 11.88 374.77 12.76C374.77 13.624 374.618 14.448 374.314 15.232C374.01 16.016 373.578 16.712 373.018 17.32C372.458 17.912 371.786 18.384 371.002 18.736C370.234 19.072 369.378 19.24 368.434 19.24ZM364.282 12.784C364.282 13.648 364.466 14.432 364.834 15.136C365.218 15.84 365.722 16.4 366.346 16.816C366.97 17.216 367.666 17.416 368.434 17.416C369.202 17.416 369.898 17.208 370.522 16.792C371.162 16.376 371.666 15.816 372.034 15.112C372.418 14.392 372.61 13.6 372.61 12.736C372.61 11.872 372.418 11.088 372.034 10.384C371.666 9.68 371.162 9.12 370.522 8.704C369.898 8.288 369.202 8.08 368.434 8.08C367.666 8.08 366.97 8.296 366.346 8.728C365.722 9.144 365.218 9.704 364.834 10.408C364.466 11.112 364.282 11.904 364.282 12.784ZM388.201 19H386.089V11.992C386.089 10.664 385.881 9.696 385.465 9.088C385.065 8.464 384.449 8.152 383.617 8.152C383.041 8.152 382.465 8.296 381.889 8.584C381.329 8.872 380.825 9.264 380.377 9.76C379.945 10.24 379.633 10.8 379.441 11.44V19H377.329V6.472H379.249V9.16C379.585 8.568 380.017 8.056 380.545 7.624C381.073 7.192 381.673 6.856 382.345 6.616C383.017 6.376 383.721 6.256 384.457 6.256C385.177 6.256 385.777 6.392 386.257 6.664C386.753 6.92 387.137 7.288 387.409 7.768C387.697 8.232 387.897 8.784 388.009 9.424C388.137 10.064 388.201 10.76 388.201 11.512V19ZM395.781 19.24C394.741 19.24 393.765 19.072 392.853 18.736C391.941 18.384 391.157 17.864 390.501 17.176L391.317 15.688C392.037 16.36 392.757 16.84 393.477 17.128C394.197 17.416 394.933 17.56 395.685 17.56C396.549 17.56 397.253 17.4 397.797 17.08C398.341 16.744 398.613 16.256 398.613 15.616C398.613 15.152 398.469 14.808 398.181 14.584C397.909 14.36 397.517 14.176 397.005 14.032C396.493 13.872 395.885 13.696 395.181 13.504C394.317 13.248 393.589 12.976 392.997 12.688C392.405 12.4 391.957 12.04 391.653 11.608C391.349 11.176 391.197 10.632 391.197 9.976C391.197 9.176 391.405 8.504 391.821 7.96C392.237 7.4 392.805 6.976 393.525 6.688C394.261 6.4 395.093 6.256 396.021 6.256C396.949 6.256 397.789 6.4 398.541 6.688C399.293 6.976 399.941 7.4 400.485 7.96L399.525 9.424C399.029 8.912 398.485 8.536 397.893 8.296C397.301 8.04 396.637 7.912 395.901 7.912C395.469 7.912 395.045 7.968 394.629 8.08C394.213 8.176 393.869 8.36 393.597 8.632C393.325 8.888 393.189 9.256 393.189 9.736C393.189 10.136 393.293 10.456 393.501 10.696C393.725 10.92 394.045 11.112 394.461 11.272C394.893 11.432 395.413 11.608 396.021 11.8C396.965 12.072 397.781 12.344 398.469 12.616C399.173 12.888 399.717 13.24 400.101 13.672C400.485 14.104 400.677 14.704 400.677 15.472C400.677 16.656 400.229 17.584 399.333 18.256C398.437 18.912 397.253 19.24 395.781 19.24ZM415.754 18.376C415.578 18.456 415.338 18.56 415.034 18.688C414.73 18.816 414.378 18.928 413.978 19.024C413.578 19.12 413.154 19.168 412.706 19.168C412.194 19.168 411.722 19.08 411.29 18.904C410.858 18.712 410.514 18.424 410.258 18.04C410.002 17.64 409.874 17.144 409.874 16.552V8.128H408.17V6.472H409.874V2.296H411.986V6.472H414.794V8.128H411.986V15.904C412.018 16.352 412.17 16.688 412.442 16.912C412.714 17.12 413.034 17.224 413.402 17.224C413.818 17.224 414.202 17.152 414.554 17.008C414.906 16.864 415.138 16.76 415.25 16.696L415.754 18.376ZM428.584 19H426.472V11.992C426.472 10.712 426.24 9.752 425.776 9.112C425.328 8.472 424.68 8.152 423.832 8.152C423.288 8.152 422.736 8.296 422.176 8.584C421.632 8.872 421.152 9.264 420.736 9.76C420.32 10.24 420.016 10.8 419.824 11.44V19H417.712V1.48H419.824V9.16C420.32 8.264 420.992 7.56 421.84 7.048C422.704 6.52 423.632 6.256 424.624 6.256C425.376 6.256 426 6.392 426.496 6.664C427.008 6.92 427.416 7.288 427.72 7.768C428.024 8.248 428.24 8.808 428.368 9.448C428.512 10.072 428.584 10.76 428.584 11.512V19ZM430.884 15.376C430.884 14.576 431.108 13.888 431.556 13.312C432.02 12.72 432.652 12.264 433.452 11.944C434.252 11.624 435.18 11.464 436.236 11.464C436.796 11.464 437.388 11.512 438.012 11.608C438.636 11.688 439.188 11.816 439.668 11.992V11.08C439.668 10.12 439.38 9.368 438.804 8.824C438.228 8.264 437.412 7.984 436.356 7.984C435.668 7.984 435.004 8.112 434.364 8.368C433.74 8.608 433.076 8.96 432.372 9.424L431.604 7.936C432.42 7.376 433.236 6.96 434.052 6.688C434.868 6.4 435.716 6.256 436.596 6.256C438.196 6.256 439.46 6.704 440.388 7.6C441.316 8.48 441.78 9.712 441.78 11.296V16.6C441.78 16.856 441.828 17.048 441.924 17.176C442.036 17.288 442.212 17.352 442.452 17.368V19C442.244 19.032 442.06 19.056 441.9 19.072C441.756 19.088 441.636 19.096 441.54 19.096C441.044 19.096 440.668 18.96 440.412 18.688C440.172 18.416 440.036 18.128 440.004 17.824L439.956 17.032C439.412 17.736 438.7 18.28 437.82 18.664C436.94 19.048 436.068 19.24 435.204 19.24C434.372 19.24 433.628 19.072 432.972 18.736C432.316 18.384 431.804 17.92 431.436 17.344C431.068 16.752 430.884 16.096 430.884 15.376ZM439.044 16.264C439.236 16.04 439.388 15.816 439.5 15.592C439.612 15.352 439.668 15.152 439.668 14.992V13.432C439.172 13.24 438.652 13.096 438.108 13C437.564 12.888 437.028 12.832 436.5 12.832C435.428 12.832 434.556 13.048 433.884 13.48C433.228 13.896 432.9 14.472 432.9 15.208C432.9 15.608 433.004 16 433.212 16.384C433.436 16.752 433.756 17.056 434.172 17.296C434.604 17.536 435.132 17.656 435.756 17.656C436.412 17.656 437.036 17.528 437.628 17.272C438.22 17 438.692 16.664 439.044 16.264ZM451.543 18.376C451.367 18.456 451.127 18.56 450.823 18.688C450.519 18.816 450.167 18.928 449.767 19.024C449.367 19.12 448.943 19.168 448.495 19.168C447.983 19.168 447.511 19.08 447.079 18.904C446.647 18.712 446.303 18.424 446.047 18.04C445.791 17.64 445.663 17.144 445.663 16.552V8.128H443.959V6.472H445.663V2.296H447.775V6.472H450.583V8.128H447.775V15.904C447.807 16.352 447.959 16.688 448.231 16.912C448.503 17.12 448.823 17.224 449.191 17.224C449.607 17.224 449.991 17.152 450.343 17.008C450.695 16.864 450.927 16.76 451.039 16.696L451.543 18.376ZM460.243 8.128H458.539V6.472H460.243V6.208C460.243 5.584 460.339 4.984 460.531 4.408C460.723 3.816 461.011 3.28 461.395 2.8C461.779 2.32 462.259 1.944 462.835 1.672C463.411 1.384 464.091 1.24 464.875 1.24C465.467 1.24 466.011 1.304 466.507 1.432C467.003 1.56 467.443 1.72 467.827 1.912C468.227 2.104 468.555 2.296 468.811 2.488L467.899 4.048C467.595 3.776 467.179 3.544 466.651 3.352C466.139 3.16 465.587 3.064 464.995 3.064C464.387 3.064 463.883 3.216 463.483 3.52C463.099 3.824 462.811 4.216 462.619 4.696C462.443 5.16 462.355 5.64 462.355 6.136V6.472H468.763V19H466.651V8.128H462.355V19H460.243V8.128ZM478.661 18.376C478.485 18.456 478.245 18.56 477.941 18.688C477.637 18.816 477.285 18.928 476.885 19.024C476.485 19.12 476.061 19.168 475.613 19.168C475.101 19.168 474.629 19.08 474.197 18.904C473.765 18.712 473.421 18.424 473.165 18.04C472.909 17.64 472.781 17.144 472.781 16.552V8.128H471.077V6.472H472.781V2.296H474.893V6.472H477.701V8.128H474.893V15.904C474.925 16.352 475.077 16.688 475.349 16.912C475.621 17.12 475.941 17.224 476.309 17.224C476.725 17.224 477.109 17.152 477.461 17.008C477.813 16.864 478.045 16.76 478.157 16.696L478.661 18.376ZM486.608 22.408C486.816 22.424 487.024 22.44 487.232 22.456C487.44 22.488 487.6 22.504 487.712 22.504C487.968 22.504 488.192 22.416 488.384 22.24C488.576 22.064 488.784 21.72 489.008 21.208C489.248 20.712 489.552 19.976 489.92 19L484.616 6.472H486.848L491.072 16.864L494.888 6.472H496.976L490.88 22.288C490.736 22.656 490.52 23 490.232 23.32C489.96 23.656 489.608 23.92 489.176 24.112C488.744 24.304 488.224 24.4 487.616 24.4C487.472 24.4 487.32 24.392 487.16 24.376C487.016 24.36 486.832 24.328 486.608 24.28V22.408ZM504.137 19.24C503.193 19.24 502.337 19.072 501.569 18.736C500.801 18.384 500.137 17.912 499.577 17.32C499.017 16.712 498.585 16.016 498.281 15.232C497.977 14.448 497.825 13.624 497.825 12.76C497.825 11.88 497.977 11.048 498.281 10.264C498.585 9.48 499.017 8.792 499.577 8.2C500.137 7.592 500.801 7.12 501.569 6.784C502.353 6.432 503.209 6.256 504.137 6.256C505.081 6.256 505.937 6.432 506.705 6.784C507.473 7.12 508.137 7.592 508.697 8.2C509.273 8.792 509.713 9.48 510.017 10.264C510.321 11.048 510.473 11.88 510.473 12.76C510.473 13.624 510.321 14.448 510.017 15.232C509.713 16.016 509.281 16.712 508.721 17.32C508.161 17.912 507.489 18.384 506.705 18.736C505.937 19.072 505.081 19.24 504.137 19.24ZM499.985 12.784C499.985 13.648 500.169 14.432 500.537 15.136C500.921 15.84 501.425 16.4 502.049 16.816C502.673 17.216 503.369 17.416 504.137 17.416C504.905 17.416 505.601 17.208 506.225 16.792C506.865 16.376 507.369 15.816 507.737 15.112C508.121 14.392 508.313 13.6 508.313 12.736C508.313 11.872 508.121 11.088 507.737 10.384C507.369 9.68 506.865 9.12 506.225 8.704C505.601 8.288 504.905 8.08 504.137 8.08C503.369 8.08 502.673 8.296 502.049 8.728C501.425 9.144 500.921 9.704 500.537 10.408C500.169 11.112 499.985 11.904 499.985 12.784ZM512.912 13.984V6.472H515.024V13.576C515.024 14.856 515.248 15.816 515.696 16.456C516.144 17.096 516.808 17.416 517.688 17.416C518.264 17.416 518.816 17.296 519.344 17.056C519.888 16.8 520.376 16.44 520.808 15.976C521.24 15.512 521.576 14.96 521.816 14.32V6.472H523.928V16.6C523.928 16.856 523.976 17.048 524.072 17.176C524.184 17.288 524.36 17.352 524.6 17.368V19C524.36 19.032 524.168 19.048 524.024 19.048C523.896 19.064 523.768 19.072 523.64 19.072C523.24 19.072 522.896 18.952 522.608 18.712C522.32 18.456 522.168 18.144 522.152 17.776L522.104 16.312C521.56 17.24 520.824 17.96 519.896 18.472C518.984 18.984 517.984 19.24 516.896 19.24C515.584 19.24 514.592 18.8 513.92 17.92C513.248 17.024 512.912 15.712 512.912 13.984ZM534.07 8.32C533.014 8.336 532.078 8.608 531.262 9.136C530.462 9.648 529.894 10.36 529.558 11.272V19H527.446V6.472H529.414V9.376C529.846 8.512 530.414 7.816 531.118 7.288C531.838 6.744 532.59 6.44 533.374 6.376C533.534 6.376 533.67 6.376 533.782 6.376C533.894 6.376 533.99 6.384 534.07 6.4V8.32ZM544.274 18.928L539.954 6.112L544.01 5.752L546.41 6.952L547.13 9.256L548.258 5.608L552.074 5.272L554.474 6.472L550.034 19.84L546.674 20.128L544.274 18.928ZM548.45 5.848L546.122 13.384L543.818 6.016L540.29 6.328L544.418 18.688L547.466 18.424L551.738 5.56L548.45 5.848ZM555.748 18.928V5.728L557.38 5.608L555.7 4.768V0.688L559.708 0.352L562.108 1.552V5.632L560.404 5.776L562.036 6.592V19.768L558.148 20.104L555.748 18.928ZM555.94 0.904V4.504L559.468 4.216V0.615999L555.94 0.904ZM555.988 5.944V18.664L559.396 18.376V5.656L555.988 5.944ZM564.441 19.216V0.975999L568.353 0.639999L570.753 1.84V5.176C571.121 5.128 571.473 5.104 571.809 5.104C572.945 5.104 573.985 5.392 574.929 5.968C575.889 6.528 576.657 7.384 577.233 8.536C577.825 9.672 578.121 11.112 578.121 12.856C578.121 15.16 577.665 16.928 576.753 18.16C575.857 19.376 574.665 20.048 573.177 20.176C573.129 20.176 573.073 20.176 573.009 20.176C572.961 20.192 572.905 20.2 572.841 20.2C572.329 20.2 571.817 20.112 571.305 19.936C570.809 19.776 570.417 19.6 570.129 19.408L569.648 20.176L566.84 20.416L564.441 19.216ZM567.897 17.584C568.121 17.808 568.433 18.064 568.833 18.352C569.249 18.64 569.777 18.784 570.417 18.784C570.465 18.784 570.513 18.784 570.561 18.784C570.625 18.768 570.689 18.76 570.753 18.76C572.193 18.632 573.337 17.976 574.185 16.792C575.049 15.592 575.481 13.88 575.481 11.656C575.481 9.592 575.105 8.032 574.353 6.976C573.617 5.92 572.561 5.392 571.185 5.392C571.121 5.392 571.041 5.392 570.945 5.392C570.865 5.392 570.785 5.4 570.705 5.416C569.969 5.48 569.401 5.712 569.001 6.112C568.601 6.512 568.329 6.888 568.185 7.24L568.113 7.216V0.904L564.681 1.192V18.976L567.129 18.76L567.897 17.584ZM569.817 15.736C569.321 15.736 568.945 15.592 568.689 15.304C568.449 15.016 568.257 14.744 568.113 14.488V11.224C568.113 10.52 568.289 9.944 568.641 9.496C569.009 9.048 569.441 8.8 569.937 8.752H570.129C570.801 8.752 571.273 9.032 571.545 9.592C571.817 10.136 571.953 10.928 571.953 11.968C571.953 13.232 571.761 14.168 571.377 14.776C571.009 15.368 570.545 15.688 569.985 15.736H569.817ZM570.753 15.16C571.057 14.92 571.289 14.536 571.449 14.008C571.625 13.48 571.713 12.8 571.713 11.968C571.713 11.696 571.705 11.424 571.689 11.152C571.673 10.88 571.641 10.664 571.593 10.504C571.273 10.6 571.049 10.808 570.921 11.128C570.809 11.448 570.753 11.88 570.753 12.424V15.16ZM592.968 15.784C592.536 17.128 591.896 18.216 591.048 19.048C590.216 19.88 589.08 20.36 587.64 20.488C587.464 20.504 587.288 20.512 587.112 20.512C586.952 20.528 586.784 20.536 586.608 20.536C585.216 20.536 583.96 20.248 582.84 19.672C581.736 19.112 580.856 18.264 580.2 17.128C579.544 15.992 579.216 14.584 579.216 12.904C579.216 11.432 579.464 10.16 579.96 9.088C580.472 8.016 581.16 7.176 582.024 6.568C582.904 5.944 583.904 5.584 585.024 5.488C585.136 5.472 585.248 5.464 585.36 5.464C585.488 5.464 585.608 5.464 585.72 5.464C586.616 5.464 587.496 5.624 588.36 5.944C589.24 6.248 590.032 6.728 590.736 7.384C591.456 8.04 592.024 8.888 592.44 9.928C592.872 10.952 593.088 12.184 593.088 13.624C593.088 13.752 593.088 13.888 593.088 14.032C593.088 14.16 593.08 14.288 593.064 14.416L590.544 14.632L592.968 15.784ZM587.304 13.936C587.16 14.48 586.896 14.928 586.512 15.28C586.128 15.632 585.632 15.84 585.024 15.904H584.832C584.288 15.904 583.84 15.704 583.488 15.304C583.136 14.904 582.96 14.352 582.96 13.648L590.424 13C590.44 12.84 590.448 12.688 590.448 12.544C590.448 12.384 590.448 12.232 590.448 12.088C590.448 10.072 590.016 8.504 589.152 7.384C588.288 6.264 587.096 5.704 585.576 5.704C585.496 5.704 585.408 5.704 585.312 5.704C585.232 5.704 585.144 5.712 585.048 5.728C583.976 5.808 583.016 6.152 582.168 6.76C581.32 7.352 580.656 8.168 580.176 9.208C579.696 10.248 579.456 11.48 579.456 12.904C579.456 14.968 579.92 16.512 580.848 17.536C581.776 18.56 583.008 19.072 584.544 19.072C584.656 19.072 584.768 19.072 584.88 19.072C584.992 19.072 585.104 19.064 585.216 19.048C586.592 18.936 587.68 18.488 588.48 17.704C589.296 16.92 589.88 15.944 590.232 14.776L587.304 13.936ZM583.08 10.96C583.08 10.432 583.264 9.976 583.632 9.592C584 9.208 584.472 8.992 585.048 8.944H585.264C585.744 8.944 586.136 9.088 586.44 9.376C586.76 9.648 586.92 10.064 586.92 10.624L583.08 10.96ZM585.024 15.136C585.024 15.216 585.056 15.296 585.12 15.376C585.2 15.456 585.28 15.536 585.36 15.616C585.648 15.536 585.872 15.44 586.032 15.328C586.192 15.216 586.328 15.104 586.44 14.992L585.024 15.136ZM613.808 19C613.296 19.432 612.72 19.784 612.08 20.056C611.44 20.344 610.792 20.512 610.136 20.56C609.96 20.576 609.784 20.584 609.608 20.584C609.448 20.6 609.28 20.608 609.104 20.608C607.648 20.608 606.376 20.336 605.288 19.792C604.2 19.248 603.36 18.472 602.768 17.464C602.176 16.456 601.88 15.248 601.88 13.84C601.88 12.832 602.088 11.92 602.504 11.104C602.936 10.272 603.528 9.512 604.28 8.824C603.8 8.216 603.448 7.632 603.224 7.072C603 6.512 602.888 5.84 602.888 5.056C602.888 4.176 603.072 3.376 603.44 2.656C603.824 1.936 604.336 1.352 604.976 0.904C605.632 0.455999 606.368 0.191998 607.184 0.111999C607.312 0.0959988 607.424 0.0879989 607.52 0.0879989C607.632 0.0879989 607.744 0.0879989 607.856 0.0879989C608.928 0.0879989 609.928 0.311999 610.856 0.759999C611.784 1.208 612.536 1.84 613.112 2.656C613.688 3.456 613.976 4.4 613.976 5.488C613.976 6.288 613.744 7.128 613.28 8.008L614.696 7.888L617.096 9.088C617.096 10.256 617.024 11.32 616.88 12.28C616.736 13.224 616.528 14.096 616.256 14.896L620.024 19.216L615.104 19.624L613.808 19ZM613.592 13.768C613.864 12.968 614.072 12.104 614.216 11.176C614.376 10.232 614.456 9.224 614.456 8.152L611.24 8.44C611.24 8.872 611.224 9.288 611.192 9.688C611.16 10.072 611.112 10.448 611.048 10.816L609.248 8.752C609.904 8.032 610.416 7.28 610.784 6.496C611.152 5.712 611.336 4.976 611.336 4.288C611.336 3.072 611.008 2.112 610.352 1.408C609.696 0.687999 608.8 0.327999 607.664 0.327999C607.6 0.327999 607.528 0.327999 607.448 0.327999C607.368 0.327999 607.288 0.335999 607.208 0.352C606.44 0.415999 605.744 0.663999 605.12 1.096C604.512 1.528 604.024 2.088 603.656 2.776C603.304 3.448 603.128 4.208 603.128 5.056C603.128 5.84 603.248 6.52 603.488 7.096C603.728 7.656 604.104 8.248 604.616 8.872C603.832 9.544 603.216 10.288 602.768 11.104C602.336 11.92 602.12 12.832 602.12 13.84C602.12 15.424 602.528 16.704 603.344 17.68C604.16 18.656 605.392 19.144 607.04 19.144C607.168 19.144 607.288 19.144 607.4 19.144C607.528 19.144 607.648 19.136 607.76 19.12C609.296 18.992 610.632 18.304 611.768 17.056L612.776 18.184L617.096 17.8L613.592 13.768ZM606.44 4.576C606.44 4.272 606.528 4.016 606.704 3.808C606.88 3.6 607.12 3.48 607.424 3.448H607.52C607.808 3.448 608.032 3.536 608.192 3.712C608.352 3.888 608.432 4.128 608.432 4.432C608.432 4.704 608.328 5.032 608.12 5.416C607.928 5.784 607.672 6.168 607.352 6.568C607.112 6.248 606.904 5.928 606.728 5.608C606.568 5.272 606.472 4.968 606.44 4.696V4.576ZM609.608 14.584C609.352 14.904 609.064 15.168 608.744 15.376C608.424 15.568 608.096 15.68 607.76 15.712C607.712 15.712 607.656 15.72 607.592 15.736C607.544 15.736 607.496 15.736 607.448 15.736C606.808 15.736 606.312 15.536 605.96 15.136C605.624 14.736 605.456 14.208 605.456 13.552C605.456 12.576 605.816 11.752 606.536 11.08L609.608 14.584ZM628.612 19.216V0.975999L632.524 0.639999L634.924 1.84V5.176C635.292 5.128 635.644 5.104 635.98 5.104C637.116 5.104 638.156 5.392 639.1 5.968C640.06 6.528 640.828 7.384 641.404 8.536C641.996 9.672 642.292 11.112 642.292 12.856C642.292 15.16 641.836 16.928 640.924 18.16C640.028 19.376 638.836 20.048 637.348 20.176C637.3 20.176 637.244 20.176 637.18 20.176C637.132 20.192 637.076 20.2 637.012 20.2C636.5 20.2 635.988 20.112 635.476 19.936C634.98 19.776 634.588 19.6 634.3 19.408L633.82 20.176L631.012 20.416L628.612 19.216ZM632.068 17.584C632.292 17.808 632.604 18.064 633.004 18.352C633.42 18.64 633.948 18.784 634.588 18.784C634.636 18.784 634.684 18.784 634.732 18.784C634.796 18.768 634.86 18.76 634.924 18.76C636.364 18.632 637.508 17.976 638.356 16.792C639.22 15.592 639.652 13.88 639.652 11.656C639.652 9.592 639.276 8.032 638.524 6.976C637.788 5.92 636.732 5.392 635.356 5.392C635.292 5.392 635.212 5.392 635.116 5.392C635.036 5.392 634.956 5.4 634.876 5.416C634.14 5.48 633.572 5.712 633.172 6.112C632.772 6.512 632.5 6.888 632.356 7.24L632.284 7.216V0.904L628.852 1.192V18.976L631.3 18.76L632.068 17.584ZM633.988 15.736C633.492 15.736 633.116 15.592 632.86 15.304C632.62 15.016 632.428 14.744 632.284 14.488V11.224C632.284 10.52 632.46 9.944 632.812 9.496C633.18 9.048 633.612 8.8 634.108 8.752H634.3C634.972 8.752 635.444 9.032 635.716 9.592C635.988 10.136 636.124 10.928 636.124 11.968C636.124 13.232 635.932 14.168 635.548 14.776C635.18 15.368 634.716 15.688 634.156 15.736H633.988ZM634.924 15.16C635.228 14.92 635.46 14.536 635.62 14.008C635.796 13.48 635.884 12.8 635.884 11.968C635.884 11.696 635.876 11.424 635.86 11.152C635.844 10.88 635.812 10.664 635.764 10.504C635.444 10.6 635.22 10.808 635.092 11.128C634.98 11.448 634.924 11.88 634.924 12.424V15.16ZM652.196 19.672C652.02 19.832 651.74 19.984 651.356 20.128C650.988 20.272 650.588 20.36 650.156 20.392C650.076 20.408 649.988 20.416 649.892 20.416C649.796 20.416 649.708 20.416 649.628 20.416C648.988 20.416 648.332 20.328 647.66 20.152C647.004 19.992 646.396 19.728 645.836 19.36C645.276 19.008 644.82 18.544 644.468 17.968C644.132 17.376 643.964 16.672 643.964 15.856V6.04L647.876 5.704L650.036 6.76V14.752C650.116 14.672 650.188 14.624 650.252 14.608C650.332 14.576 650.404 14.504 650.468 14.392V5.704L654.356 5.368L656.756 6.568V19.768L653.06 20.08L652.196 19.672ZM650.708 5.92V14.44C650.548 14.744 650.332 14.992 650.06 15.184C649.804 15.36 649.452 15.472 649.004 15.52H648.884C648.548 15.52 648.252 15.408 647.996 15.184C647.756 14.96 647.636 14.576 647.636 14.032V5.968L644.204 6.256V15.856C644.204 16.96 644.508 17.76 645.116 18.256C645.724 18.752 646.476 19 647.372 19H647.828C648.596 18.92 649.252 18.68 649.796 18.28C650.356 17.864 650.7 17.36 650.828 16.768L650.9 16.792V18.64L654.116 18.352V5.632L650.708 5.92ZM667.891 19.504C667.635 19.712 667.331 19.896 666.979 20.056C666.643 20.216 666.243 20.312 665.779 20.344C665.651 20.36 665.515 20.368 665.371 20.368C665.227 20.368 665.091 20.368 664.963 20.368C663.683 20.368 662.547 20.096 661.555 19.552C660.579 19.024 659.811 18.192 659.251 17.056C658.707 15.92 658.435 14.448 658.435 12.64C658.435 10.368 658.867 8.616 659.731 7.384C660.611 6.152 661.843 5.464 663.427 5.32C663.491 5.32 663.547 5.32 663.595 5.32C663.659 5.304 663.723 5.296 663.787 5.296C664.235 5.296 664.619 5.344 664.939 5.44C665.259 5.536 665.547 5.624 665.803 5.704V0.375999L669.715 0.0399995L672.115 1.24V19.504L668.443 19.792L667.891 19.504ZM666.043 0.592V6.592L665.971 6.616C665.859 6.296 665.611 6.04 665.227 5.848C664.843 5.64 664.363 5.536 663.787 5.536C663.739 5.536 663.683 5.544 663.619 5.56C663.571 5.56 663.515 5.56 663.451 5.56C661.931 5.704 660.755 6.376 659.923 7.576C659.091 8.76 658.675 10.448 658.675 12.64C658.675 14.752 659.059 16.336 659.827 17.392C660.611 18.432 661.659 18.952 662.971 18.952C663.051 18.952 663.123 18.952 663.187 18.952C663.267 18.952 663.339 18.944 663.403 18.928C664.155 18.848 664.763 18.616 665.227 18.232C665.691 17.832 666.019 17.384 666.211 16.888L666.283 16.912V18.352L669.475 18.088V0.303999L666.043 0.592ZM664.027 15.76C663.515 15.76 663.075 15.496 662.707 14.968C662.355 14.424 662.179 13.544 662.179 12.328C662.179 11.112 662.347 10.232 662.683 9.688C663.019 9.144 663.531 8.84 664.219 8.776H664.435C664.851 8.776 665.203 8.88 665.491 9.088C665.779 9.296 665.963 9.568 666.043 9.904V13.216C666.043 13.936 665.867 14.528 665.515 14.992C665.179 15.456 664.731 15.712 664.171 15.76H664.027ZM665.803 10.48C665.451 10.528 665.195 10.784 665.035 11.248C664.891 11.712 664.819 12.472 664.819 13.528C664.819 13.864 664.827 14.184 664.843 14.488C664.859 14.776 664.907 15.016 664.987 15.208C665.531 14.76 665.803 14.096 665.803 13.216V10.48ZM674.77 19.648C675.01 19.664 675.25 19.672 675.49 19.672C675.73 19.672 675.962 19.672 676.186 19.672C676.698 19.672 677.17 19.656 677.602 19.624C678.034 19.608 678.402 19.584 678.706 19.552C678.85 19.536 678.986 19.512 679.114 19.48C679.258 19.464 679.394 19.448 679.522 19.432C678.722 19.288 677.97 19.08 677.266 18.808C676.578 18.52 675.97 18.12 675.442 17.608C674.93 17.08 674.522 16.384 674.218 15.52C673.93 14.656 673.786 13.568 673.786 12.256C673.786 10.64 674.026 9.344 674.506 8.368C674.986 7.376 675.594 6.648 676.33 6.184C677.082 5.704 677.858 5.432 678.658 5.368C678.754 5.352 678.85 5.344 678.946 5.344C679.042 5.344 679.13 5.344 679.21 5.344C679.738 5.344 680.194 5.424 680.578 5.584C680.962 5.728 681.25 5.912 681.442 6.136L681.73 5.392L685.066 5.104L687.466 6.304V18.76C687.466 20.008 687.25 21.032 686.818 21.832C686.386 22.632 685.658 23.256 684.634 23.704C683.61 24.168 682.218 24.504 680.458 24.712C680.202 24.744 679.866 24.768 679.45 24.784C679.05 24.8 678.666 24.808 678.298 24.808L675.898 23.608L674.77 19.648ZM681.874 5.632L681.418 7C681.306 6.488 681.058 6.128 680.674 5.92C680.306 5.696 679.834 5.584 679.258 5.584C679.178 5.584 679.082 5.584 678.97 5.584C678.874 5.584 678.778 5.592 678.682 5.608C677.914 5.672 677.17 5.936 676.45 6.4C675.746 6.848 675.162 7.552 674.698 8.512C674.25 9.456 674.026 10.704 674.026 12.256C674.026 13.76 674.21 14.936 674.578 15.784C674.962 16.632 675.466 17.232 676.09 17.584C676.714 17.936 677.394 18.112 678.13 18.112C678.21 18.112 678.298 18.112 678.394 18.112C678.49 18.112 678.578 18.104 678.658 18.088C679.794 17.976 680.706 17.52 681.394 16.72V17.848C681.394 18.472 681.17 18.928 680.722 19.216C680.274 19.504 679.61 19.696 678.73 19.792C678.058 19.872 677.25 19.912 676.306 19.912C676.098 19.912 675.89 19.912 675.682 19.912C675.474 19.912 675.274 19.904 675.082 19.888L676.09 23.368C676.362 23.368 676.69 23.36 677.074 23.344C677.458 23.328 677.778 23.304 678.034 23.272C679.73 23.064 681.074 22.744 682.066 22.312C683.058 21.88 683.762 21.28 684.178 20.512C684.61 19.744 684.826 18.76 684.826 17.56V5.368L681.874 5.632ZM681.394 12.448C681.394 13.152 681.218 13.704 680.866 14.104C680.514 14.504 680.106 14.72 679.642 14.752C679.594 14.752 679.546 14.76 679.498 14.776C679.45 14.776 679.402 14.776 679.354 14.776C678.794 14.776 678.362 14.576 678.058 14.176C677.754 13.776 677.602 13.072 677.602 12.064C677.602 11.232 677.682 10.592 677.842 10.144C678.018 9.68 678.25 9.352 678.538 9.16C678.826 8.952 679.146 8.832 679.498 8.8H679.666C680.146 8.8 680.522 8.944 680.794 9.232C681.066 9.504 681.266 9.752 681.394 9.976V12.448ZM681.154 10.504C680.962 10.504 680.794 10.576 680.65 10.72C680.522 10.864 680.418 11.136 680.338 11.536C680.274 11.92 680.242 12.496 680.242 13.264C680.242 13.648 680.266 13.984 680.314 14.272C680.874 13.984 681.154 13.376 681.154 12.448V10.504ZM702.89 15.784C702.458 17.128 701.818 18.216 700.97 19.048C700.138 19.88 699.002 20.36 697.562 20.488C697.386 20.504 697.21 20.512 697.034 20.512C696.874 20.528 696.706 20.536 696.53 20.536C695.138 20.536 693.882 20.248 692.762 19.672C691.658 19.112 690.778 18.264 690.122 17.128C689.466 15.992 689.138 14.584 689.138 12.904C689.138 11.432 689.386 10.16 689.882 9.088C690.394 8.016 691.082 7.176 691.946 6.568C692.826 5.944 693.826 5.584 694.946 5.488C695.058 5.472 695.17 5.464 695.282 5.464C695.41 5.464 695.53 5.464 695.642 5.464C696.538 5.464 697.418 5.624 698.282 5.944C699.162 6.248 699.954 6.728 700.658 7.384C701.378 8.04 701.946 8.888 702.362 9.928C702.794 10.952 703.01 12.184 703.01 13.624C703.01 13.752 703.01 13.888 703.01 14.032C703.01 14.16 703.002 14.288 702.986 14.416L700.466 14.632L702.89 15.784ZM697.226 13.936C697.082 14.48 696.818 14.928 696.434 15.28C696.05 15.632 695.554 15.84 694.946 15.904H694.754C694.21 15.904 693.762 15.704 693.41 15.304C693.058 14.904 692.882 14.352 692.882 13.648L700.346 13C700.362 12.84 700.37 12.688 700.37 12.544C700.37 12.384 700.37 12.232 700.37 12.088C700.37 10.072 699.938 8.504 699.074 7.384C698.21 6.264 697.018 5.704 695.498 5.704C695.418 5.704 695.33 5.704 695.234 5.704C695.154 5.704 695.066 5.712 694.97 5.728C693.898 5.808 692.938 6.152 692.09 6.76C691.242 7.352 690.578 8.168 690.098 9.208C689.618 10.248 689.378 11.48 689.378 12.904C689.378 14.968 689.842 16.512 690.77 17.536C691.698 18.56 692.93 19.072 694.466 19.072C694.578 19.072 694.69 19.072 694.802 19.072C694.914 19.072 695.026 19.064 695.138 19.048C696.514 18.936 697.602 18.488 698.402 17.704C699.218 16.92 699.802 15.944 700.154 14.776L697.226 13.936ZM693.002 10.96C693.002 10.432 693.186 9.976 693.554 9.592C693.922 9.208 694.394 8.992 694.97 8.944H695.186C695.666 8.944 696.058 9.088 696.362 9.376C696.682 9.648 696.842 10.064 696.842 10.624L693.002 10.96ZM694.946 15.136C694.946 15.216 694.978 15.296 695.042 15.376C695.122 15.456 695.202 15.536 695.282 15.616C695.57 15.536 695.794 15.44 695.954 15.328C696.114 15.216 696.25 15.104 696.362 14.992L694.946 15.136ZM714.051 20.128C713.683 20.144 713.323 20.16 712.971 20.176C712.635 20.208 712.307 20.224 711.987 20.224C709.715 20.224 708.035 19.808 706.947 18.976C705.859 18.144 705.315 16.776 705.315 14.872V10.288L703.779 9.52V5.896L705.315 5.776V1.864L709.203 1.504L711.603 2.704V5.464L713.595 6.448V10.072L711.603 10.24V15.064L712.419 14.992L714.819 16.192L714.051 20.128ZM712.107 15.28C711.755 15.312 711.443 15.344 711.171 15.376C710.915 15.392 710.675 15.4 710.451 15.4C709.779 15.4 709.363 15.28 709.203 15.04C709.043 14.8 708.963 14.384 708.963 13.792V8.824L710.955 8.656V5.512L708.963 5.68V1.768L705.555 2.08V5.992L704.019 6.112V9.256L705.555 9.136V14.872C705.555 15.832 705.675 16.6 705.915 17.176C706.155 17.752 706.563 18.168 707.139 18.424C707.731 18.68 708.547 18.808 709.587 18.808C709.859 18.808 710.147 18.8 710.451 18.784C710.755 18.768 711.083 18.744 711.435 18.712L712.107 15.28ZM715.55 19.36V14.656L719.87 14.272L722.27 15.472V20.2L717.95 20.56L715.55 19.36ZM715.79 14.872V19.096L719.63 18.784V14.536L715.79 14.872ZM91.1066 45.536C90.9146 45.312 90.6586 45.096 90.3386 44.888C90.0186 44.68 89.6586 44.496 89.2586 44.336C88.8586 44.16 88.4186 44.024 87.9386 43.928C87.4746 43.816 86.9866 43.76 86.4746 43.76C85.1626 43.76 84.1946 44.008 83.5706 44.504C82.9466 45 82.6346 45.68 82.6346 46.544C82.6346 47.152 82.7946 47.632 83.1146 47.984C83.4346 48.336 83.9226 48.624 84.5786 48.848C85.2506 49.072 86.0986 49.304 87.1226 49.544C88.3066 49.8 89.3306 50.112 90.1946 50.48C91.0586 50.848 91.7226 51.344 92.1866 51.968C92.6506 52.576 92.8826 53.392 92.8826 54.416C92.8826 55.232 92.7226 55.944 92.4026 56.552C92.0986 57.144 91.6666 57.64 91.1066 58.04C90.5466 58.424 89.8906 58.712 89.1386 58.904C88.3866 59.08 87.5706 59.168 86.6906 59.168C85.8266 59.168 84.9786 59.08 84.1466 58.904C83.3306 58.712 82.5546 58.44 81.8186 58.088C81.0826 57.736 80.3946 57.296 79.7546 56.768L80.7866 54.944C81.0426 55.216 81.3706 55.488 81.7706 55.76C82.1866 56.016 82.6506 56.256 83.1626 56.48C83.6906 56.704 84.2586 56.888 84.8666 57.032C85.4746 57.16 86.0986 57.224 86.7386 57.224C87.9546 57.224 88.8986 57.008 89.5706 56.576C90.2426 56.128 90.5786 55.48 90.5786 54.632C90.5786 53.992 90.3866 53.48 90.0026 53.096C89.6346 52.712 89.0826 52.392 88.3466 52.136C87.6106 51.88 86.7146 51.624 85.6586 51.368C84.5066 51.08 83.5386 50.768 82.7546 50.432C81.9706 50.08 81.3786 49.624 80.9786 49.064C80.5946 48.504 80.4026 47.776 80.4026 46.88C80.4026 45.792 80.6666 44.872 81.1946 44.12C81.7226 43.368 82.4506 42.8 83.3786 42.416C84.3066 42.032 85.3546 41.84 86.5226 41.84C87.2906 41.84 88.0026 41.92 88.6586 42.08C89.3306 42.24 89.9546 42.464 90.5306 42.752C91.1066 43.04 91.6346 43.384 92.1146 43.784L91.1066 45.536ZM94.4036 55.376C94.4036 54.576 94.6276 53.888 95.0756 53.312C95.5396 52.72 96.1716 52.264 96.9716 51.944C97.7716 51.624 98.6996 51.464 99.7556 51.464C100.316 51.464 100.908 51.512 101.532 51.608C102.156 51.688 102.708 51.816 103.188 51.992V51.08C103.188 50.12 102.9 49.368 102.324 48.824C101.748 48.264 100.932 47.984 99.8756 47.984C99.1876 47.984 98.5236 48.112 97.8836 48.368C97.2596 48.608 96.5956 48.96 95.8916 49.424L95.1236 47.936C95.9396 47.376 96.7556 46.96 97.5716 46.688C98.3876 46.4 99.2356 46.256 100.116 46.256C101.716 46.256 102.98 46.704 103.908 47.6C104.836 48.48 105.3 49.712 105.3 51.296V56.6C105.3 56.856 105.348 57.048 105.444 57.176C105.556 57.288 105.732 57.352 105.972 57.368V59C105.764 59.032 105.58 59.056 105.42 59.072C105.276 59.088 105.156 59.096 105.06 59.096C104.564 59.096 104.188 58.96 103.932 58.688C103.692 58.416 103.556 58.128 103.524 57.824L103.476 57.032C102.932 57.736 102.22 58.28 101.34 58.664C100.46 59.048 99.5876 59.24 98.7236 59.24C97.8916 59.24 97.1476 59.072 96.4916 58.736C95.8356 58.384 95.3236 57.92 94.9556 57.344C94.5876 56.752 94.4036 56.096 94.4036 55.376ZM102.564 56.264C102.756 56.04 102.908 55.816 103.02 55.592C103.132 55.352 103.188 55.152 103.188 54.992V53.432C102.692 53.24 102.172 53.096 101.628 53C101.084 52.888 100.548 52.832 100.02 52.832C98.9476 52.832 98.0756 53.048 97.4036 53.48C96.7476 53.896 96.4196 54.472 96.4196 55.208C96.4196 55.608 96.5236 56 96.7316 56.384C96.9556 56.752 97.2756 57.056 97.6916 57.296C98.1236 57.536 98.6516 57.656 99.2756 57.656C99.9316 57.656 100.556 57.528 101.148 57.272C101.74 57 102.212 56.664 102.564 56.264ZM111.878 59L106.958 46.472H109.166L113.102 56.984L117.038 46.472H119.102L114.182 59H111.878ZM124.816 59L119.896 46.472H122.104L126.04 56.984L129.976 46.472H132.04L127.12 59H124.816ZM139.275 59.24C138.331 59.24 137.467 59.072 136.683 58.736C135.915 58.384 135.243 57.912 134.667 57.32C134.107 56.712 133.667 56.016 133.347 55.232C133.043 54.448 132.891 53.616 132.891 52.736C132.891 51.552 133.163 50.472 133.707 49.496C134.251 48.52 135.003 47.736 135.963 47.144C136.939 46.552 138.051 46.256 139.299 46.256C140.563 46.256 141.659 46.56 142.587 47.168C143.531 47.76 144.259 48.544 144.771 49.52C145.299 50.48 145.563 51.52 145.563 52.64C145.563 52.8 145.555 52.96 145.539 53.12C145.539 53.264 145.531 53.376 145.515 53.456H135.123C135.187 54.272 135.411 55 135.795 55.64C136.195 56.264 136.707 56.76 137.331 57.128C137.955 57.48 138.627 57.656 139.347 57.656C140.115 57.656 140.835 57.464 141.507 57.08C142.195 56.696 142.667 56.192 142.923 55.568L144.747 56.072C144.475 56.68 144.067 57.224 143.523 57.704C142.995 58.184 142.363 58.56 141.627 58.832C140.907 59.104 140.123 59.24 139.275 59.24ZM135.051 51.992H143.595C143.531 51.176 143.299 50.456 142.899 49.832C142.499 49.208 141.987 48.72 141.363 48.368C140.739 48.016 140.051 47.84 139.299 47.84C138.563 47.84 137.883 48.016 137.259 48.368C136.635 48.72 136.123 49.208 135.723 49.832C135.339 50.456 135.115 51.176 135.051 51.992ZM154.274 58.376C154.098 58.456 153.858 58.56 153.554 58.688C153.25 58.816 152.898 58.928 152.498 59.024C152.098 59.12 151.674 59.168 151.226 59.168C150.714 59.168 150.242 59.08 149.81 58.904C149.378 58.712 149.034 58.424 148.778 58.04C148.522 57.64 148.394 57.144 148.394 56.552V48.128H146.69V46.472H148.394V42.296H150.506V46.472H153.314V48.128H150.506V55.904C150.538 56.352 150.69 56.688 150.962 56.912C151.234 57.12 151.554 57.224 151.922 57.224C152.338 57.224 152.722 57.152 153.074 57.008C153.426 56.864 153.658 56.76 153.77 56.696L154.274 58.376ZM154.966 46.976L155.446 44.216H154.726V41.48H156.718V44.216L155.998 46.976H154.966ZM162.402 59.24C161.362 59.24 160.386 59.072 159.474 58.736C158.562 58.384 157.778 57.864 157.122 57.176L157.938 55.688C158.658 56.36 159.378 56.84 160.098 57.128C160.818 57.416 161.554 57.56 162.306 57.56C163.17 57.56 163.874 57.4 164.418 57.08C164.962 56.744 165.234 56.256 165.234 55.616C165.234 55.152 165.09 54.808 164.802 54.584C164.53 54.36 164.138 54.176 163.626 54.032C163.114 53.872 162.506 53.696 161.802 53.504C160.938 53.248 160.21 52.976 159.618 52.688C159.026 52.4 158.578 52.04 158.274 51.608C157.97 51.176 157.818 50.632 157.818 49.976C157.818 49.176 158.026 48.504 158.442 47.96C158.858 47.4 159.426 46.976 160.146 46.688C160.882 46.4 161.714 46.256 162.642 46.256C163.57 46.256 164.41 46.4 165.162 46.688C165.914 46.976 166.562 47.4 167.106 47.96L166.146 49.424C165.65 48.912 165.106 48.536 164.514 48.296C163.922 48.04 163.258 47.912 162.522 47.912C162.09 47.912 161.666 47.968 161.25 48.08C160.834 48.176 160.49 48.36 160.218 48.632C159.946 48.888 159.81 49.256 159.81 49.736C159.81 50.136 159.914 50.456 160.122 50.696C160.346 50.92 160.666 51.112 161.082 51.272C161.514 51.432 162.034 51.608 162.642 51.8C163.586 52.072 164.402 52.344 165.09 52.616C165.794 52.888 166.338 53.24 166.722 53.672C167.106 54.104 167.298 54.704 167.298 55.472C167.298 56.656 166.85 57.584 165.954 58.256C165.058 58.912 163.874 59.24 162.402 59.24ZM186.767 59H184.655V51.992C184.655 50.712 184.423 49.752 183.959 49.112C183.511 48.472 182.863 48.152 182.015 48.152C181.471 48.152 180.919 48.296 180.359 48.584C179.815 48.872 179.335 49.264 178.919 49.76C178.503 50.24 178.199 50.8 178.007 51.44V59H175.895V41.48H178.007V49.16C178.503 48.264 179.175 47.56 180.023 47.048C180.887 46.52 181.815 46.256 182.807 46.256C183.559 46.256 184.183 46.392 184.679 46.664C185.191 46.92 185.599 47.288 185.903 47.768C186.207 48.248 186.423 48.808 186.551 49.448C186.695 50.072 186.767 50.76 186.767 51.512V59ZM195.596 59.24C194.652 59.24 193.788 59.072 193.004 58.736C192.236 58.384 191.564 57.912 190.988 57.32C190.428 56.712 189.988 56.016 189.668 55.232C189.364 54.448 189.212 53.616 189.212 52.736C189.212 51.552 189.484 50.472 190.028 49.496C190.572 48.52 191.324 47.736 192.284 47.144C193.26 46.552 194.372 46.256 195.62 46.256C196.884 46.256 197.98 46.56 198.908 47.168C199.852 47.76 200.58 48.544 201.092 49.52C201.62 50.48 201.884 51.52 201.884 52.64C201.884 52.8 201.876 52.96 201.86 53.12C201.86 53.264 201.852 53.376 201.836 53.456H191.444C191.508 54.272 191.732 55 192.116 55.64C192.516 56.264 193.028 56.76 193.652 57.128C194.276 57.48 194.948 57.656 195.668 57.656C196.436 57.656 197.156 57.464 197.828 57.08C198.516 56.696 198.988 56.192 199.244 55.568L201.068 56.072C200.796 56.68 200.388 57.224 199.844 57.704C199.316 58.184 198.684 58.56 197.948 58.832C197.228 59.104 196.444 59.24 195.596 59.24ZM191.372 51.992H199.916C199.852 51.176 199.62 50.456 199.22 49.832C198.82 49.208 198.308 48.72 197.684 48.368C197.06 48.016 196.372 47.84 195.62 47.84C194.884 47.84 194.204 48.016 193.58 48.368C192.956 48.72 192.444 49.208 192.044 49.832C191.66 50.456 191.436 51.176 191.372 51.992ZM210.855 48.32C209.799 48.336 208.863 48.608 208.047 49.136C207.247 49.648 206.679 50.36 206.343 51.272V59H204.231V46.472H206.199V49.376C206.631 48.512 207.199 47.816 207.903 47.288C208.623 46.744 209.375 46.44 210.159 46.376C210.319 46.376 210.455 46.376 210.567 46.376C210.679 46.376 210.775 46.384 210.855 46.4V48.32ZM218.189 59.24C217.245 59.24 216.381 59.072 215.597 58.736C214.829 58.384 214.157 57.912 213.581 57.32C213.021 56.712 212.581 56.016 212.261 55.232C211.957 54.448 211.805 53.616 211.805 52.736C211.805 51.552 212.077 50.472 212.621 49.496C213.165 48.52 213.917 47.736 214.877 47.144C215.853 46.552 216.965 46.256 218.213 46.256C219.477 46.256 220.573 46.56 221.501 47.168C222.445 47.76 223.173 48.544 223.685 49.52C224.213 50.48 224.477 51.52 224.477 52.64C224.477 52.8 224.469 52.96 224.453 53.12C224.453 53.264 224.445 53.376 224.429 53.456H214.037C214.101 54.272 214.325 55 214.709 55.64C215.109 56.264 215.621 56.76 216.245 57.128C216.869 57.48 217.541 57.656 218.261 57.656C219.029 57.656 219.749 57.464 220.421 57.08C221.109 56.696 221.581 56.192 221.837 55.568L223.661 56.072C223.389 56.68 222.981 57.224 222.437 57.704C221.909 58.184 221.277 58.56 220.541 58.832C219.821 59.104 219.037 59.24 218.189 59.24ZM213.965 51.992H222.509C222.445 51.176 222.213 50.456 221.813 49.832C221.413 49.208 220.901 48.72 220.277 48.368C219.653 48.016 218.965 47.84 218.213 47.84C217.477 47.84 216.797 48.016 216.173 48.368C215.549 48.72 215.037 49.208 214.637 49.832C214.253 50.456 214.029 51.176 213.965 51.992ZM239.375 58.376C239.199 58.456 238.959 58.56 238.655 58.688C238.351 58.816 237.999 58.928 237.599 59.024C237.199 59.12 236.775 59.168 236.327 59.168C235.815 59.168 235.343 59.08 234.911 58.904C234.479 58.712 234.135 58.424 233.879 58.04C233.623 57.64 233.495 57.144 233.495 56.552V48.128H231.791V46.472H233.495V42.296H235.607V46.472H238.415V48.128H235.607V55.904C235.639 56.352 235.791 56.688 236.063 56.912C236.335 57.12 236.655 57.224 237.023 57.224C237.439 57.224 237.823 57.152 238.175 57.008C238.527 56.864 238.759 56.76 238.871 56.696L239.375 58.376ZM246.641 59.24C245.697 59.24 244.841 59.072 244.073 58.736C243.305 58.384 242.641 57.912 242.081 57.32C241.521 56.712 241.089 56.016 240.785 55.232C240.481 54.448 240.329 53.624 240.329 52.76C240.329 51.88 240.481 51.048 240.785 50.264C241.089 49.48 241.521 48.792 242.081 48.2C242.641 47.592 243.305 47.12 244.073 46.784C244.857 46.432 245.713 46.256 246.641 46.256C247.585 46.256 248.441 46.432 249.209 46.784C249.977 47.12 250.641 47.592 251.201 48.2C251.777 48.792 252.217 49.48 252.521 50.264C252.825 51.048 252.977 51.88 252.977 52.76C252.977 53.624 252.825 54.448 252.521 55.232C252.217 56.016 251.785 56.712 251.225 57.32C250.665 57.912 249.993 58.384 249.209 58.736C248.441 59.072 247.585 59.24 246.641 59.24ZM242.489 52.784C242.489 53.648 242.673 54.432 243.041 55.136C243.425 55.84 243.929 56.4 244.553 56.816C245.177 57.216 245.873 57.416 246.641 57.416C247.409 57.416 248.105 57.208 248.729 56.792C249.369 56.376 249.873 55.816 250.241 55.112C250.625 54.392 250.817 53.6 250.817 52.736C250.817 51.872 250.625 51.088 250.241 50.384C249.873 49.68 249.369 49.12 248.729 48.704C248.105 48.288 247.409 48.08 246.641 48.08C245.873 48.08 245.177 48.296 244.553 48.728C243.929 49.144 243.425 49.704 243.041 50.408C242.673 51.112 242.489 51.904 242.489 52.784ZM272.478 59H270.366V51.992C270.366 50.712 270.134 49.752 269.67 49.112C269.222 48.472 268.574 48.152 267.726 48.152C267.182 48.152 266.63 48.296 266.07 48.584C265.526 48.872 265.046 49.264 264.63 49.76C264.214 50.24 263.91 50.8 263.718 51.44V59H261.606V41.48H263.718V49.16C264.214 48.264 264.886 47.56 265.734 47.048C266.598 46.52 267.526 46.256 268.518 46.256C269.27 46.256 269.894 46.392 270.39 46.664C270.902 46.92 271.31 47.288 271.614 47.768C271.918 48.248 272.134 48.808 272.262 49.448C272.406 50.072 272.478 50.76 272.478 51.512V59ZM281.307 59.24C280.363 59.24 279.499 59.072 278.715 58.736C277.947 58.384 277.275 57.912 276.699 57.32C276.139 56.712 275.699 56.016 275.379 55.232C275.075 54.448 274.923 53.616 274.923 52.736C274.923 51.552 275.195 50.472 275.739 49.496C276.283 48.52 277.035 47.736 277.995 47.144C278.971 46.552 280.083 46.256 281.331 46.256C282.595 46.256 283.691 46.56 284.619 47.168C285.563 47.76 286.291 48.544 286.803 49.52C287.331 50.48 287.595 51.52 287.595 52.64C287.595 52.8 287.587 52.96 287.571 53.12C287.571 53.264 287.563 53.376 287.547 53.456H277.155C277.219 54.272 277.443 55 277.827 55.64C278.227 56.264 278.739 56.76 279.363 57.128C279.987 57.48 280.659 57.656 281.379 57.656C282.147 57.656 282.867 57.464 283.539 57.08C284.227 56.696 284.699 56.192 284.955 55.568L286.779 56.072C286.507 56.68 286.099 57.224 285.555 57.704C285.027 58.184 284.395 58.56 283.659 58.832C282.939 59.104 282.155 59.24 281.307 59.24ZM277.083 51.992H285.627C285.563 51.176 285.331 50.456 284.931 49.832C284.531 49.208 284.019 48.72 283.395 48.368C282.771 48.016 282.083 47.84 281.331 47.84C280.595 47.84 279.915 48.016 279.291 48.368C278.667 48.72 278.155 49.208 277.755 49.832C277.371 50.456 277.147 51.176 277.083 51.992ZM289.99 41.48H292.102V55.76C292.102 56.448 292.198 56.872 292.39 57.032C292.582 57.192 292.814 57.272 293.086 57.272C293.422 57.272 293.742 57.24 294.046 57.176C294.35 57.096 294.606 57.016 294.814 56.936L295.15 58.664C294.798 58.808 294.382 58.928 293.902 59.024C293.422 59.12 292.998 59.168 292.63 59.168C291.814 59.168 291.166 58.936 290.686 58.472C290.222 58.008 289.99 57.36 289.99 56.528V41.48ZM303.553 59.24C302.529 59.24 301.617 58.984 300.817 58.472C300.017 57.96 299.385 57.312 298.921 56.528V64.112H296.809V46.472H298.681V48.824C299.177 48.056 299.825 47.44 300.625 46.976C301.425 46.496 302.297 46.256 303.241 46.256C304.105 46.256 304.897 46.432 305.617 46.784C306.337 47.136 306.961 47.616 307.489 48.224C308.017 48.832 308.425 49.528 308.713 50.312C309.017 51.08 309.169 51.888 309.169 52.736C309.169 53.92 308.929 55.008 308.449 56C307.985 56.992 307.329 57.784 306.481 58.376C305.633 58.952 304.657 59.24 303.553 59.24ZM302.905 57.416C303.529 57.416 304.089 57.288 304.585 57.032C305.097 56.76 305.529 56.408 305.881 55.976C306.249 55.528 306.529 55.024 306.721 54.464C306.913 53.904 307.009 53.328 307.009 52.736C307.009 52.112 306.897 51.52 306.673 50.96C306.465 50.4 306.161 49.904 305.761 49.472C305.377 49.04 304.921 48.704 304.393 48.464C303.881 48.208 303.321 48.08 302.713 48.08C302.329 48.08 301.929 48.152 301.513 48.296C301.113 48.44 300.729 48.648 300.361 48.92C299.993 49.176 299.681 49.472 299.425 49.808C299.169 50.144 299.001 50.504 298.921 50.888V54.464C299.161 55.008 299.481 55.504 299.881 55.952C300.281 56.4 300.745 56.76 301.273 57.032C301.801 57.288 302.345 57.416 302.905 57.416ZM317.753 62.408C317.961 62.424 318.169 62.44 318.377 62.456C318.585 62.488 318.745 62.504 318.857 62.504C319.113 62.504 319.337 62.416 319.529 62.24C319.721 62.064 319.929 61.72 320.153 61.208C320.393 60.712 320.697 59.976 321.065 59L315.761 46.472H317.993L322.217 56.864L326.033 46.472H328.121L322.025 62.288C321.881 62.656 321.665 63 321.377 63.32C321.105 63.656 320.753 63.92 320.321 64.112C319.889 64.304 319.369 64.4 318.761 64.4C318.617 64.4 318.465 64.392 318.305 64.376C318.161 64.36 317.977 64.328 317.753 64.28V62.408ZM335.281 59.24C334.337 59.24 333.481 59.072 332.713 58.736C331.945 58.384 331.281 57.912 330.721 57.32C330.161 56.712 329.729 56.016 329.425 55.232C329.121 54.448 328.969 53.624 328.969 52.76C328.969 51.88 329.121 51.048 329.425 50.264C329.729 49.48 330.161 48.792 330.721 48.2C331.281 47.592 331.945 47.12 332.713 46.784C333.497 46.432 334.353 46.256 335.281 46.256C336.225 46.256 337.081 46.432 337.849 46.784C338.617 47.12 339.281 47.592 339.841 48.2C340.417 48.792 340.857 49.48 341.161 50.264C341.465 51.048 341.617 51.88 341.617 52.76C341.617 53.624 341.465 54.448 341.161 55.232C340.857 56.016 340.425 56.712 339.865 57.32C339.305 57.912 338.633 58.384 337.849 58.736C337.081 59.072 336.225 59.24 335.281 59.24ZM331.129 52.784C331.129 53.648 331.313 54.432 331.681 55.136C332.065 55.84 332.569 56.4 333.193 56.816C333.817 57.216 334.513 57.416 335.281 57.416C336.049 57.416 336.745 57.208 337.369 56.792C338.009 56.376 338.513 55.816 338.881 55.112C339.265 54.392 339.457 53.6 339.457 52.736C339.457 51.872 339.265 51.088 338.881 50.384C338.513 49.68 338.009 49.12 337.369 48.704C336.745 48.288 336.049 48.08 335.281 48.08C334.513 48.08 333.817 48.296 333.193 48.728C332.569 49.144 332.065 49.704 331.681 50.408C331.313 51.112 331.129 51.904 331.129 52.784ZM344.057 53.984V46.472H346.169V53.576C346.169 54.856 346.393 55.816 346.841 56.456C347.289 57.096 347.953 57.416 348.833 57.416C349.409 57.416 349.961 57.296 350.489 57.056C351.033 56.8 351.521 56.44 351.953 55.976C352.385 55.512 352.721 54.96 352.961 54.32V46.472H355.073V56.6C355.073 56.856 355.121 57.048 355.217 57.176C355.329 57.288 355.505 57.352 355.745 57.368V59C355.505 59.032 355.313 59.048 355.169 59.048C355.041 59.064 354.913 59.072 354.785 59.072C354.385 59.072 354.041 58.952 353.753 58.712C353.465 58.456 353.313 58.144 353.297 57.776L353.249 56.312C352.705 57.24 351.969 57.96 351.041 58.472C350.129 58.984 349.129 59.24 348.041 59.24C346.729 59.24 345.737 58.8 345.065 57.92C344.393 57.024 344.057 55.712 344.057 53.984ZM370.205 59.24C369.261 59.24 368.397 59.072 367.613 58.736C366.845 58.384 366.173 57.912 365.597 57.32C365.037 56.712 364.597 56.016 364.277 55.232C363.973 54.448 363.821 53.616 363.821 52.736C363.821 51.552 364.093 50.472 364.637 49.496C365.181 48.52 365.933 47.736 366.893 47.144C367.869 46.552 368.981 46.256 370.229 46.256C371.493 46.256 372.589 46.56 373.517 47.168C374.461 47.76 375.189 48.544 375.701 49.52C376.229 50.48 376.493 51.52 376.493 52.64C376.493 52.8 376.485 52.96 376.469 53.12C376.469 53.264 376.461 53.376 376.445 53.456H366.053C366.117 54.272 366.341 55 366.725 55.64C367.125 56.264 367.637 56.76 368.261 57.128C368.885 57.48 369.557 57.656 370.277 57.656C371.045 57.656 371.765 57.464 372.437 57.08C373.125 56.696 373.597 56.192 373.853 55.568L375.677 56.072C375.405 56.68 374.997 57.224 374.453 57.704C373.925 58.184 373.293 58.56 372.557 58.832C371.837 59.104 371.053 59.24 370.205 59.24ZM365.981 51.992H374.525C374.461 51.176 374.229 50.456 373.829 49.832C373.429 49.208 372.917 48.72 372.293 48.368C371.669 48.016 370.981 47.84 370.229 47.84C369.493 47.84 368.813 48.016 368.189 48.368C367.565 48.72 367.053 49.208 366.653 49.832C366.269 50.456 366.045 51.176 365.981 51.992ZM379.308 46.472L382.62 51.08L382.812 51.464L383.028 51.08L386.316 46.472H388.668L384.036 52.76L388.692 59H386.34L383.028 54.416L382.812 54.056L382.62 54.416L379.308 59H376.956L381.612 52.76L376.98 46.472H379.308ZM397.421 59.24C396.397 59.24 395.485 58.984 394.685 58.472C393.885 57.96 393.253 57.312 392.789 56.528V64.112H390.677V46.472H392.549V48.824C393.045 48.056 393.693 47.44 394.493 46.976C395.293 46.496 396.165 46.256 397.109 46.256C397.973 46.256 398.765 46.432 399.485 46.784C400.205 47.136 400.829 47.616 401.357 48.224C401.885 48.832 402.293 49.528 402.581 50.312C402.885 51.08 403.037 51.888 403.037 52.736C403.037 53.92 402.797 55.008 402.317 56C401.853 56.992 401.197 57.784 400.349 58.376C399.501 58.952 398.525 59.24 397.421 59.24ZM396.773 57.416C397.397 57.416 397.957 57.288 398.453 57.032C398.965 56.76 399.397 56.408 399.749 55.976C400.117 55.528 400.397 55.024 400.589 54.464C400.781 53.904 400.877 53.328 400.877 52.736C400.877 52.112 400.765 51.52 400.541 50.96C400.333 50.4 400.029 49.904 399.629 49.472C399.245 49.04 398.789 48.704 398.261 48.464C397.749 48.208 397.189 48.08 396.581 48.08C396.197 48.08 395.797 48.152 395.381 48.296C394.981 48.44 394.597 48.648 394.229 48.92C393.861 49.176 393.549 49.472 393.293 49.808C393.037 50.144 392.869 50.504 392.789 50.888V54.464C393.029 55.008 393.349 55.504 393.749 55.952C394.149 56.4 394.613 56.76 395.141 57.032C395.669 57.288 396.213 57.416 396.773 57.416ZM405.678 41.48H407.79V55.76C407.79 56.448 407.886 56.872 408.078 57.032C408.27 57.192 408.502 57.272 408.774 57.272C409.11 57.272 409.43 57.24 409.734 57.176C410.038 57.096 410.294 57.016 410.502 56.936L410.838 58.664C410.486 58.808 410.07 58.928 409.59 59.024C409.11 59.12 408.686 59.168 408.318 59.168C407.502 59.168 406.854 58.936 406.374 58.472C405.91 58.008 405.678 57.36 405.678 56.528V41.48ZM417.969 59.24C417.025 59.24 416.169 59.072 415.401 58.736C414.633 58.384 413.969 57.912 413.409 57.32C412.849 56.712 412.417 56.016 412.113 55.232C411.809 54.448 411.657 53.624 411.657 52.76C411.657 51.88 411.809 51.048 412.113 50.264C412.417 49.48 412.849 48.792 413.409 48.2C413.969 47.592 414.633 47.12 415.401 46.784C416.185 46.432 417.041 46.256 417.969 46.256C418.913 46.256 419.769 46.432 420.537 46.784C421.305 47.12 421.969 47.592 422.529 48.2C423.105 48.792 423.545 49.48 423.849 50.264C424.153 51.048 424.305 51.88 424.305 52.76C424.305 53.624 424.153 54.448 423.849 55.232C423.545 56.016 423.113 56.712 422.553 57.32C421.993 57.912 421.321 58.384 420.537 58.736C419.769 59.072 418.913 59.24 417.969 59.24ZM413.817 52.784C413.817 53.648 414.001 54.432 414.369 55.136C414.753 55.84 415.257 56.4 415.881 56.816C416.505 57.216 417.201 57.416 417.969 57.416C418.737 57.416 419.433 57.208 420.057 56.792C420.697 56.376 421.201 55.816 421.569 55.112C421.953 54.392 422.145 53.6 422.145 52.736C422.145 51.872 421.953 51.088 421.569 50.384C421.201 49.68 420.697 49.12 420.057 48.704C419.433 48.288 418.737 48.08 417.969 48.08C417.201 48.08 416.505 48.296 415.881 48.728C415.257 49.144 414.753 49.704 414.369 50.408C414.001 51.112 413.817 51.904 413.817 52.784ZM433.488 48.32C432.432 48.336 431.496 48.608 430.68 49.136C429.88 49.648 429.312 50.36 428.976 51.272V59H426.864V46.472H428.832V49.376C429.264 48.512 429.832 47.816 430.536 47.288C431.256 46.744 432.008 46.44 432.792 46.376C432.952 46.376 433.088 46.376 433.2 46.376C433.312 46.376 433.408 46.384 433.488 46.4V48.32ZM440.822 59.24C439.878 59.24 439.014 59.072 438.23 58.736C437.462 58.384 436.79 57.912 436.214 57.32C435.654 56.712 435.214 56.016 434.894 55.232C434.59 54.448 434.438 53.616 434.438 52.736C434.438 51.552 434.71 50.472 435.254 49.496C435.798 48.52 436.55 47.736 437.51 47.144C438.486 46.552 439.598 46.256 440.846 46.256C442.11 46.256 443.206 46.56 444.134 47.168C445.078 47.76 445.806 48.544 446.318 49.52C446.846 50.48 447.11 51.52 447.11 52.64C447.11 52.8 447.102 52.96 447.086 53.12C447.086 53.264 447.078 53.376 447.062 53.456H436.67C436.734 54.272 436.958 55 437.342 55.64C437.742 56.264 438.254 56.76 438.878 57.128C439.502 57.48 440.174 57.656 440.894 57.656C441.662 57.656 442.382 57.464 443.054 57.08C443.742 56.696 444.214 56.192 444.47 55.568L446.294 56.072C446.022 56.68 445.614 57.224 445.07 57.704C444.542 58.184 443.91 58.56 443.174 58.832C442.454 59.104 441.67 59.24 440.822 59.24ZM436.598 51.992H445.142C445.078 51.176 444.846 50.456 444.446 49.832C444.046 49.208 443.534 48.72 442.91 48.368C442.286 48.016 441.598 47.84 440.846 47.84C440.11 47.84 439.43 48.016 438.806 48.368C438.182 48.72 437.67 49.208 437.27 49.832C436.886 50.456 436.662 51.176 436.598 51.992ZM470.545 46.472H472.585L467.257 59H465.409L462.985 53.096L460.585 59H458.737L453.409 46.472H455.425L459.745 56.912L461.761 51.776L459.649 46.496H461.497L462.985 50.48L464.473 46.496H466.321L464.233 51.776L466.249 56.912L470.545 46.472ZM474.559 59V46.472H476.671V59H474.559ZM474.559 44.12V41.48H476.671V44.12H474.559ZM486.571 58.376C486.395 58.456 486.155 58.56 485.851 58.688C485.547 58.816 485.195 58.928 484.795 59.024C484.395 59.12 483.971 59.168 483.523 59.168C483.011 59.168 482.539 59.08 482.107 58.904C481.675 58.712 481.331 58.424 481.075 58.04C480.819 57.64 480.691 57.144 480.691 56.552V48.128H478.987V46.472H480.691V42.296H482.803V46.472H485.611V48.128H482.803V55.904C482.835 56.352 482.987 56.688 483.259 56.912C483.531 57.12 483.851 57.224 484.219 57.224C484.635 57.224 485.019 57.152 485.371 57.008C485.723 56.864 485.955 56.76 486.067 56.696L486.571 58.376ZM499.4 59H497.288V51.992C497.288 50.712 497.056 49.752 496.592 49.112C496.144 48.472 495.496 48.152 494.648 48.152C494.104 48.152 493.552 48.296 492.992 48.584C492.448 48.872 491.968 49.264 491.552 49.76C491.136 50.24 490.832 50.8 490.64 51.44V59H488.528V41.48H490.64V49.16C491.136 48.264 491.808 47.56 492.656 47.048C493.52 46.52 494.448 46.256 495.44 46.256C496.192 46.256 496.816 46.392 497.312 46.664C497.824 46.92 498.232 47.288 498.536 47.768C498.84 48.248 499.056 48.808 499.184 49.448C499.328 50.072 499.4 50.76 499.4 51.512V59ZM514.299 59.24C513.355 59.24 512.491 59.072 511.707 58.736C510.939 58.384 510.267 57.904 509.691 57.296C509.131 56.688 508.691 55.992 508.371 55.208C508.067 54.424 507.915 53.592 507.915 52.712C507.915 51.528 508.179 50.448 508.707 49.472C509.235 48.496 509.979 47.72 510.939 47.144C511.899 46.552 513.011 46.256 514.275 46.256C515.507 46.256 516.579 46.536 517.491 47.096C518.419 47.64 519.107 48.376 519.555 49.304L517.491 49.952C517.171 49.36 516.723 48.904 516.147 48.584C515.571 48.248 514.931 48.08 514.227 48.08C513.459 48.08 512.755 48.28 512.115 48.68C511.491 49.08 510.995 49.632 510.627 50.336C510.259 51.024 510.075 51.816 510.075 52.712C510.075 53.592 510.259 54.392 510.627 55.112C511.011 55.816 511.515 56.376 512.139 56.792C512.779 57.208 513.483 57.416 514.251 57.416C514.747 57.416 515.219 57.328 515.667 57.152C516.131 56.976 516.531 56.744 516.867 56.456C517.219 56.152 517.459 55.824 517.587 55.472L519.651 56.096C519.395 56.704 519.003 57.248 518.475 57.728C517.963 58.192 517.347 58.56 516.627 58.832C515.923 59.104 515.147 59.24 514.299 59.24ZM527.399 59.24C526.455 59.24 525.599 59.072 524.831 58.736C524.063 58.384 523.399 57.912 522.839 57.32C522.279 56.712 521.847 56.016 521.543 55.232C521.239 54.448 521.087 53.624 521.087 52.76C521.087 51.88 521.239 51.048 521.543 50.264C521.847 49.48 522.279 48.792 522.839 48.2C523.399 47.592 524.063 47.12 524.831 46.784C525.615 46.432 526.471 46.256 527.399 46.256C528.343 46.256 529.199 46.432 529.967 46.784C530.735 47.12 531.399 47.592 531.959 48.2C532.535 48.792 532.975 49.48 533.279 50.264C533.583 51.048 533.735 51.88 533.735 52.76C533.735 53.624 533.583 54.448 533.279 55.232C532.975 56.016 532.543 56.712 531.983 57.32C531.423 57.912 530.751 58.384 529.967 58.736C529.199 59.072 528.343 59.24 527.399 59.24ZM523.247 52.784C523.247 53.648 523.431 54.432 523.799 55.136C524.183 55.84 524.687 56.4 525.311 56.816C525.935 57.216 526.631 57.416 527.399 57.416C528.167 57.416 528.863 57.208 529.487 56.792C530.127 56.376 530.631 55.816 530.999 55.112C531.383 54.392 531.575 53.6 531.575 52.736C531.575 51.872 531.383 51.088 530.999 50.384C530.631 49.68 530.127 49.12 529.487 48.704C528.863 48.288 528.167 48.08 527.399 48.08C526.631 48.08 525.935 48.296 525.311 48.728C524.687 49.144 524.183 49.704 523.799 50.408C523.431 51.112 523.247 51.904 523.247 52.784ZM547.166 59H545.054V51.992C545.054 50.664 544.846 49.696 544.43 49.088C544.03 48.464 543.414 48.152 542.582 48.152C542.006 48.152 541.43 48.296 540.854 48.584C540.294 48.872 539.79 49.264 539.342 49.76C538.91 50.24 538.598 50.8 538.406 51.44V59H536.294V46.472H538.214V49.16C538.55 48.568 538.982 48.056 539.51 47.624C540.038 47.192 540.638 46.856 541.31 46.616C541.982 46.376 542.686 46.256 543.422 46.256C544.142 46.256 544.742 46.392 545.222 46.664C545.718 46.92 546.102 47.288 546.374 47.768C546.662 48.232 546.862 48.784 546.974 49.424C547.102 50.064 547.166 50.76 547.166 51.512V59ZM551.005 48.128H549.301V46.472H551.005V46.208C551.005 45.584 551.101 44.984 551.293 44.408C551.485 43.816 551.773 43.28 552.157 42.8C552.541 42.32 553.021 41.944 553.597 41.672C554.173 41.384 554.853 41.24 555.637 41.24C556.229 41.24 556.773 41.304 557.269 41.432C557.765 41.56 558.205 41.72 558.589 41.912C558.989 42.104 559.317 42.296 559.573 42.488L558.661 44.048C558.357 43.776 557.941 43.544 557.413 43.352C556.901 43.16 556.349 43.064 555.757 43.064C555.149 43.064 554.645 43.216 554.245 43.52C553.861 43.824 553.573 44.216 553.381 44.696C553.205 45.16 553.117 45.64 553.117 46.136V46.472H559.525V59H557.413V48.128H553.117V59H551.005V48.128ZM562.126 52.76C562.126 51.576 562.366 50.496 562.846 49.52C563.342 48.528 564.014 47.736 564.862 47.144C565.726 46.552 566.71 46.256 567.814 46.256C568.822 46.256 569.726 46.52 570.526 47.048C571.326 47.576 571.95 48.216 572.398 48.968V41.48H574.51V56.6C574.51 56.856 574.558 57.048 574.654 57.176C574.766 57.288 574.942 57.352 575.182 57.368V59C574.782 59.064 574.47 59.096 574.246 59.096C573.83 59.096 573.462 58.952 573.142 58.664C572.838 58.376 572.686 58.056 572.686 57.704V56.648C572.19 57.448 571.526 58.08 570.694 58.544C569.862 59.008 568.998 59.24 568.102 59.24C567.238 59.24 566.438 59.072 565.702 58.736C564.982 58.384 564.35 57.904 563.806 57.296C563.278 56.688 562.862 56 562.558 55.232C562.27 54.448 562.126 53.624 562.126 52.76ZM572.398 54.608V51.008C572.206 50.464 571.894 49.976 571.462 49.544C571.03 49.096 570.542 48.744 569.998 48.488C569.47 48.216 568.942 48.08 568.414 48.08C567.79 48.08 567.222 48.216 566.71 48.488C566.214 48.744 565.782 49.096 565.414 49.544C565.062 49.976 564.79 50.472 564.598 51.032C564.406 51.592 564.31 52.176 564.31 52.784C564.31 53.408 564.414 54 564.622 54.56C564.846 55.12 565.15 55.616 565.534 56.048C565.934 56.48 566.39 56.816 566.902 57.056C567.43 57.296 567.998 57.416 568.606 57.416C568.99 57.416 569.382 57.344 569.782 57.2C570.198 57.056 570.59 56.856 570.958 56.6C571.326 56.344 571.638 56.048 571.894 55.712C572.15 55.36 572.318 54.992 572.398 54.608ZM583.58 59.24C582.636 59.24 581.772 59.072 580.988 58.736C580.22 58.384 579.548 57.912 578.972 57.32C578.412 56.712 577.972 56.016 577.652 55.232C577.348 54.448 577.196 53.616 577.196 52.736C577.196 51.552 577.468 50.472 578.012 49.496C578.556 48.52 579.308 47.736 580.268 47.144C581.244 46.552 582.356 46.256 583.604 46.256C584.868 46.256 585.964 46.56 586.892 47.168C587.836 47.76 588.564 48.544 589.076 49.52C589.604 50.48 589.868 51.52 589.868 52.64C589.868 52.8 589.86 52.96 589.844 53.12C589.844 53.264 589.836 53.376 589.82 53.456H579.428C579.492 54.272 579.716 55 580.1 55.64C580.5 56.264 581.012 56.76 581.636 57.128C582.26 57.48 582.932 57.656 583.652 57.656C584.42 57.656 585.14 57.464 585.812 57.08C586.5 56.696 586.972 56.192 587.228 55.568L589.052 56.072C588.78 56.68 588.372 57.224 587.828 57.704C587.3 58.184 586.668 58.56 585.932 58.832C585.212 59.104 584.428 59.24 583.58 59.24ZM579.356 51.992H587.9C587.836 51.176 587.604 50.456 587.204 49.832C586.804 49.208 586.292 48.72 585.668 48.368C585.044 48.016 584.356 47.84 583.604 47.84C582.868 47.84 582.188 48.016 581.564 48.368C580.94 48.72 580.428 49.208 580.028 49.832C579.644 50.456 579.42 51.176 579.356 51.992ZM603.088 59H600.976V51.992C600.976 50.664 600.768 49.696 600.352 49.088C599.952 48.464 599.336 48.152 598.504 48.152C597.928 48.152 597.352 48.296 596.776 48.584C596.216 48.872 595.712 49.264 595.264 49.76C594.832 50.24 594.52 50.8 594.328 51.44V59H592.216V46.472H594.136V49.16C594.472 48.568 594.904 48.056 595.432 47.624C595.96 47.192 596.56 46.856 597.232 46.616C597.904 46.376 598.608 46.256 599.344 46.256C600.064 46.256 600.664 46.392 601.144 46.664C601.64 46.92 602.024 47.288 602.296 47.768C602.584 48.232 602.784 48.784 602.896 49.424C603.024 50.064 603.088 50.76 603.088 51.512V59ZM611.916 59.24C610.972 59.24 610.108 59.072 609.324 58.736C608.556 58.384 607.884 57.904 607.308 57.296C606.748 56.688 606.308 55.992 605.988 55.208C605.684 54.424 605.532 53.592 605.532 52.712C605.532 51.528 605.796 50.448 606.324 49.472C606.852 48.496 607.596 47.72 608.556 47.144C609.516 46.552 610.628 46.256 611.892 46.256C613.124 46.256 614.196 46.536 615.108 47.096C616.036 47.64 616.724 48.376 617.172 49.304L615.108 49.952C614.788 49.36 614.34 48.904 613.764 48.584C613.188 48.248 612.548 48.08 611.844 48.08C611.076 48.08 610.372 48.28 609.732 48.68C609.108 49.08 608.612 49.632 608.244 50.336C607.876 51.024 607.692 51.816 607.692 52.712C607.692 53.592 607.876 54.392 608.244 55.112C608.628 55.816 609.132 56.376 609.756 56.792C610.396 57.208 611.1 57.416 611.868 57.416C612.364 57.416 612.836 57.328 613.284 57.152C613.748 56.976 614.148 56.744 614.484 56.456C614.836 56.152 615.076 55.824 615.204 55.472L617.268 56.096C617.012 56.704 616.62 57.248 616.092 57.728C615.58 58.192 614.964 58.56 614.244 58.832C613.54 59.104 612.764 59.24 611.916 59.24ZM625.088 59.24C624.144 59.24 623.28 59.072 622.496 58.736C621.728 58.384 621.056 57.912 620.48 57.32C619.92 56.712 619.48 56.016 619.16 55.232C618.856 54.448 618.704 53.616 618.704 52.736C618.704 51.552 618.976 50.472 619.52 49.496C620.064 48.52 620.816 47.736 621.776 47.144C622.752 46.552 623.864 46.256 625.112 46.256C626.376 46.256 627.472 46.56 628.4 47.168C629.344 47.76 630.072 48.544 630.584 49.52C631.112 50.48 631.376 51.52 631.376 52.64C631.376 52.8 631.368 52.96 631.352 53.12C631.352 53.264 631.344 53.376 631.328 53.456H620.936C621 54.272 621.224 55 621.608 55.64C622.008 56.264 622.52 56.76 623.144 57.128C623.768 57.48 624.44 57.656 625.16 57.656C625.928 57.656 626.648 57.464 627.32 57.08C628.008 56.696 628.48 56.192 628.736 55.568L630.56 56.072C630.288 56.68 629.88 57.224 629.336 57.704C628.808 58.184 628.176 58.56 627.44 58.832C626.72 59.104 625.936 59.24 625.088 59.24ZM620.864 51.992H629.408C629.344 51.176 629.112 50.456 628.712 49.832C628.312 49.208 627.8 48.72 627.176 48.368C626.552 48.016 625.864 47.84 625.112 47.84C624.376 47.84 623.696 48.016 623.072 48.368C622.448 48.72 621.936 49.208 621.536 49.832C621.152 50.456 620.928 51.176 620.864 51.992ZM633.556 59V56.312H635.332V59H633.556Z" fill="#3B3548"/>
</svg>
