<svg width="103" height="89" viewBox="0 0 103 89" fill="none" xmlns="http://www.w3.org/2000/svg">
<g filter="url(#filter0_dd_1744_1420)">
<path d="M19.0106 13.1281C19.348 10.9449 21.3914 9.44861 23.5746 9.78606L88.8191 19.8707C91.0023 20.2082 92.4986 22.2516 92.1611 24.4348L84.8424 71.784C84.505 73.9673 82.4616 75.4635 80.2784 75.1261L15.0339 65.0414C12.8507 64.704 11.3545 62.6606 11.6919 60.4773L19.0106 13.1281Z" fill="white"/>
<path d="M19.06 13.1357C19.3932 10.9798 21.4111 9.50224 23.567 9.83548L88.8114 19.9202C90.9674 20.2534 92.4449 22.2713 92.1117 24.4272L84.793 71.7764C84.4598 73.9323 82.4419 75.4099 80.286 75.0767L15.0416 64.992C12.8857 64.6588 11.4081 62.6409 11.7413 60.485L19.06 13.1357Z" stroke="url(#paint0_linear_1744_1420)" stroke-width="0.1"/>
</g>
<g opacity="0.4" filter="url(#filter1_d_1744_1420)">
<path d="M76.8547 26.1338L35.9711 13.9661C35.1911 13.7339 35.2831 13.8044 35.1276 13.7549C34.7364 13.6306 35.0813 13.2308 35.1171 13.0046C35.1426 12.8439 35.033 12.6979 35.0167 12.535C34.9941 12.3092 35.1433 12.1203 35.1128 11.8893C35.0863 11.6891 34.8956 11.4785 34.9517 11.29L35.1354 10.6726C35.1861 10.5022 35.167 10.3514 35.3976 10.2973C35.7666 10.2108 36.2437 10.204 36.546 10.0274C36.6313 9.97764 36.3336 9.91598 36.2213 9.87042C35.8243 9.70938 35.4188 9.54896 35.0341 9.36673C34.9775 9.33992 35.6005 9.24261 35.7171 9.20779C36.128 9.08508 35.7552 8.8892 35.4911 8.71339C35.0299 8.40625 36.3962 8.57616 36.5031 8.43366C36.5396 8.38499 36.3454 8.27002 36.4294 8.22946C36.7409 8.07909 37.3475 8.11758 37.7191 8.07112C37.8902 8.04973 38.1897 8.03529 38.1151 7.83814C37.9237 7.33186 37.3567 6.80918 36.9994 6.34651C36.7602 6.03674 36.4741 5.69111 36.4484 5.34643C36.4346 5.16221 36.6109 4.93312 36.6762 4.78547C36.7687 4.57631 36.9559 3.57701 37.4177 3.71446L37.7119 3.80202L41.5512 4.94467L47.2116 6.62933L67.4187 12.6434L73.263 14.3827L77.323 15.5911C77.9731 15.7845 78.8869 15.9554 79.4913 16.2899C79.8037 16.4628 82.1746 17.6758 82.117 17.7765C82.0706 17.8577 81.6377 17.8991 81.5494 17.9242L81.5298 17.9298C81.3064 17.993 80.9887 18.0831 81.0228 18.3108C81.0649 18.5911 81.5225 18.6373 81.0809 18.8099C80.8327 18.9069 79.5842 19.2237 79.8439 19.4795C80.0746 19.7065 80.3556 19.9343 80.4743 20.2024C80.6583 20.6181 80.2422 20.801 79.8882 20.9825C79.7991 21.0282 79.2927 21.1974 79.3979 21.3549C79.5379 21.5646 79.8526 21.7127 80.0078 21.9259C80.3898 22.4509 78.6811 22.3183 78.3499 22.4281C78.1957 22.4792 78.8675 23.2368 78.8574 23.4129C78.8214 24.0387 77.1652 23.9285 76.5874 23.9971C75.7375 24.0982 77.4595 25.3535 77.6787 25.5065C77.9968 25.7286 78.571 25.9851 78.483 26.3337C78.4702 26.3844 78.4433 26.6066 78.3521 26.5795L76.8547 26.1338Z" fill="#B892FF"/>
<path d="M76.8547 26.1338L35.9711 13.9661C35.1911 13.7339 35.2831 13.8044 35.1276 13.7549C34.7364 13.6306 35.0813 13.2308 35.1171 13.0046C35.1426 12.8439 35.033 12.6979 35.0167 12.535C34.9941 12.3092 35.1433 12.1203 35.1128 11.8893C35.0863 11.6891 34.8956 11.4785 34.9517 11.29L35.1354 10.6726C35.1861 10.5022 35.167 10.3514 35.3976 10.2973C35.7666 10.2108 36.2437 10.204 36.546 10.0274C36.6313 9.97764 36.3336 9.91598 36.2213 9.87042C35.8243 9.70938 35.4188 9.54896 35.0341 9.36673C34.9775 9.33992 35.6005 9.24261 35.7171 9.20779C36.128 9.08508 35.7552 8.8892 35.4911 8.71339C35.0299 8.40625 36.3962 8.57616 36.5031 8.43366C36.5396 8.38499 36.3454 8.27002 36.4294 8.22946C36.7409 8.07909 37.3475 8.11758 37.7191 8.07112C37.8902 8.04973 38.1897 8.03529 38.1151 7.83814C37.9237 7.33186 37.3567 6.80918 36.9994 6.34651C36.7602 6.03674 36.4741 5.69111 36.4484 5.34643C36.4346 5.16221 36.6109 4.93312 36.6762 4.78547C36.7687 4.57631 36.9559 3.57701 37.4177 3.71446L37.7119 3.80202L41.5512 4.94467L47.2116 6.62933L67.4187 12.6434L73.263 14.3827L77.323 15.5911C77.9731 15.7845 78.8869 15.9554 79.4913 16.2899C79.8037 16.4628 82.1746 17.6758 82.117 17.7765C82.0706 17.8577 81.6377 17.8991 81.5494 17.9242L81.5298 17.9298C81.3064 17.993 80.9887 18.0831 81.0228 18.3108C81.0649 18.5911 81.5225 18.6373 81.0809 18.8099C80.8327 18.9069 79.5842 19.2237 79.8439 19.4795C80.0746 19.7065 80.3556 19.9343 80.4743 20.2024C80.6583 20.6181 80.2422 20.801 79.8882 20.9825C79.7991 21.0282 79.2927 21.1974 79.3979 21.3549C79.5379 21.5646 79.8526 21.7127 80.0078 21.9259C80.3898 22.4509 78.6811 22.3183 78.3499 22.4281C78.1957 22.4792 78.8675 23.2368 78.8574 23.4129C78.8214 24.0387 77.1652 23.9285 76.5874 23.9971C75.7375 24.0982 77.4595 25.3535 77.6787 25.5065C77.9968 25.7286 78.571 25.9851 78.483 26.3337C78.4702 26.3844 78.4433 26.6066 78.3521 26.5795L76.8547 26.1338Z" stroke="#B58FFC" stroke-linecap="round"/>
</g>
<defs>
<filter id="filter0_dd_1744_1420" x="-0.318945" y="0.175049" width="103.691" height="88.562" filterUnits="userSpaceOnUse" color-interpolation-filters="sRGB">
<feFlood flood-opacity="0" result="BackgroundImageFix"/>
<feColorMatrix in="SourceAlpha" type="matrix" values="0 0 0 0 0 0 0 0 0 0 0 0 0 0 0 0 0 0 127 0" result="hardAlpha"/>
<feOffset dx="-0.4" dy="2"/>
<feGaussianBlur stdDeviation="5.5"/>
<feComposite in2="hardAlpha" operator="out"/>
<feColorMatrix type="matrix" values="0 0 0 0 0.231373 0 0 0 0 0.207843 0 0 0 0 0.282353 0 0 0 0.12 0"/>
<feBlend mode="normal" in2="BackgroundImageFix" result="effect1_dropShadow_1744_1420"/>
<feColorMatrix in="SourceAlpha" type="matrix" values="0 0 0 0 0 0 0 0 0 0 0 0 0 0 0 0 0 0 127 0" result="hardAlpha"/>
<feMorphology radius="0.2" operator="dilate" in="SourceAlpha" result="effect2_dropShadow_1744_1420"/>
<feOffset/>
<feGaussianBlur stdDeviation="2"/>
<feComposite in2="hardAlpha" operator="out"/>
<feColorMatrix type="matrix" values="0 0 0 0 0.231373 0 0 0 0 0.207843 0 0 0 0 0.282353 0 0 0 0.08 0"/>
<feBlend mode="normal" in2="effect1_dropShadow_1744_1420" result="effect2_dropShadow_1744_1420"/>
<feBlend mode="normal" in="SourceGraphic" in2="effect2_dropShadow_1744_1420" result="shape"/>
</filter>
<filter id="filter1_d_1744_1420" x="31.9414" y="0.701172" width="54.1772" height="29.8806" filterUnits="userSpaceOnUse" color-interpolation-filters="sRGB">
<feFlood flood-opacity="0" result="BackgroundImageFix"/>
<feColorMatrix in="SourceAlpha" type="matrix" values="0 0 0 0 0 0 0 0 0 0 0 0 0 0 0 0 0 0 127 0" result="hardAlpha"/>
<feOffset dx="0.5" dy="0.5"/>
<feGaussianBlur stdDeviation="1.5"/>
<feComposite in2="hardAlpha" operator="out"/>
<feColorMatrix type="matrix" values="0 0 0 0 0 0 0 0 0 0 0 0 0 0 0 0 0 0 0.25 0"/>
<feBlend mode="normal" in2="BackgroundImageFix" result="effect1_dropShadow_1744_1420"/>
<feBlend mode="normal" in="SourceGraphic" in2="effect1_dropShadow_1744_1420" result="shape"/>
</filter>
<linearGradient id="paint0_linear_1744_1420" x1="43.6434" y1="67.969" x2="56.5077" y2="12.669" gradientUnits="userSpaceOnUse">
<stop stop-color="#8F81AE"/>
<stop offset="1" stop-color="#8F81AE" stop-opacity="0.02"/>
</linearGradient>
</defs>
</svg>
