<svg width="94" height="79" viewBox="0 0 94 79" fill="none" xmlns="http://www.w3.org/2000/svg">
<g filter="url(#filter0_dd_1865_1651)">
<path d="M18.4248 12.879C18.7662 10.6973 20.814 9.19908 22.9988 9.53261L79.0891 18.0954C81.2738 18.429 82.7681 20.4679 82.4267 22.6496L76.1906 62.4976C75.8491 64.6793 73.8013 66.1775 71.6166 65.844L15.5262 57.2811C13.3415 56.9476 11.8472 54.9087 12.1886 52.727L18.4248 12.879Z" fill="white"/>
<path d="M18.4742 12.8865C18.8114 10.7321 20.8336 9.25263 22.991 9.58198L79.0814 18.1448C81.2388 18.4742 82.7144 20.4876 82.3773 22.642L76.1411 62.4901C75.804 64.6445 73.7817 66.1239 71.6243 65.7946L15.5339 57.2318C13.3765 56.9024 11.9009 54.8889 12.2381 52.7345L18.4742 12.8865Z" stroke="url(#paint0_linear_1865_1651)" stroke-width="0.1"/>
</g>
<g opacity="0.4" filter="url(#filter1_d_1865_1651)">
<path d="M69.1178 23.5835L33.3473 13.0688C32.6648 12.8682 32.7454 12.9292 32.6093 12.8864C32.267 12.7789 32.5688 12.4335 32.6001 12.238C32.6224 12.0991 32.5265 11.9729 32.5123 11.8322C32.4925 11.6371 32.6231 11.4738 32.5963 11.2742C32.5732 11.1012 32.4063 10.9192 32.4554 10.7563L32.6161 10.2228C32.6605 10.0756 32.6438 9.94528 32.8456 9.89852C33.1684 9.82371 33.5858 9.81784 33.8503 9.66529C33.9249 9.62226 33.6644 9.56898 33.5662 9.5296C33.2189 9.39044 32.8641 9.25181 32.5275 9.09434C32.478 9.07118 33.023 8.98709 33.1251 8.95699C33.4846 8.85096 33.1584 8.68169 32.9274 8.52976C32.5238 8.26435 33.7193 8.41118 33.8128 8.28803C33.8448 8.24598 33.6748 8.14663 33.7483 8.11158C34.0208 7.98164 34.5516 8.0149 34.8767 7.97475C35.0264 7.95627 35.2884 7.94379 35.2232 7.77343C35.0557 7.33592 34.5596 6.88425 34.247 6.48444C34.0377 6.21676 33.7874 5.91808 33.7649 5.62023C33.7528 5.46103 33.9071 5.26307 33.9642 5.13548C34.0451 4.95474 34.2089 4.0912 34.613 4.20997L34.8704 4.28563L38.2295 5.27305L43.182 6.72883L60.8619 11.9258L65.9753 13.4289L69.5275 14.4731C70.0963 14.6402 70.8958 14.7879 71.4247 15.077C71.6979 15.2264 73.7723 16.2746 73.722 16.3616C73.6813 16.4318 73.3026 16.4675 73.2254 16.4892L73.2082 16.494C73.0128 16.5487 72.7347 16.6265 72.7646 16.8233C72.8014 17.0656 73.2018 17.1054 72.8154 17.2546C72.5983 17.3384 71.5059 17.6122 71.7332 17.8332C71.935 18.0294 72.1808 18.2263 72.2847 18.4579C72.4457 18.8171 72.0816 18.9752 71.7719 19.1321C71.694 19.1715 71.2509 19.3178 71.3429 19.4538C71.4654 19.635 71.7407 19.763 71.8765 19.9473C72.2108 20.401 70.7158 20.2863 70.426 20.3812C70.2911 20.4254 70.8789 21.0801 70.87 21.2323C70.8386 21.7731 69.3895 21.6778 68.884 21.7371C68.1403 21.8244 69.6469 22.9092 69.8387 23.0415C70.1171 23.2334 70.6194 23.455 70.5424 23.7562C70.5312 23.8 70.5077 23.9921 70.428 23.9686L69.1178 23.5835Z" fill="#B892FF"/>
<path d="M69.1178 23.5835L33.3473 13.0688C32.6648 12.8682 32.7454 12.9292 32.6093 12.8864C32.267 12.7789 32.5688 12.4335 32.6001 12.238C32.6224 12.0991 32.5265 11.9729 32.5123 11.8322C32.4925 11.6371 32.6231 11.4738 32.5963 11.2742C32.5732 11.1012 32.4063 10.9192 32.4554 10.7563L32.6161 10.2228C32.6605 10.0756 32.6438 9.94528 32.8456 9.89852C33.1684 9.82371 33.5858 9.81784 33.8503 9.66529C33.9249 9.62226 33.6644 9.56898 33.5662 9.5296C33.2189 9.39044 32.8641 9.25181 32.5275 9.09434C32.478 9.07118 33.023 8.98709 33.1251 8.95699C33.4846 8.85096 33.1584 8.68169 32.9274 8.52976C32.5238 8.26435 33.7193 8.41118 33.8128 8.28803C33.8448 8.24598 33.6748 8.14663 33.7483 8.11158C34.0208 7.98164 34.5516 8.0149 34.8767 7.97475C35.0264 7.95627 35.2884 7.94379 35.2232 7.77343C35.0557 7.33592 34.5596 6.88425 34.247 6.48444C34.0377 6.21676 33.7874 5.91808 33.7649 5.62023C33.7528 5.46103 33.9071 5.26307 33.9642 5.13548C34.0451 4.95474 34.2089 4.0912 34.613 4.20997L34.8704 4.28563L38.2295 5.27305L43.182 6.72883L60.8619 11.9258L65.9753 13.4289L69.5275 14.4731C70.0963 14.6402 70.8958 14.7879 71.4247 15.077C71.6979 15.2264 73.7723 16.2746 73.722 16.3616C73.6813 16.4318 73.3026 16.4675 73.2254 16.4892L73.2082 16.494C73.0128 16.5487 72.7347 16.6265 72.7646 16.8233C72.8014 17.0656 73.2018 17.1054 72.8154 17.2546C72.5983 17.3384 71.5059 17.6122 71.7332 17.8332C71.935 18.0294 72.1808 18.2263 72.2847 18.4579C72.4457 18.8171 72.0816 18.9752 71.7719 19.1321C71.694 19.1715 71.2509 19.3178 71.3429 19.4538C71.4654 19.635 71.7407 19.763 71.8765 19.9473C72.2108 20.401 70.7158 20.2863 70.426 20.3812C70.2911 20.4254 70.8789 21.0801 70.87 21.2323C70.8386 21.7731 69.3895 21.6778 68.884 21.7371C68.1403 21.8244 69.6469 22.9092 69.8387 23.0415C70.1171 23.2334 70.6194 23.455 70.5424 23.7562C70.5312 23.8 70.5077 23.9921 70.428 23.9686L69.1178 23.5835Z" stroke="#B58FFC" stroke-linecap="round"/>
</g>
<defs>
<filter id="filter0_dd_1865_1651" x="0.170312" y="-0.0712891" width="93.4746" height="79.519" filterUnits="userSpaceOnUse" color-interpolation-filters="sRGB">
<feFlood flood-opacity="0" result="BackgroundImageFix"/>
<feColorMatrix in="SourceAlpha" type="matrix" values="0 0 0 0 0 0 0 0 0 0 0 0 0 0 0 0 0 0 127 0" result="hardAlpha"/>
<feOffset dx="-0.4" dy="2"/>
<feGaussianBlur stdDeviation="5.5"/>
<feComposite in2="hardAlpha" operator="out"/>
<feColorMatrix type="matrix" values="0 0 0 0 0.231373 0 0 0 0 0.207843 0 0 0 0 0.282353 0 0 0 0.12 0"/>
<feBlend mode="normal" in2="BackgroundImageFix" result="effect1_dropShadow_1865_1651"/>
<feColorMatrix in="SourceAlpha" type="matrix" values="0 0 0 0 0 0 0 0 0 0 0 0 0 0 0 0 0 0 127 0" result="hardAlpha"/>
<feMorphology radius="0.2" operator="dilate" in="SourceAlpha" result="effect2_dropShadow_1865_1651"/>
<feOffset/>
<feGaussianBlur stdDeviation="2"/>
<feComposite in2="hardAlpha" operator="out"/>
<feColorMatrix type="matrix" values="0 0 0 0 0.231373 0 0 0 0 0.207843 0 0 0 0 0.282353 0 0 0 0.08 0"/>
<feBlend mode="normal" in2="effect1_dropShadow_1865_1651" result="effect2_dropShadow_1865_1651"/>
<feBlend mode="normal" in="SourceGraphic" in2="effect2_dropShadow_1865_1651" result="shape"/>
</filter>
<filter id="filter1_d_1865_1651" x="29.4453" y="1.19922" width="48.2793" height="26.7705" filterUnits="userSpaceOnUse" color-interpolation-filters="sRGB">
<feFlood flood-opacity="0" result="BackgroundImageFix"/>
<feColorMatrix in="SourceAlpha" type="matrix" values="0 0 0 0 0 0 0 0 0 0 0 0 0 0 0 0 0 0 127 0" result="hardAlpha"/>
<feOffset dx="0.5" dy="0.5"/>
<feGaussianBlur stdDeviation="1.5"/>
<feComposite in2="hardAlpha" operator="out"/>
<feColorMatrix type="matrix" values="0 0 0 0 0 0 0 0 0 0 0 0 0 0 0 0 0 0 0.25 0"/>
<feBlend mode="normal" in2="BackgroundImageFix" result="effect1_dropShadow_1865_1651"/>
<feBlend mode="normal" in="SourceGraphic" in2="effect1_dropShadow_1865_1651" result="shape"/>
</filter>
<linearGradient id="paint0_linear_1865_1651" x1="40.0605" y1="59.7351" x2="51.0538" y2="11.8877" gradientUnits="userSpaceOnUse">
<stop stop-color="#8F81AE"/>
<stop offset="1" stop-color="#8F81AE" stop-opacity="0.02"/>
</linearGradient>
</defs>
</svg>
