<svg width="80" height="23" viewBox="0 0 80 23" fill="none" xmlns="http://www.w3.org/2000/svg">
<path d="M7.94 8.38C7.94 8.80667 7.80667 9.22667 7.54 9.64C7.27333 10.04 6.92 10.4267 6.48 10.8C6.04 11.16 5.55333 11.5 5.02 11.82C4.48667 12.14 3.95333 12.42 3.42 12.66C2.88667 12.9 2.4 13.0933 1.96 13.24C1.85333 13.76 1.8 14.22 1.8 14.62C1.8 14.8733 1.86 15.0533 1.98 15.16C2.1 15.2667 2.28667 15.32 2.54 15.32C3.1 15.32 3.69333 15.22 4.32 15.02C4.94667 14.82 5.58667 14.56 6.24 14.24C6.89333 13.92 7.52 13.58 8.12 13.22C8.72 12.86 9.26667 12.52 9.76 12.2C10.2667 11.88 10.6867 11.62 11.02 11.42C11.3533 11.22 11.5733 11.12 11.68 11.12C11.84 11.12 11.96 11.1733 12.04 11.28C12.1333 11.3733 12.18 11.4867 12.18 11.62C12.18 11.7267 12.0133 11.9333 11.68 12.24C11.36 12.5467 10.9267 12.9067 10.38 13.32C9.83333 13.72 9.22 14.1333 8.54 14.56C7.86 14.9867 7.15333 15.3867 6.42 15.76C5.7 16.1333 5 16.4333 4.32 16.66C3.65333 16.8867 3.05333 17 2.52 17C1.82667 17 1.28667 16.74 0.9 16.22C0.513333 15.7 0.32 14.8933 0.32 13.8C0.32 13.0667 0.413333 12.3267 0.6 11.58C0.8 10.8333 1.06667 10.12 1.4 9.44C1.74667 8.74667 2.12667 8.13333 2.54 7.6C2.96667 7.05333 3.41333 6.62667 3.88 6.32C4.34667 6 4.8 5.84 5.24 5.84C6.08 5.84 6.74 6.07333 7.22 6.54C7.7 7.00667 7.94 7.62 7.94 8.38ZM2.38 11.7C2.79333 11.4467 3.22 11.18 3.66 10.9C4.1 10.62 4.50667 10.3333 4.88 10.04C5.25333 9.74667 5.55333 9.44 5.78 9.12C6.02 8.78667 6.14 8.44667 6.14 8.1C6.14 7.60667 5.87333 7.36 5.34 7.36C5.00667 7.36 4.65333 7.57333 4.28 8C3.92 8.41333 3.57333 8.95333 3.24 9.62C2.90667 10.2867 2.62 10.98 2.38 11.7ZM11.7613 16.28C11.5613 16.28 11.4146 16.2067 11.3213 16.06C11.2279 15.9133 11.1813 15.7267 11.1813 15.5C11.1813 15.3133 11.3013 15.0467 11.5413 14.7C11.7946 14.34 12.1213 13.92 12.5213 13.44C12.9346 12.9467 13.3879 12.42 13.8813 11.86C14.3746 11.3 14.8746 10.7333 15.3813 10.16C14.7679 9.12 14.3013 8.3 13.9813 7.7C13.6613 7.08667 13.5013 6.60667 13.5013 6.26C13.5013 6.02 13.5813 5.8 13.7413 5.6C13.9013 5.38667 14.0613 5.28 14.2213 5.28C14.4079 5.28 14.5879 5.39333 14.7613 5.62C14.9479 5.83333 15.1746 6.2 15.4413 6.72C15.7079 7.22667 16.0679 7.92667 16.5213 8.82C17.2546 7.94 17.8613 7.22 18.3413 6.66C18.8346 6.1 19.2279 5.66667 19.5213 5.36C19.8279 5.05333 20.0679 4.84 20.2413 4.72C20.4279 4.58667 20.5879 4.52 20.7213 4.52C20.8813 4.52 21.0146 4.58667 21.1213 4.72C21.2279 4.84 21.2812 5.04 21.2812 5.32C21.2812 5.58667 21.1546 5.91333 20.9013 6.3C20.6613 6.68667 20.3413 7.10667 19.9413 7.56C19.5413 8.01333 19.1079 8.48 18.6413 8.96C18.1879 9.42667 17.7546 9.88 17.3413 10.32C18.0079 11.4667 18.6479 12.4667 19.2613 13.32C19.8746 14.16 20.3679 14.8533 20.7413 15.4C21.1279 15.9467 21.3213 16.3467 21.3213 16.6C21.3213 16.7733 21.2813 16.9067 21.2013 17C21.1213 17.08 20.9679 17.12 20.7413 17.12C20.5813 17.12 20.3946 17.0533 20.1813 16.92C19.9679 16.7867 19.6946 16.5267 19.3613 16.14C19.0413 15.7533 18.6213 15.1933 18.1013 14.46C17.5946 13.7133 16.9679 12.74 16.2213 11.54C15.7546 12.06 15.2879 12.6 14.8213 13.16C14.3679 13.7067 13.9346 14.22 13.5213 14.7C13.1213 15.1667 12.7679 15.5467 12.4613 15.84C12.1546 16.1333 11.9213 16.28 11.7613 16.28ZM23.9378 22.94C23.7111 22.94 23.5311 22.86 23.3978 22.7C23.2778 22.54 23.2178 22.2333 23.2178 21.78C23.2178 21.1267 23.2645 20.3667 23.3578 19.5C23.4511 18.6333 23.5778 17.7133 23.7378 16.74C23.9111 15.7667 24.0978 14.7933 24.2978 13.82C24.5111 12.8467 24.7311 11.92 24.9578 11.04C25.1978 10.16 25.4311 9.38 25.6578 8.7C25.8845 8.00667 26.0911 7.46 26.2778 7.06C26.4778 6.66 26.6511 6.46 26.7978 6.46C27.0511 6.46 27.2511 6.53333 27.3978 6.68C27.5578 6.82667 27.6378 7.04667 27.6378 7.34C27.6378 7.71333 27.5245 8.32 27.2978 9.16C27.0711 9.98667 26.7778 11.0667 26.4178 12.4C26.7511 11.7867 27.1111 11.1467 27.4978 10.48C27.8845 9.81333 28.2911 9.16667 28.7178 8.54C29.1445 7.9 29.5711 7.32667 29.9978 6.82C30.4378 6.31333 30.8645 5.90667 31.2778 5.6C31.6911 5.29333 32.0911 5.14 32.4778 5.14C32.8911 5.14 33.2578 5.27333 33.5778 5.54C33.8978 5.79333 34.1445 6.14 34.3178 6.58C34.5045 7.00667 34.5978 7.48667 34.5978 8.02C34.5978 9.12667 34.4111 10.2 34.0378 11.24C33.6645 12.2667 33.1445 13.1933 32.4778 14.02C31.8245 14.8333 31.0511 15.48 30.1578 15.96C29.2778 16.44 28.3245 16.68 27.2978 16.68C26.9111 16.68 26.5645 16.66 26.2578 16.62C25.9511 16.58 25.6845 16.5333 25.4578 16.48C25.2978 17.36 25.1445 18.2667 24.9978 19.2C24.8511 20.1333 24.7045 21.1267 24.5578 22.18C24.5178 22.46 24.4511 22.6533 24.3578 22.76C24.2645 22.88 24.1245 22.94 23.9378 22.94ZM32.8378 6.66C32.5578 6.66 32.2245 6.82 31.8378 7.14C31.4645 7.46 31.0578 7.88667 30.6178 8.42C30.1911 8.94 29.7578 9.52 29.3178 10.16C28.8778 10.7867 28.4511 11.4267 28.0378 12.08C27.6245 12.7333 27.2445 13.34 26.8978 13.9C26.5645 14.46 26.2911 14.9267 26.0778 15.3C27.1178 15.2733 28.0311 15.0667 28.8178 14.68C29.6045 14.28 30.2778 13.7733 30.8378 13.16C31.3978 12.5333 31.8511 11.86 32.1978 11.14C32.5578 10.4067 32.8178 9.7 32.9778 9.02C33.1378 8.32667 33.2178 7.72667 33.2178 7.22C33.2178 6.84667 33.0911 6.66 32.8378 6.66ZM39.4028 17.2C38.6161 17.2 37.9961 16.9 37.5428 16.3C37.0895 15.7 36.8628 14.92 36.8628 13.96C36.8628 13.6133 36.9095 13.2467 37.0028 12.86C37.1095 12.46 37.2428 12.1 37.4028 11.78C37.3095 11.6867 37.2361 11.56 37.1828 11.4C37.1295 11.2267 37.1028 11.0133 37.1028 10.76C37.1028 9.97333 37.2361 9.25333 37.5028 8.6C37.7695 7.94667 38.1228 7.38 38.5628 6.9C39.0028 6.40667 39.4895 6.02667 40.0228 5.76C40.5695 5.49333 41.1228 5.36 41.6828 5.36C42.6028 5.36 43.3495 5.69333 43.9228 6.36C44.4961 7.01333 44.7828 8.01333 44.7828 9.36C44.7828 10.0667 44.6761 10.7867 44.4628 11.52C44.2628 12.2533 43.9828 12.96 43.6228 13.64C43.2761 14.32 42.8695 14.9267 42.4028 15.46C41.9495 15.9933 41.4628 16.42 40.9428 16.74C40.4361 17.0467 39.9228 17.2 39.4028 17.2ZM38.7228 11.1C38.8028 11.2067 38.8428 11.3467 38.8428 11.52C38.8428 11.72 38.8028 11.92 38.7228 12.12C38.6561 12.32 38.5828 12.5933 38.5028 12.94C38.4228 13.2867 38.3828 13.78 38.3828 14.42C38.3828 15.06 38.6361 15.38 39.1428 15.38C39.7028 15.38 40.2228 15.16 40.7028 14.72C41.1828 14.2667 41.6095 13.6867 41.9828 12.98C42.3561 12.2733 42.6428 11.52 42.8428 10.72C43.0561 9.90667 43.1628 9.14 43.1628 8.42C43.1628 7.95333 43.0761 7.62667 42.9028 7.44C42.7295 7.24 42.4161 7.14 41.9628 7.14C41.4961 7.14 41.0095 7.3 40.5028 7.62C40.0095 7.92667 39.5961 8.34667 39.2628 8.88C38.9295 9.41333 38.7628 10.0133 38.7628 10.68C38.7628 10.8267 38.7495 10.9667 38.7228 11.1ZM50.1814 17.44C49.8881 17.44 49.6614 17.3533 49.5014 17.18C49.3547 17.02 49.2814 16.8333 49.2814 16.62C49.2814 16.4333 49.3614 16.26 49.5214 16.1C49.6947 15.9267 49.9281 15.7733 50.2214 15.64C50.7547 15.36 51.2547 15.08 51.7214 14.8C52.2014 14.52 52.5881 14.22 52.8814 13.9C53.1747 13.58 53.3214 13.24 53.3214 12.88C53.3214 12.5733 53.2214 12.34 53.0214 12.18C52.8214 12.0067 52.5481 11.92 52.2014 11.92C52.0014 11.92 51.7214 11.96 51.3614 12.04C51.0014 12.1067 50.6081 12.1867 50.1814 12.28C49.7681 12.36 49.3614 12.44 48.9614 12.52C48.5614 12.5867 48.2214 12.62 47.9414 12.62C47.4347 12.62 47.0547 12.5 46.8014 12.26C46.5481 12.0067 46.4214 11.6667 46.4214 11.24C46.4214 11.0267 46.5481 10.7067 46.8014 10.28C47.0547 9.85333 47.3881 9.38 47.8014 8.86C48.2281 8.32667 48.6947 7.79333 49.2014 7.26C49.7081 6.72667 50.2214 6.23333 50.7414 5.78C51.2747 5.32667 51.7681 4.96 52.2214 4.68C52.6881 4.4 53.0747 4.26 53.3814 4.26C53.6881 4.26 53.9214 4.36 54.0814 4.56C54.2414 4.76 54.3214 5.01333 54.3214 5.32C54.3214 5.56 54.2814 5.76667 54.2014 5.94C54.1214 6.1 53.9547 6.22667 53.7014 6.32C53.4614 6.41333 53.0881 6.46667 52.5814 6.48C52.0614 6.89333 51.5081 7.36667 50.9214 7.9C50.3481 8.42 49.8214 8.96 49.3414 9.52C48.8747 10.0667 48.5347 10.5933 48.3214 11.1C48.7614 10.9533 49.2947 10.8267 49.9214 10.72C50.5614 10.6 51.2081 10.54 51.8614 10.54C52.8881 10.54 53.6481 10.7733 54.1414 11.24C54.6481 11.6933 54.9014 12.2933 54.9014 13.04C54.9014 13.52 54.7481 14.02 54.4414 14.54C54.1481 15.0467 53.7614 15.52 53.2814 15.96C52.8014 16.4 52.2881 16.7533 51.7414 17.02C51.1947 17.3 50.6747 17.44 50.1814 17.44ZM65.0689 8.38C65.0689 8.80667 64.9356 9.22667 64.6689 9.64C64.4022 10.04 64.0489 10.4267 63.6089 10.8C63.1689 11.16 62.6822 11.5 62.1489 11.82C61.6156 12.14 61.0822 12.42 60.5489 12.66C60.0156 12.9 59.5289 13.0933 59.0889 13.24C58.9822 13.76 58.9289 14.22 58.9289 14.62C58.9289 14.8733 58.9889 15.0533 59.1089 15.16C59.2289 15.2667 59.4156 15.32 59.6689 15.32C60.2289 15.32 60.8222 15.22 61.4489 15.02C62.0756 14.82 62.7156 14.56 63.3689 14.24C64.0222 13.92 64.6489 13.58 65.2489 13.22C65.8489 12.86 66.3956 12.52 66.8889 12.2C67.3956 11.88 67.8156 11.62 68.1489 11.42C68.4822 11.22 68.7022 11.12 68.8089 11.12C68.9689 11.12 69.0889 11.1733 69.1689 11.28C69.2622 11.3733 69.3089 11.4867 69.3089 11.62C69.3089 11.7267 69.1422 11.9333 68.8089 12.24C68.4889 12.5467 68.0556 12.9067 67.5089 13.32C66.9622 13.72 66.3489 14.1333 65.6689 14.56C64.9889 14.9867 64.2822 15.3867 63.5489 15.76C62.8289 16.1333 62.1289 16.4333 61.4489 16.66C60.7822 16.8867 60.1822 17 59.6489 17C58.9556 17 58.4156 16.74 58.0289 16.22C57.6422 15.7 57.4489 14.8933 57.4489 13.8C57.4489 13.0667 57.5422 12.3267 57.7289 11.58C57.9289 10.8333 58.1956 10.12 58.5289 9.44C58.8756 8.74667 59.2556 8.13333 59.6689 7.6C60.0956 7.05333 60.5422 6.62667 61.0089 6.32C61.4756 6 61.9289 5.84 62.3689 5.84C63.2089 5.84 63.8689 6.07333 64.3489 6.54C64.8289 7.00667 65.0689 7.62 65.0689 8.38ZM59.5089 11.7C59.9222 11.4467 60.3489 11.18 60.7889 10.9C61.2289 10.62 61.6356 10.3333 62.0089 10.04C62.3822 9.74667 62.6822 9.44 62.9089 9.12C63.1489 8.78667 63.2689 8.44667 63.2689 8.1C63.2689 7.60667 63.0022 7.36 62.4689 7.36C62.1356 7.36 61.7822 7.57333 61.4089 8C61.0489 8.41333 60.7022 8.95333 60.3689 9.62C60.0356 10.2867 59.7489 10.98 59.5089 11.7ZM76.0509 6.94C76.4109 6.07333 76.7509 5.18 77.0709 4.26C77.4043 3.34 77.7043 2.4 77.9709 1.44C78.0509 1.17333 78.1709 0.959999 78.3309 0.799999C78.5043 0.626666 78.7043 0.54 78.9309 0.54C79.0909 0.54 79.2243 0.6 79.3309 0.72C79.4509 0.839999 79.5109 0.999999 79.5109 1.2C79.5109 1.45333 79.4109 1.89333 79.2109 2.52C79.0243 3.14667 78.7843 3.94 78.4909 4.9C78.2109 5.86 77.9243 6.96667 77.6309 8.22C77.3509 9.46 77.1109 10.8333 76.9109 12.34C76.7243 13.8467 76.6309 15.4533 76.6309 17.16C76.6309 17.5333 76.5509 17.84 76.3909 18.08C76.2309 18.3333 76.0376 18.46 75.8109 18.46C75.6776 18.46 75.5509 18.4267 75.4309 18.36C75.3109 18.2933 75.2043 18.1333 75.1109 17.88C75.0309 17.64 74.9643 17.26 74.9109 16.74C74.8576 16.2067 74.8309 15.4867 74.8309 14.58C74.8309 13.8867 74.8709 13.1333 74.9509 12.32C74.3376 13.4267 73.6709 14.3933 72.9509 15.22C72.2443 16.0333 71.5576 16.66 70.8909 17.1C70.2376 17.54 69.6776 17.76 69.2109 17.76C68.6376 17.76 68.1709 17.5667 67.8109 17.18C67.4643 16.8067 67.2909 16.2467 67.2909 15.5C67.2909 14.8467 67.4443 14.1733 67.7509 13.48C68.0576 12.7867 68.4643 12.1067 68.9709 11.44C69.4776 10.76 70.0376 10.12 70.6509 9.52C71.2643 8.92 71.8776 8.39333 72.4909 7.94C73.1176 7.47333 73.6976 7.11333 74.2309 6.86C74.7643 6.59333 75.1976 6.46 75.5309 6.46C75.6643 6.46 75.7843 6.50667 75.8909 6.6C75.9976 6.69333 76.0509 6.80667 76.0509 6.94ZM75.7909 7.56C75.6976 7.65333 75.5843 7.74667 75.4509 7.84C75.3176 7.93333 75.1709 8.03333 75.0109 8.14C74.4243 8.55333 73.7776 9.03333 73.0709 9.58C72.3776 10.1133 71.7109 10.7 71.0709 11.34C70.4443 11.9667 69.9309 12.6267 69.5309 13.32C69.1309 14.0133 68.9309 14.7267 68.9309 15.46C68.9309 15.78 69.0909 15.94 69.4109 15.94C69.8509 15.94 70.3309 15.7333 70.8509 15.32C71.3843 14.8933 71.9309 14.3067 72.4909 13.56C73.0509 12.8 73.6109 11.9133 74.1709 10.9C74.7309 9.87333 75.2709 8.76 75.7909 7.56Z" fill="#080808"/>
</svg>
