<svg width="1159" height="198" viewBox="0 0 1159 198" fill="none" xmlns="http://www.w3.org/2000/svg">
<mask id="path-1-outside-1_2038_324" maskUnits="userSpaceOnUse" x="-1" y="-1" width="1161" height="200" fill="black">
<rect fill="white" x="-1" y="-1" width="1161" height="200"/>
<path d="M0.400977 150V42.375H33.201V150H0.400977ZM0.400977 30.075V0.349996H33.201V30.075H0.400977ZM96.8599 152.05C87.7032 152.05 78.7516 150.547 70.0049 147.54C61.2582 144.533 53.8782 140.092 47.8649 134.215L59.1399 113.51C65.6999 118.293 72.0549 121.915 78.2049 124.375C84.4916 126.835 90.3682 128.065 95.8349 128.065C100.072 128.065 103.352 127.382 105.675 126.015C107.998 124.648 109.16 122.53 109.16 119.66C109.16 117.61 108.477 116.038 107.11 114.945C105.743 113.715 103.625 112.622 100.755 111.665C98.0216 110.708 94.6049 109.683 90.5049 108.59C82.3049 105.857 75.4716 103.192 70.0049 100.595C64.5382 97.9983 60.4382 94.855 57.7049 91.165C54.9716 87.3383 53.6049 82.4183 53.6049 76.405C53.6049 69.1617 55.3815 62.875 58.9349 57.545C62.6249 52.0783 67.8182 47.8417 74.5149 44.835C81.2116 41.8283 89.2066 40.325 98.4999 40.325C105.88 40.325 113.055 41.4867 120.025 43.81C127.132 46.1333 133.76 50.0283 139.91 55.495L127.2 75.995C121.05 71.7583 115.583 68.6833 110.8 66.77C106.017 64.8567 101.37 63.9 96.8599 63.9C94.5366 63.9 92.4182 64.1733 90.5049 64.72C88.5916 65.2667 87.0199 66.2233 85.7899 67.59C84.6966 68.82 84.1499 70.46 84.1499 72.51C84.1499 74.56 84.6966 76.2 85.7899 77.43C87.0199 78.66 88.8649 79.7533 91.3249 80.71C93.9216 81.53 97.1332 82.555 100.96 83.785C109.843 86.3817 117.223 89.0467 123.1 91.78C128.977 94.3767 133.35 97.6567 136.22 101.62C139.227 105.447 140.73 110.572 140.73 116.995C140.73 127.928 136.767 136.538 128.84 142.825C121.05 148.975 110.39 152.05 96.8599 152.05ZM275.101 144.26C272.094 145.49 268.746 146.72 265.056 147.95C261.503 149.18 257.744 150.137 253.781 150.82C249.818 151.64 245.923 152.05 242.096 152.05C236.629 152.05 231.573 151.162 226.926 149.385C222.416 147.472 218.794 144.397 216.061 140.16C213.464 135.923 212.166 130.32 212.166 123.35V67.18H198.431V42.375H212.166V8.13999H244.966V42.375H266.901V67.18H244.966V112.075C244.966 115.628 245.854 118.225 247.631 119.865C249.408 121.368 251.663 122.12 254.396 122.12C256.719 122.12 259.179 121.71 261.776 120.89C264.509 120.07 266.833 119.182 268.746 118.225L275.101 144.26ZM391.611 150H358.811V89.525C358.811 82.555 357.376 77.43 354.506 74.15C351.773 70.87 348.083 69.23 343.436 69.23C340.976 69.23 338.175 70.05 335.031 71.69C332.025 73.1933 329.223 75.38 326.626 78.25C324.03 81.12 322.048 84.4683 320.681 88.295V150H287.881V0.349996H320.681V60.415C324.645 53.9917 329.838 49.0717 336.261 45.655C342.821 42.1017 349.996 40.325 357.786 40.325C365.166 40.325 371.043 41.555 375.416 44.015C379.926 46.475 383.343 49.755 385.666 53.855C387.99 57.8183 389.561 62.1917 390.381 66.975C391.201 71.7583 391.611 76.4733 391.611 81.12V150ZM413.404 150V42.375H446.204V150H413.404ZM413.404 30.075V0.349996H446.204V30.075H413.404ZM509.863 152.05C500.706 152.05 491.754 150.547 483.008 147.54C474.261 144.533 466.881 140.092 460.868 134.215L472.143 113.51C478.703 118.293 485.058 121.915 491.208 124.375C497.494 126.835 503.371 128.065 508.838 128.065C513.074 128.065 516.354 127.382 518.678 126.015C521.001 124.648 522.163 122.53 522.163 119.66C522.163 117.61 521.479 116.038 520.113 114.945C518.746 113.715 516.628 112.622 513.758 111.665C511.024 110.708 507.608 109.683 503.508 108.59C495.308 105.857 488.474 103.192 483.008 100.595C477.541 97.9983 473.441 94.855 470.708 91.165C467.974 87.3383 466.608 82.4183 466.608 76.405C466.608 69.1617 468.384 62.875 471.938 57.545C475.628 52.0783 480.821 47.8417 487.518 44.835C494.214 41.8283 502.209 40.325 511.503 40.325C518.883 40.325 526.058 41.4867 533.028 43.81C540.134 46.1333 546.763 50.0283 552.913 55.495L540.203 75.995C534.053 71.7583 528.586 68.6833 523.803 66.77C519.019 64.8567 514.373 63.9 509.863 63.9C507.539 63.9 505.421 64.1733 503.508 64.72C501.594 65.2667 500.023 66.2233 498.793 67.59C497.699 68.82 497.153 70.46 497.153 72.51C497.153 74.56 497.699 76.2 498.793 77.43C500.023 78.66 501.868 79.7533 504.328 80.71C506.924 81.53 510.136 82.555 513.963 83.785C522.846 86.3817 530.226 89.0467 536.103 91.78C541.979 94.3767 546.353 97.6567 549.223 101.62C552.229 105.447 553.733 110.572 553.733 116.995C553.733 127.928 549.769 136.538 541.843 142.825C534.053 148.975 523.393 152.05 509.863 152.05ZM613.618 166.195C616.352 167.015 618.88 167.63 621.203 168.04C623.663 168.587 625.85 168.86 627.763 168.86C630.36 168.86 632.547 168.245 634.323 167.015C636.237 165.922 637.877 163.94 639.243 161.07C640.61 158.337 641.84 154.647 642.933 150L601.933 42.375H635.758L660.768 116.38L682.088 42.375H713.043L672.043 167.425C670.13 173.302 667.192 178.495 663.228 183.005C659.265 187.515 654.482 191 648.878 193.46C643.275 196.057 637.125 197.355 630.428 197.355C627.558 197.355 624.757 197.082 622.023 196.535C619.29 196.125 616.488 195.373 613.618 194.28V166.195ZM773.755 152.05C764.599 152.05 756.399 150.547 749.155 147.54C742.049 144.533 736.035 140.433 731.115 135.24C726.195 130.047 722.437 124.102 719.84 117.405C717.38 110.708 716.15 103.67 716.15 96.29C716.15 88.7733 717.38 81.6667 719.84 74.97C722.437 68.2733 726.195 62.3283 731.115 57.135C736.035 51.9417 742.049 47.8417 749.155 44.835C756.399 41.8283 764.599 40.325 773.755 40.325C782.912 40.325 791.044 41.8283 798.15 44.835C805.257 47.8417 811.27 51.9417 816.19 57.135C821.11 62.3283 824.869 68.2733 827.465 74.97C830.062 81.6667 831.36 88.7733 831.36 96.29C831.36 103.67 830.062 110.708 827.465 117.405C824.869 124.102 821.11 130.047 816.19 135.24C811.27 140.433 805.257 144.533 798.15 147.54C791.044 150.547 782.912 152.05 773.755 152.05ZM749.77 96.29C749.77 101.893 750.795 106.813 752.845 111.05C755.032 115.287 757.902 118.567 761.455 120.89C765.009 123.213 769.109 124.375 773.755 124.375C778.265 124.375 782.297 123.213 785.85 120.89C789.54 118.43 792.41 115.082 794.46 110.845C796.51 106.608 797.535 101.757 797.535 96.29C797.535 90.6867 796.51 85.7667 794.46 81.53C792.41 77.2933 789.54 74.0133 785.85 71.69C782.297 69.3667 778.265 68.205 773.755 68.205C769.109 68.205 765.009 69.3667 761.455 71.69C757.902 74.0133 755.032 77.2933 752.845 81.53C750.795 85.7667 749.77 90.6867 749.77 96.29ZM846.603 111.255V42.375H879.403V104.08C879.403 110.64 880.701 115.697 883.298 119.25C885.894 122.667 889.584 124.375 894.368 124.375C897.374 124.375 900.244 123.897 902.978 122.94C905.711 121.847 908.376 120.138 910.973 117.815C913.569 115.492 915.893 112.485 917.943 108.795V42.375H950.743V113.51C950.743 116.79 951.221 119.113 952.178 120.48C953.271 121.71 955.116 122.462 957.713 122.735V150C954.706 150.547 952.041 150.957 949.718 151.23C947.531 151.503 945.549 151.64 943.773 151.64C938.033 151.64 933.454 150.478 930.038 148.155C926.621 145.695 924.503 142.278 923.683 137.905L923.068 131.345C918.148 138.452 911.998 143.713 904.618 147.13C897.374 150.41 889.243 152.05 880.223 152.05C869.289 152.05 860.953 148.565 855.213 141.595C849.473 134.625 846.603 124.512 846.603 111.255ZM987.223 99.775C987.223 95.5383 987.633 91.575 988.453 87.885C989.273 84.195 990.845 80.71 993.168 77.43C995.628 74.15 999.181 71.2117 1003.83 68.615C1005.6 67.5217 1007.93 66.2917 1010.8 64.925C1013.8 63.4217 1016.74 61.645 1019.61 59.595C1022.48 57.545 1024.87 55.1533 1026.79 52.42C1028.84 49.6867 1029.86 46.68 1029.86 43.4C1029.86 40.3933 1029.04 37.865 1027.4 35.815C1025.9 33.6283 1023.92 31.9883 1021.46 30.895C1019.13 29.665 1016.54 29.05 1013.67 29.05C1010.11 29.05 1006.97 29.87 1004.24 31.51C1001.64 33.15 999.455 35.1317 997.678 37.455C995.901 39.6417 994.33 41.76 992.963 43.81L971.848 29.05C974.171 23.4467 977.451 18.7317 981.688 14.905C986.061 10.9417 991.05 7.935 996.653 5.885C1002.39 3.69833 1008.47 2.60499 1014.9 2.60499C1019.95 2.60499 1025.08 3.35666 1030.27 4.86C1035.47 6.36333 1040.18 8.75499 1044.42 12.035C1048.65 15.315 1052 19.62 1054.46 24.95C1057.06 30.1433 1058.36 36.3617 1058.36 43.605C1058.36 47.5683 1057.95 51.19 1057.13 54.47C1056.44 57.6133 1055.28 60.5517 1053.64 63.285C1052 65.8817 1049.95 68.3417 1047.49 70.665C1045.03 72.8517 1042.3 74.97 1039.29 77.02C1035.47 79.48 1031.64 81.735 1027.81 83.785C1023.99 85.6983 1020.77 87.885 1018.18 90.345C1015.58 92.805 1014.28 95.9483 1014.28 99.775H987.223ZM987.838 150V119.25H1014.69V150H987.838ZM1087.72 99.775C1087.72 95.5383 1088.13 91.575 1088.95 87.885C1089.77 84.195 1091.34 80.71 1093.67 77.43C1096.13 74.15 1099.68 71.2117 1104.33 68.615C1106.1 67.5217 1108.43 66.2917 1111.3 64.925C1114.3 63.4217 1117.24 61.645 1120.11 59.595C1122.98 57.545 1125.37 55.1533 1127.29 52.42C1129.34 49.6867 1130.36 46.68 1130.36 43.4C1130.36 40.3933 1129.54 37.865 1127.9 35.815C1126.4 33.6283 1124.42 31.9883 1121.96 30.895C1119.63 29.665 1117.04 29.05 1114.17 29.05C1110.61 29.05 1107.47 29.87 1104.74 31.51C1102.14 33.15 1099.95 35.1317 1098.18 37.455C1096.4 39.6417 1094.83 41.76 1093.46 43.81L1072.35 29.05C1074.67 23.4467 1077.95 18.7317 1082.19 14.905C1086.56 10.9417 1091.55 7.935 1097.15 5.885C1102.89 3.69833 1108.97 2.60499 1115.4 2.60499C1120.45 2.60499 1125.58 3.35666 1130.77 4.86C1135.96 6.36333 1140.68 8.75499 1144.92 12.035C1149.15 15.315 1152.5 19.62 1154.96 24.95C1157.56 30.1433 1158.86 36.3617 1158.86 43.605C1158.86 47.5683 1158.45 51.19 1157.63 54.47C1156.94 57.6133 1155.78 60.5517 1154.14 63.285C1152.5 65.8817 1150.45 68.3417 1147.99 70.665C1145.53 72.8517 1142.8 74.97 1139.79 77.02C1135.96 79.48 1132.14 81.735 1128.31 83.785C1124.48 85.6983 1121.27 87.885 1118.68 90.345C1116.08 92.805 1114.78 95.9483 1114.78 99.775H1087.72ZM1088.34 150V119.25H1115.19V150H1088.34Z"/>
</mask>
<path d="M0.400977 150V42.375H33.201V150H0.400977ZM0.400977 30.075V0.349996H33.201V30.075H0.400977ZM96.8599 152.05C87.7032 152.05 78.7516 150.547 70.0049 147.54C61.2582 144.533 53.8782 140.092 47.8649 134.215L59.1399 113.51C65.6999 118.293 72.0549 121.915 78.2049 124.375C84.4916 126.835 90.3682 128.065 95.8349 128.065C100.072 128.065 103.352 127.382 105.675 126.015C107.998 124.648 109.16 122.53 109.16 119.66C109.16 117.61 108.477 116.038 107.11 114.945C105.743 113.715 103.625 112.622 100.755 111.665C98.0216 110.708 94.6049 109.683 90.5049 108.59C82.3049 105.857 75.4716 103.192 70.0049 100.595C64.5382 97.9983 60.4382 94.855 57.7049 91.165C54.9716 87.3383 53.6049 82.4183 53.6049 76.405C53.6049 69.1617 55.3815 62.875 58.9349 57.545C62.6249 52.0783 67.8182 47.8417 74.5149 44.835C81.2116 41.8283 89.2066 40.325 98.4999 40.325C105.88 40.325 113.055 41.4867 120.025 43.81C127.132 46.1333 133.76 50.0283 139.91 55.495L127.2 75.995C121.05 71.7583 115.583 68.6833 110.8 66.77C106.017 64.8567 101.37 63.9 96.8599 63.9C94.5366 63.9 92.4182 64.1733 90.5049 64.72C88.5916 65.2667 87.0199 66.2233 85.7899 67.59C84.6966 68.82 84.1499 70.46 84.1499 72.51C84.1499 74.56 84.6966 76.2 85.7899 77.43C87.0199 78.66 88.8649 79.7533 91.3249 80.71C93.9216 81.53 97.1332 82.555 100.96 83.785C109.843 86.3817 117.223 89.0467 123.1 91.78C128.977 94.3767 133.35 97.6567 136.22 101.62C139.227 105.447 140.73 110.572 140.73 116.995C140.73 127.928 136.767 136.538 128.84 142.825C121.05 148.975 110.39 152.05 96.8599 152.05ZM275.101 144.26C272.094 145.49 268.746 146.72 265.056 147.95C261.503 149.18 257.744 150.137 253.781 150.82C249.818 151.64 245.923 152.05 242.096 152.05C236.629 152.05 231.573 151.162 226.926 149.385C222.416 147.472 218.794 144.397 216.061 140.16C213.464 135.923 212.166 130.32 212.166 123.35V67.18H198.431V42.375H212.166V8.13999H244.966V42.375H266.901V67.18H244.966V112.075C244.966 115.628 245.854 118.225 247.631 119.865C249.408 121.368 251.663 122.12 254.396 122.12C256.719 122.12 259.179 121.71 261.776 120.89C264.509 120.07 266.833 119.182 268.746 118.225L275.101 144.26ZM391.611 150H358.811V89.525C358.811 82.555 357.376 77.43 354.506 74.15C351.773 70.87 348.083 69.23 343.436 69.23C340.976 69.23 338.175 70.05 335.031 71.69C332.025 73.1933 329.223 75.38 326.626 78.25C324.03 81.12 322.048 84.4683 320.681 88.295V150H287.881V0.349996H320.681V60.415C324.645 53.9917 329.838 49.0717 336.261 45.655C342.821 42.1017 349.996 40.325 357.786 40.325C365.166 40.325 371.043 41.555 375.416 44.015C379.926 46.475 383.343 49.755 385.666 53.855C387.99 57.8183 389.561 62.1917 390.381 66.975C391.201 71.7583 391.611 76.4733 391.611 81.12V150ZM413.404 150V42.375H446.204V150H413.404ZM413.404 30.075V0.349996H446.204V30.075H413.404ZM509.863 152.05C500.706 152.05 491.754 150.547 483.008 147.54C474.261 144.533 466.881 140.092 460.868 134.215L472.143 113.51C478.703 118.293 485.058 121.915 491.208 124.375C497.494 126.835 503.371 128.065 508.838 128.065C513.074 128.065 516.354 127.382 518.678 126.015C521.001 124.648 522.163 122.53 522.163 119.66C522.163 117.61 521.479 116.038 520.113 114.945C518.746 113.715 516.628 112.622 513.758 111.665C511.024 110.708 507.608 109.683 503.508 108.59C495.308 105.857 488.474 103.192 483.008 100.595C477.541 97.9983 473.441 94.855 470.708 91.165C467.974 87.3383 466.608 82.4183 466.608 76.405C466.608 69.1617 468.384 62.875 471.938 57.545C475.628 52.0783 480.821 47.8417 487.518 44.835C494.214 41.8283 502.209 40.325 511.503 40.325C518.883 40.325 526.058 41.4867 533.028 43.81C540.134 46.1333 546.763 50.0283 552.913 55.495L540.203 75.995C534.053 71.7583 528.586 68.6833 523.803 66.77C519.019 64.8567 514.373 63.9 509.863 63.9C507.539 63.9 505.421 64.1733 503.508 64.72C501.594 65.2667 500.023 66.2233 498.793 67.59C497.699 68.82 497.153 70.46 497.153 72.51C497.153 74.56 497.699 76.2 498.793 77.43C500.023 78.66 501.868 79.7533 504.328 80.71C506.924 81.53 510.136 82.555 513.963 83.785C522.846 86.3817 530.226 89.0467 536.103 91.78C541.979 94.3767 546.353 97.6567 549.223 101.62C552.229 105.447 553.733 110.572 553.733 116.995C553.733 127.928 549.769 136.538 541.843 142.825C534.053 148.975 523.393 152.05 509.863 152.05ZM613.618 166.195C616.352 167.015 618.88 167.63 621.203 168.04C623.663 168.587 625.85 168.86 627.763 168.86C630.36 168.86 632.547 168.245 634.323 167.015C636.237 165.922 637.877 163.94 639.243 161.07C640.61 158.337 641.84 154.647 642.933 150L601.933 42.375H635.758L660.768 116.38L682.088 42.375H713.043L672.043 167.425C670.13 173.302 667.192 178.495 663.228 183.005C659.265 187.515 654.482 191 648.878 193.46C643.275 196.057 637.125 197.355 630.428 197.355C627.558 197.355 624.757 197.082 622.023 196.535C619.29 196.125 616.488 195.373 613.618 194.28V166.195ZM773.755 152.05C764.599 152.05 756.399 150.547 749.155 147.54C742.049 144.533 736.035 140.433 731.115 135.24C726.195 130.047 722.437 124.102 719.84 117.405C717.38 110.708 716.15 103.67 716.15 96.29C716.15 88.7733 717.38 81.6667 719.84 74.97C722.437 68.2733 726.195 62.3283 731.115 57.135C736.035 51.9417 742.049 47.8417 749.155 44.835C756.399 41.8283 764.599 40.325 773.755 40.325C782.912 40.325 791.044 41.8283 798.15 44.835C805.257 47.8417 811.27 51.9417 816.19 57.135C821.11 62.3283 824.869 68.2733 827.465 74.97C830.062 81.6667 831.36 88.7733 831.36 96.29C831.36 103.67 830.062 110.708 827.465 117.405C824.869 124.102 821.11 130.047 816.19 135.24C811.27 140.433 805.257 144.533 798.15 147.54C791.044 150.547 782.912 152.05 773.755 152.05ZM749.77 96.29C749.77 101.893 750.795 106.813 752.845 111.05C755.032 115.287 757.902 118.567 761.455 120.89C765.009 123.213 769.109 124.375 773.755 124.375C778.265 124.375 782.297 123.213 785.85 120.89C789.54 118.43 792.41 115.082 794.46 110.845C796.51 106.608 797.535 101.757 797.535 96.29C797.535 90.6867 796.51 85.7667 794.46 81.53C792.41 77.2933 789.54 74.0133 785.85 71.69C782.297 69.3667 778.265 68.205 773.755 68.205C769.109 68.205 765.009 69.3667 761.455 71.69C757.902 74.0133 755.032 77.2933 752.845 81.53C750.795 85.7667 749.77 90.6867 749.77 96.29ZM846.603 111.255V42.375H879.403V104.08C879.403 110.64 880.701 115.697 883.298 119.25C885.894 122.667 889.584 124.375 894.368 124.375C897.374 124.375 900.244 123.897 902.978 122.94C905.711 121.847 908.376 120.138 910.973 117.815C913.569 115.492 915.893 112.485 917.943 108.795V42.375H950.743V113.51C950.743 116.79 951.221 119.113 952.178 120.48C953.271 121.71 955.116 122.462 957.713 122.735V150C954.706 150.547 952.041 150.957 949.718 151.23C947.531 151.503 945.549 151.64 943.773 151.64C938.033 151.64 933.454 150.478 930.038 148.155C926.621 145.695 924.503 142.278 923.683 137.905L923.068 131.345C918.148 138.452 911.998 143.713 904.618 147.13C897.374 150.41 889.243 152.05 880.223 152.05C869.289 152.05 860.953 148.565 855.213 141.595C849.473 134.625 846.603 124.512 846.603 111.255ZM987.223 99.775C987.223 95.5383 987.633 91.575 988.453 87.885C989.273 84.195 990.845 80.71 993.168 77.43C995.628 74.15 999.181 71.2117 1003.83 68.615C1005.6 67.5217 1007.93 66.2917 1010.8 64.925C1013.8 63.4217 1016.74 61.645 1019.61 59.595C1022.48 57.545 1024.87 55.1533 1026.79 52.42C1028.84 49.6867 1029.86 46.68 1029.86 43.4C1029.86 40.3933 1029.04 37.865 1027.4 35.815C1025.9 33.6283 1023.92 31.9883 1021.46 30.895C1019.13 29.665 1016.54 29.05 1013.67 29.05C1010.11 29.05 1006.97 29.87 1004.24 31.51C1001.64 33.15 999.455 35.1317 997.678 37.455C995.901 39.6417 994.33 41.76 992.963 43.81L971.848 29.05C974.171 23.4467 977.451 18.7317 981.688 14.905C986.061 10.9417 991.05 7.935 996.653 5.885C1002.39 3.69833 1008.47 2.60499 1014.9 2.60499C1019.95 2.60499 1025.08 3.35666 1030.27 4.86C1035.47 6.36333 1040.18 8.75499 1044.42 12.035C1048.65 15.315 1052 19.62 1054.46 24.95C1057.06 30.1433 1058.36 36.3617 1058.36 43.605C1058.36 47.5683 1057.95 51.19 1057.13 54.47C1056.44 57.6133 1055.28 60.5517 1053.64 63.285C1052 65.8817 1049.95 68.3417 1047.49 70.665C1045.03 72.8517 1042.3 74.97 1039.29 77.02C1035.47 79.48 1031.64 81.735 1027.81 83.785C1023.99 85.6983 1020.77 87.885 1018.18 90.345C1015.58 92.805 1014.28 95.9483 1014.28 99.775H987.223ZM987.838 150V119.25H1014.69V150H987.838ZM1087.72 99.775C1087.72 95.5383 1088.13 91.575 1088.95 87.885C1089.77 84.195 1091.34 80.71 1093.67 77.43C1096.13 74.15 1099.68 71.2117 1104.33 68.615C1106.1 67.5217 1108.43 66.2917 1111.3 64.925C1114.3 63.4217 1117.24 61.645 1120.11 59.595C1122.98 57.545 1125.37 55.1533 1127.29 52.42C1129.34 49.6867 1130.36 46.68 1130.36 43.4C1130.36 40.3933 1129.54 37.865 1127.9 35.815C1126.4 33.6283 1124.42 31.9883 1121.96 30.895C1119.63 29.665 1117.04 29.05 1114.17 29.05C1110.61 29.05 1107.47 29.87 1104.74 31.51C1102.14 33.15 1099.95 35.1317 1098.18 37.455C1096.4 39.6417 1094.83 41.76 1093.46 43.81L1072.35 29.05C1074.67 23.4467 1077.95 18.7317 1082.19 14.905C1086.56 10.9417 1091.55 7.935 1097.15 5.885C1102.89 3.69833 1108.97 2.60499 1115.4 2.60499C1120.45 2.60499 1125.58 3.35666 1130.77 4.86C1135.96 6.36333 1140.68 8.75499 1144.92 12.035C1149.15 15.315 1152.5 19.62 1154.96 24.95C1157.56 30.1433 1158.86 36.3617 1158.86 43.605C1158.86 47.5683 1158.45 51.19 1157.63 54.47C1156.94 57.6133 1155.78 60.5517 1154.14 63.285C1152.5 65.8817 1150.45 68.3417 1147.99 70.665C1145.53 72.8517 1142.8 74.97 1139.79 77.02C1135.96 79.48 1132.14 81.735 1128.31 83.785C1124.48 85.6983 1121.27 87.885 1118.68 90.345C1116.08 92.805 1114.78 95.9483 1114.78 99.775H1087.72ZM1088.34 150V119.25H1115.19V150H1088.34Z" fill="#252121" fill-opacity="0.66"/>
<path d="M0.400977 150H-0.599023V151H0.400977V150ZM0.400977 42.375V41.375H-0.599023V42.375H0.400977ZM33.201 42.375H34.201V41.375H33.201V42.375ZM33.201 150V151H34.201V150H33.201ZM0.400977 30.075H-0.599023V31.075H0.400977V30.075ZM0.400977 0.349995V-0.650005H-0.599023V0.349995H0.400977ZM33.201 0.349995H34.201V-0.650005H33.201V0.349995ZM33.201 30.075V31.075H34.201V30.075H33.201ZM1.40098 150V42.375H-0.599023V150H1.40098ZM0.400977 43.375H33.201V41.375H0.400977V43.375ZM32.201 42.375V150H34.201V42.375H32.201ZM33.201 149H0.400977V151H33.201V149ZM1.40098 30.075V0.349995H-0.599023V30.075H1.40098ZM0.400977 1.34999H33.201V-0.650005H0.400977V1.34999ZM32.201 0.349995V30.075H34.201V0.349995H32.201ZM33.201 29.075H0.400977V31.075H33.201V29.075ZM70.0049 147.54L69.6798 148.486L70.0049 147.54ZM47.8649 134.215L46.9867 133.737L46.6248 134.401L47.166 134.93L47.8649 134.215ZM59.1399 113.51L59.7291 112.702L58.8073 112.03L58.2617 113.032L59.1399 113.51ZM78.2049 124.375L77.8335 125.303L77.8405 125.306L78.2049 124.375ZM105.675 126.015L106.182 126.877L105.675 126.015ZM107.11 114.945L106.441 115.688L106.463 115.708L106.485 115.726L107.11 114.945ZM100.755 111.665L100.425 112.609L100.432 112.611L100.439 112.614L100.755 111.665ZM90.5049 108.59L90.1887 109.539L90.2177 109.548L90.2472 109.556L90.5049 108.59ZM70.0049 100.595L69.5758 101.498L70.0049 100.595ZM57.7049 91.165L56.8912 91.7462L56.8962 91.7533L56.9013 91.7602L57.7049 91.165ZM58.9349 57.545L58.106 56.9855L58.1028 56.9903L58.9349 57.545ZM74.5149 44.835L74.9245 45.7473L74.5149 44.835ZM120.025 43.81L119.709 44.7587L119.714 44.7605L120.025 43.81ZM139.91 55.495L140.76 56.0219L141.203 55.3067L140.574 54.7476L139.91 55.495ZM127.2 75.995L126.633 76.8185L127.497 77.4138L128.05 76.5219L127.2 75.995ZM110.8 66.77L110.428 67.6985L110.8 66.77ZM90.5049 64.72L90.7796 65.6815L90.7796 65.6815L90.5049 64.72ZM85.7899 67.59L85.0466 66.921L85.0425 66.9256L85.7899 67.59ZM85.7899 77.43L85.0425 78.0944L85.062 78.1163L85.0828 78.1371L85.7899 77.43ZM91.3249 80.71L90.9624 81.642L90.9927 81.6538L91.0238 81.6636L91.3249 80.71ZM100.96 83.785L100.654 84.737L100.667 84.7411L100.679 84.7448L100.96 83.785ZM123.1 91.78L122.678 92.6867L122.687 92.6908L122.696 92.6947L123.1 91.78ZM136.22 101.62L135.41 102.207L135.421 102.222L135.434 102.238L136.22 101.62ZM128.84 142.825L129.46 143.61L129.461 143.609L128.84 142.825ZM96.8599 151.05C87.815 151.05 78.9731 149.565 70.33 146.594L69.6798 148.486C78.53 151.528 87.5915 153.05 96.8599 153.05V151.05ZM70.33 146.594C61.7093 143.631 54.4609 139.263 48.5638 133.5L47.166 134.93C53.2955 140.92 60.8072 145.436 69.6798 148.486L70.33 146.594ZM48.7431 134.693L60.0181 113.988L58.2617 113.032L46.9867 133.737L48.7431 134.693ZM58.5507 114.318C65.1635 119.14 71.5911 122.807 77.8335 125.303L78.5763 123.447C72.5187 121.023 66.2363 117.447 59.7291 112.702L58.5507 114.318ZM77.8405 125.306C84.2169 127.801 90.218 129.065 95.8349 129.065V127.065C90.5184 127.065 84.7662 125.869 78.5693 123.444L77.8405 125.306ZM95.8349 129.065C100.157 129.065 103.641 128.372 106.182 126.877L105.168 125.153C103.062 126.392 99.986 127.065 95.8349 127.065V129.065ZM106.182 126.877C108.834 125.317 110.16 122.856 110.16 119.66H108.16C108.16 122.204 107.162 123.98 105.168 125.153L106.182 126.877ZM110.16 119.66C110.16 117.364 109.381 115.481 107.735 114.164L106.485 115.726C107.573 116.596 108.16 117.856 108.16 119.66H110.16ZM107.779 114.202C106.265 112.839 103.998 111.692 101.071 110.716L100.439 112.614C103.252 113.551 105.222 114.591 106.441 115.688L107.779 114.202ZM101.085 110.721C98.3198 109.753 94.8769 108.721 90.7626 107.624L90.2472 109.556C94.3329 110.646 97.7233 111.663 100.425 112.609L101.085 110.721ZM90.8211 107.641C82.6448 104.916 75.8521 102.265 70.4339 99.6917L69.5758 101.498C75.091 104.118 81.965 106.797 90.1887 109.539L90.8211 107.641ZM70.4339 99.6917C65.07 97.1439 61.118 94.0927 58.5084 90.5698L56.9013 91.7602C59.7584 95.6173 64.0064 98.8528 69.5758 101.498L70.4339 99.6917ZM58.5186 90.5838C55.9364 86.9686 54.6049 82.2681 54.6049 76.405H52.6049C52.6049 82.5686 54.0067 87.7081 56.8912 91.7462L58.5186 90.5838ZM54.6049 76.405C54.6049 69.3324 56.337 63.2446 59.7669 58.0997L58.1028 56.9903C54.4261 62.5054 52.6049 68.9909 52.6049 76.405H54.6049ZM59.7637 58.1045C63.3381 52.8092 68.3779 48.6865 74.9245 45.7473L74.1053 43.9227C67.2585 46.9968 61.9117 51.3475 58.106 56.9855L59.7637 58.1045ZM74.9245 45.7473C81.4629 42.8116 89.3115 41.325 98.4999 41.325V39.325C89.1016 39.325 80.9602 40.845 74.1053 43.9227L74.9245 45.7473ZM98.4999 41.325C105.773 41.325 112.841 42.4695 119.709 44.7587L120.341 42.8613C113.269 40.5038 105.987 39.325 98.4999 39.325V41.325ZM119.714 44.7605C126.678 47.037 133.188 50.8578 139.246 56.2424L140.574 54.7476C134.332 49.1989 127.585 45.2296 120.336 42.8595L119.714 44.7605ZM139.06 54.9681L126.35 75.4681L128.05 76.5219L140.76 56.0219L139.06 54.9681ZM127.767 75.1715C121.581 70.9097 116.047 67.7917 111.171 65.8415L110.428 67.6985C115.12 69.5749 120.519 72.6069 126.633 76.8185L127.767 75.1715ZM111.171 65.8415C106.286 63.8876 101.514 62.9 96.8599 62.9V64.9C101.226 64.9 105.747 65.8257 110.428 67.6985L111.171 65.8415ZM96.8599 62.9C94.4588 62.9 92.2463 63.1824 90.2302 63.7585L90.7796 65.6815C92.5901 65.1642 94.6143 64.9 96.8599 64.9V62.9ZM90.2302 63.7585C88.1517 64.3523 86.4125 65.4033 85.0466 66.921L86.5332 68.259C87.6272 67.0434 89.0314 66.181 90.7796 65.6815L90.2302 63.7585ZM85.0425 66.9256C83.7492 68.3806 83.1499 70.2776 83.1499 72.51H85.1499C85.1499 70.6424 85.6439 69.2594 86.5373 68.2544L85.0425 66.9256ZM83.1499 72.51C83.1499 74.7424 83.7492 76.6394 85.0425 78.0944L86.5373 76.7656C85.6439 75.7606 85.1499 74.3776 85.1499 72.51H83.1499ZM85.0828 78.1371C86.4482 79.5025 88.4337 80.6586 90.9624 81.642L91.6873 79.778C89.2961 78.8481 87.5916 77.8175 86.497 76.7229L85.0828 78.1371ZM91.0238 81.6636C93.6182 82.4829 96.8281 83.5073 100.654 84.737L101.266 82.833C97.4383 81.6027 94.2249 80.5771 91.626 79.7564L91.0238 81.6636ZM100.679 84.7448C109.533 87.3328 116.862 89.9815 122.678 92.6867L123.522 90.8733C117.585 88.1119 110.153 85.4305 101.24 82.8252L100.679 84.7448ZM122.696 92.6947C128.46 95.2416 132.671 98.4247 135.41 102.207L137.03 101.033C134.028 96.8887 129.493 93.5117 123.504 90.8653L122.696 92.6947ZM135.434 102.238C138.263 105.839 139.73 110.724 139.73 116.995H141.73C141.73 110.419 140.19 105.054 137.006 101.002L135.434 102.238ZM139.73 116.995C139.73 127.651 135.885 135.961 128.218 142.042L129.461 143.609C137.648 137.115 141.73 128.205 141.73 116.995H139.73ZM128.22 142.04C120.661 148.008 110.246 151.05 96.8599 151.05V153.05C110.534 153.05 121.439 149.942 129.46 143.61L128.22 142.04ZM275.101 144.26L275.48 145.186L276.277 144.859L276.072 144.023L275.101 144.26ZM265.056 147.95L264.74 147.001L264.729 147.005L265.056 147.95ZM253.781 150.82L253.611 149.835L253.595 149.837L253.578 149.841L253.781 150.82ZM226.926 149.385L226.535 150.306L226.552 150.313L226.569 150.319L226.926 149.385ZM216.061 140.16L215.208 140.683L215.214 140.692L215.221 140.702L216.061 140.16ZM212.166 67.18H213.166V66.18H212.166V67.18ZM198.431 67.18H197.431V68.18H198.431V67.18ZM198.431 42.375V41.375H197.431V42.375H198.431ZM212.166 42.375V43.375H213.166V42.375H212.166ZM212.166 8.13999V7.13999H211.166V8.13999H212.166ZM244.966 8.13999H245.966V7.13999H244.966V8.13999ZM244.966 42.375H243.966V43.375H244.966V42.375ZM266.901 42.375H267.901V41.375H266.901V42.375ZM266.901 67.18V68.18H267.901V67.18H266.901ZM244.966 67.18V66.18H243.966V67.18H244.966ZM247.631 119.865L246.953 120.6L246.969 120.614L246.985 120.628L247.631 119.865ZM261.776 120.89L261.489 119.932L261.482 119.934L261.475 119.936L261.776 120.89ZM268.746 118.225L269.717 117.988L269.42 116.77L268.299 117.331L268.746 118.225ZM274.722 143.334C271.74 144.555 268.413 145.777 264.74 147.001L265.372 148.899C269.079 147.663 272.449 146.425 275.48 145.186L274.722 143.334ZM264.729 147.005C261.23 148.216 257.525 149.16 253.611 149.835L253.951 151.805C257.964 151.114 261.775 150.144 265.383 148.895L264.729 147.005ZM253.578 149.841C249.678 150.648 245.851 151.05 242.096 151.05V153.05C245.995 153.05 249.957 152.632 253.984 151.799L253.578 149.841ZM242.096 151.05C236.739 151.05 231.805 150.18 227.283 148.451L226.569 150.319C231.34 152.143 236.519 153.05 242.096 153.05V151.05ZM227.317 148.464C222.997 146.632 219.529 143.691 216.901 139.618L215.221 140.702C218.059 145.102 221.835 148.312 226.535 150.306L227.317 148.464ZM216.914 139.637C214.445 135.609 213.166 130.206 213.166 123.35H211.166C211.166 130.434 212.484 136.238 215.208 140.683L216.914 139.637ZM213.166 123.35V67.18H211.166V123.35H213.166ZM212.166 66.18H198.431V68.18H212.166V66.18ZM199.431 67.18V42.375H197.431V67.18H199.431ZM198.431 43.375H212.166V41.375H198.431V43.375ZM213.166 42.375V8.13999H211.166V42.375H213.166ZM212.166 9.13999H244.966V7.13999H212.166V9.13999ZM243.966 8.13999V42.375H245.966V8.13999H243.966ZM244.966 43.375H266.901V41.375H244.966V43.375ZM265.901 42.375V67.18H267.901V42.375H265.901ZM266.901 66.18H244.966V68.18H266.901V66.18ZM243.966 67.18V112.075H245.966V67.18H243.966ZM243.966 112.075C243.966 115.775 244.891 118.696 246.953 120.6L248.309 119.13C246.818 117.754 245.966 115.481 245.966 112.075H243.966ZM246.985 120.628C248.973 122.31 251.47 123.12 254.396 123.12V121.12C251.856 121.12 249.842 120.426 248.277 119.102L246.985 120.628ZM254.396 123.12C256.837 123.12 259.399 122.689 262.077 121.844L261.475 119.936C258.959 120.731 256.601 121.12 254.396 121.12V123.12ZM262.063 121.848C264.835 121.016 267.215 120.109 269.193 119.119L268.299 117.331C266.451 118.255 264.184 119.124 261.489 119.932L262.063 121.848ZM267.775 118.462L274.13 144.497L276.072 144.023L269.717 117.988L267.775 118.462ZM391.611 150V151H392.611V150H391.611ZM358.811 150H357.811V151H358.811V150ZM354.506 74.15L353.738 74.7902L353.746 74.7994L353.754 74.8085L354.506 74.15ZM335.031 71.69L335.479 72.5844L335.486 72.5806L335.494 72.5766L335.031 71.69ZM326.626 78.25L327.368 78.9209L326.626 78.25ZM320.681 88.295L319.74 87.9587L319.681 88.1218V88.295H320.681ZM320.681 150V151H321.681V150H320.681ZM287.881 150H286.881V151H287.881V150ZM287.881 0.349995V-0.650005H286.881V0.349995H287.881ZM320.681 0.349995H321.681V-0.650005H320.681V0.349995ZM320.681 60.415H319.681V63.9401L321.532 60.9401L320.681 60.415ZM336.261 45.655L336.731 46.5379L336.738 46.5343L336.261 45.655ZM375.416 44.015L374.926 44.8866L374.938 44.8929L375.416 44.015ZM385.666 53.855L384.796 54.348L384.8 54.3544L384.804 54.3607L385.666 53.855ZM390.381 66.975L389.396 67.144L390.381 66.975ZM391.611 149H358.811V151H391.611V149ZM359.811 150V89.525H357.811V150H359.811ZM359.811 89.525C359.811 82.4498 358.36 77.0356 355.259 73.4915L353.754 74.8085C356.393 77.8243 357.811 82.6602 357.811 89.525H359.811ZM355.275 73.5098C352.333 69.9799 348.35 68.23 343.436 68.23V70.23C347.816 70.23 351.213 71.7601 353.738 74.7902L355.275 73.5098ZM343.436 68.23C340.76 68.23 337.796 69.1196 334.569 70.8034L335.494 72.5766C338.553 70.9804 341.193 70.23 343.436 70.23V68.23ZM334.584 70.7956C331.451 72.3622 328.552 74.6307 325.885 77.5791L327.368 78.9209C329.894 76.1293 332.599 74.0244 335.479 72.5844L334.584 70.7956ZM325.885 77.5791C323.196 80.5512 321.148 84.0147 319.74 87.9587L321.623 88.6313C322.948 84.922 324.864 81.6888 327.368 78.9209L325.885 77.5791ZM319.681 88.295V150H321.681V88.295H319.681ZM320.681 149H287.881V151H320.681V149ZM288.881 150V0.349995H286.881V150H288.881ZM287.881 1.34999H320.681V-0.650005H287.881V1.34999ZM319.681 0.349995V60.415H321.681V0.349995H319.681ZM321.532 60.9401C325.406 54.6618 330.47 49.868 336.731 46.5379L335.792 44.7721C329.206 48.2753 323.883 53.3215 319.83 59.8899L321.532 60.9401ZM336.738 46.5343C343.145 43.0637 350.155 41.325 357.786 41.325V39.325C349.838 39.325 342.498 41.1396 335.785 44.7757L336.738 46.5343ZM357.786 41.325C365.07 41.325 370.757 42.5412 374.926 44.8866L375.907 43.1434C371.329 40.5687 365.263 39.325 357.786 39.325V41.325ZM374.938 44.8929C379.299 47.2719 382.573 50.4248 384.796 54.348L386.536 53.362C384.113 49.0852 380.554 45.6781 375.895 43.1371L374.938 44.8929ZM384.804 54.3607C387.063 58.2144 388.595 62.4726 389.396 67.144L391.367 66.806C390.528 61.9107 388.917 57.4223 386.529 53.3493L384.804 54.3607ZM389.396 67.144C390.207 71.8739 390.611 76.5324 390.611 81.12H392.611C392.611 76.4143 392.196 71.6427 391.367 66.806L389.396 67.144ZM390.611 81.12V150H392.611V81.12H390.611ZM413.404 150H412.404V151H413.404V150ZM413.404 42.375V41.375H412.404V42.375H413.404ZM446.204 42.375H447.204V41.375H446.204V42.375ZM446.204 150V151H447.204V150H446.204ZM413.404 30.075H412.404V31.075H413.404V30.075ZM413.404 0.349995V-0.650005H412.404V0.349995H413.404ZM446.204 0.349995H447.204V-0.650005H446.204V0.349995ZM446.204 30.075V31.075H447.204V30.075H446.204ZM414.404 150V42.375H412.404V150H414.404ZM413.404 43.375H446.204V41.375H413.404V43.375ZM445.204 42.375V150H447.204V42.375H445.204ZM446.204 149H413.404V151H446.204V149ZM414.404 30.075V0.349995H412.404V30.075H414.404ZM413.404 1.34999H446.204V-0.650005H413.404V1.34999ZM445.204 0.349995V30.075H447.204V0.349995H445.204ZM446.204 29.075H413.404V31.075H446.204V29.075ZM483.008 147.54L482.683 148.486L483.008 147.54ZM460.868 134.215L459.99 133.737L459.628 134.401L460.169 134.93L460.868 134.215ZM472.143 113.51L472.732 112.702L471.81 112.03L471.265 113.032L472.143 113.51ZM491.208 124.375L490.836 125.303L490.843 125.306L491.208 124.375ZM518.678 126.015L519.185 126.877L518.678 126.015ZM520.113 114.945L519.444 115.688L519.465 115.708L519.488 115.726L520.113 114.945ZM513.758 111.665L513.427 112.609L513.435 112.611L513.442 112.614L513.758 111.665ZM503.508 108.59L503.192 109.539L503.221 109.548L503.25 109.556L503.508 108.59ZM483.008 100.595L482.579 101.498L483.008 100.595ZM470.708 91.165L469.894 91.7462L469.899 91.7533L469.904 91.7602L470.708 91.165ZM471.938 57.545L471.109 56.9855L471.106 56.9903L471.938 57.545ZM487.518 44.835L487.927 45.7473L487.518 44.835ZM533.028 43.81L532.712 44.7587L532.717 44.7605L533.028 43.81ZM552.913 55.495L553.763 56.0219L554.206 55.3067L553.577 54.7476L552.913 55.495ZM540.203 75.995L539.635 76.8185L540.5 77.4138L541.053 76.5219L540.203 75.995ZM523.803 66.77L523.431 67.6985L523.803 66.77ZM503.508 64.72L503.783 65.6815V65.6815L503.508 64.72ZM498.793 67.59L498.049 66.921L498.045 66.9256L498.793 67.59ZM498.793 77.43L498.045 78.0944L498.065 78.1163L498.086 78.1371L498.793 77.43ZM504.328 80.71L503.965 81.642L503.996 81.6538L504.027 81.6636L504.328 80.71ZM513.963 83.785L513.657 84.737L513.669 84.7411L513.682 84.7448L513.963 83.785ZM536.103 91.78L535.681 92.6867L535.69 92.6908L535.699 92.6947L536.103 91.78ZM549.223 101.62L548.413 102.207L548.424 102.222L548.437 102.238L549.223 101.62ZM541.843 142.825L542.462 143.61L542.464 143.609L541.843 142.825ZM509.863 151.05C500.818 151.05 491.976 149.565 483.333 146.594L482.683 148.486C491.533 151.528 500.594 153.05 509.863 153.05V151.05ZM483.333 146.594C474.712 143.631 467.464 139.263 461.567 133.5L460.169 134.93C466.298 140.92 473.81 145.436 482.683 148.486L483.333 146.594ZM461.746 134.693L473.021 113.988L471.265 113.032L459.99 133.737L461.746 134.693ZM471.554 114.318C478.166 119.14 484.594 122.807 490.836 125.303L491.579 123.447C485.522 121.023 479.239 117.447 472.732 112.702L471.554 114.318ZM490.843 125.306C497.22 127.801 503.221 129.065 508.838 129.065V127.065C503.521 127.065 497.769 125.869 491.572 123.444L490.843 125.306ZM508.838 129.065C513.16 129.065 516.644 128.372 519.185 126.877L518.171 125.153C516.065 126.392 512.989 127.065 508.838 127.065V129.065ZM519.185 126.877C521.837 125.317 523.163 122.856 523.163 119.66H521.163C521.163 122.204 520.165 123.98 518.171 125.153L519.185 126.877ZM523.163 119.66C523.163 117.364 522.383 115.481 520.737 114.164L519.488 115.726C520.576 116.596 521.163 117.856 521.163 119.66H523.163ZM520.782 114.202C519.268 112.839 517.001 111.692 514.074 110.716L513.442 112.614C516.255 113.551 518.225 114.591 519.444 115.688L520.782 114.202ZM514.088 110.721C511.323 109.753 507.88 108.721 503.766 107.624L503.25 109.556C507.336 110.646 510.726 111.663 513.427 112.609L514.088 110.721ZM503.824 107.641C495.648 104.916 488.855 102.265 483.437 99.6917L482.579 101.498C488.094 104.118 494.968 106.797 503.192 109.539L503.824 107.641ZM483.437 99.6917C478.073 97.1439 474.121 94.0927 471.511 90.5698L469.904 91.7602C472.761 95.6173 477.009 98.8528 482.579 101.498L483.437 99.6917ZM471.522 90.5838C468.939 86.9686 467.608 82.2681 467.608 76.405H465.608C465.608 82.5686 467.01 87.7081 469.894 91.7462L471.522 90.5838ZM467.608 76.405C467.608 69.3324 469.34 63.2446 472.77 58.0997L471.106 56.9903C467.429 62.5054 465.608 68.9909 465.608 76.405H467.608ZM472.767 58.1045C476.341 52.8092 481.381 48.6865 487.927 45.7473L487.108 43.9227C480.261 46.9968 474.915 51.3475 471.109 56.9855L472.767 58.1045ZM487.927 45.7473C494.466 42.8116 502.314 41.325 511.503 41.325V39.325C502.105 39.325 493.963 40.845 487.108 43.9227L487.927 45.7473ZM511.503 41.325C518.776 41.325 525.844 42.4695 532.712 44.7587L533.344 42.8613C526.272 40.5038 518.99 39.325 511.503 39.325V41.325ZM532.717 44.7605C539.681 47.037 546.191 50.8578 552.248 56.2424L553.577 54.7476C547.335 49.1989 540.588 45.2296 533.339 42.8595L532.717 44.7605ZM552.063 54.9681L539.353 75.4681L541.053 76.5219L553.763 56.0219L552.063 54.9681ZM540.77 75.1715C534.584 70.9097 529.05 67.7917 524.174 65.8415L523.431 67.6985C528.123 69.5749 533.522 72.6069 539.635 76.8185L540.77 75.1715ZM524.174 65.8415C519.289 63.8876 514.517 62.9 509.863 62.9V64.9C514.229 64.9 518.75 65.8257 523.431 67.6985L524.174 65.8415ZM509.863 62.9C507.462 62.9 505.249 63.1824 503.233 63.7585L503.783 65.6815C505.593 65.1642 507.617 64.9 509.863 64.9V62.9ZM503.233 63.7585C501.155 64.3523 499.415 65.4033 498.05 66.921L499.536 68.259C500.63 67.0434 502.034 66.181 503.783 65.6815L503.233 63.7585ZM498.045 66.9256C496.752 68.3806 496.153 70.2776 496.153 72.51H498.153C498.153 70.6424 498.647 69.2594 499.54 68.2544L498.045 66.9256ZM496.153 72.51C496.153 74.7424 496.752 76.6394 498.045 78.0944L499.54 76.7656C498.647 75.7606 498.153 74.3776 498.153 72.51H496.153ZM498.086 78.1371C499.451 79.5025 501.437 80.6586 503.965 81.642L504.69 79.778C502.299 78.8481 500.595 77.8175 499.5 76.7229L498.086 78.1371ZM504.027 81.6636C506.621 82.4829 509.831 83.5073 513.657 84.737L514.269 82.833C510.441 81.6027 507.228 80.5771 504.629 79.7564L504.027 81.6636ZM513.682 84.7448C522.536 87.3328 529.865 89.9815 535.681 92.6867L536.525 90.8733C530.587 88.1119 523.156 85.4305 514.243 82.8252L513.682 84.7448ZM535.699 92.6947C541.463 95.2416 545.674 98.4247 548.413 102.207L550.033 101.033C547.031 96.8887 542.496 93.5117 536.507 90.8653L535.699 92.6947ZM548.437 102.238C551.266 105.839 552.733 110.724 552.733 116.995H554.733C554.733 110.419 553.193 105.054 550.009 101.002L548.437 102.238ZM552.733 116.995C552.733 127.651 548.888 135.961 541.221 142.042L542.464 143.609C550.651 137.115 554.733 128.205 554.733 116.995H552.733ZM541.223 142.04C533.664 148.008 523.249 151.05 509.863 151.05V153.05C523.537 153.05 534.441 149.942 542.462 143.61L541.223 142.04ZM613.618 166.195L613.906 165.237L612.618 164.851V166.195H613.618ZM621.203 168.04L621.42 167.064L621.399 167.059L621.377 167.055L621.203 168.04ZM634.323 167.015L633.827 166.147L633.79 166.168L633.754 166.193L634.323 167.015ZM639.243 161.07L638.349 160.623L638.345 160.631L638.341 160.64L639.243 161.07ZM642.933 150L643.907 150.229L643.977 149.931L643.868 149.644L642.933 150ZM601.933 42.375V41.375H600.482L600.999 42.731L601.933 42.375ZM635.758 42.375L636.706 42.0548L636.476 41.375H635.758V42.375ZM660.768 116.38L659.821 116.7L660.844 119.728L661.729 116.657L660.768 116.38ZM682.088 42.375V41.375H681.336L681.128 42.0982L682.088 42.375ZM713.043 42.375L713.994 42.6865L714.424 41.375H713.043V42.375ZM672.043 167.425L671.093 167.113L671.093 167.115L672.043 167.425ZM663.228 183.005L663.98 183.665L663.228 183.005ZM648.878 193.46L648.476 192.544L648.467 192.548L648.458 192.553L648.878 193.46ZM622.023 196.535L622.22 195.554L622.196 195.55L622.172 195.546L622.023 196.535ZM613.618 194.28H612.618V194.969L613.262 195.214L613.618 194.28ZM613.331 167.153C616.094 167.982 618.661 168.607 621.03 169.025L621.377 167.055C619.099 166.653 616.609 166.048 613.906 165.237L613.331 167.153ZM620.987 169.016C623.497 169.574 625.758 169.86 627.763 169.86V167.86C625.942 167.86 623.83 167.599 621.42 167.064L620.987 169.016ZM627.763 169.86C630.522 169.86 632.917 169.205 634.893 167.837L633.754 166.193C632.176 167.285 630.198 167.86 627.763 167.86V169.86ZM634.82 167.883C636.973 166.653 638.729 164.476 640.146 161.5L638.341 160.64C637.024 163.404 635.501 165.19 633.827 166.147L634.82 167.883ZM640.138 161.517C641.553 158.687 642.805 154.914 643.907 150.229L641.96 149.771C640.876 154.379 639.667 157.986 638.349 160.623L640.138 161.517ZM643.868 149.644L602.868 42.019L600.999 42.731L641.999 150.356L643.868 149.644ZM601.933 43.375H635.758V41.375H601.933V43.375ZM634.811 42.6952L659.821 116.7L661.716 116.06L636.706 42.0548L634.811 42.6952ZM661.729 116.657L683.049 42.6518L681.128 42.0982L659.807 116.103L661.729 116.657ZM682.088 43.375H713.043V41.375H682.088V43.375ZM712.093 42.0634L671.093 167.113L672.994 167.737L713.994 42.6865L712.093 42.0634ZM671.093 167.115C669.22 172.867 666.348 177.94 662.477 182.345L663.98 183.665C668.035 179.05 671.04 173.737 672.994 167.735L671.093 167.115ZM662.477 182.345C658.612 186.743 653.949 190.142 648.476 192.544L649.28 194.376C655.015 191.858 659.918 188.287 663.98 183.665L662.477 182.345ZM648.458 192.553C642.997 195.083 636.992 196.355 630.428 196.355V198.355C637.258 198.355 643.553 197.03 649.299 194.367L648.458 192.553ZM630.428 196.355C627.622 196.355 624.886 196.088 622.22 195.554L621.827 197.516C624.627 198.076 627.495 198.355 630.428 198.355V196.355ZM622.172 195.546C619.517 195.148 616.785 194.416 613.974 193.346L613.262 195.214C616.192 196.331 619.063 197.102 621.875 197.524L622.172 195.546ZM614.618 194.28V166.195H612.618V194.28H614.618ZM749.155 147.54L748.766 148.461L748.772 148.464L749.155 147.54ZM719.84 117.405L718.902 117.75L718.905 117.758L718.908 117.767L719.84 117.405ZM719.84 74.97L718.908 74.6085L718.905 74.6168L718.902 74.6252L719.84 74.97ZM731.115 57.135L731.841 57.8227L731.115 57.135ZM749.155 44.835L748.772 43.9114L748.766 43.914L749.155 44.835ZM798.15 44.835L797.761 45.756H797.761L798.15 44.835ZM816.19 57.135L815.465 57.8227L816.19 57.135ZM827.465 74.97L828.398 74.6085L827.465 74.97ZM827.465 117.405L826.533 117.043L827.465 117.405ZM816.19 135.24L815.465 134.552L816.19 135.24ZM798.15 147.54L798.54 148.461L798.15 147.54ZM752.845 111.05L751.945 111.486L751.951 111.497L751.957 111.509L752.845 111.05ZM761.455 120.89L760.908 121.727L761.455 120.89ZM785.85 120.89L786.398 121.727L786.405 121.722L785.85 120.89ZM794.46 110.845L793.56 110.409L794.46 110.845ZM794.46 81.53L793.56 81.9656L794.46 81.53ZM785.85 71.69L785.303 72.527L785.31 72.5317L785.318 72.5362L785.85 71.69ZM761.455 71.69L760.908 70.853L761.455 71.69ZM752.845 81.53L751.957 81.0714L751.951 81.0828L751.945 81.0944L752.845 81.53ZM773.755 151.05C764.709 151.05 756.642 149.565 749.539 146.616L748.772 148.464C756.156 151.528 764.489 153.05 773.755 153.05V151.05ZM749.545 146.619C742.555 143.662 736.659 139.638 731.841 134.552L730.39 135.928C735.412 141.229 741.542 145.405 748.766 148.461L749.545 146.619ZM731.841 134.552C727.011 129.454 723.323 123.62 720.773 117.043L718.908 117.767C721.552 124.584 725.38 130.64 730.39 135.928L731.841 134.552ZM720.779 117.06C718.361 110.478 717.15 103.556 717.15 96.29H715.15C715.15 103.784 716.4 110.939 718.902 117.75L720.779 117.06ZM717.15 96.29C717.15 88.8846 718.362 81.8952 720.779 75.3148L718.902 74.6252C716.399 81.4381 715.15 88.662 715.15 96.29H717.15ZM720.773 75.3315C723.323 68.7555 727.011 62.9214 731.841 57.8227L730.39 56.4473C725.38 61.7353 721.552 67.7912 718.908 74.6085L720.773 75.3315ZM731.841 57.8227C736.659 52.7372 742.555 48.7132 749.545 45.756L748.766 43.914C741.542 46.9701 735.412 51.1461 730.39 56.4473L731.841 57.8227ZM749.539 45.7586C756.642 42.8101 764.709 41.325 773.755 41.325V39.325C764.489 39.325 756.156 40.8466 748.772 43.9114L749.539 45.7586ZM773.755 41.325C782.803 41.325 790.798 42.8102 797.761 45.756L798.54 43.914C791.289 40.8464 783.021 39.325 773.755 39.325V41.325ZM797.761 45.756C804.751 48.7132 810.647 52.7372 815.465 57.8227L816.916 56.4473C811.894 51.1461 805.764 46.9701 798.54 43.914L797.761 45.756ZM815.465 57.8227C820.295 62.9214 823.983 68.7555 826.533 75.3315L828.398 74.6085C825.754 67.7912 821.926 61.7353 816.916 56.4473L815.465 57.8227ZM826.533 75.3315C829.083 81.9076 830.36 88.8911 830.36 96.29H832.36C832.36 88.6555 831.041 81.4257 828.398 74.6085L826.533 75.3315ZM830.36 96.29C830.36 103.55 829.084 110.465 826.533 117.043L828.398 117.767C831.04 110.951 832.36 103.79 832.36 96.29H830.36ZM826.533 117.043C823.983 123.62 820.295 129.454 815.465 134.552L816.916 135.928C821.926 130.64 825.754 124.584 828.398 117.767L826.533 117.043ZM815.465 134.552C810.647 139.638 804.751 143.662 797.761 146.619L798.54 148.461C805.764 145.405 811.894 141.229 816.916 135.928L815.465 134.552ZM797.761 146.619C790.798 149.565 782.803 151.05 773.755 151.05V153.05C783.021 153.05 791.289 151.529 798.54 148.461L797.761 146.619ZM748.77 96.29C748.77 102.016 749.818 107.09 751.945 111.486L753.746 110.614C751.773 106.537 750.77 101.771 750.77 96.29H748.77ZM751.957 111.509C754.213 115.88 757.193 119.298 760.908 121.727L762.003 120.053C758.611 117.835 755.852 114.694 753.734 110.591L751.957 111.509ZM760.908 121.727C764.64 124.167 768.934 125.375 773.755 125.375V123.375C769.284 123.375 765.378 122.26 762.003 120.053L760.908 121.727ZM773.755 125.375C778.447 125.375 782.671 124.163 786.398 121.727L785.303 120.053C781.923 122.263 778.084 123.375 773.755 123.375V125.375ZM786.405 121.722C790.253 119.157 793.238 115.668 795.361 111.281L793.56 110.409C791.583 114.496 788.828 117.703 785.296 120.058L786.405 121.722ZM795.361 111.281C797.486 106.888 798.535 101.883 798.535 96.29H796.535C796.535 101.63 795.535 106.329 793.56 110.409L795.361 111.281ZM798.535 96.29C798.535 90.5643 797.488 85.4904 795.361 81.0944L793.56 81.9656C795.533 86.043 796.535 90.8091 796.535 96.29H798.535ZM795.361 81.0944C793.236 76.7031 790.244 73.2748 786.383 70.8438L785.318 72.5362C788.837 74.7518 791.585 77.8836 793.56 81.9656L795.361 81.0944ZM786.398 70.853C782.671 68.4166 778.447 67.205 773.755 67.205V69.205C778.084 69.205 781.923 70.3168 785.303 72.527L786.398 70.853ZM773.755 67.205C768.934 67.205 764.64 68.4133 760.908 70.853L762.003 72.527C765.378 70.32 769.284 69.205 773.755 69.205V67.205ZM760.908 70.853C757.193 73.2821 754.213 76.7005 751.957 81.0714L753.734 81.9886C755.852 77.8862 758.611 74.7446 762.003 72.527L760.908 70.853ZM751.945 81.0944C749.818 85.4904 748.77 90.5643 748.77 96.29H750.77C750.77 90.8091 751.773 86.043 753.746 81.9656L751.945 81.0944ZM846.603 42.375V41.375H845.603V42.375H846.603ZM879.403 42.375H880.403V41.375H879.403V42.375ZM883.298 119.25L882.49 119.84L882.496 119.848L882.501 119.855L883.298 119.25ZM902.978 122.94L903.308 123.884L903.329 123.877L903.349 123.868L902.978 122.94ZM917.943 108.795L918.817 109.281L918.943 109.054V108.795H917.943ZM917.943 42.375V41.375H916.943V42.375H917.943ZM950.743 42.375H951.743V41.375H950.743V42.375ZM952.178 120.48L951.358 121.053L951.392 121.101L951.43 121.144L952.178 120.48ZM957.713 122.735H958.713V121.835L957.817 121.74L957.713 122.735ZM957.713 150L957.891 150.984L958.713 150.835V150H957.713ZM949.718 151.23L949.601 150.237L949.594 150.238L949.718 151.23ZM930.038 148.155L929.453 148.967L929.464 148.974L929.475 148.982L930.038 148.155ZM923.683 137.905L922.687 137.998L922.691 138.044L922.7 138.089L923.683 137.905ZM923.068 131.345L924.063 131.252L923.807 128.52L922.245 130.776L923.068 131.345ZM904.618 147.13L905.03 148.041L905.038 148.037L904.618 147.13ZM855.213 141.595L855.984 140.959L855.213 141.595ZM847.603 111.255V42.375H845.603V111.255H847.603ZM846.603 43.375H879.403V41.375H846.603V43.375ZM878.403 42.375V104.08H880.403V42.375H878.403ZM878.403 104.08C878.403 110.753 879.72 116.05 882.49 119.84L884.105 118.66C881.681 115.343 880.403 110.527 880.403 104.08H878.403ZM882.501 119.855C885.311 123.552 889.313 125.375 894.368 125.375V123.375C889.856 123.375 886.478 121.782 884.094 118.645L882.501 119.855ZM894.368 125.375C897.482 125.375 900.464 124.879 903.308 123.884L902.647 121.996C900.024 122.914 897.266 123.375 894.368 123.375V125.375ZM903.349 123.868C906.209 122.725 908.971 120.947 911.639 118.56L910.306 117.07C907.781 119.329 905.213 120.969 902.606 122.012L903.349 123.868ZM911.639 118.56C914.335 116.149 916.724 113.048 918.817 109.281L917.068 108.309C915.061 111.922 912.804 114.835 910.306 117.07L911.639 118.56ZM918.943 108.795V42.375H916.943V108.795H918.943ZM917.943 43.375H950.743V41.375H917.943V43.375ZM949.743 42.375V113.51H951.743V42.375H949.743ZM949.743 113.51C949.743 116.829 950.215 119.421 951.358 121.053L952.997 119.907C952.226 118.806 951.743 116.751 951.743 113.51H949.743ZM951.43 121.144C952.763 122.644 954.902 123.445 957.608 123.73L957.817 121.74C955.33 121.479 953.779 120.776 952.925 119.816L951.43 121.144ZM956.713 122.735V150H958.713V122.735H956.713ZM957.534 149.016C954.542 149.56 951.898 149.967 949.601 150.237L949.834 152.223C952.184 151.947 954.87 151.533 957.891 150.984L957.534 149.016ZM949.594 150.238C947.439 150.507 945.499 150.64 943.773 150.64V152.64C945.599 152.64 947.623 152.5 949.842 152.222L949.594 150.238ZM943.773 150.64C938.158 150.64 933.798 149.503 930.6 147.328L929.475 148.982C933.111 151.454 937.908 152.64 943.773 152.64V150.64ZM930.622 147.343C927.426 145.043 925.441 141.857 924.665 137.721L922.7 138.089C923.564 142.699 925.815 146.347 929.453 148.967L930.622 147.343ZM924.678 137.812L924.063 131.252L922.072 131.438L922.687 137.998L924.678 137.812ZM922.245 130.776C917.42 137.745 911.405 142.885 904.197 146.223L905.038 148.037C912.59 144.541 918.875 139.158 923.89 131.914L922.245 130.776ZM904.205 146.219C897.108 149.433 889.119 151.05 880.223 151.05V153.05C889.366 153.05 897.641 151.387 905.03 148.041L904.205 146.219ZM880.223 151.05C869.519 151.05 861.494 147.65 855.984 140.959L854.441 142.231C860.411 149.48 869.06 153.05 880.223 153.05V151.05ZM855.984 140.959C850.447 134.236 847.603 124.385 847.603 111.255H845.603C845.603 124.638 848.498 135.014 854.441 142.231L855.984 140.959ZM987.223 99.775H986.223V100.775H987.223V99.775ZM988.453 87.885L987.477 87.6681L988.453 87.885ZM993.168 77.43L992.368 76.83L992.36 76.8409L992.352 76.852L993.168 77.43ZM1003.83 68.615L1004.32 69.4879L1004.33 69.4777L1004.35 69.4667L1003.83 68.615ZM1010.8 64.925L1011.23 65.8279L1011.24 65.8237L1011.25 65.8194L1010.8 64.925ZM1019.61 59.595L1020.19 60.4087L1019.61 59.595ZM1026.79 52.42L1025.99 51.82L1025.98 51.8331L1025.97 51.8465L1026.79 52.42ZM1027.4 35.815L1026.58 36.3815L1026.6 36.4114L1026.62 36.4397L1027.4 35.815ZM1021.46 30.895L1020.99 31.7788L1021.02 31.7949L1021.05 31.8088L1021.46 30.895ZM1004.24 31.51L1003.72 30.6525L1003.71 30.6584L1003.7 30.6645L1004.24 31.51ZM997.678 37.455L998.454 38.0856L998.463 38.0742L998.472 38.0624L997.678 37.455ZM992.963 43.81L992.39 44.6296L993.228 45.2153L993.795 44.3647L992.963 43.81ZM971.848 29.05L970.924 28.667L970.616 29.4092L971.275 29.8696L971.848 29.05ZM981.688 14.905L982.358 15.6471L982.359 15.646L981.688 14.905ZM996.653 5.885L996.997 6.8242L997.009 6.81948L996.653 5.885ZM1030.27 4.86L1029.99 5.82056L1030.27 4.86ZM1044.42 12.035L1043.81 12.8257V12.8257L1044.42 12.035ZM1054.46 24.95L1053.55 25.3691L1053.56 25.3832L1053.57 25.3972L1054.46 24.95ZM1057.13 54.47L1056.16 54.2275L1056.15 54.2425L1056.15 54.2576L1057.13 54.47ZM1053.64 63.285L1054.49 63.819L1054.49 63.8093L1054.5 63.7995L1053.64 63.285ZM1047.49 70.665L1048.16 71.4124L1048.17 71.4024L1048.18 71.392L1047.49 70.665ZM1039.29 77.02L1039.83 77.8612L1039.85 77.8539L1039.86 77.8462L1039.29 77.02ZM1027.81 83.785L1028.26 84.6794L1028.27 84.6731L1028.29 84.6665L1027.81 83.785ZM1018.18 90.345L1018.87 91.071L1018.18 90.345ZM1014.28 99.775V100.775H1015.28V99.775H1014.28ZM987.838 150H986.838V151H987.838V150ZM987.838 119.25V118.25H986.838V119.25H987.838ZM1014.69 119.25H1015.69V118.25H1014.69V119.25ZM1014.69 150V151H1015.69V150H1014.69ZM988.223 99.775C988.223 95.6027 988.627 91.7128 989.429 88.1019L987.477 87.6681C986.639 91.4372 986.223 95.474 986.223 99.775H988.223ZM989.429 88.1019C990.218 84.5498 991.733 81.1865 993.984 78.008L992.352 76.852C989.957 80.2335 988.327 83.8402 987.477 87.6681L989.429 88.1019ZM993.968 78.03C996.323 74.8898 999.756 72.0359 1004.32 69.4879L1003.34 67.7421C998.606 70.3874 994.933 73.4102 992.368 76.83L993.968 78.03ZM1004.35 69.4667C1006.09 68.399 1008.38 67.1862 1011.23 65.8279L1010.37 64.0221C1007.48 65.3971 1005.12 66.6443 1003.3 67.7633L1004.35 69.4667ZM1011.25 65.8194C1014.3 64.2916 1017.28 62.4876 1020.19 60.4087L1019.03 58.7813C1016.2 60.8024 1013.31 62.5517 1010.35 64.0306L1011.25 65.8194ZM1020.19 60.4087C1023.15 58.2965 1025.63 55.825 1027.61 52.9935L1025.97 51.8465C1024.12 54.4816 1021.81 56.7935 1019.03 58.7813L1020.19 60.4087ZM1027.59 53.02C1029.76 50.1213 1030.86 46.9058 1030.86 43.4H1028.86C1028.86 46.4542 1027.91 49.252 1025.99 51.82L1027.59 53.02ZM1030.86 43.4C1030.86 40.2009 1029.99 37.4429 1028.18 35.1903L1026.62 36.4397C1028.1 38.2871 1028.86 40.5857 1028.86 43.4H1030.86ZM1028.23 35.2485C1026.62 32.9074 1024.49 31.1483 1021.86 29.9812L1021.05 31.8088C1023.35 32.8283 1025.18 34.3493 1026.58 36.3815L1028.23 35.2485ZM1021.93 30.0112C1019.45 28.698 1016.69 28.05 1013.67 28.05V30.05C1016.39 30.05 1018.82 30.6319 1020.99 31.7788L1021.93 30.0112ZM1013.67 28.05C1009.95 28.05 1006.63 28.9088 1003.72 30.6525L1004.75 32.3675C1007.31 30.8311 1010.27 30.05 1013.67 30.05V28.05ZM1003.7 30.6645C1001.01 32.3646 998.736 34.4254 996.884 36.8475L998.472 38.0624C1000.17 35.8379 1002.27 33.9354 1004.77 32.3555L1003.7 30.6645ZM996.902 36.8244C995.108 39.0321 993.517 41.1757 992.131 43.2553L993.795 44.3647C995.142 42.3442 996.694 40.2512 998.454 38.0856L996.902 36.8244ZM993.536 42.9904L972.421 28.2304L971.275 29.8696L992.39 44.6296L993.536 42.9904ZM972.772 29.433C975.042 23.9579 978.238 19.3682 982.358 15.6471L981.018 14.1629C976.664 18.0951 973.301 22.9354 970.924 28.667L972.772 29.433ZM982.359 15.646C986.636 11.7702 991.513 8.83033 996.997 6.82412L996.309 4.94588C990.586 7.03967 985.486 10.1131 981.016 14.164L982.359 15.646ZM997.009 6.81948C1002.63 4.67809 1008.59 3.60499 1014.9 3.60499V1.60499C1008.36 1.60499 1002.16 2.71856 996.297 4.95051L997.009 6.81948ZM1014.9 3.60499C1019.85 3.60499 1024.89 4.34158 1029.99 5.82056L1030.55 3.89944C1025.27 2.37174 1020.05 1.60499 1014.9 1.60499V3.60499ZM1029.99 5.82056C1035.07 7.28917 1039.67 9.6236 1043.81 12.8257L1045.03 11.2443C1040.69 7.88639 1035.86 5.43749 1030.55 3.89943L1029.99 5.82056ZM1043.81 12.8257C1047.9 15.9982 1051.16 20.1707 1053.55 25.3691L1055.37 24.5309C1052.85 19.0693 1049.41 14.6318 1045.03 11.2443L1043.81 12.8257ZM1053.57 25.3972C1056.08 30.4216 1057.36 36.4793 1057.36 43.605H1059.36C1059.36 36.244 1058.04 29.8651 1055.36 24.5028L1053.57 25.3972ZM1057.36 43.605C1057.36 47.5002 1056.95 51.039 1056.16 54.2275L1058.1 54.7125C1058.94 51.341 1059.36 47.6365 1059.36 43.605H1057.36ZM1056.15 54.2576C1055.49 57.2953 1054.37 60.1315 1052.79 62.7705L1054.5 63.7995C1056.2 60.9718 1057.4 57.9313 1058.11 54.6824L1056.15 54.2576ZM1052.8 62.751C1051.21 65.2702 1049.21 67.6663 1046.81 69.938L1048.18 71.392C1050.69 69.017 1052.8 66.4931 1054.49 63.819L1052.8 62.751ZM1046.83 69.9176C1044.4 72.0731 1041.7 74.1654 1038.73 76.1938L1039.86 77.8462C1042.89 75.7746 1045.66 73.6303 1048.16 71.4124L1046.83 69.9176ZM1038.75 76.1788C1034.95 78.6252 1031.14 80.8666 1027.34 82.9035L1028.29 84.6665C1032.14 82.6034 1035.99 80.3348 1039.83 77.8612L1038.75 76.1788ZM1027.37 82.8906C1023.47 84.8396 1020.17 87.0796 1017.49 89.619L1018.87 91.071C1021.38 88.6904 1024.5 86.5571 1028.26 84.6794L1027.37 82.8906ZM1017.49 89.619C1014.68 92.2821 1013.28 95.6952 1013.28 99.775H1015.28C1015.28 96.2015 1016.48 93.3279 1018.87 91.071L1017.49 89.619ZM1014.28 98.775H987.223V100.775H1014.28V98.775ZM988.838 150V119.25H986.838V150H988.838ZM987.838 120.25H1014.69V118.25H987.838V120.25ZM1013.69 119.25V150H1015.69V119.25H1013.69ZM1014.69 149H987.838V151H1014.69V149ZM1087.72 99.775H1086.72V100.775H1087.72V99.775ZM1088.95 87.885L1087.97 87.6681L1088.95 87.885ZM1093.67 77.43L1092.87 76.83L1092.86 76.8409L1092.85 76.852L1093.67 77.43ZM1104.33 68.615L1104.81 69.4879L1104.83 69.4777L1104.85 69.4667L1104.33 68.615ZM1111.3 64.925L1111.73 65.8279L1111.73 65.8237L1111.74 65.8194L1111.3 64.925ZM1120.11 59.595L1120.69 60.4087L1120.11 59.595ZM1127.29 52.42L1126.49 51.82L1126.48 51.8331L1126.47 51.8465L1127.29 52.42ZM1127.9 35.815L1127.08 36.3815L1127.1 36.4114L1127.12 36.4397L1127.9 35.815ZM1121.96 30.895L1121.49 31.7788L1121.52 31.7949L1121.55 31.8088L1121.96 30.895ZM1104.74 31.51L1104.22 30.6525L1104.21 30.6584L1104.2 30.6645L1104.74 31.51ZM1098.18 37.455L1098.95 38.0856L1098.96 38.0742L1098.97 38.0624L1098.18 37.455ZM1093.46 43.81L1092.89 44.6296L1093.73 45.2153L1094.29 44.3647L1093.46 43.81ZM1072.35 29.05L1071.42 28.667L1071.11 29.4092L1071.77 29.8696L1072.35 29.05ZM1082.19 14.905L1082.86 15.6471L1082.86 15.646L1082.19 14.905ZM1097.15 5.885L1097.49 6.8242L1097.51 6.81948L1097.15 5.885ZM1130.77 4.86L1130.49 5.82056L1130.77 4.86ZM1144.92 12.035L1144.3 12.8257V12.8257L1144.92 12.035ZM1154.96 24.95L1154.05 25.3691L1154.06 25.3832L1154.07 25.3972L1154.96 24.95ZM1157.63 54.47L1156.66 54.2275L1156.65 54.2425L1156.65 54.2576L1157.63 54.47ZM1154.14 63.285L1154.99 63.819L1154.99 63.8093L1155 63.7995L1154.14 63.285ZM1147.99 70.665L1148.66 71.4124L1148.67 71.4024L1148.68 71.392L1147.99 70.665ZM1139.79 77.02L1140.33 77.8612L1140.34 77.8539L1140.35 77.8462L1139.79 77.02ZM1128.31 83.785L1128.76 84.6794L1128.77 84.6731L1128.78 84.6665L1128.31 83.785ZM1118.68 90.345L1119.36 91.071L1118.68 90.345ZM1114.78 99.775V100.775H1115.78V99.775H1114.78ZM1088.34 150H1087.34V151H1088.34V150ZM1088.34 119.25V118.25H1087.34V119.25H1088.34ZM1115.19 119.25H1116.19V118.25H1115.19V119.25ZM1115.19 150V151H1116.19V150H1115.19ZM1088.72 99.775C1088.72 95.6027 1089.12 91.7128 1089.93 88.1019L1087.97 87.6681C1087.14 91.4372 1086.72 95.474 1086.72 99.775H1088.72ZM1089.93 88.1019C1090.72 84.5498 1092.23 81.1865 1094.48 78.008L1092.85 76.852C1090.45 80.2335 1088.83 83.8402 1087.97 87.6681L1089.93 88.1019ZM1094.47 78.03C1096.82 74.8898 1100.25 72.0359 1104.81 69.4879L1103.84 67.7421C1099.1 70.3874 1095.43 73.4102 1092.87 76.83L1094.47 78.03ZM1104.85 69.4667C1106.58 68.399 1108.87 67.1862 1111.73 65.8279L1110.87 64.0221C1107.98 65.3971 1105.62 66.6443 1103.8 67.7633L1104.85 69.4667ZM1111.74 65.8194C1114.8 64.2916 1117.78 62.4876 1120.69 60.4087L1119.53 58.7813C1116.7 60.8024 1113.81 62.5517 1110.85 64.0306L1111.74 65.8194ZM1120.69 60.4087C1123.65 58.2965 1126.12 55.825 1128.11 52.9935L1126.47 51.8465C1124.62 54.4816 1122.31 56.7935 1119.53 58.7813L1120.69 60.4087ZM1128.09 53.02C1130.26 50.1213 1131.36 46.9058 1131.36 43.4H1129.36C1129.36 46.4542 1128.41 49.252 1126.49 51.82L1128.09 53.02ZM1131.36 43.4C1131.36 40.2009 1130.48 37.4429 1128.68 35.1903L1127.12 36.4397C1128.6 38.2871 1129.36 40.5857 1129.36 43.4H1131.36ZM1128.72 35.2485C1127.12 32.9074 1124.99 31.1483 1122.36 29.9812L1121.55 31.8088C1123.84 32.8283 1125.68 34.3493 1127.08 36.3815L1128.72 35.2485ZM1122.42 30.0112C1119.94 28.698 1117.18 28.05 1114.17 28.05V30.05C1116.89 30.05 1119.32 30.6319 1121.49 31.7788L1122.42 30.0112ZM1114.17 28.05C1110.45 28.05 1107.13 28.9088 1104.22 30.6525L1105.25 32.3675C1107.81 30.8311 1110.77 30.05 1114.17 30.05V28.05ZM1104.2 30.6645C1101.51 32.3646 1099.23 34.4254 1097.38 36.8475L1098.97 38.0624C1100.67 35.8379 1102.77 33.9354 1105.27 32.3555L1104.2 30.6645ZM1097.4 36.8244C1095.61 39.0321 1094.02 41.1757 1092.63 43.2553L1094.29 44.3647C1095.64 42.3442 1097.19 40.2512 1098.95 38.0856L1097.4 36.8244ZM1094.03 42.9904L1072.92 28.2304L1071.77 29.8696L1092.89 44.6296L1094.03 42.9904ZM1073.27 29.433C1075.54 23.9579 1078.74 19.3682 1082.86 15.6471L1081.52 14.1629C1077.16 18.0951 1073.8 22.9354 1071.42 28.667L1073.27 29.433ZM1082.86 15.646C1087.13 11.7702 1092.01 8.83033 1097.49 6.82412L1096.81 4.94588C1091.08 7.03967 1085.98 10.1131 1081.51 14.164L1082.86 15.646ZM1097.51 6.81948C1103.13 4.67809 1109.09 3.60499 1115.4 3.60499V1.60499C1108.86 1.60499 1102.65 2.71856 1096.79 4.95051L1097.51 6.81948ZM1115.4 3.60499C1120.35 3.60499 1125.38 4.34158 1130.49 5.82056L1131.05 3.89944C1125.77 2.37174 1120.55 1.60499 1115.4 1.60499V3.60499ZM1130.49 5.82056C1135.57 7.28917 1140.17 9.6236 1144.3 12.8257L1145.53 11.2443C1141.19 7.88639 1136.36 5.43749 1131.05 3.89943L1130.49 5.82056ZM1144.3 12.8257C1148.4 15.9982 1151.65 20.1707 1154.05 25.3691L1155.87 24.5309C1153.35 19.0693 1149.9 14.6318 1145.53 11.2443L1144.3 12.8257ZM1154.07 25.3972C1156.58 30.4216 1157.86 36.4793 1157.86 43.605H1159.86C1159.86 36.244 1158.54 29.8651 1155.86 24.5028L1154.07 25.3972ZM1157.86 43.605C1157.86 47.5002 1157.45 51.039 1156.66 54.2275L1158.6 54.7125C1159.44 51.341 1159.86 47.6365 1159.86 43.605H1157.86ZM1156.65 54.2576C1155.99 57.2953 1154.87 60.1315 1153.28 62.7705L1155 63.7995C1156.7 60.9718 1157.9 57.9313 1158.6 54.6824L1156.65 54.2576ZM1153.3 62.751C1151.7 65.2702 1149.71 67.6663 1147.3 69.938L1148.68 71.392C1151.19 69.017 1153.3 66.4931 1154.99 63.819L1153.3 62.751ZM1147.33 69.9176C1144.9 72.0731 1142.2 74.1654 1139.23 76.1938L1140.35 77.8462C1143.39 75.7746 1146.16 73.6303 1148.66 71.4124L1147.33 69.9176ZM1139.25 76.1788C1135.44 78.6252 1131.64 80.8666 1127.84 82.9035L1128.78 84.6665C1132.63 82.6034 1136.48 80.3348 1140.33 77.8612L1139.25 76.1788ZM1127.86 82.8906C1123.97 84.8396 1120.67 87.0796 1117.99 89.619L1119.36 91.071C1121.88 88.6904 1125 86.5571 1128.76 84.6794L1127.86 82.8906ZM1117.99 89.619C1115.18 92.2821 1113.78 95.6952 1113.78 99.775H1115.78C1115.78 96.2015 1116.98 93.3279 1119.36 91.071L1117.99 89.619ZM1114.78 98.775H1087.72V100.775H1114.78V98.775ZM1089.34 150V119.25H1087.34V150H1089.34ZM1088.34 120.25H1115.19V118.25H1088.34V120.25ZM1114.19 119.25V150H1116.19V119.25H1114.19ZM1115.19 149H1088.34V151H1115.19V149Z" fill="#A17BE8" mask="url(#path-1-outside-1_2038_324)"/>
</svg>
