<svg width="419" height="198" viewBox="0 0 419 198" fill="none" xmlns="http://www.w3.org/2000/svg">
<mask id="path-1-outside-1_2038_326" maskUnits="userSpaceOnUse" x="-3" y="-3" width="425" height="204" fill="black">
<rect fill="white" x="-3" y="-3" width="425" height="204"/>
<path d="M0.663184 150V42.375H33.4632V150H0.663184ZM0.663184 30.075V0.349996H33.4632V30.075H0.663184ZM97.1221 152.05C87.9654 152.05 79.0138 150.547 70.2671 147.54C61.5204 144.533 54.1404 140.092 48.1271 134.215L59.4021 113.51C65.9621 118.293 72.3171 121.915 78.4671 124.375C84.7538 126.835 90.6304 128.065 96.0971 128.065C100.334 128.065 103.614 127.382 105.937 126.015C108.26 124.648 109.422 122.53 109.422 119.66C109.422 117.61 108.739 116.038 107.372 114.945C106.005 113.715 103.887 112.622 101.017 111.665C98.2838 110.708 94.8671 109.683 90.7671 108.59C82.5671 105.857 75.7338 103.192 70.2671 100.595C64.8004 97.9983 60.7004 94.855 57.9671 91.165C55.2338 87.3383 53.8671 82.4183 53.8671 76.405C53.8671 69.1617 55.6438 62.875 59.1971 57.545C62.8871 52.0783 68.0804 47.8417 74.7771 44.835C81.4738 41.8283 89.4688 40.325 98.7621 40.325C106.142 40.325 113.317 41.4867 120.287 43.81C127.394 46.1333 134.022 50.0283 140.172 55.495L127.462 75.995C121.312 71.7583 115.845 68.6833 111.062 66.77C106.279 64.8567 101.632 63.9 97.1221 63.9C94.7988 63.9 92.6804 64.1733 90.7671 64.72C88.8538 65.2667 87.2821 66.2233 86.0521 67.59C84.9588 68.82 84.4121 70.46 84.4121 72.51C84.4121 74.56 84.9588 76.2 86.0521 77.43C87.2821 78.66 89.1271 79.7533 91.5871 80.71C94.1838 81.53 97.3954 82.555 101.222 83.785C110.105 86.3817 117.485 89.0467 123.362 91.78C129.239 94.3767 133.612 97.6567 136.482 101.62C139.489 105.447 140.992 110.572 140.992 116.995C140.992 127.928 137.029 136.538 129.102 142.825C121.312 148.975 110.652 152.05 97.1221 152.05ZM200.878 166.195C203.611 167.015 206.139 167.63 208.463 168.04C210.923 168.587 213.109 168.86 215.023 168.86C217.619 168.86 219.806 168.245 221.583 167.015C223.496 165.922 225.136 163.94 226.503 161.07C227.869 158.337 229.099 154.647 230.193 150L189.193 42.375H223.018L248.028 116.38L269.348 42.375H300.303L259.303 167.425C257.389 173.302 254.451 178.495 250.488 183.005C246.524 187.515 241.741 191 236.138 193.46C230.534 196.057 224.384 197.355 217.688 197.355C214.818 197.355 212.016 197.082 209.283 196.535C206.549 196.125 203.748 195.373 200.878 194.28V166.195ZM361.015 152.05C351.858 152.05 343.658 150.547 336.415 147.54C329.308 144.533 323.295 140.433 318.375 135.24C313.455 130.047 309.696 124.102 307.1 117.405C304.64 110.708 303.41 103.67 303.41 96.29C303.41 88.7733 304.64 81.6667 307.1 74.97C309.696 68.2733 313.455 62.3283 318.375 57.135C323.295 51.9417 329.308 47.8417 336.415 44.835C343.658 41.8283 351.858 40.325 361.015 40.325C370.171 40.325 378.303 41.8283 385.41 44.835C392.516 47.8417 398.53 51.9417 403.45 57.135C408.37 62.3283 412.128 68.2733 414.725 74.97C417.321 81.6667 418.62 88.7733 418.62 96.29C418.62 103.67 417.321 110.708 414.725 117.405C412.128 124.102 408.37 130.047 403.45 135.24C398.53 140.433 392.516 144.533 385.41 147.54C378.303 150.547 370.171 152.05 361.015 152.05ZM337.03 96.29C337.03 101.893 338.055 106.813 340.105 111.05C342.291 115.287 345.161 118.567 348.715 120.89C352.268 123.213 356.368 124.375 361.015 124.375C365.525 124.375 369.556 123.213 373.11 120.89C376.8 118.43 379.67 115.082 381.72 110.845C383.77 106.608 384.795 101.757 384.795 96.29C384.795 90.6867 383.77 85.7667 381.72 81.53C379.67 77.2933 376.8 74.0133 373.11 71.69C369.556 69.3667 365.525 68.205 361.015 68.205C356.368 68.205 352.268 69.3667 348.715 71.69C345.161 74.0133 342.291 77.2933 340.105 81.53C338.055 85.7667 337.03 90.6867 337.03 96.29Z"/>
</mask>
<path d="M0.663184 150H-2.33682V153H0.663184V150ZM0.663184 42.375V39.375H-2.33682V42.375H0.663184ZM33.4632 42.375H36.4632V39.375H33.4632V42.375ZM33.4632 150V153H36.4632V150H33.4632ZM0.663184 30.075H-2.33682V33.075H0.663184V30.075ZM0.663184 0.349995V-2.65001H-2.33682V0.349995H0.663184ZM33.4632 0.349995H36.4632V-2.65001H33.4632V0.349995ZM33.4632 30.075V33.075H36.4632V30.075H33.4632ZM3.66318 150V42.375H-2.33682V150H3.66318ZM0.663184 45.375H33.4632V39.375H0.663184V45.375ZM30.4632 42.375V150H36.4632V42.375H30.4632ZM33.4632 147H0.663184V153H33.4632V147ZM3.66318 30.075V0.349995H-2.33682V30.075H3.66318ZM0.663184 3.34999H33.4632V-2.65001H0.663184V3.34999ZM30.4632 0.349995V30.075H36.4632V0.349995H30.4632ZM33.4632 27.075H0.663184V33.075H33.4632V27.075ZM70.2671 147.54L69.2918 150.377L70.2671 147.54ZM48.1271 134.215L45.4924 132.78L44.4068 134.774L46.0303 136.361L48.1271 134.215ZM59.4021 113.51L61.1696 111.086L58.4042 109.07L56.7674 112.075L59.4021 113.51ZM78.4671 124.375L77.3529 127.16L77.3634 127.165L77.3739 127.169L78.4671 124.375ZM105.937 126.015L107.458 128.601L105.937 126.015ZM107.372 114.945L105.365 117.175L105.43 117.233L105.498 117.288L107.372 114.945ZM101.017 111.665L100.026 114.497L100.047 114.504L100.068 114.511L101.017 111.665ZM90.7671 108.59L89.8184 111.436L89.9054 111.465L89.9941 111.489L90.7671 108.59ZM70.2671 100.595L68.9799 103.305L70.2671 100.595ZM57.9671 91.165L55.5259 92.9087L55.541 92.9298L55.5564 92.9507L57.9671 91.165ZM59.1971 57.545L56.7105 55.8666L56.7057 55.8737L56.7009 55.8809L59.1971 57.545ZM74.7771 44.835L76.0059 47.5718L74.7771 44.835ZM120.287 43.81L119.338 46.6561L119.347 46.6588L119.355 46.6615L120.287 43.81ZM140.172 55.495L142.722 57.0758L144.052 54.9301L142.165 53.2528L140.172 55.495ZM127.462 75.995L125.76 78.4655L128.353 80.2516L130.012 77.5758L127.462 75.995ZM111.062 66.77L109.948 69.5554L111.062 66.77ZM90.7671 64.72L91.5912 67.6046H91.5913L90.7671 64.72ZM86.0521 67.59L83.8222 65.5831L83.816 65.59L83.8099 65.5969L86.0521 67.59ZM86.0521 77.43L83.8099 79.4231L83.8684 79.489L83.9308 79.5513L86.0521 77.43ZM91.5871 80.71L90.4998 83.506L90.5907 83.5414L90.6837 83.5707L91.5871 80.71ZM101.222 83.785L100.304 86.6411L100.342 86.6533L100.38 86.6645L101.222 83.785ZM123.362 91.78L122.097 94.5002L122.123 94.5124L122.15 94.5241L123.362 91.78ZM136.482 101.62L134.052 103.38L134.087 103.427L134.123 103.473L136.482 101.62ZM129.102 142.825L130.961 145.18L130.966 145.175L129.102 142.825ZM97.1221 149.05C88.3007 149.05 79.6784 147.603 71.2423 144.703L69.2918 150.377C78.3491 153.49 87.6302 155.05 97.1221 155.05V149.05ZM71.2423 144.703C62.8736 141.826 55.8885 137.605 50.2239 132.069L46.0303 136.361C52.3923 142.578 60.1673 147.24 69.2918 150.377L71.2423 144.703ZM50.7618 135.65L62.0368 114.945L56.7674 112.075L45.4924 132.78L50.7618 135.65ZM57.6346 115.934C64.3529 120.833 70.9258 124.59 77.3529 127.16L79.5813 121.59C73.7084 119.24 67.5713 115.754 61.1696 111.086L57.6346 115.934ZM77.3739 127.169C83.9298 129.734 90.1799 131.065 96.0971 131.065V125.065C91.081 125.065 85.5777 123.936 79.5603 121.581L77.3739 127.169ZM96.0971 131.065C100.59 131.065 104.482 130.352 107.458 128.601L104.416 123.429C102.746 124.412 100.077 125.065 96.0971 125.065V131.065ZM107.458 128.601C110.768 126.654 112.422 123.509 112.422 119.66H106.422C106.422 121.551 105.753 122.643 104.416 123.429L107.458 128.601ZM112.422 119.66C112.422 116.873 111.451 114.366 109.246 112.602L105.498 117.288C106.027 117.711 106.422 118.347 106.422 119.66H112.422ZM109.379 112.715C107.57 111.087 105.006 109.832 101.966 108.819L100.068 114.511C102.768 115.411 104.441 116.343 105.365 117.175L109.379 112.715ZM102.008 108.833C99.1784 107.843 95.6832 106.796 91.5401 105.691L89.9941 111.489C94.051 112.571 97.3891 113.574 100.026 114.497L102.008 108.833ZM91.7158 105.744C83.5868 103.034 76.8755 100.413 71.5543 97.8852L68.9799 103.305C74.592 105.971 81.5474 108.679 89.8184 111.436L91.7158 105.744ZM71.5543 97.8852C66.3959 95.435 62.7398 92.568 60.3778 89.3793L55.5564 92.9507C58.6611 97.142 63.2049 100.562 68.9799 103.305L71.5543 97.8852ZM60.4083 89.4213C58.1282 86.2291 56.8671 81.9676 56.8671 76.405H50.8671C50.8671 82.869 52.3393 88.4476 55.5259 92.9087L60.4083 89.4213ZM56.8671 76.405C56.8671 69.6739 58.5102 63.9837 61.6932 59.2091L56.7009 55.8809C52.7773 61.7663 50.8671 68.6494 50.8671 76.405H56.8671ZM61.6836 59.2234C65.0266 54.2709 69.7595 50.3763 76.0059 47.5718L73.5483 42.0982C66.4014 45.307 60.7476 49.8858 56.7105 55.8666L61.6836 59.2234ZM76.0059 47.5718C82.2278 44.7783 89.7835 43.325 98.7621 43.325V37.325C89.154 37.325 80.7197 38.8784 73.5483 42.0982L76.0059 47.5718ZM98.7621 43.325C105.821 43.325 112.676 44.4351 119.338 46.6561L121.236 40.964C113.958 38.5382 106.463 37.325 98.7621 37.325V43.325ZM119.355 46.6615C126.032 48.8444 132.306 52.5166 138.179 57.7372L142.165 53.2528C135.738 47.54 128.755 43.4223 121.219 40.9585L119.355 46.6615ZM137.622 53.9142L124.912 74.4142L130.012 77.5758L142.722 57.0758L137.622 53.9142ZM129.164 73.5245C122.905 69.2125 117.236 66.0086 112.176 63.9846L109.948 69.5554C114.455 71.3581 119.72 74.3042 125.76 78.4655L129.164 73.5245ZM112.176 63.9846C107.089 61.9495 102.064 60.9 97.1221 60.9V66.9C101.2 66.9 105.469 67.7638 109.948 69.5554L112.176 63.9846ZM97.1221 60.9C94.5654 60.9 92.1647 61.2006 89.9429 61.8354L91.5913 67.6046C93.1961 67.146 95.0321 66.9 97.1221 66.9V60.9ZM89.9429 61.8354C87.5342 62.5236 85.4601 63.7633 83.8222 65.5831L88.282 69.5969C89.1041 68.6834 90.1733 68.0097 91.5912 67.6046L89.9429 61.8354ZM83.8099 65.5969C82.1167 67.5017 81.4121 69.9128 81.4121 72.51H87.4121C87.4121 71.0072 87.8008 70.1383 88.2943 69.5831L83.8099 65.5969ZM81.4121 72.51C81.4121 75.1072 82.1167 77.5183 83.8099 79.4231L88.2943 75.4369C87.8008 74.8817 87.4121 74.0128 87.4121 72.51H81.4121ZM83.9308 79.5513C85.5669 81.1874 87.8334 82.4691 90.4998 83.506L92.6744 77.914C90.4208 77.0376 88.9973 76.1325 88.1734 75.3087L83.9308 79.5513ZM90.6837 83.5707C93.2738 84.3887 96.4802 85.412 100.304 86.6411L102.14 80.9289C98.3106 79.698 95.0937 78.6713 92.4905 77.8492L90.6837 83.5707ZM100.38 86.6645C109.175 89.2351 116.401 91.8511 122.097 94.5002L124.627 89.0598C118.569 86.2422 111.036 83.5282 102.064 80.9055L100.38 86.6645ZM122.15 94.5241C127.688 96.9714 131.577 99.9607 134.052 103.38L138.912 99.8605C135.648 95.3526 130.789 91.7819 124.575 89.0359L122.15 94.5241ZM134.123 103.473C136.599 106.624 137.992 111.028 137.992 116.995H143.992C143.992 110.115 142.379 104.269 138.841 99.7665L134.123 103.473ZM137.992 116.995C137.992 127.097 134.383 134.808 127.238 140.475L130.966 145.175C139.674 138.269 143.992 128.759 143.992 116.995H137.992ZM127.243 140.47C120.146 146.073 110.22 149.05 97.1221 149.05V155.05C111.084 155.05 122.478 151.877 130.961 145.18L127.243 140.47ZM200.878 166.195L201.74 163.322L197.878 162.163V166.195H200.878ZM208.463 168.04L209.114 165.111L209.049 165.097L208.984 165.086L208.463 168.04ZM221.583 167.015L220.094 164.41L219.982 164.475L219.875 164.548L221.583 167.015ZM226.503 161.07L223.819 159.728L223.807 159.754L223.794 159.78L226.503 161.07ZM230.193 150L233.113 150.687L233.324 149.792L232.996 148.932L230.193 150ZM189.193 42.375V39.375H184.84L186.389 43.443L189.193 42.375ZM223.018 42.375L225.86 41.4145L225.171 39.375H223.018V42.375ZM248.028 116.38L245.186 117.34L248.256 126.425L250.91 117.21L248.028 116.38ZM269.348 42.375V39.375H267.09L266.465 41.5445L269.348 42.375ZM300.303 42.375L303.153 43.3096L304.443 39.375H300.303V42.375ZM259.303 167.425L256.452 166.49L256.45 166.496L259.303 167.425ZM250.488 183.005L252.741 184.985L250.488 183.005ZM236.138 193.46L234.932 190.713L234.904 190.725L234.876 190.738L236.138 193.46ZM209.283 196.535L209.871 193.593L209.8 193.579L209.728 193.568L209.283 196.535ZM200.878 194.28H197.878V196.347L199.81 197.083L200.878 194.28ZM200.016 169.068C202.839 169.915 205.482 170.56 207.941 170.994L208.984 165.086C206.797 164.7 204.383 164.115 201.74 163.322L200.016 169.068ZM207.812 170.969C210.423 171.549 212.834 171.86 215.023 171.86V165.86C213.385 165.86 211.423 165.625 209.114 165.111L207.812 170.969ZM215.023 171.86C218.104 171.86 220.918 171.124 223.29 169.482L219.875 164.548C218.694 165.366 217.135 165.86 215.023 165.86V171.86ZM223.071 169.62C225.703 168.116 227.693 165.548 229.211 162.36L223.794 159.78C222.579 162.332 221.289 163.728 220.094 164.41L223.071 169.62ZM229.186 162.412C230.698 159.388 231.993 155.449 233.113 150.687L227.272 149.313C226.206 153.844 225.041 157.285 223.819 159.728L229.186 162.412ZM232.996 148.932L191.996 41.307L186.389 43.443L227.389 151.068L232.996 148.932ZM189.193 45.375H223.018V39.375H189.193V45.375ZM220.176 43.3355L245.186 117.34L250.87 115.42L225.86 41.4145L220.176 43.3355ZM250.91 117.21L272.23 43.2055L266.465 41.5445L245.145 115.55L250.91 117.21ZM269.348 45.375H300.303V39.375H269.348V45.375ZM297.452 41.4403L256.452 166.49L262.153 168.36L303.153 43.3096L297.452 41.4403ZM256.45 166.496C254.659 171.997 251.921 176.83 248.234 181.025L252.741 184.985C256.982 180.16 260.12 174.606 262.155 168.354L256.45 166.496ZM248.234 181.025C244.566 185.199 240.142 188.426 234.932 190.713L237.344 196.207C243.34 193.574 248.483 189.831 252.741 184.985L248.234 181.025ZM234.876 190.738C229.701 193.137 223.986 194.355 217.688 194.355V200.355C224.783 200.355 231.368 198.977 237.399 196.182L234.876 190.738ZM217.688 194.355C215.009 194.355 212.405 194.1 209.871 193.593L208.694 199.477C211.627 200.063 214.626 200.355 217.688 200.355V194.355ZM209.728 193.568C207.229 193.193 204.636 192.502 201.946 191.477L199.81 197.083C202.859 198.245 205.869 199.057 208.838 199.502L209.728 193.568ZM203.878 194.28V166.195H197.878V194.28H203.878ZM336.415 147.54L335.246 150.303L335.255 150.307L335.265 150.311L336.415 147.54ZM307.1 117.405L304.284 118.439L304.293 118.465L304.303 118.49L307.1 117.405ZM307.1 74.97L304.303 73.8854L304.293 73.9104L304.284 73.9355L307.1 74.97ZM318.375 57.135L320.553 59.1982L318.375 57.135ZM336.415 44.835L335.265 42.0642L335.255 42.0681L335.246 42.0721L336.415 44.835ZM385.41 44.835L384.241 47.5979L385.41 44.835ZM403.45 57.135L401.272 59.1982L403.45 57.135ZM414.725 74.97L417.522 73.8854L414.725 74.97ZM414.725 117.405L411.928 116.32L414.725 117.405ZM403.45 135.24L401.272 133.177L403.45 135.24ZM385.41 147.54L386.579 150.303L385.41 147.54ZM340.105 111.05L337.404 112.357L337.421 112.392L337.439 112.426L340.105 111.05ZM348.715 120.89L347.073 123.401L348.715 120.89ZM373.11 120.89L374.751 123.401L374.763 123.394L374.774 123.386L373.11 120.89ZM381.72 110.845L379.019 109.538H379.019L381.72 110.845ZM381.72 81.53L379.019 82.8367H379.019L381.72 81.53ZM373.11 71.69L371.468 74.2009L371.49 74.215L371.511 74.2287L373.11 71.69ZM348.715 71.69L347.073 69.1791L348.715 71.69ZM340.105 81.53L337.439 80.1541L337.421 80.1885L337.404 80.2233L340.105 81.53ZM361.015 149.05C352.188 149.05 344.388 147.601 337.565 144.769L335.265 150.311C342.928 153.492 351.529 155.05 361.015 155.05V149.05ZM337.584 144.777C330.828 141.919 325.166 138.047 320.553 133.177L316.197 137.303C321.423 142.82 327.789 147.148 335.246 150.303L337.584 144.777ZM320.553 133.177C315.902 128.268 312.353 122.655 309.897 116.32L304.303 118.49C307.04 125.548 311.008 131.826 316.197 137.303L320.553 133.177ZM309.916 116.371C307.582 110.017 306.41 103.329 306.41 96.29H300.41C300.41 104.011 301.698 111.4 304.284 118.439L309.916 116.371ZM306.41 96.29C306.41 89.1072 307.584 82.3523 309.916 76.0044L304.284 73.9355C301.696 80.981 300.41 88.4395 300.41 96.29H306.41ZM309.897 76.0546C312.353 69.7198 315.902 64.1075 320.553 59.1982L316.197 55.0718C311.008 60.5492 307.04 66.8269 304.303 73.8854L309.897 76.0546ZM320.553 59.1982C325.166 54.3282 330.828 50.4562 337.584 47.5979L335.246 42.0721C327.789 45.2271 321.423 49.5551 316.197 55.0718L320.553 59.1982ZM337.565 47.6058C344.388 44.7736 352.188 43.325 361.015 43.325V37.325C351.529 37.325 342.928 38.8831 335.265 42.0642L337.565 47.6058ZM361.015 43.325C369.844 43.325 377.566 44.7741 384.241 47.5979L386.579 42.0721C379.04 38.8826 370.499 37.325 361.015 37.325V43.325ZM384.241 47.5979C390.997 50.4562 396.658 54.3282 401.272 59.1982L405.628 55.0718C400.401 49.5551 394.036 45.2271 386.579 42.0721L384.241 47.5979ZM401.272 59.1982C405.923 64.1075 409.471 69.7198 411.928 76.0546L417.522 73.8854C414.785 66.8269 410.817 60.5492 405.628 55.0718L401.272 59.1982ZM411.928 76.0546C414.384 82.3894 415.62 89.1268 415.62 96.29H421.62C421.62 88.4199 420.259 80.9439 417.522 73.8854L411.928 76.0546ZM415.62 96.29C415.62 103.309 414.387 109.979 411.928 116.32L417.522 118.49C420.256 111.437 421.62 104.031 421.62 96.29H415.62ZM411.928 116.32C409.471 122.655 405.923 128.268 401.272 133.177L405.628 137.303C410.817 131.826 414.785 125.548 417.522 118.49L411.928 116.32ZM401.272 133.177C396.658 138.047 390.997 141.919 384.241 144.777L386.579 150.303C394.036 147.148 400.401 142.82 405.628 137.303L401.272 133.177ZM384.241 144.777C377.566 147.601 369.844 149.05 361.015 149.05V155.05C370.499 155.05 379.04 153.492 386.579 150.303L384.241 144.777ZM334.03 96.29C334.03 102.261 335.123 107.642 337.404 112.357L342.805 109.743C340.986 105.984 340.03 101.526 340.03 96.29H334.03ZM337.439 112.426C339.833 117.065 343.035 120.76 347.073 123.401L350.357 118.379C347.288 116.373 344.749 113.508 342.771 109.674L337.439 112.426ZM347.073 123.401C351.16 126.073 355.842 127.375 361.015 127.375V121.375C356.894 121.375 353.376 120.353 350.357 118.379L347.073 123.401ZM361.015 127.375C366.07 127.375 370.679 126.064 374.751 123.401L371.468 118.379C368.434 120.363 364.98 121.375 361.015 121.375V127.375ZM374.774 123.386C378.937 120.611 382.152 116.84 384.42 112.152L379.019 109.538C377.188 113.324 374.663 116.249 371.446 118.394L374.774 123.386ZM384.42 112.152C386.697 107.447 387.795 102.136 387.795 96.29H381.795C381.795 101.377 380.843 105.77 379.019 109.538L384.42 112.152ZM387.795 96.29C387.795 90.3194 386.701 84.9378 384.42 80.2233L379.019 82.8367C380.838 86.5955 381.795 91.0539 381.795 96.29H387.795ZM384.42 80.2233C382.146 75.5226 378.911 71.7978 374.708 69.1513L371.511 74.2287C374.688 76.2289 377.194 79.064 379.019 82.8367L384.42 80.2233ZM374.751 69.1791C370.679 66.5164 366.07 65.205 361.015 65.205V71.205C364.98 71.205 368.434 72.2169 371.468 74.2009L374.751 69.1791ZM361.015 65.205C355.842 65.205 351.16 66.5066 347.073 69.1791L350.357 74.2009C353.376 72.2267 356.894 71.205 361.015 71.205V65.205ZM347.073 69.1791C343.035 71.8195 339.833 75.5147 337.439 80.1541L342.771 82.9059C344.749 79.0719 347.288 76.2071 350.357 74.2009L347.073 69.1791ZM337.404 80.2233C335.123 84.9378 334.03 90.3194 334.03 96.29H340.03C340.03 91.0539 340.986 86.5955 342.805 82.8367L337.404 80.2233Z" fill="#B892FF" mask="url(#path-1-outside-1_2038_326)"/>
</svg>
