<svg width="45" height="22" viewBox="0 0 45 22" fill="none" xmlns="http://www.w3.org/2000/svg">
<g opacity="0.4" filter="url(#filter0_d_1151_35141)">
<path d="M42.0123 9.51131C38.0009 4.95251 10.8099 3.33479 5.85894 1.49104C5.47152 1.34676 5.53833 1.32396 5.45951 1.29819C5.26132 1.23313 5.1869 1.76122 5.08883 1.98677C5.01918 2.14692 4.90928 2.23149 4.82389 2.3745C4.70551 2.57274 4.66552 2.81595 4.54179 3.01543C4.4346 3.18826 4.26461 3.29511 4.19212 3.4951L3.95467 4.15013C3.88912 4.33096 3.80865 4.46148 3.86316 4.61758C3.95038 4.86732 4.11455 5.09305 4.13435 5.39524C4.13993 5.48049 4.00524 5.40051 3.94352 5.39096C3.7254 5.3572 3.50456 5.31891 3.28035 5.31033C3.24737 5.30906 3.4185 5.68556 3.44241 5.77139C3.52665 6.07379 3.29995 6.08331 3.12126 6.12433C2.8091 6.196 3.37192 6.66748 3.33975 6.84835C3.32877 6.91011 3.20433 6.927 3.21399 7.00313C3.24979 7.28535 3.4816 7.52883 3.58936 7.74272C3.63896 7.84117 3.73705 7.99228 3.61444 8.14017C3.2996 8.51997 2.84486 8.74216 2.49314 9.00538C2.25765 9.18162 1.98816 9.36942 1.81052 9.67608C1.71558 9.83999 1.66542 10.1328 1.61612 10.2993C1.5463 10.5351 1.12325 11.5447 1.35261 11.6301L1.49873 11.6845L3.40558 12.3946L6.21691 13.4416C7.74483 14.0105 30.8644 16.1252 32.3923 16.6942C33.3599 17.0545 34.0362 18.3582 35.0037 18.7185L37.0202 19.4694C37.343 19.5897 37.7475 19.8521 38.1233 19.821C38.3175 19.8049 39.7432 19.7746 39.7722 19.6551C39.7957 19.5586 39.6639 19.3212 39.6452 19.2575L39.6411 19.2433C39.5936 19.082 39.526 18.8527 39.6494 18.658C39.8013 18.4183 39.9845 18.5861 39.9139 18.2234C39.8742 18.0196 39.5908 17.1526 39.8071 17.0357C39.9991 16.932 40.2092 16.8507 40.382 16.6576C40.6499 16.3581 40.5933 15.9977 40.5578 15.6671C40.5489 15.5839 40.4539 15.1946 40.5678 15.0974C40.7195 14.9681 40.9025 14.9759 41.0612 14.8502C41.4522 14.5408 40.7874 13.8775 40.7248 13.6236C40.6956 13.5055 41.3021 13.1144 41.3847 12.947C41.6781 12.3521 41.0427 11.6922 40.8734 11.3629C40.6245 10.8786 41.843 10.5106 41.9948 10.47C42.2152 10.4111 42.5422 10.4382 42.6818 10.0756C42.7021 10.0229 42.8013 9.80514 42.7561 9.78829L42.0123 9.51131Z" fill="#F76C5E"/>
</g>
<defs>
<filter id="filter0_d_1151_35141" x="0.585156" y="0.45248" width="44.2824" height="21.3312" filterUnits="userSpaceOnUse" color-interpolation-filters="sRGB">
<feFlood flood-opacity="0" result="BackgroundImageFix"/>
<feColorMatrix in="SourceAlpha" type="matrix" values="0 0 0 0 0 0 0 0 0 0 0 0 0 0 0 0 0 0 127 0" result="hardAlpha"/>
<feOffset dx="0.7" dy="0.56"/>
<feGaussianBlur stdDeviation="0.7"/>
<feComposite in2="hardAlpha" operator="out"/>
<feColorMatrix type="matrix" values="0 0 0 0 0 0 0 0 0 0 0 0 0 0 0 0 0 0 0.53 0"/>
<feBlend mode="normal" in2="BackgroundImageFix" result="effect1_dropShadow_1151_35141"/>
<feBlend mode="normal" in="SourceGraphic" in2="effect1_dropShadow_1151_35141" result="shape"/>
</filter>
</defs>
</svg>
