<svg width="62" height="35" viewBox="0 0 62 35" fill="none" xmlns="http://www.w3.org/2000/svg">
<g opacity="0.4" filter="url(#filter0_d_1865_1655)">
<path d="M59.6471 25.1648C51.9458 30.7988 11.2172 24.5318 3.19421 25.7426C2.56641 25.8374 2.65599 25.8934 2.52966 25.9073C2.21193 25.9424 2.30912 25.1169 2.25287 24.743C2.21294 24.4775 2.08401 24.3139 2.01413 24.0694C1.91726 23.7304 1.95358 23.3484 1.8493 23.0059C1.75895 22.7091 1.55017 22.4923 1.52163 22.1655L1.42815 21.0949C1.40234 20.7994 1.33483 20.5754 1.47638 20.3559C1.70283 20.0047 2.03337 19.7147 2.18096 19.2623C2.2226 19.1347 1.99265 19.2129 1.8979 19.2076C1.56304 19.1889 1.22239 19.1762 0.88842 19.1173C0.83929 19.1086 1.23916 18.5919 1.30805 18.4693C1.55075 18.0372 1.2202 17.9501 0.972783 17.8305C0.540559 17.6215 1.55521 17.0863 1.57865 16.8014C1.58665 16.7041 1.40978 16.6385 1.45385 16.5261C1.61722 16.1091 2.05444 15.8138 2.29715 15.5237C2.40885 15.3902 2.6127 15.1922 2.48987 14.9284C2.17442 14.2508 1.59095 13.7676 1.17545 13.2552C0.897254 12.9121 0.573457 12.5405 0.431679 12.018C0.3559 11.7387 0.396662 11.2781 0.389209 11.0095C0.378651 10.6291 0.150411 8.96074 0.522091 8.90465L0.758874 8.86891L3.84888 8.40259L8.40457 7.71507C10.8805 7.34142 45.8003 11.5478 48.2762 11.1741C49.8441 10.9375 51.3521 9.17538 52.92 8.93876L56.1876 8.44563C56.7108 8.36668 57.41 8.09796 57.952 8.26577C58.2321 8.35248 60.3225 8.85596 60.3185 9.04666C60.3152 9.20058 60.028 9.51871 59.9754 9.60953L59.9637 9.62969C59.8305 9.85927 59.6411 10.1858 59.7467 10.521C59.8767 10.9336 60.2127 10.7376 59.9664 11.2655C59.828 11.5622 59.0704 12.7876 59.3436 13.0344C59.5861 13.2534 59.8641 13.4442 60.0432 13.7929C60.3209 14.3334 60.0962 14.8624 59.9143 15.353C59.8685 15.4764 59.5759 16.0369 59.7058 16.2209C59.8788 16.466 60.1517 16.5128 60.3365 16.7545C60.7918 17.3496 59.5515 18.1435 59.3598 18.5087C59.2705 18.6788 60.0115 19.4671 60.0677 19.7477C60.2673 20.7449 59.0718 21.5429 58.6932 21.9884C58.1363 22.6438 59.789 23.5934 59.9969 23.7037C60.2987 23.8638 60.7916 23.9276 60.8553 24.5228C60.8646 24.6094 60.9256 24.9718 60.8523 24.9829L59.6471 25.1648Z" fill="#EF7A85"/>
</g>
<path d="M48.9062 12.3179C48.9545 12.3247 48.9599 12.3666 48.9903 12.4064C49.3387 12.8635 49.6528 13.3743 49.9948 13.8411C51.6546 16.1063 53.3348 18.3587 55.1926 20.368C55.4223 20.6163 56.1699 21.2562 55.8997 21.0853" stroke="#B89693" stroke-opacity="0.16" stroke-width="0.1" stroke-linecap="round"/>
<path d="M46.8594 12.0786C46.9429 12.1182 47.0206 12.161 47.0974 12.2203C47.3822 12.4405 47.4571 12.5782 47.7747 12.9642C48.4248 13.7546 50.6331 16.5114 51.0229 16.9937C51.6868 17.8151 52.3478 18.6404 53.0198 19.4512C53.1844 19.6499 54.388 21.1466 54.8959 21.5236C55.2482 21.7851 55.2021 21.1743 55.2389 21.0055" stroke="#B89693" stroke-opacity="0.16" stroke-width="0.1" stroke-linecap="round"/>
<path d="M46.4492 12.8359C49.1823 15.6964 52.0728 18.3248 54.8918 21.0455" stroke="#B89693" stroke-opacity="0.16" stroke-width="0.1" stroke-linecap="round"/>
<path d="M44.6777 14.6562C45.1081 15.4308 46.4925 16.2401 46.9383 16.5868C49.0789 18.2512 51.2193 20.0444 53.4971 21.4023C54.2121 21.8285 54.1824 21.7205 54.7746 21.5766" stroke="#B89693" stroke-opacity="0.16" stroke-width="0.1" stroke-linecap="round"/>
<defs>
<filter id="filter0_d_1865_1655" x="0.310547" y="7.69141" width="61.0781" height="20.2608" filterUnits="userSpaceOnUse" color-interpolation-filters="sRGB">
<feFlood flood-opacity="0" result="BackgroundImageFix"/>
<feColorMatrix in="SourceAlpha" type="matrix" values="0 0 0 0 0 0 0 0 0 0 0 0 0 0 0 0 0 0 127 0" result="hardAlpha"/>
<feOffset dx="0.4" dy="0.3"/>
<feGaussianBlur stdDeviation="0.05"/>
<feComposite in2="hardAlpha" operator="out"/>
<feColorMatrix type="matrix" values="0 0 0 0 0 0 0 0 0 0 0 0 0 0 0 0 0 0 0.53 0"/>
<feBlend mode="normal" in2="BackgroundImageFix" result="effect1_dropShadow_1865_1655"/>
<feBlend mode="normal" in="SourceGraphic" in2="effect1_dropShadow_1865_1655" result="shape"/>
</filter>
</defs>
</svg>
