<svg width="94" height="42" viewBox="0 0 94 42" fill="none" xmlns="http://www.w3.org/2000/svg">
<g opacity="0.4" filter="url(#filter0_d_1_290)">
<path d="M89.835 29.9601C78.2359 36.6676 16.8942 29.2066 4.8107 30.6481C3.86517 30.7609 4.00008 30.8276 3.80982 30.8441C3.33129 30.886 3.47765 29.9031 3.39295 29.458C3.3328 29.1419 3.13862 28.9471 3.03337 28.656C2.88747 28.2525 2.94218 27.7977 2.78512 27.3899C2.64905 27.0366 2.33459 26.7785 2.29161 26.3894L2.15082 25.1148C2.11195 24.7629 2.01027 24.4963 2.22345 24.235C2.56452 23.8169 3.06235 23.4716 3.28464 22.933C3.34735 22.7811 3.00102 22.8742 2.85831 22.8679C2.35398 22.8456 1.84093 22.8305 1.33793 22.7603C1.26393 22.75 1.86619 22.1349 1.96993 21.9889C2.33547 21.4745 1.83762 21.3707 1.46499 21.2283C0.81401 20.9796 2.34219 20.3424 2.37749 20.0032C2.38954 19.8874 2.12316 19.8093 2.18952 19.6754C2.43558 19.179 3.09408 18.8275 3.45963 18.4821C3.62787 18.3231 3.93489 18.0874 3.74988 17.7733C3.27478 16.9666 2.39601 16.3914 1.77022 15.7813C1.35123 15.3728 0.863557 14.9304 0.650024 14.3083C0.535894 13.9758 0.597285 13.4275 0.58606 13.1078C0.570158 12.6549 0.226404 10.6686 0.786196 10.6018L1.14282 10.5593L5.79671 10.0041L12.6581 9.18558C16.3871 8.74073 68.9801 13.7486 72.7092 13.3037C75.0706 13.022 77.3419 10.9241 79.7033 10.6424L84.6247 10.0553C85.4127 9.96134 86.4657 9.64142 87.282 9.84121C87.7038 9.94444 90.8522 10.5439 90.8462 10.7709C90.8413 10.9541 90.4086 11.3329 90.3294 11.441L90.3118 11.465C90.1112 11.7383 89.8259 12.1271 89.985 12.5261C90.1809 13.0174 90.6868 12.7841 90.316 13.4125C90.1075 13.7657 88.9665 15.2246 89.3779 15.5184C89.7431 15.7792 90.1618 16.0064 90.4315 16.4214C90.8498 17.065 90.5114 17.6948 90.2374 18.2788C90.1685 18.4258 89.7278 19.0931 89.9234 19.3121C90.184 19.6039 90.5949 19.6596 90.8734 19.9474C91.559 20.6559 89.6911 21.601 89.4023 22.0359C89.2678 22.2383 90.3839 23.1768 90.4685 23.5108C90.7692 24.6981 88.9685 25.6482 88.3983 26.1786C87.5596 26.9589 90.0487 28.0894 90.3619 28.2207C90.8164 28.4113 91.5587 28.4873 91.6547 29.1959C91.6687 29.2989 91.7606 29.7304 91.6502 29.7436L89.835 29.9601Z" fill="#EF7A85"/>
</g>
<path d="M73.6582 14.665C73.7308 14.6731 73.7389 14.723 73.7847 14.7705C74.3095 15.3147 74.7825 15.9228 75.2977 16.4785C77.7975 19.1753 80.328 21.8569 83.1262 24.249C83.472 24.5447 84.598 25.3065 84.1911 25.103" stroke="#B89693" stroke-opacity="0.16" stroke-width="0.1" stroke-linecap="round"/>
<path d="M70.5742 14.3804C70.7 14.4276 70.817 14.4784 70.9327 14.5491C71.3617 14.8112 71.4745 14.9751 71.9527 15.4347C72.9318 16.3757 76.2578 19.6578 76.8449 20.232C77.8448 21.2099 78.8403 22.1925 79.8524 23.1578C80.1003 23.3942 81.9132 25.1762 82.6781 25.6249C83.2087 25.9363 83.1392 25.2092 83.1947 25.0082" stroke="#B89693" stroke-opacity="0.16" stroke-width="0.1" stroke-linecap="round"/>
<path d="M69.957 15.2822C74.0734 18.6877 78.4268 21.817 82.6724 25.056" stroke="#B89693" stroke-opacity="0.16" stroke-width="0.1" stroke-linecap="round"/>
<path d="M67.289 17.4492C67.9372 18.3714 70.0222 19.3348 70.6938 19.7476C73.9177 21.7291 77.1413 23.864 80.572 25.4807C81.6488 25.9881 81.6041 25.8595 82.4961 25.6881" stroke="#B89693" stroke-opacity="0.16" stroke-width="0.1" stroke-linecap="round"/>
<defs>
<filter id="filter0_d_1_290" x="0.467133" y="9.15759" width="91.7367" height="24.0451" filterUnits="userSpaceOnUse" color-interpolation-filters="sRGB">
<feFlood flood-opacity="0" result="BackgroundImageFix"/>
<feColorMatrix in="SourceAlpha" type="matrix" values="0 0 0 0 0 0 0 0 0 0 0 0 0 0 0 0 0 0 127 0" result="hardAlpha"/>
<feOffset dx="0.4" dy="0.3"/>
<feGaussianBlur stdDeviation="0.05"/>
<feComposite in2="hardAlpha" operator="out"/>
<feColorMatrix type="matrix" values="0 0 0 0 0 0 0 0 0 0 0 0 0 0 0 0 0 0 0.53 0"/>
<feBlend mode="normal" in2="BackgroundImageFix" result="effect1_dropShadow_1_290"/>
<feBlend mode="normal" in="SourceGraphic" in2="effect1_dropShadow_1_290" result="shape"/>
</filter>
</defs>
</svg>
