<svg width="55" height="44" viewBox="0 0 55 44" fill="none" xmlns="http://www.w3.org/2000/svg">
<g opacity="0.4" filter="url(#filter0_d_2_17)">
<path d="M52.4332 30.7118C49.9121 22.9802 17.3426 6.51 12.2312 1.60983C11.8312 1.22639 11.9254 1.234 11.8421 1.16038C11.6329 0.974966 11.2622 1.58342 11.0224 1.80798C10.8522 1.96743 10.6724 2.01267 10.4918 2.14269C10.2415 2.32292 10.0638 2.6001 9.80621 2.779C9.58308 2.93399 9.31763 2.97458 9.12279 3.1814L8.48463 3.85879C8.30846 4.04579 8.14055 4.1631 8.12504 4.38372C8.10023 4.73667 8.18271 5.10115 8.0473 5.48256C8.00909 5.59016 7.8858 5.42026 7.81498 5.37566C7.56471 5.21803 7.31347 5.05339 7.0424 4.92342C7.00252 4.9043 7.01386 5.45753 6.99788 5.5756C6.94157 5.99159 6.65787 5.88251 6.41652 5.83766C5.99491 5.75932 6.43752 6.63777 6.30236 6.8426C6.25621 6.91255 6.09432 6.867 6.06595 6.96556C5.96076 7.33099 6.117 7.75329 6.1364 8.07319C6.14532 8.22043 6.18602 8.45813 5.95712 8.57433C5.36932 8.87271 4.69288 8.90315 4.12137 9.03883C3.73873 9.12966 3.30817 9.21659 2.92769 9.49831C2.72433 9.64889 2.50789 9.9815 2.35929 10.1596C2.14879 10.4118 1.09505 11.4254 1.33185 11.6524L1.4827 11.797L3.45132 13.6843L6.35372 16.4668C7.93113 17.979 35.2331 32.8902 36.8105 34.4024C37.8094 35.36 37.9516 37.3202 38.9505 38.2778L41.0323 40.2736C41.3656 40.5931 41.724 41.1307 42.2025 41.2927C42.4497 41.3764 44.2183 42.0986 44.3172 41.9674C44.3969 41.8616 44.3605 41.5 44.3712 41.4118L44.3736 41.3922C44.4005 41.169 44.4387 40.8516 44.6933 40.6783C45.0067 40.465 45.1432 40.7686 45.2481 40.2859C45.3071 40.0147 45.4171 38.7996 45.7447 38.7714C46.0356 38.7464 46.3368 38.7586 46.6514 38.6136C47.139 38.3888 47.2599 37.9163 47.3911 37.4917C47.4241 37.3848 47.5131 36.8564 47.7045 36.7979C47.9593 36.72 48.1801 36.827 48.4417 36.7574C49.0858 36.5859 48.6193 35.4176 48.6765 35.0728C48.7032 34.9122 49.6554 34.7553 49.8454 34.5939C50.5206 34.0202 50.0884 32.8717 50.0544 32.3775C50.0043 31.6505 51.6968 31.848 51.9049 31.8791C52.2068 31.9242 52.5946 32.1316 52.9578 31.761C53.0106 31.7071 53.2478 31.4927 53.201 31.4479L52.4332 30.7118Z" fill="#F76C5E"/>
</g>
<defs>
<filter id="filter0_d_2_17" x="0.797363" y="0.525732" width="53.9097" height="42.8576" filterUnits="userSpaceOnUse" color-interpolation-filters="sRGB">
<feFlood flood-opacity="0" result="BackgroundImageFix"/>
<feColorMatrix in="SourceAlpha" type="matrix" values="0 0 0 0 0 0 0 0 0 0 0 0 0 0 0 0 0 0 127 0" result="hardAlpha"/>
<feOffset dx="0.5" dy="0.4"/>
<feGaussianBlur stdDeviation="0.5"/>
<feComposite in2="hardAlpha" operator="out"/>
<feColorMatrix type="matrix" values="0 0 0 0 0 0 0 0 0 0 0 0 0 0 0 0 0 0 0.53 0"/>
<feBlend mode="normal" in2="BackgroundImageFix" result="effect1_dropShadow_2_17"/>
<feBlend mode="normal" in="SourceGraphic" in2="effect1_dropShadow_2_17" result="shape"/>
</filter>
</defs>
</svg>
