<svg width="28" height="28" viewBox="0 0 28 28" fill="none" xmlns="http://www.w3.org/2000/svg">
<path d="M6.42176 22C5.52979 22 5.08411 20.9207 5.71621 20.2913L12.3472 13.6895C12.4721 13.5652 12.685 13.6536 12.685 13.8299C12.685 14.0061 12.4722 14.0946 12.3472 13.9703L6.05398 7.7089C5.42155 7.07967 5.86716 6 6.75929 6H7.58685C7.85505 6 8.11201 6.10774 8.30002 6.29901L14.1758 12.2768C14.3037 12.407 14.2115 12.6269 14.029 12.6269C13.8469 12.6269 13.7545 12.408 13.8815 12.2775L19.6995 6.30238C19.8877 6.10905 20.1461 6 20.4159 6H21.2713C22.1634 6 22.609 7.07967 21.9766 7.7089L15.6829 13.9707C15.5582 14.0949 15.3456 14.0065 15.3456 13.8305C15.3456 13.6543 15.5586 13.566 15.6832 13.6905L22.2911 20.2926C22.9215 20.9224 22.4754 22 21.5843 22H20.7185C20.4506 22 20.1938 21.8925 20.0059 21.7015L13.8272 15.4247C13.6755 15.2706 13.7847 15.0099 14.0009 15.0099C14.2169 15.0099 14.3261 15.27 14.175 15.4243L8.02496 21.6999C7.83687 21.8918 7.57946 22 7.31074 22H6.42176Z" fill="#08080D"/>
</svg>
