<svg width="28" height="28" viewBox="0 0 28 28" fill="none" xmlns="http://www.w3.org/2000/svg">
<path d="M3.69461 22.1666H25.4724C26.221 22.1666 26.8335 21.5541 26.8335 20.8055C26.8335 20.0569 26.221 19.4444 25.4724 19.4444H3.69461C2.946 19.4444 2.3335 20.0569 2.3335 20.8055C2.3335 21.5541 2.946 22.1666 3.69461 22.1666ZM3.69461 15.361H25.4724C26.221 15.361 26.8335 14.7485 26.8335 13.9999C26.8335 13.2513 26.221 12.6388 25.4724 12.6388H3.69461C2.946 12.6388 2.3335 13.2513 2.3335 13.9999C2.3335 14.7485 2.946 15.361 3.69461 15.361ZM2.3335 7.19436C2.3335 7.94297 2.946 8.55547 3.69461 8.55547H25.4724C26.221 8.55547 26.8335 7.94297 26.8335 7.19436C26.8335 6.44575 26.221 5.83325 25.4724 5.83325H3.69461C2.946 5.83325 2.3335 6.44575 2.3335 7.19436Z" fill="#08080D"/>
</svg>
