<svg width="228" height="104" viewBox="0 0 228 104" fill="none" xmlns="http://www.w3.org/2000/svg">
<path d="M3.23681 17.2408C3.59036 16.8165 3.533 16.186 3.10871 15.8324C2.68441 15.4789 2.05385 15.5362 1.70031 15.9605L3.23681 17.2408ZM1.01677 19.5543L0.0428381 19.7812L1.01677 19.5543ZM9.97792 35.5242L10.7678 34.911L9.97792 35.5242ZM59.2141 69.8669L59.1722 70.866L59.2141 69.8669ZM94.3828 30.7683L95.3828 30.7741L94.3828 30.7683ZM81.7922 28.4905L82.4388 29.2533L81.7922 28.4905ZM65.8974 56.6004L64.9162 56.4077L65.8974 56.6004ZM70.5782 96.6001L71.4131 96.0497L70.5782 96.6001ZM102.868 96.3498L103.36 97.2208L102.868 96.3498ZM148.951 41.8821L149.838 42.3425L148.951 41.8821ZM161.867 11.1439L162.828 11.4206L161.867 11.1439ZM165.872 1.15653L165.191 1.88932L165.872 1.15653ZM204.42 17.4017L204.382 18.401L204.42 17.4017ZM227.104 18.2089C227.494 17.8184 227.494 17.1852 227.104 16.7947L220.74 10.4307C220.349 10.0402 219.716 10.0402 219.326 10.4307C218.935 10.8213 218.935 11.4544 219.326 11.845L224.983 17.5018L219.326 23.1587C218.935 23.5492 218.935 24.1824 219.326 24.5729C219.716 24.9634 220.349 24.9634 220.74 24.5729L227.104 18.2089ZM1.14175 16.7089C0.830171 17.1649 0.947255 17.7872 1.40326 18.0987C1.85926 18.4103 2.48151 18.2932 2.79308 17.8372L1.14175 16.7089ZM2.08523 19.1002C2.28536 18.5855 2.03032 18.0059 1.51557 17.8058C1.00083 17.6057 0.4213 17.8607 0.221165 18.3754L2.08523 19.1002ZM0.801152 22.1079C1.00627 22.6207 1.58824 22.8701 2.10102 22.665C2.61381 22.4599 2.86322 21.8779 2.6581 21.3651L0.801152 22.1079ZM4.60895 25.3963C4.34337 24.912 3.73552 24.7348 3.25128 25.0004C2.76705 25.266 2.5898 25.8738 2.85538 26.358L4.60895 25.3963ZM5.22944 30.3707C5.52392 30.8379 6.14141 30.978 6.60863 30.6835C7.07585 30.389 7.21588 29.7715 6.92139 29.3043L5.22944 30.3707ZM9.44104 33.0946C9.12376 32.6426 8.50009 32.5333 8.04804 32.8506C7.59599 33.1679 7.48673 33.7916 7.80402 34.2436L9.44104 33.0946ZM10.384 37.6693C10.7251 38.1036 11.3538 38.1792 11.7881 37.8381C12.2224 37.4969 12.298 36.8683 11.9568 36.4339L10.384 37.6693ZM14.3632 39.4538C14.0157 39.0245 13.386 38.9583 12.9568 39.3059C12.5275 39.6534 12.4613 40.2831 12.8089 40.7123L14.3632 39.4538ZM15.2885 43.7172C15.6443 44.1397 16.2751 44.1937 16.6976 43.8379C17.12 43.4822 17.174 42.8513 16.8182 42.4289L15.2885 43.7172ZM19.334 45.3471C18.9682 44.9332 18.3363 44.8942 17.9224 45.2599C17.5086 45.6256 17.4696 46.2576 17.8353 46.6714L19.334 45.3471ZM20.4613 49.5616C20.8387 49.9649 21.4715 49.986 21.8748 49.6086C22.2781 49.2313 22.2991 48.5985 21.9218 48.1952L20.4613 49.5616ZM24.5927 50.9585C24.2021 50.568 23.569 50.5681 23.1785 50.9587C22.788 51.3492 22.7881 51.9824 23.1786 52.3729L24.5927 50.9585ZM25.999 55.0882C26.4044 55.4633 27.0371 55.4387 27.4122 55.0333C27.7872 54.6279 27.7627 53.9953 27.3573 53.6202L25.999 55.0882ZM30.2257 56.1606C29.804 55.8039 29.1731 55.8567 28.8164 56.2784C28.4598 56.7001 28.5126 57.331 28.9343 57.6877L30.2257 56.1606ZM31.9955 60.148C32.4349 60.4826 33.0623 60.3977 33.3969 59.9583C33.7315 59.5189 33.6466 58.8915 33.2072 58.5568L31.9955 60.148ZM36.3092 60.7825C35.8511 60.474 35.2297 60.5953 34.9212 61.0534C34.6128 61.5116 34.7341 62.133 35.1922 62.4415L36.3092 60.7825ZM38.5314 64.5362C39.0089 64.8138 39.621 64.6518 39.8986 64.1743C40.1762 63.6969 40.0142 63.0848 39.5367 62.8072L38.5314 64.5362ZM42.8906 64.5976C42.3939 64.356 41.7955 64.5628 41.5539 65.0595C41.3123 65.5561 41.5191 66.1546 42.0158 66.3962L42.8906 64.5976ZM45.6413 67.9825C46.156 68.1827 46.7356 67.9277 46.9358 67.413C47.136 66.8982 46.881 66.3187 46.3663 66.1185L45.6413 67.9825ZM49.9522 67.3351C49.4217 67.1813 48.8671 67.4867 48.7133 68.0171C48.5595 68.5476 48.8649 69.1022 49.3953 69.256L49.9522 67.3351ZM53.2552 70.1819C53.7977 70.2851 54.3212 69.9289 54.4244 69.3864C54.5276 68.8438 54.1715 68.3203 53.6289 68.2171L53.2552 70.1819ZM57.3704 68.7425C56.8204 68.6925 56.334 69.0977 56.2839 69.6478C56.2338 70.1978 56.6391 70.6842 57.1891 70.7343L57.3704 68.7425ZM61.3291 70.8813C61.8812 70.8658 62.3161 70.4056 62.3006 69.8536C62.2851 69.3015 61.8249 68.8665 61.2729 68.8821L61.3291 70.8813ZM65.2778 68.4795C64.7337 68.5746 64.3698 69.0927 64.4648 69.6368C64.5599 70.1808 65.078 70.5448 65.6221 70.4497L65.2778 68.4795ZM69.8058 69.3978C70.3302 69.2244 70.6147 68.6588 70.4413 68.1344C70.268 67.6101 69.7023 67.3255 69.1779 67.4989L69.8058 69.3978ZM72.8998 65.9651C72.4053 66.2109 72.2037 66.8111 72.4495 67.3057C72.6953 67.8003 73.2955 68.0019 73.7901 67.7561L72.8998 65.9651ZM77.5044 65.5854C77.9618 65.2758 78.0817 64.6541 77.7721 64.1967C77.4626 63.7393 76.8409 63.6194 76.3835 63.9289L77.5044 65.5854ZM79.5857 61.4565C79.1699 61.82 79.1274 62.4517 79.4909 62.8675C79.8544 63.2834 80.4861 63.3258 80.9019 62.9623L79.5857 61.4565ZM83.9596 59.9627C84.3316 59.5545 84.3023 58.9221 83.8941 58.5501C83.4859 58.178 82.8534 58.2074 82.4814 58.6156L83.9596 59.9627ZM85.0566 55.4697C84.7293 55.9146 84.8247 56.5405 85.2696 56.8677C85.7145 57.195 86.3404 57.0996 86.6677 56.6547L85.0566 55.4697ZM89.0234 53.0953C89.3054 52.6205 89.1491 52.0069 88.6742 51.7249C88.1994 51.4428 87.5858 51.5991 87.3038 52.074L89.0234 53.0953ZM89.2179 48.4744C88.9816 48.9736 89.1948 49.5698 89.694 49.8061C90.1932 50.0424 90.7894 49.8292 91.0257 49.33L89.2179 48.4744ZM92.6698 45.3975C92.8593 44.8787 92.5923 44.3046 92.0735 44.1151C91.5547 43.9257 90.9806 44.1927 90.7912 44.7115L92.6698 45.3975ZM92.012 40.8201C91.8713 41.3542 92.1902 41.9012 92.7242 42.0419C93.2583 42.1826 93.8053 41.8637 93.946 41.3297L92.012 40.8201ZM94.836 37.1567C94.9251 36.6117 94.5554 36.0976 94.0103 36.0086C93.4653 35.9196 92.9512 36.2892 92.8622 36.8343L94.836 37.1567ZM93.3155 32.7917C93.2824 33.343 93.7024 33.8168 94.2537 33.85C94.805 33.8831 95.2788 33.4631 95.3119 32.9118L93.3155 32.7917ZM95.1976 28.3652C95.1011 27.8214 94.5819 27.4589 94.0382 27.5555C93.4944 27.6521 93.1319 28.1712 93.2285 28.715L95.1976 28.3652ZM91.4581 25.8391C91.9591 26.0715 92.5536 25.8537 92.786 25.3526C93.0183 24.8516 92.8005 24.2571 92.2995 24.0247L91.4581 25.8391ZM87.1872 24.1051C86.6651 24.2853 86.388 24.8546 86.5682 25.3767C86.7484 25.8987 87.3176 26.1759 87.8397 25.9957L87.1872 24.1051ZM84.1352 27.949C84.5891 27.6344 84.702 27.0114 84.3873 26.5575C84.0727 26.1036 83.4497 25.9907 82.9958 26.3054L84.1352 27.949ZM79.5744 29.1305C79.1718 29.5086 79.1521 30.1415 79.5303 30.544C79.9084 30.9465 80.5413 30.9663 80.9438 30.5881L79.5744 29.1305ZM78.1564 33.4753C78.5207 33.0602 78.4796 32.4283 78.0645 32.064C77.6494 31.6998 77.0175 31.7409 76.6532 32.156L78.1564 33.4753ZM74.029 35.4339C73.7032 35.8799 73.8007 36.5055 74.2466 36.8313C74.6926 37.1571 75.3182 37.0596 75.644 36.6137L74.029 35.4339ZM73.4092 39.9622C73.6964 39.4905 73.5468 38.8752 73.0751 38.588C72.6034 38.3008 71.9882 38.4503 71.7009 38.922L73.4092 39.9622ZM69.6677 42.5855C69.4191 43.0787 69.6174 43.68 70.1106 43.9286C70.6037 44.1772 71.2051 43.9789 71.4537 43.4857L69.6677 42.5855ZM69.7803 47.1544C69.9899 46.6434 69.7456 46.0593 69.2346 45.8497C68.7236 45.6401 68.1395 45.8845 67.9299 46.3954L69.7803 47.1544ZM66.4914 50.3275C66.3218 50.8531 66.6104 51.4167 67.136 51.5863C67.6616 51.7559 68.2252 51.4674 68.3948 50.9418L66.4914 50.3275ZM67.3067 54.8239C67.4348 54.2867 67.1031 53.7473 66.5658 53.6193C66.0286 53.4912 65.4893 53.8229 65.3612 54.3601L67.3067 54.8239ZM64.548 58.4613C64.4592 59.0064 64.8291 59.5202 65.3742 59.609C65.9193 59.6978 66.4332 59.3279 66.522 58.7828L64.548 58.4613ZM65.9867 62.8038C66.0443 62.2545 65.6457 61.7625 65.0965 61.7049C64.5472 61.6473 64.0552 62.0458 63.9976 62.5951L65.9867 62.8038ZM63.672 66.7467C63.6431 67.2982 64.0668 67.7687 64.6183 67.7976C65.1699 67.8265 65.6404 67.4029 65.6693 66.8513L63.672 66.7467ZM65.5612 70.9112C65.5616 70.3589 65.1142 69.9109 64.5619 69.9105C64.0096 69.9102 63.5616 70.3576 63.5612 70.9099L65.5612 70.9112ZM63.6702 75.0758C63.6998 75.6273 64.1709 76.0504 64.7224 76.0207C65.2739 75.9911 65.697 75.52 65.6673 74.9686L63.6702 75.0758ZM66.0035 79.0075C65.9409 78.4588 65.4453 78.0648 64.8965 78.1274C64.3478 78.19 63.9538 78.6856 64.0164 79.2343L66.0035 79.0075ZM64.63 83.3708C64.7304 83.9139 65.252 84.2728 65.7951 84.1724C66.3382 84.0721 66.6971 83.5504 66.5967 83.0074L64.63 83.3708ZM67.4869 86.937C67.3419 86.4041 66.7924 86.0896 66.2595 86.2346C65.7265 86.3796 65.4121 86.9291 65.5571 87.462L67.4869 86.937ZM66.8638 91.468C67.0629 91.9831 67.642 92.2392 68.1571 92.0401C68.6722 91.8409 68.9284 91.2618 68.7292 90.7467L66.8638 91.468ZM70.3961 94.3585C70.1304 93.8743 69.5225 93.6972 69.0383 93.9629C68.5541 94.2286 68.377 94.8364 68.6427 95.3206L70.3961 94.3585ZM71.1919 99.0377C71.5601 99.4492 72.1923 99.4844 72.6039 99.1161C73.0155 98.7478 73.0506 98.1156 72.6823 97.704L71.1919 99.0377ZM75.8857 100.261C75.4011 99.9958 74.7935 100.174 74.5287 100.659C74.2639 101.143 74.4421 101.751 74.9268 102.016L75.8857 100.261ZM79.4229 103.579C79.9663 103.678 80.4869 103.317 80.5857 102.774C80.6846 102.23 80.3243 101.71 79.7809 101.611L79.4229 103.579ZM83.9899 101.841C83.4384 101.871 83.0163 102.343 83.047 102.895C83.0776 103.446 83.5495 103.868 84.101 103.838L83.9899 101.841ZM88.6728 103.188C89.2122 103.069 89.553 102.536 89.4341 101.996C89.3152 101.457 88.7816 101.116 88.2423 101.235L88.6728 103.188ZM92.4215 100.047C91.8991 100.226 91.6211 100.795 91.8005 101.317C91.9798 101.84 92.5487 102.118 93.071 101.939L92.4215 100.047ZM97.3005 100.273C97.8058 100.05 98.0345 99.4598 97.8114 98.9546C97.5884 98.4494 96.998 98.2206 96.4927 98.4437L97.3005 100.273ZM100.447 96.53C99.9579 96.7868 99.7697 97.3913 100.026 97.8803C100.283 98.3692 100.888 98.5575 101.377 98.3007L100.447 96.53ZM105.121 96.198C105.596 95.9147 105.75 95.3007 105.467 94.8266C105.184 94.3525 104.57 94.1978 104.096 94.481L105.121 96.198ZM107.455 92.3592C106.995 92.6656 106.871 93.2865 107.178 93.746C107.484 94.2055 108.105 94.3297 108.564 94.0233L107.455 92.3592ZM111.895 91.6835C112.339 91.3552 112.433 90.7291 112.105 90.285C111.776 89.8408 111.15 89.747 110.706 90.0753L111.895 91.6835ZM113.845 87.6377C113.417 87.9865 113.353 88.6164 113.702 89.0446C114.05 89.4727 114.68 89.5371 115.108 89.1882L113.845 87.6377ZM118.202 86.5481C118.614 86.1802 118.65 85.5481 118.282 85.1361C117.914 84.7242 117.282 84.6884 116.87 85.0563L118.202 86.5481ZM119.78 82.342C119.384 82.7273 119.376 83.3604 119.761 83.7561C120.146 84.1518 120.779 84.1603 121.175 83.775L119.78 82.342ZM124.027 80.8818C124.407 80.4807 124.39 79.8478 123.989 79.4681C123.588 79.0884 122.955 79.1056 122.575 79.5067L124.027 80.8818ZM125.258 76.5615C124.894 76.9767 124.935 77.6085 125.35 77.9727C125.766 78.3368 126.397 78.2954 126.762 77.8802L125.258 76.5615ZM129.382 74.782C129.731 74.3542 129.667 73.7242 129.24 73.375C128.812 73.0258 128.182 73.0895 127.832 73.5174L129.382 74.782ZM130.304 70.3852C129.969 70.8242 130.053 71.4518 130.492 71.7868C130.931 72.1218 131.558 72.0375 131.894 71.5984L130.304 70.3852ZM134.302 68.34C134.624 67.8911 134.521 67.2664 134.072 66.9447C133.623 66.623 132.998 66.7261 132.677 67.175L134.302 68.34ZM134.959 63.8958C134.649 64.3533 134.769 64.975 135.227 65.2843C135.684 65.5936 136.306 65.4735 136.615 65.016L134.959 63.8958ZM138.84 61.635C139.138 61.17 139.002 60.5515 138.537 60.2536C138.072 59.9556 137.454 60.091 137.156 60.556L138.84 61.635ZM139.276 57.1636C138.989 57.6351 139.138 58.2504 139.609 58.5381C140.081 58.8257 140.696 58.6766 140.984 58.2051L139.276 57.1636ZM143.054 54.7337C143.332 54.2567 143.171 53.6444 142.694 53.366C142.217 53.0877 141.605 53.2488 141.326 53.7258L143.054 54.7337ZM143.314 50.2487C143.044 50.7305 143.216 51.34 143.698 51.6101C144.179 51.8802 144.789 51.7086 145.059 51.2269L143.314 50.2487ZM147.007 47.6905C147.27 47.2049 147.089 46.598 146.604 46.335C146.118 46.0721 145.511 46.2526 145.248 46.7383L147.007 47.6905ZM147.135 43.1998C146.878 43.6887 147.066 44.2933 147.555 44.5502C148.044 44.8071 148.648 44.619 148.905 44.1302L147.135 43.1998ZM150.797 40.4816C151.048 39.9898 150.853 39.3874 150.361 39.136C149.87 38.8846 149.267 39.0795 149.016 39.5713L150.797 40.4816ZM150.884 35.8539C150.639 36.3493 150.843 36.9488 151.338 37.1931C151.834 37.4373 152.433 37.2338 152.678 36.7384L150.884 35.8539ZM154.499 32.9624C154.734 32.4628 154.52 31.867 154.021 31.6316C153.521 31.3962 152.925 31.6104 152.69 32.11L154.499 32.9624ZM154.421 28.3347C154.196 28.8392 154.423 29.4303 154.928 29.655C155.432 29.8797 156.023 29.6528 156.248 29.1483L154.421 28.3347ZM157.91 25.2918C158.122 24.7819 157.88 24.1966 157.37 23.9844C156.861 23.7723 156.275 24.0138 156.063 24.5237L157.91 25.2918ZM157.602 20.6737C157.405 21.1895 157.663 21.7677 158.178 21.9653C158.694 22.163 159.272 21.9051 159.47 21.3894L157.602 20.6737ZM160.914 17.4387C161.095 16.917 160.819 16.3472 160.297 16.166C159.775 15.9848 159.206 16.2609 159.024 16.7826L160.914 17.4387ZM160.315 12.8495C160.152 13.3772 160.448 13.937 160.975 14.0998C161.503 14.2625 162.063 13.9666 162.226 13.4389L160.315 12.8495ZM163.478 8.6019C163.606 8.06469 163.275 7.5253 162.737 7.39714C162.2 7.26897 161.661 7.60057 161.533 8.13777L163.478 8.6019ZM163.191 2.52842C162.984 3.04028 163.231 3.62336 163.743 3.83079C164.255 4.03821 164.838 3.79141 165.045 3.27956L163.191 2.52842ZM166.798 3.34803C167.211 3.71444 167.843 3.67647 168.21 3.26323C168.576 2.84999 168.538 2.21796 168.125 1.85156L166.798 3.34803ZM171.365 4.5768C170.932 4.23321 170.303 4.3052 169.96 4.73759C169.616 5.16999 169.688 5.79905 170.12 6.14264L171.365 4.5768ZM173.612 8.74086C174.066 9.05553 174.689 8.94268 175.003 8.4888C175.318 8.03493 175.205 7.4119 174.751 7.09723L173.612 8.74086ZM178.298 9.36569C177.821 9.0864 177.209 9.24624 176.93 9.7227C176.65 10.1992 176.81 10.8118 177.287 11.0911L178.298 9.36569ZM181.147 13.143C181.645 13.3812 182.242 13.1704 182.48 12.6721C182.719 12.1738 182.508 11.5768 182.009 11.3386L181.147 13.143ZM185.873 12.9814C185.356 12.7879 184.78 13.0504 184.586 13.5677C184.393 14.0849 184.655 14.6611 185.173 14.8546L185.873 12.9814ZM189.331 16.2075C189.863 16.3558 190.414 16.0448 190.563 15.5128C190.711 14.9808 190.4 14.4293 189.868 14.281L189.331 16.2075ZM193.963 15.2461C193.421 15.1404 192.895 15.4942 192.79 16.0363C192.684 16.5783 193.038 17.1035 193.58 17.2091L193.963 15.2461ZM197.883 17.8896C198.431 17.9573 198.931 17.5678 198.998 17.0197C199.066 16.4715 198.676 15.9723 198.128 15.9047L197.883 17.8896ZM202.338 16.2949C201.787 16.2597 201.312 16.6779 201.277 17.2291C201.242 17.7803 201.66 18.2556 202.211 18.2908L202.338 16.2949ZM206.222 18.4618C206.774 18.4774 207.234 18.0425 207.25 17.4904C207.265 16.9383 206.83 16.4782 206.278 16.4626L206.222 18.4618ZM209.925 16.5349C209.373 16.5281 208.919 16.9703 208.913 17.5226C208.906 18.0748 209.348 18.528 209.9 18.5347L209.925 16.5349ZM213.575 18.5578C214.127 18.5584 214.575 18.1111 214.576 17.5589C214.576 17.0066 214.129 16.5584 213.577 16.5578L213.575 18.5578ZM217.234 16.5487C216.681 16.5516 216.236 17.0017 216.239 17.554C216.242 18.1062 216.692 18.5516 217.244 18.5487L217.234 16.5487ZM220.909 18.5253C221.461 18.5216 221.906 18.0708 221.902 17.5186C221.898 16.9663 221.448 16.5216 220.895 16.5253L220.909 18.5253ZM224.562 16.5052C224.01 16.5071 223.563 16.9563 223.565 17.5086C223.567 18.0609 224.016 18.5071 224.569 18.5052L224.562 16.5052ZM1.70031 15.9605C1.54281 16.1495 1.34402 16.4129 1.14175 16.7089L2.79308 17.8372C2.96655 17.5833 3.12725 17.3723 3.23681 17.2408L1.70031 15.9605ZM0.221165 18.3754C0.087231 18.7199 -0.0794544 19.2562 0.0428381 19.7812L1.99069 19.3275C2.00024 19.3685 2.00003 19.3938 1.99999 19.3967C1.99995 19.3998 1.99989 19.3895 2.0046 19.3632C2.0145 19.3079 2.03838 19.2207 2.08523 19.1002L0.221165 18.3754ZM0.0428381 19.7812C0.212355 20.509 0.476087 21.2953 0.801152 22.1079L2.6581 21.3651C2.35711 20.6127 2.13028 19.9267 1.99069 19.3275L0.0428381 19.7812ZM2.85538 26.358C3.60512 27.725 4.42588 29.0958 5.22944 30.3707L6.92139 29.3043C6.13407 28.0551 5.33491 26.7199 4.60895 25.3963L2.85538 26.358ZM7.80402 34.2436C8.36177 35.0383 8.84132 35.6909 9.18801 36.1374L10.7678 34.911C10.4472 34.498 9.98751 33.8732 9.44104 33.0946L7.80402 34.2436ZM9.18801 36.1374C9.58248 36.6455 9.98112 37.1564 10.384 37.6693L11.9568 36.4339C11.5566 35.9243 11.1602 35.4165 10.7678 34.911L9.18801 36.1374ZM12.8089 40.7123C13.619 41.7129 14.4454 42.7162 15.2885 43.7172L16.8182 42.4289C15.9845 41.4389 15.1663 40.4456 14.3632 39.4538L12.8089 40.7123ZM17.8353 46.6714C18.694 47.6431 19.5692 48.6081 20.4613 49.5616L21.9218 48.1952C21.0437 47.2566 20.1812 46.3058 19.334 45.3471L17.8353 46.6714ZM23.1786 52.3729C24.1012 53.2953 25.0412 54.2019 25.999 55.0882L27.3573 53.6202C26.4198 52.7527 25.4984 51.864 24.5927 50.9585L23.1786 52.3729ZM28.9343 57.6877C29.9357 58.5346 30.956 59.3563 31.9955 60.148L33.2072 58.5568C32.1966 57.7872 31.2029 56.9869 30.2257 56.1606L28.9343 57.6877ZM35.1922 62.4415C36.2847 63.1771 37.3977 63.877 38.5314 64.5362L39.5367 62.8072C38.4431 62.1713 37.3674 61.4949 36.3092 60.7825L35.1922 62.4415ZM42.0158 66.3962C43.2024 66.9733 44.4107 67.5038 45.6413 67.9825L46.3663 66.1185C45.1888 65.6605 44.0304 65.152 42.8906 64.5976L42.0158 66.3962ZM49.3953 69.256C50.6598 69.6226 51.9463 69.9329 53.2552 70.1819L53.6289 68.2171C52.3835 67.9802 51.1581 67.6847 49.9522 67.3351L49.3953 69.256ZM57.1891 70.7343C57.845 70.794 58.506 70.8381 59.1722 70.866L59.256 68.8678C58.6225 68.8412 57.994 68.7993 57.3704 68.7425L57.1891 70.7343ZM59.1722 70.866C59.899 70.8965 60.618 70.9013 61.3291 70.8813L61.2729 68.8821C60.6087 68.9007 59.9363 68.8963 59.256 68.8678L59.1722 70.866ZM65.6221 70.4497C67.0579 70.1987 68.4535 69.845 69.8058 69.3978L69.1779 67.4989C67.9167 67.916 66.6159 68.2457 65.2778 68.4795L65.6221 70.4497ZM73.7901 67.7561C75.0777 67.116 76.3167 66.389 77.5044 65.5854L76.3835 63.9289C75.2669 64.6845 74.1048 65.3661 72.8998 65.9651L73.7901 67.7561ZM80.9019 62.9623C81.9747 62.0246 82.9948 61.0215 83.9596 59.9627L82.4814 58.6156C81.5656 59.6205 80.5994 60.5704 79.5857 61.4565L80.9019 62.9623ZM86.6677 56.6547C87.5094 55.5104 88.2954 54.3209 89.0234 53.0953L87.3038 52.074C86.6084 53.2447 85.8585 54.3795 85.0566 55.4697L86.6677 56.6547ZM91.0257 49.33C91.6345 48.0436 92.1833 46.7298 92.6698 45.3975L90.7912 44.7115C90.3256 45.9866 89.8003 47.2438 89.2179 48.4744L91.0257 49.33ZM93.946 41.3297C94.3105 39.9461 94.6081 38.552 94.836 37.1567L92.8622 36.8343C92.6448 38.1655 92.3605 39.4972 92.012 40.8201L93.946 41.3297ZM95.3119 32.9118C95.3549 32.1968 95.3787 31.4838 95.3828 30.7741L93.3829 30.7625C93.3789 31.4353 93.3564 32.1121 93.3155 32.7917L95.3119 32.9118ZM95.3828 30.7741C95.388 29.8873 95.3256 29.0854 95.1976 28.3652L93.2285 28.715C93.3316 29.2956 93.3874 29.9744 93.3829 30.7625L95.3828 30.7741ZM92.2995 24.0247C90.759 23.3103 88.9272 23.5045 87.1872 24.1051L87.8397 25.9957C89.3625 25.47 90.5954 25.4391 91.4581 25.8391L92.2995 24.0247ZM82.9958 26.3054C82.3617 26.7449 81.7411 27.2228 81.1455 27.7277L82.4388 29.2533C82.987 28.7886 83.5564 28.3503 84.1352 27.949L82.9958 26.3054ZM81.1455 27.7277C80.6105 28.1812 80.0867 28.6492 79.5744 29.1305L80.9438 30.5881C81.4318 30.1297 81.9302 29.6844 82.4388 29.2533L81.1455 27.7277ZM76.6532 32.156C75.732 33.2058 74.8567 34.3008 74.029 35.4339L75.644 36.6137C76.4377 35.5271 77.2757 34.4788 78.1564 33.4753L76.6532 32.156ZM71.7009 38.922C70.9748 40.1146 70.2965 41.3381 69.6677 42.5855L71.4537 43.4857C72.0589 42.2851 72.7113 41.1083 73.4092 39.9622L71.7009 38.922ZM67.9299 46.3954C67.3986 47.6908 66.9186 49.0038 66.4914 50.3275L68.3948 50.9418C68.8062 49.6668 69.2686 48.4021 69.7803 47.1544L67.9299 46.3954ZM65.3612 54.3601C65.1987 55.0419 65.0503 55.7247 64.9162 56.4077L66.8787 56.7931C67.0076 56.1365 67.1503 55.4798 67.3067 54.8239L65.3612 54.3601ZM64.9162 56.4077C64.7853 57.0743 64.6623 57.7596 64.548 58.4613L66.522 58.7828C66.6329 58.1018 66.7521 57.4378 66.8787 56.7931L64.9162 56.4077ZM63.9976 62.5951C63.856 63.9445 63.7461 65.3328 63.672 66.7467L65.6693 66.8513C65.7416 65.4722 65.8487 64.1186 65.9867 62.8038L63.9976 62.5951ZM63.5612 70.9099C63.5603 72.2904 63.5954 73.683 63.6702 75.0758L65.6673 74.9686C65.5945 73.6134 65.5603 72.2571 65.5612 70.9112L63.5612 70.9099ZM64.0164 79.2343C64.1754 80.6277 64.3786 82.0106 64.63 83.3708L66.5967 83.0074C66.3543 81.6957 66.1577 80.3585 66.0035 79.0075L64.0164 79.2343ZM65.5571 87.462C65.9319 88.8397 66.3658 90.18 66.8638 91.468L68.7292 90.7467C68.2584 89.5292 67.8455 88.2549 67.4869 86.937L65.5571 87.462ZM68.6427 95.3206C68.9885 95.9508 69.3551 96.5617 69.7434 97.1505L71.4131 96.0497C71.0562 95.5084 70.7174 94.944 70.3961 94.3585L68.6427 95.3206ZM69.7434 97.1505C70.196 97.8371 70.6797 98.4653 71.1919 99.0377L72.6823 97.704C72.2379 97.2075 71.8138 96.6575 71.4131 96.0497L69.7434 97.1505ZM74.9268 102.016C76.3445 102.79 77.8577 103.294 79.4229 103.579L79.7809 101.611C78.4021 101.36 77.0955 100.922 75.8857 100.261L74.9268 102.016ZM84.101 103.838C85.6181 103.753 87.152 103.523 88.6728 103.188L88.2423 101.235C86.8083 101.551 85.3823 101.763 83.9899 101.841L84.101 103.838ZM93.071 101.939C94.5222 101.44 95.9409 100.874 97.3005 100.273L96.4927 98.4437C95.1773 99.0245 93.8116 99.5696 92.4215 100.047L93.071 101.939ZM101.377 98.3007C102.067 97.9384 102.729 97.5763 103.36 97.2208L102.377 95.4788C101.763 95.8251 101.118 96.1776 100.447 96.53L101.377 98.3007ZM103.36 97.2208C103.953 96.8861 104.54 96.5451 105.121 96.198L104.096 94.481C103.529 94.8197 102.956 95.1523 102.377 95.4788L103.36 97.2208ZM108.564 94.0233C109.699 93.267 110.808 92.4867 111.895 91.6835L110.706 90.0753C109.645 90.8595 108.562 91.6213 107.455 92.3592L108.564 94.0233ZM115.108 89.1882C116.162 88.3296 117.193 87.4491 118.202 86.5481L116.87 85.0563C115.883 85.9377 114.875 86.7986 113.845 87.6377L115.108 89.1882ZM121.175 83.775C122.146 82.8295 123.097 81.8646 124.027 80.8818L122.575 79.5067C121.662 80.4704 120.731 81.4159 119.78 82.342L121.175 83.775ZM126.762 77.8802C127.653 76.8635 128.526 75.8303 129.382 74.782L127.832 73.5174C126.991 74.548 126.133 75.5631 125.258 76.5615L126.762 77.8802ZM131.894 71.5984C132.712 70.5254 133.515 69.4388 134.302 68.34L132.677 67.175C131.9 68.2582 131.11 69.3287 130.304 70.3852L131.894 71.5984ZM136.615 65.016C137.37 63.8993 138.112 62.7718 138.84 61.635L137.156 60.556C136.436 61.6797 135.704 62.7934 134.959 63.8958L136.615 65.016ZM140.984 58.2051C141.685 57.0555 142.375 55.8979 143.054 54.7337L141.326 53.7258C140.653 54.8794 139.97 56.0258 139.276 57.1636L140.984 58.2051ZM145.059 51.2269C145.717 50.053 146.366 48.8737 147.007 47.6905L145.248 46.7383C144.612 47.9135 143.967 49.0841 143.314 50.2487L145.059 51.2269ZM148.905 44.1302C149.218 43.5349 149.529 42.939 149.838 42.3425L148.063 41.4217C147.755 42.0151 147.446 42.6079 147.135 43.1998L148.905 44.1302ZM149.838 42.3425C150.16 41.7233 150.479 41.103 150.797 40.4816L149.016 39.5713C148.7 40.189 148.382 40.8057 148.063 41.4217L149.838 42.3425ZM152.678 36.7384C153.295 35.4854 153.903 34.2269 154.499 32.9624L152.69 32.11C152.1 33.3628 151.497 34.6105 150.884 35.8539L152.678 36.7384ZM156.248 29.1483C156.817 27.8698 157.372 26.5845 157.91 25.2918L156.063 24.5237C155.532 25.8001 154.984 27.0702 154.421 28.3347L156.248 29.1483ZM159.47 21.3894C159.971 20.0809 160.453 18.7642 160.914 17.4387L159.024 16.7826C158.571 18.0871 158.097 19.3839 157.602 20.6737L159.47 21.3894ZM162.226 13.4389C162.433 12.7685 162.633 12.0958 162.828 11.4206L160.906 10.8672C160.715 11.5301 160.518 12.1908 160.315 12.8495L162.226 13.4389ZM162.828 11.4206C162.873 11.2645 162.958 10.877 163.061 10.4181C163.169 9.93202 163.311 9.30313 163.478 8.6019L161.533 8.13777C161.362 8.85339 161.218 9.49366 161.109 9.98151C160.994 10.4964 160.929 10.7875 160.906 10.8672L162.828 11.4206ZM165.045 3.27956C165.326 2.58702 165.568 2.16104 165.737 1.97447C165.823 1.87975 165.791 1.95801 165.631 1.9895C165.4 2.03509 165.232 1.92697 165.191 1.88932L166.552 0.423735C166.227 0.122036 165.769 -0.0760529 165.245 0.0272035C164.792 0.116352 164.465 0.399906 164.255 0.631689C163.832 1.09811 163.483 1.8099 163.191 2.52842L165.045 3.27956ZM165.191 1.88932C165.728 2.38769 166.263 2.87389 166.798 3.34803L168.125 1.85156C167.602 1.38801 167.078 0.912133 166.552 0.423735L165.191 1.88932ZM170.12 6.14264C171.28 7.06369 172.441 7.92936 173.612 8.74086L174.751 7.09723C173.619 6.31213 172.492 5.47262 171.365 4.5768L170.12 6.14264ZM177.287 11.0911C178.555 11.8344 179.839 12.5178 181.147 13.143L182.009 11.3386C180.754 10.7383 179.519 10.0814 178.298 9.36569L177.287 11.0911ZM185.173 14.8546C186.527 15.3614 187.911 15.8117 189.331 16.2075L189.868 14.281C188.503 13.9003 187.173 13.4677 185.873 12.9814L185.173 14.8546ZM193.58 17.2091C194.976 17.4813 196.408 17.7075 197.883 17.8896L198.128 15.9047C196.697 15.728 195.311 15.5089 193.963 15.2461L193.58 17.2091ZM202.211 18.2908C202.924 18.3364 203.648 18.373 204.382 18.401L204.458 16.4024C203.74 16.3751 203.034 16.3393 202.338 16.2949L202.211 18.2908ZM204.382 18.401C204.995 18.4243 205.608 18.4445 206.222 18.4618L206.278 16.4626C205.671 16.4454 205.064 16.4255 204.458 16.4024L204.382 18.401ZM209.9 18.5347C211.126 18.5497 212.35 18.5564 213.575 18.5578L213.577 16.5578C212.358 16.5564 211.141 16.5498 209.925 16.5349L209.9 18.5347ZM217.244 18.5487C218.466 18.5423 219.689 18.5335 220.909 18.5253L220.895 16.5253C219.674 16.5336 218.454 16.5424 217.234 16.5487L217.244 18.5487ZM224.569 18.5052C225.178 18.503 225.788 18.5018 226.397 18.5018V16.5018C225.785 16.5018 225.173 16.503 224.562 16.5052L224.569 18.5052Z" fill="#F68E5F"/>
</svg>
