<svg width="42" height="17" viewBox="0 0 42 17" fill="none" xmlns="http://www.w3.org/2000/svg">
<path d="M1.60217 15.551C1.57365 15.5603 1.54932 15.5566 1.52918 15.5401C1.50905 15.5235 1.49371 15.499 1.48316 15.4667C1.47447 15.4401 1.47917 15.3965 1.49726 15.3359C1.51663 15.2728 1.54366 15.1977 1.57836 15.1106C1.61434 15.021 1.65447 14.9248 1.69876 14.822C1.74304 14.7192 1.78797 14.6151 1.83353 14.5098C1.69767 14.39 1.59296 14.2948 1.5194 14.2242C1.44523 14.1516 1.40007 14.0906 1.38394 14.0412C1.37277 14.0069 1.37393 13.9718 1.38744 13.9359C1.40033 13.898 1.41818 13.8753 1.44099 13.8679C1.46761 13.8592 1.49855 13.867 1.53382 13.8912C1.57037 13.913 1.61976 13.9547 1.68198 14.0165C1.74359 14.0763 1.8275 14.1594 1.93373 14.2656C1.99734 14.106 2.05034 13.9751 2.09272 13.8729C2.13701 13.7701 2.17293 13.69 2.20048 13.6326C2.22994 13.5746 2.25423 13.533 2.27336 13.5079C2.29378 13.4802 2.31349 13.4632 2.3325 13.457C2.35532 13.4496 2.37743 13.4529 2.39885 13.4669C2.41964 13.4791 2.43656 13.5051 2.44959 13.545C2.462 13.583 2.45914 13.6355 2.44101 13.7024C2.42479 13.7688 2.3987 13.8435 2.36276 13.9268C2.32682 14.0101 2.28675 14.0968 2.24255 14.1869C2.19962 14.2746 2.15893 14.3594 2.12047 14.4414C2.2689 14.5739 2.4067 14.6867 2.53388 14.7798C2.66043 14.871 2.76305 14.9469 2.84173 15.0075C2.92231 15.0675 2.96849 15.1155 2.98028 15.1516C2.98835 15.1764 2.98885 15.1972 2.98179 15.2143C2.97411 15.2294 2.9541 15.2422 2.92178 15.2528C2.89896 15.2602 2.86924 15.2594 2.83262 15.2503C2.79599 15.2413 2.74491 15.2169 2.67939 15.1773C2.61576 15.137 2.5298 15.0767 2.42152 14.9964C2.31452 14.9135 2.17986 14.8038 2.01754 14.6675C1.9752 14.7633 1.93378 14.8621 1.8933 14.9636C1.8541 15.0627 1.8162 15.1561 1.7796 15.2437C1.74428 15.3289 1.71158 15.3995 1.6815 15.4556C1.65143 15.5117 1.62498 15.5435 1.60217 15.551ZM7.02269 13.8007C7.03072 13.8317 7.02642 13.8605 7.00981 13.887C6.9932 13.9134 6.96969 13.9316 6.93927 13.9415C6.90505 13.9527 6.8728 13.9506 6.84254 13.9352C6.81228 13.9199 6.78939 13.8884 6.77388 13.8409C6.73354 13.7173 6.69549 13.5814 6.65974 13.4332C6.62337 13.2831 6.59046 13.1339 6.56103 12.9857C6.53098 12.8356 6.50465 12.697 6.48205 12.5697C6.44847 12.6795 6.4123 12.8007 6.37352 12.9333C6.33664 13.0653 6.29755 13.1969 6.25625 13.3282C6.21495 13.4595 6.17276 13.5816 6.12968 13.6945C6.08597 13.8056 6.04365 13.8983 6.0027 13.9727C5.96114 14.0451 5.92135 14.0876 5.88332 14.1C5.81297 14.123 5.74313 14.1152 5.6738 14.0769C5.60385 14.0366 5.55491 13.9737 5.52699 13.8881C5.51582 13.8539 5.50442 13.8061 5.49278 13.7446C5.48053 13.6813 5.4683 13.6148 5.45608 13.5452C5.44387 13.4755 5.43226 13.4109 5.42125 13.3514C5.40962 13.29 5.39915 13.245 5.38984 13.2165C5.38115 13.1899 5.37085 13.168 5.35894 13.1509C5.34831 13.1312 5.33539 13.1238 5.32018 13.1288C5.29737 13.1362 5.27437 13.1721 5.2512 13.2365C5.22741 13.299 5.20352 13.3773 5.17953 13.4713C5.15744 13.5648 5.135 13.6636 5.11221 13.7679C5.09132 13.8715 5.07173 13.9694 5.05345 14.0616C5.03454 14.1519 5.01701 14.2239 5.00086 14.2776C4.9898 14.3275 4.97691 14.3653 4.9622 14.3912C4.94749 14.417 4.92493 14.4349 4.89451 14.4448C4.85838 14.4566 4.81891 14.4485 4.77607 14.4204C4.73514 14.3916 4.70568 14.3497 4.68768 14.2946C4.67714 14.2623 4.66639 14.21 4.65546 14.1378C4.64391 14.0638 4.63304 13.9821 4.62284 13.8929C4.61455 13.803 4.60593 13.7154 4.59698 13.6299C4.58931 13.542 4.58282 13.4673 4.57751 13.4059C4.57162 13.3363 4.57636 13.2864 4.59173 13.2561C4.6071 13.2258 4.62809 13.2064 4.65471 13.1977C4.69084 13.1859 4.7237 13.1899 4.7533 13.2097C4.78418 13.2269 4.80831 13.2622 4.82569 13.3154C4.82879 13.3249 4.83147 13.3525 4.83371 13.398C4.83533 13.4417 4.83721 13.4958 4.83933 13.5603C4.84274 13.6223 4.84518 13.6878 4.84664 13.7567C4.85001 13.825 4.85468 13.8877 4.86064 13.9446C4.87951 13.8606 4.89842 13.7703 4.91737 13.6737C4.93821 13.5764 4.95937 13.4801 4.98084 13.3847C5.00169 13.2874 5.02502 13.1978 5.05083 13.1157C5.07603 13.0318 5.10492 12.9624 5.13752 12.9075C5.17012 12.8527 5.20733 12.8185 5.24916 12.8048C5.2986 12.7887 5.34919 12.789 5.40095 12.8058C5.45461 12.8219 5.50312 12.8513 5.5465 12.894C5.58987 12.9366 5.6218 12.9893 5.64227 13.0521C5.65655 13.0958 5.66911 13.1601 5.67996 13.2449C5.69019 13.3278 5.70165 13.4177 5.71432 13.5145C5.7289 13.6108 5.74763 13.7004 5.77051 13.7834C5.77672 13.8024 5.78552 13.81 5.79693 13.8063C5.80644 13.8032 5.81567 13.7928 5.82464 13.7752C5.85992 13.6963 5.89687 13.6033 5.93549 13.496C5.97349 13.3868 6.01089 13.2726 6.04768 13.1533C6.08638 13.0333 6.12475 12.9156 6.16279 12.8001C6.20021 12.6827 6.23598 12.5764 6.2701 12.4811C6.3055 12.3833 6.33856 12.3041 6.3693 12.2436C6.40194 12.1824 6.43157 12.1475 6.45819 12.1388C6.51523 12.1202 6.56423 12.1221 6.6052 12.1445C6.64617 12.1669 6.67907 12.2161 6.70389 12.2922C6.72375 12.353 6.74475 12.4335 6.76689 12.5335C6.79093 12.633 6.81491 12.7419 6.83884 12.8603C6.86466 12.9781 6.8889 13.0975 6.91154 13.2185C6.93547 13.3369 6.95691 13.4477 6.97587 13.5509C6.99421 13.6522 7.00981 13.7355 7.02269 13.8007ZM7.76977 13.7336C7.69752 13.7572 7.62677 13.7434 7.55752 13.6924C7.48955 13.6389 7.43788 13.5579 7.40251 13.4495C7.36962 13.3488 7.36176 13.2409 7.37892 13.1259C7.39799 13.0102 7.43446 12.8931 7.48833 12.7746C7.5422 12.656 7.60615 12.5426 7.6802 12.4343C7.75362 12.324 7.83046 12.2243 7.91071 12.135C7.99286 12.045 8.07049 11.9703 8.1436 11.9106C8.21671 11.851 8.27798 11.8131 8.32741 11.797C8.35403 11.7883 8.37776 11.7869 8.39859 11.7927C8.4188 11.7966 8.43326 11.8119 8.44194 11.8385C8.44753 11.8556 8.44615 11.8739 8.4378 11.8935C8.43971 11.8929 8.44161 11.8923 8.44351 11.8916C8.48534 11.878 8.51432 11.8959 8.53045 11.9453C8.53604 11.9624 8.54086 11.9998 8.54493 12.0573C8.54838 12.113 8.55426 12.1826 8.5626 12.2662C8.57093 12.3497 8.58395 12.4412 8.60167 12.5406C8.61877 12.6381 8.64314 12.7353 8.67479 12.8323C8.70147 12.9141 8.74619 12.9447 8.80893 12.9242C8.87928 12.9013 8.9453 12.8618 9.007 12.8059C9.0687 12.75 9.12633 12.6881 9.17988 12.6201C9.23281 12.5502 9.28035 12.4832 9.3225 12.4189C9.36402 12.3528 9.39947 12.297 9.42885 12.2517C9.45823 12.2063 9.48147 12.1808 9.49858 12.1753C9.5138 12.1703 9.52866 12.1707 9.54317 12.1765C9.55768 12.1823 9.56834 12.1956 9.57517 12.2165C9.58138 12.2356 9.57353 12.276 9.55164 12.3378C9.52975 12.3997 9.49767 12.4722 9.45541 12.5554C9.41314 12.6386 9.36265 12.7224 9.30394 12.8068C9.24522 12.8912 9.18119 12.9658 9.11185 13.0305C9.0425 13.0952 8.97076 13.1396 8.89661 13.1638C8.83957 13.1825 8.7817 13.1824 8.723 13.1637C8.66557 13.1425 8.60864 13.0937 8.5522 13.0175C8.49765 12.9406 8.44587 12.8271 8.39685 12.6769L8.37357 12.6056C8.33068 12.79 8.27868 12.9626 8.21759 13.1235C8.1584 13.2838 8.09083 13.4184 8.01488 13.5274C7.94084 13.6357 7.85913 13.7044 7.76977 13.7336ZM8.34024 12.02C8.33198 12.0269 8.32053 12.037 8.3059 12.0502C8.23147 12.1186 8.15635 12.1978 8.08052 12.2878C8.00659 12.3772 7.93674 12.4725 7.87096 12.574C7.80708 12.6748 7.75269 12.7756 7.70779 12.8765C7.66288 12.9774 7.63255 13.0746 7.61678 13.1682C7.60102 13.2617 7.60554 13.3464 7.63037 13.4225C7.63843 13.4472 7.64939 13.4647 7.66324 13.4749C7.67899 13.4845 7.70018 13.4849 7.7268 13.4762C7.76482 13.4638 7.8065 13.4239 7.85183 13.3565C7.89653 13.2872 7.94198 13.2009 7.98817 13.0974C8.03625 12.9934 8.08155 12.8808 8.12405 12.7596C8.16655 12.6384 8.20494 12.5175 8.23922 12.397C8.27539 12.2758 8.30455 12.1653 8.32668 12.0655C8.32994 12.0497 8.33446 12.0345 8.34024 12.02ZM9.78363 13.0542C9.75321 13.0641 9.72351 13.0601 9.69453 13.0423C9.66555 13.0244 9.64392 12.9936 9.62965 12.9498C9.6191 12.9175 9.60838 12.8621 9.59749 12.7836C9.58787 12.7026 9.57518 12.6089 9.5594 12.5025C9.54552 12.3956 9.52755 12.2857 9.50549 12.173C9.48281 12.0584 9.45502 11.9507 9.42213 11.8499C9.406 11.8005 9.40657 11.7603 9.42384 11.7295C9.44239 11.696 9.46782 11.6741 9.50015 11.6635C9.53057 11.6536 9.55959 11.6652 9.58721 11.6982C9.61483 11.7313 9.6425 11.8064 9.67023 11.9236C9.69439 11.7011 9.73952 11.5139 9.80562 11.3619C9.873 11.2073 9.95059 11.0873 10.0384 11.0019C10.1256 10.9145 10.211 10.8572 10.2947 10.8298C10.3498 10.8119 10.3935 10.8102 10.4256 10.825C10.4591 10.8372 10.4802 10.8566 10.4888 10.8832C10.5006 10.9194 10.4947 10.9529 10.4711 10.9837C10.4488 11.012 10.4059 11.0513 10.3423 11.1015C10.2692 11.1611 10.2046 11.2243 10.1485 11.291C10.0938 11.3551 10.0462 11.4317 10.0058 11.5206C9.96725 11.6089 9.9359 11.7159 9.91172 11.8416C9.88691 11.9654 9.87016 12.1139 9.86149 12.2872C9.85281 12.4604 9.85058 12.6663 9.85477 12.9047C9.85702 12.9503 9.85143 12.9847 9.838 13.0081C9.82647 13.0308 9.80835 13.0461 9.78363 13.0542ZM12.4352 12.2961C12.3116 12.3364 12.1879 12.3442 12.0641 12.3194C11.9422 12.2939 11.8242 12.2483 11.7101 12.1824C11.598 12.1159 11.4922 12.04 11.3928 11.9546C11.2947 11.8668 11.2073 11.7827 11.1306 11.7025C11.1486 11.8671 11.1635 12 11.1756 12.1013C11.1895 12.2019 11.1988 12.2788 11.2035 12.332C11.2102 12.3845 11.2115 12.4209 11.2076 12.4411C11.2037 12.4613 11.1941 12.4739 11.1789 12.4789C11.1371 12.4925 11.0897 12.4828 11.0368 12.4495C10.9838 12.4163 10.9456 12.3636 10.922 12.2913C10.8972 12.2153 10.8776 12.1102 10.8633 11.976C10.8483 11.8399 10.8376 11.6877 10.831 11.5195C10.8258 11.3487 10.8256 11.1709 10.8306 10.9863C10.8349 10.7997 10.8427 10.6173 10.8539 10.439C10.8664 10.2582 10.8836 10.0917 10.9054 9.9394C10.9167 9.8642 10.9306 9.81338 10.9472 9.78692C10.9657 9.75984 10.9921 9.74071 11.0263 9.72954C11.0814 9.71155 11.1174 9.72822 11.1341 9.77955C11.1403 9.79856 11.1415 9.82134 11.1375 9.84788C11.1354 9.8738 11.1334 9.90288 11.1313 9.93512C11.1243 10.0299 11.117 10.1365 11.1093 10.2547C11.1035 10.3723 11.0983 10.495 11.0937 10.6227C11.0911 10.7498 11.09 10.8753 11.0904 10.9993C11.0909 11.1233 11.0934 11.2371 11.0978 11.3409C11.1609 11.2572 11.2383 11.1688 11.33 11.0758C11.4216 10.9827 11.519 10.8942 11.622 10.8101C11.7243 10.724 11.8231 10.6497 11.9184 10.5871C12.0137 10.5244 12.0955 10.4819 12.164 10.4596C12.2001 10.4478 12.2314 10.4502 12.2578 10.4668C12.2856 10.4809 12.3038 10.5013 12.3125 10.5279C12.3193 10.5488 12.3195 10.5719 12.313 10.5971C12.3078 10.6199 12.2887 10.645 12.2556 10.6727C12.1444 10.7574 12.0344 10.8427 11.9257 10.9286C11.8164 11.0127 11.7027 11.1024 11.5844 11.1978C11.4675 11.2907 11.3413 11.3971 11.2058 11.5171C11.2825 11.5846 11.37 11.656 11.4682 11.7312C11.5658 11.8046 11.6665 11.8716 11.7705 11.9323C11.8739 11.9912 11.9745 12.0351 12.0723 12.0642C12.1695 12.0914 12.2581 12.0919 12.3379 12.0659C12.4425 12.0317 12.5361 11.977 12.6188 11.9016C12.7015 11.8262 12.7735 11.7438 12.8348 11.6544C12.898 11.5644 12.9513 11.4796 12.9948 11.4002C13.0377 11.3189 13.0716 11.2552 13.0966 11.2092C13.11 11.1859 13.1234 11.1689 13.1367 11.1582C13.1514 11.145 13.1653 11.1363 13.1787 11.1319C13.2053 11.1232 13.228 11.1316 13.2468 11.157C13.2669 11.1799 13.267 11.2125 13.2471 11.2547C13.233 11.2888 13.2112 11.3412 13.1816 11.4118C13.1521 11.4825 13.114 11.5622 13.0672 11.6511C13.0218 11.7375 12.9681 11.8244 12.9062 11.912C12.8462 11.9989 12.7759 12.0765 12.6951 12.145C12.6169 12.2147 12.5302 12.265 12.4352 12.2961ZM13.6964 11.7866C13.6546 11.8002 13.6182 11.7984 13.5874 11.7812C13.559 11.7652 13.5399 11.742 13.5299 11.7115C13.5212 11.6849 13.5246 11.6565 13.54 11.6262C13.5566 11.5934 13.5827 11.5607 13.6184 11.528C13.6814 11.4633 13.7396 11.4001 13.7932 11.3385C13.8486 11.2762 13.8898 11.2154 13.9167 11.1561C13.9436 11.0968 13.9487 11.0415 13.932 10.9902C13.9177 10.9465 13.8926 10.9179 13.8566 10.9043C13.82 10.8889 13.777 10.8893 13.7276 10.9054C13.699 10.9147 13.661 10.9335 13.6134 10.9616C13.5651 10.9879 13.5128 11.0176 13.4563 11.0508C13.4011 11.0814 13.3468 11.1118 13.2935 11.1418C13.2395 11.1699 13.1926 11.1905 13.1527 11.2035C13.0804 11.2271 13.0207 11.2277 12.9734 11.2052C12.9255 11.1809 12.8916 11.1383 12.8717 11.0775C12.8618 11.0471 12.8649 10.9955 12.8812 10.9229C12.8975 10.8503 12.923 10.7673 12.9577 10.6739C12.9937 10.578 13.0355 10.4802 13.0829 10.3806C13.1303 10.2809 13.1806 10.1867 13.2336 10.0978C13.2886 10.0084 13.3418 9.93313 13.3935 9.8721C13.447 9.81045 13.4956 9.77249 13.5393 9.75822C13.5831 9.74395 13.621 9.74735 13.6531 9.76842C13.6852 9.78949 13.7084 9.82189 13.7227 9.86562C13.7339 9.89985 13.7378 9.93118 13.7344 9.95962C13.7305 9.98616 13.7126 10.012 13.6808 10.0371C13.6509 10.0616 13.6002 10.0865 13.5286 10.112C13.4737 10.1952 13.4168 10.2884 13.3579 10.3918C13.3004 10.4926 13.2504 10.5941 13.208 10.6963C13.1669 10.796 13.143 10.8869 13.1361 10.9691C13.192 10.9277 13.2622 10.8848 13.3466 10.8404C13.4323 10.7935 13.5217 10.7549 13.6149 10.7245C13.7613 10.6767 13.8805 10.6746 13.9726 10.7182C14.0659 10.7592 14.13 10.833 14.1647 10.9395C14.187 11.0079 14.1885 11.0864 14.1689 11.1748C14.1507 11.2607 14.1176 11.3462 14.0696 11.4313C14.0216 11.5163 13.9649 11.5906 13.8993 11.6541C13.8344 11.7195 13.7668 11.7636 13.6964 11.7866ZM15.5335 10.1077C15.4809 10.1207 15.4463 10.0952 15.4296 10.0312C15.4265 10.0153 15.4311 9.99387 15.4433 9.96675C15.4549 9.93773 15.4727 9.91824 15.4968 9.90827C15.5539 9.88333 15.6233 9.85119 15.7052 9.81186C15.7883 9.77 15.8793 9.72345 15.9783 9.67221C15.9669 9.57284 15.9578 9.46748 15.9509 9.35612C15.944 9.24477 15.9409 9.13533 15.9415 9.02781C15.9416 8.9184 15.9467 8.81787 15.9567 8.72622C15.9668 8.63458 15.9843 8.55942 16.0094 8.50076C16.0235 8.47302 16.0378 8.45255 16.0524 8.43936C16.0664 8.42427 16.0801 8.41456 16.0934 8.41021C16.12 8.40152 16.1447 8.4061 16.1673 8.42396C16.1919 8.44119 16.2088 8.46406 16.2181 8.49258C16.2231 8.50779 16.2252 8.52393 16.2245 8.541C16.2212 8.65989 16.2231 8.80442 16.2303 8.9746C16.2374 9.14478 16.2464 9.33015 16.2572 9.53071C16.4228 9.44509 16.5878 9.35758 16.7521 9.26817C16.9165 9.17876 17.0571 9.10026 17.1739 9.03269C17.205 9.00569 17.2335 8.99954 17.2594 9.01425C17.2871 9.02834 17.3044 9.04584 17.3112 9.06675C17.3199 9.09337 17.3188 9.11582 17.308 9.13409C17.299 9.15174 17.2885 9.16781 17.2764 9.18228L17.2744 9.18606C17.2414 9.21368 17.1902 9.25036 17.121 9.2961C17.0512 9.33993 16.9705 9.38939 16.8791 9.44448C16.7871 9.49766 16.6884 9.55301 16.583 9.61054C16.4796 9.66745 16.3764 9.72214 16.2737 9.77463C16.2845 9.95621 16.296 10.1429 16.3081 10.3346C16.3215 10.5238 16.3339 10.7101 16.3454 10.8936C16.3487 10.9682 16.3408 11.0182 16.3217 11.0433C16.3051 11.0698 16.2835 11.0874 16.2568 11.0961C16.2264 11.106 16.1961 11.1033 16.1658 11.0879C16.1375 11.0719 16.1194 11.0263 16.1117 10.9509L16.0024 9.91049C15.8939 9.96483 15.7972 10.0101 15.7122 10.0462C15.6291 10.0818 15.5696 10.1023 15.5335 10.1077ZM17.5574 10.599C17.5156 10.6126 17.4792 10.6108 17.4484 10.5936C17.4181 10.5782 17.3878 10.5239 17.3573 10.4308C17.3294 10.3452 17.3083 10.229 17.2941 10.0822C17.2792 9.93347 17.2698 9.76612 17.2659 9.58015C17.262 9.39418 17.2629 9.20034 17.2686 8.99862C17.2737 8.79499 17.2828 8.59424 17.2961 8.39636C17.3106 8.19596 17.3273 8.0117 17.346 7.84358C17.3534 7.78228 17.367 7.73683 17.3867 7.70722C17.4065 7.67762 17.4345 7.65693 17.4706 7.64514C17.4953 7.63707 17.5187 7.63785 17.5408 7.64747C17.5642 7.65458 17.5811 7.67429 17.5917 7.70661C17.5954 7.71802 17.5951 7.75913 17.5909 7.82994C17.5886 7.90013 17.5832 7.99338 17.5749 8.1097C17.5685 8.22541 17.5614 8.35502 17.5535 8.49854C17.5456 8.64206 17.539 8.79254 17.5336 8.95C17.5282 9.10745 17.5259 9.26492 17.5268 9.42241C17.5271 9.578 17.5322 9.72571 17.5421 9.86555C17.552 10.0054 17.568 10.1285 17.5901 10.2349C17.6177 10.1649 17.647 10.0774 17.678 9.97265C17.709 9.86786 17.7417 9.75517 17.776 9.63458C17.8102 9.51399 17.8458 9.39405 17.8826 9.27474C17.9194 9.15543 17.958 9.04499 17.9985 8.94342C18.039 8.84185 18.08 8.75799 18.1215 8.69184C18.1643 8.62317 18.2076 8.58169 18.2513 8.56742C18.3236 8.54384 18.389 8.54773 18.4476 8.57909C18.5075 8.60792 18.5539 8.67273 18.5868 8.77349C18.6054 8.83053 18.6164 8.9027 18.6196 8.99C18.6248 9.07668 18.6273 9.16841 18.6274 9.26518C18.6274 9.36194 18.629 9.45398 18.6323 9.54128C18.6374 9.62796 18.6493 9.69982 18.6679 9.75686C18.6934 9.83481 18.7356 9.86417 18.7945 9.84493C18.8858 9.81514 18.9705 9.76539 19.0487 9.69568C19.1289 9.62535 19.2012 9.54706 19.2656 9.46081C19.3294 9.37267 19.3865 9.28669 19.437 9.20289C19.4869 9.11719 19.5294 9.0444 19.5645 8.98454C19.6023 8.91963 19.6392 8.88128 19.6753 8.86949C19.721 8.8546 19.7515 8.87092 19.767 8.91845C19.7714 8.93176 19.7735 8.9479 19.7734 8.96687C19.7733 8.98585 19.7652 9.01268 19.7492 9.04736C19.7299 9.09151 19.7008 9.15047 19.6617 9.22422C19.6246 9.29735 19.5792 9.37739 19.5255 9.46434C19.4737 9.55066 19.4141 9.63536 19.3465 9.71842C19.2808 9.80086 19.2092 9.87473 19.1316 9.94002C19.0554 10.0028 18.9754 10.0478 18.8917 10.0751C18.7777 10.1124 18.6787 10.1089 18.5948 10.0647C18.5123 10.018 18.4521 9.93671 18.4142 9.82073C18.3906 9.74848 18.3735 9.6573 18.3628 9.54718C18.3521 9.43706 18.3453 9.31938 18.3423 9.19413C18.3405 9.06637 18.3397 8.94145 18.3399 8.81938C18.2927 8.88107 18.2466 8.96553 18.2017 9.07277C18.158 9.17748 18.1143 9.29485 18.0704 9.42486C18.026 9.55298 17.9822 9.68299 17.939 9.81491C17.8977 9.9462 17.8558 10.0693 17.8133 10.1841C17.7721 10.2964 17.7301 10.3901 17.6873 10.4651C17.6444 10.5401 17.6011 10.5847 17.5574 10.599ZM20.5417 8.12281C20.5616 8.18365 20.5621 8.24974 20.5433 8.3211C20.5239 8.39055 20.4916 8.46213 20.4462 8.53584C20.4002 8.60766 20.3466 8.67879 20.2855 8.74924C20.2243 8.8197 20.1613 8.88444 20.0964 8.94349C20.0315 9.00254 19.9711 9.05275 19.9152 9.09415C19.9242 9.17326 19.938 9.24134 19.9566 9.29838C19.9684 9.3345 19.9853 9.35738 20.0074 9.367C20.0295 9.37663 20.0586 9.37555 20.0947 9.36375C20.1746 9.33769 20.2545 9.29582 20.3346 9.23813C20.4146 9.18045 20.4938 9.11358 20.5721 9.03755C20.6503 8.96151 20.7239 8.88386 20.7927 8.8046C20.8615 8.72534 20.9236 8.65141 20.9791 8.58282C21.0364 8.51361 21.0842 8.45699 21.1224 8.41295C21.1607 8.36892 21.1874 8.34442 21.2026 8.33946C21.2254 8.33201 21.245 8.33403 21.2614 8.34552C21.279 8.35448 21.2909 8.36847 21.2972 8.38748C21.3021 8.40269 21.288 8.43992 21.2547 8.49917C21.2234 8.55779 21.1783 8.62929 21.1196 8.71367C21.0603 8.79616 20.992 8.88364 20.9149 8.97613C20.8378 9.06862 20.7557 9.15855 20.6685 9.24592C20.5832 9.33266 20.4973 9.40802 20.4109 9.47199C20.3264 9.53534 20.2461 9.57943 20.1701 9.60425C20.0712 9.63652 19.9821 9.62457 19.9028 9.56842C19.8234 9.51227 19.7583 9.40624 19.7074 9.25033C19.6733 9.14576 19.6522 9.03589 19.644 8.92073C19.6378 8.80495 19.6426 8.69082 19.6585 8.57834C19.6757 8.46334 19.7013 8.3582 19.7354 8.26291C19.7708 8.1651 19.8147 8.08347 19.8669 8.01802C19.9186 7.95067 19.9758 7.90675 20.0385 7.88627C20.1583 7.84718 20.2633 7.84973 20.3534 7.89394C20.4436 7.93814 20.5064 8.01443 20.5417 8.12281ZM19.9034 8.855C19.9506 8.79964 19.999 8.74176 20.0487 8.68135C20.0984 8.62094 20.1431 8.56114 20.1827 8.50194C20.2222 8.44273 20.2507 8.38504 20.2682 8.32886C20.2869 8.27016 20.2882 8.21609 20.272 8.16666C20.2491 8.09631 20.1996 8.07354 20.1235 8.09837C20.076 8.11388 20.0355 8.16075 20.0022 8.23896C19.9701 8.31466 19.9458 8.40779 19.9293 8.51837C19.9127 8.62895 19.9041 8.74116 19.9034 8.855ZM22.9492 9.63444C22.9169 9.64499 22.8875 9.64196 22.861 9.62535C22.8365 9.60812 22.8136 9.56718 22.7925 9.50254C22.7621 9.40937 22.7334 9.29883 22.7064 9.1709C22.6793 9.04297 22.6546 8.90589 22.6321 8.75965C22.6115 8.61278 22.5928 8.4653 22.5761 8.3172C22.5612 8.16848 22.5494 8.0261 22.5408 7.89006C22.5341 7.75341 22.531 7.63132 22.5317 7.52381C22.5317 7.41439 22.5358 7.32682 22.5438 7.26109C22.5537 7.19474 22.5691 7.15816 22.59 7.15133C22.6261 7.13954 22.6581 7.14069 22.6858 7.15478C22.7154 7.16825 22.7371 7.19589 22.7507 7.23772C22.7681 7.29096 22.7802 7.38274 22.787 7.51307C22.7931 7.6415 22.8016 7.80916 22.8123 8.01604C22.8313 7.91307 22.8528 7.80505 22.8769 7.69199C22.901 7.57893 22.9289 7.46779 22.9606 7.35857C22.9916 7.24745 23.0258 7.14584 23.0631 7.05373C23.1022 6.96101 23.1441 6.88316 23.1888 6.82019C23.2335 6.75722 23.2834 6.71674 23.3385 6.69875C23.3975 6.67951 23.4559 6.68146 23.514 6.70459C23.5714 6.72582 23.6227 6.76377 23.6679 6.81845C23.7144 6.8706 23.75 6.93471 23.7749 7.01076C23.8264 7.16856 23.8497 7.33031 23.8449 7.49598C23.8394 7.65976 23.8084 7.8161 23.7518 7.96501C23.6965 8.11139 23.6163 8.2396 23.5113 8.34962C23.4081 8.45902 23.2834 8.53762 23.137 8.5854C23.0818 8.6034 23.0315 8.61668 22.9859 8.62525C22.9403 8.63382 22.9001 8.63957 22.8653 8.64252C22.8834 8.77545 22.9037 8.91187 22.9263 9.05179C22.9488 9.19171 22.9741 9.34018 23.0022 9.49721C23.0095 9.539 23.009 9.56967 23.0007 9.58922C22.993 9.61068 22.9758 9.62575 22.9492 9.63444ZM23.4606 6.89874C23.4207 6.91177 23.3806 6.9501 23.3403 7.01373C23.302 7.07673 23.2639 7.1565 23.2259 7.25303C23.1893 7.34704 23.1545 7.44991 23.1215 7.56165C23.088 7.67149 23.0569 7.78261 23.0284 7.89501C22.9999 8.00741 22.9739 8.11161 22.9505 8.2076C22.9291 8.30297 22.9118 8.38223 22.8988 8.4454C23.0458 8.39319 23.1664 8.32121 23.2606 8.22946C23.3542 8.13581 23.4266 8.03222 23.4779 7.9187C23.5286 7.80328 23.5619 7.68616 23.5778 7.56736C23.595 7.44603 23.5992 7.33316 23.5904 7.22875C23.5809 7.12244 23.5644 7.03316 23.5408 6.96091C23.5235 6.90767 23.4967 6.88695 23.4606 6.89874ZM25.2306 6.54194C25.2703 6.66362 25.2508 6.80043 25.172 6.95236C25.0933 7.10429 24.9506 7.26657 24.744 7.43921C24.7519 7.48922 24.7611 7.53039 24.7717 7.56271C24.7965 7.63877 24.824 7.6908 24.8542 7.71882C24.8863 7.74621 24.9261 7.75216 24.9736 7.73664C25.0439 7.71368 25.1157 7.66606 25.1889 7.59379C25.2615 7.51961 25.3328 7.43215 25.403 7.33139C25.4726 7.22873 25.5391 7.1229 25.6024 7.01388C25.6676 6.90423 25.7267 6.80183 25.7798 6.70666C25.8323 6.60959 25.878 6.5305 25.917 6.46939C25.9553 6.40639 25.984 6.37178 26.003 6.36558C26.0296 6.35689 26.0555 6.36211 26.0807 6.38124C26.1052 6.39847 26.124 6.42705 26.1371 6.46698C26.1532 6.51641 26.169 6.57438 26.1844 6.64089C26.1991 6.70549 26.2142 6.77421 26.2296 6.84704C26.2337 6.69211 26.2561 6.55121 26.2967 6.42434C26.3386 6.29495 26.3912 6.18206 26.4544 6.08569C26.5176 5.98932 26.5845 5.91068 26.6551 5.84977C26.7257 5.78887 26.7905 5.74879 26.8494 5.72956C26.9046 5.71156 26.9488 5.70868 26.9823 5.7209C27.0157 5.73313 27.0371 5.7535 27.0464 5.78202C27.0551 5.80864 27.0508 5.83739 27.0335 5.86827C27.0176 5.89663 26.9733 5.94158 26.9008 6.0031C26.8163 6.07278 26.7396 6.14725 26.6708 6.22651C26.6039 6.30515 26.5489 6.40094 26.5058 6.51388C26.4621 6.62492 26.4356 6.76295 26.4264 6.92796C26.4171 7.09298 26.4301 7.29703 26.4652 7.54012C26.4725 7.58823 26.4698 7.6249 26.457 7.65012C26.4448 7.67724 26.4254 7.69514 26.3988 7.70383C26.3797 7.71003 26.3579 7.70768 26.3333 7.69678C26.3094 7.68777 26.282 7.65566 26.2514 7.60045C26.2201 7.54333 26.1834 7.45012 26.1412 7.32084C26.1127 7.23338 26.0854 7.13707 26.0595 7.03192C26.0355 6.92615 26.0138 6.81438 25.9943 6.69662C25.9378 6.82023 25.8735 6.95169 25.8011 7.09102C25.7282 7.22844 25.6492 7.36045 25.5643 7.48704C25.4788 7.61173 25.3899 7.71964 25.2976 7.81077C25.2053 7.9019 25.1116 7.96298 25.0166 7.99401C24.9158 8.0269 24.8235 8.0181 24.7397 7.96761C24.6559 7.91712 24.5914 7.82248 24.5461 7.68368C24.4939 7.52397 24.4671 7.37075 24.4655 7.22401C24.4638 7.07726 24.4805 6.94455 24.5154 6.82586C24.5497 6.70528 24.5961 6.60595 24.6548 6.5279C24.7135 6.44984 24.778 6.39933 24.8483 6.37637C24.9434 6.34534 25.0247 6.34617 25.0922 6.37884C25.159 6.40962 25.2051 6.46399 25.2306 6.54194ZM24.7217 7.21612C24.7657 7.15758 24.8129 7.09273 24.8633 7.02158C24.9156 6.94981 24.9571 6.88049 24.9879 6.81365C25.02 6.74427 25.0289 6.68772 25.0146 6.64399C25.0059 6.61738 24.993 6.60054 24.976 6.59347C24.959 6.58641 24.9343 6.58815 24.902 6.5987C24.8506 6.61546 24.8115 6.65664 24.7845 6.72224C24.7569 6.78595 24.7387 6.86237 24.73 6.95149C24.7206 7.03871 24.7178 7.12692 24.7217 7.21612ZM27.7021 7.42677C27.6697 7.43732 27.6403 7.43429 27.6139 7.41768C27.5874 7.40107 27.5655 7.36614 27.5481 7.31291C27.5171 7.21784 27.4899 7.11838 27.4665 7.0145C27.4444 6.90811 27.4191 6.81118 27.3905 6.72373C27.3254 6.52409 27.2536 6.36552 27.1753 6.24803C27.0983 6.12801 26.9943 6.06411 26.8634 6.05633C26.8337 6.05551 26.8113 6.05126 26.7962 6.04358C26.7791 6.03651 26.7666 6.02062 26.7585 5.99591C26.7498 5.96929 26.7532 5.94401 26.7685 5.92007C26.7819 5.89676 26.8152 5.87641 26.8685 5.85903C26.9122 5.84476 26.9708 5.82773 27.0443 5.80796C27.1178 5.78818 27.197 5.76654 27.2819 5.74304C27.2719 5.51275 27.2814 5.31612 27.3103 5.15312C27.3391 4.99012 27.3842 4.85443 27.4456 4.74603C27.5089 4.63701 27.5844 4.54925 27.6721 4.48276C27.7617 4.41565 27.8607 4.3644 27.9691 4.32903C28.0166 4.31352 28.0492 4.31024 28.0668 4.31921C28.0839 4.32627 28.0964 4.34216 28.1045 4.36688C28.1144 4.3973 28.1155 4.43272 28.1076 4.47315C28.0992 4.51168 28.067 4.54532 28.0112 4.57406C27.8893 4.63907 27.788 4.71845 27.707 4.81218C27.6261 4.90591 27.5675 5.02286 27.5312 5.16304C27.4943 5.30132 27.4816 5.47169 27.4929 5.67415C27.6742 5.61078 27.828 5.55008 27.9542 5.49205C28.0798 5.43212 28.1832 5.37837 28.2645 5.33081C28.347 5.28073 28.4127 5.24035 28.4616 5.20967C28.5099 5.17708 28.5483 5.15613 28.5768 5.14682C28.6091 5.13628 28.6319 5.13832 28.6451 5.15294C28.6583 5.16757 28.668 5.1844 28.6742 5.20341C28.686 5.23953 28.6632 5.28588 28.6059 5.34244C28.548 5.3971 28.4674 5.45605 28.3639 5.51928C28.2617 5.57999 28.1465 5.63967 28.0184 5.69832C27.8902 5.75697 27.7615 5.80739 27.6322 5.84959C27.6113 5.85641 27.5904 5.86324 27.5695 5.87007C27.5505 5.87627 27.5305 5.88279 27.5096 5.88961C27.5102 5.90416 27.512 5.91935 27.515 5.93519C27.532 6.05167 27.5511 6.1748 27.5725 6.30459C27.5951 6.43186 27.618 6.55691 27.6413 6.67976C27.6658 6.80008 27.6898 6.90902 27.7132 7.00656C27.7366 7.10411 27.7577 7.1814 27.7763 7.23844C27.7918 7.28597 27.7922 7.32582 27.7774 7.35798C27.7633 7.39205 27.7382 7.41498 27.7021 7.42677ZM27.2948 5.94709C27.2378 5.95938 27.184 5.96853 27.1334 5.97454C27.1674 5.99499 27.1992 6.02144 27.2287 6.05388C27.2601 6.0857 27.2896 6.1213 27.3172 6.16069C27.3076 6.08599 27.3001 6.01479 27.2948 5.94709ZM29.4346 5.22031C29.4544 5.28115 29.4549 5.34725 29.4362 5.4186C29.4167 5.48805 29.3844 5.55963 29.339 5.63335C29.293 5.70516 29.2394 5.77629 29.1783 5.84675C29.1171 5.9172 29.0541 5.98195 28.9892 6.041C28.9243 6.10004 28.8639 6.15026 28.808 6.19165C28.817 6.27077 28.8308 6.33884 28.8494 6.39588C28.8612 6.43201 28.8782 6.45488 28.9002 6.46451C28.9223 6.47413 28.9514 6.47305 28.9875 6.46126C29.0674 6.4352 29.1473 6.39332 29.2274 6.33564C29.3074 6.27795 29.3866 6.21109 29.4649 6.13505C29.5431 6.05901 29.6167 5.98136 29.6855 5.9021C29.7543 5.82284 29.8164 5.74892 29.8719 5.68033C29.9292 5.61111 29.977 5.55449 30.0152 5.51046C30.0535 5.46643 30.0802 5.44193 30.0954 5.43696C30.1182 5.42952 30.1378 5.43154 30.1542 5.44302C30.1718 5.45199 30.1838 5.46598 30.19 5.48499C30.1949 5.5002 30.1808 5.53743 30.1475 5.59667C30.1162 5.65529 30.0711 5.7268 30.0124 5.81118C29.9531 5.89366 29.8848 5.98115 29.8077 6.07364C29.7306 6.16613 29.6485 6.25605 29.5613 6.34342C29.476 6.43017 29.3901 6.50553 29.3037 6.5695C29.2192 6.63285 29.1389 6.67693 29.0629 6.70175C28.964 6.73402 28.8749 6.72208 28.7956 6.66593C28.7162 6.60977 28.6511 6.50374 28.6002 6.34784C28.5661 6.24326 28.545 6.1334 28.5368 6.01824C28.5306 5.90246 28.5354 5.78833 28.5513 5.67585C28.5685 5.56085 28.5941 5.4557 28.6282 5.36041C28.6636 5.2626 28.7075 5.18097 28.7597 5.11552C28.8114 5.04817 28.8686 5.00426 28.9313 4.98378C29.0511 4.94468 29.1561 4.94724 29.2462 4.99144C29.3364 5.03565 29.3992 5.11194 29.4346 5.22031ZM28.7962 5.95251C28.8434 5.89714 28.8918 5.83926 28.9415 5.77886C28.9912 5.71845 29.0359 5.65865 29.0755 5.59944C29.1151 5.54024 29.1436 5.48254 29.161 5.42636C29.1797 5.36766 29.181 5.31359 29.1648 5.26416C29.1419 5.19381 29.0924 5.17105 29.0163 5.19587C28.9688 5.21139 28.9283 5.25825 28.895 5.33647C28.8629 5.41216 28.8386 5.5053 28.8221 5.61588C28.8056 5.72646 28.7969 5.83867 28.7962 5.95251ZM30.6716 6.22085C30.5785 6.25126 30.4909 6.25672 30.4088 6.23723C30.3279 6.21522 30.2583 6.17588 30.1998 6.11923C30.1414 6.06257 30.1003 5.99812 30.0768 5.92587C30.0271 5.77377 30.0084 5.62629 30.0207 5.48343C30.0324 5.33866 30.0623 5.20477 30.1105 5.08174C30.16 4.95619 30.2164 4.84523 30.2796 4.74885C30.3447 4.65186 30.4068 4.57477 30.466 4.51759C30.5265 4.45788 30.5719 4.42307 30.6023 4.41314C30.6632 4.39328 30.7035 4.41377 30.7234 4.47461C30.7327 4.50313 30.7245 4.54261 30.6989 4.59305C30.6727 4.64158 30.6382 4.70019 30.5954 4.76886C30.5526 4.83753 30.5081 4.9141 30.4621 4.99856C30.4154 5.08112 30.3753 5.17099 30.3418 5.26818C30.3077 5.36347 30.2871 5.46486 30.2801 5.57233C30.2725 5.67791 30.287 5.78678 30.3236 5.89896C30.3608 6.01303 30.426 6.05487 30.5192 6.02446C30.6047 5.99654 30.6869 5.95183 30.7657 5.89034C30.8465 5.82823 30.9222 5.75724 30.9929 5.67736C31.0649 5.59496 31.1324 5.51189 31.1956 5.42817C31.2587 5.34445 31.3152 5.26606 31.3649 5.19301C31.4141 5.11805 31.4562 5.05696 31.4913 5.00975C31.5264 4.96253 31.5535 4.93582 31.5725 4.92962C31.6105 4.91721 31.6363 4.93192 31.65 4.97374C31.6605 5.00607 31.6526 5.05598 31.6263 5.12349C31.5999 5.191 31.5599 5.26823 31.5062 5.35517C31.4526 5.44211 31.3906 5.5328 31.3205 5.62723C31.2497 5.71976 31.1764 5.80785 31.1006 5.89149C31.0242 5.97323 30.9485 6.04423 30.8735 6.10448C30.7998 6.1622 30.7325 6.20099 30.6716 6.22085ZM31.2498 4.97814C31.1972 4.99109 31.1626 4.96557 31.1459 4.90159C31.1428 4.88576 31.1474 4.86428 31.1596 4.83716C31.1711 4.80814 31.189 4.78865 31.2131 4.77868C31.2702 4.75374 31.3396 4.7216 31.4214 4.68227C31.5046 4.64041 31.5956 4.59387 31.6946 4.54262C31.6832 4.44325 31.6741 4.33789 31.6672 4.22653C31.6603 4.11518 31.6572 4.00574 31.6578 3.89822C31.6579 3.78881 31.663 3.68828 31.673 3.59663C31.6831 3.50499 31.7006 3.42983 31.7257 3.37117C31.7397 3.34343 31.7541 3.32297 31.7687 3.30978C31.7827 3.29468 31.7964 3.28497 31.8097 3.28062C31.8363 3.27193 31.861 3.27652 31.8836 3.29437C31.9082 3.3116 31.9251 3.33447 31.9344 3.36299C31.9394 3.3782 31.9415 3.39434 31.9408 3.41142C31.9375 3.5303 31.9394 3.67483 31.9466 3.84501C31.9537 4.01519 31.9627 4.20056 31.9735 4.40112C32.1391 4.31551 32.3041 4.22799 32.4684 4.13858C32.6328 4.04917 32.7734 3.97067 32.8902 3.9031C32.9213 3.8761 32.9498 3.86995 32.9757 3.88466C33.0034 3.89875 33.0207 3.91625 33.0275 3.93716C33.0362 3.96378 33.0351 3.98623 33.0243 4.0045C33.0153 4.02215 33.0048 4.03822 32.9926 4.05269L32.9907 4.05647C32.9577 4.08409 32.9065 4.12077 32.8373 4.16651C32.7674 4.21034 32.6868 4.2598 32.5954 4.31489C32.5034 4.36807 32.4047 4.42342 32.2993 4.48095C32.1959 4.53786 32.0927 4.59255 31.99 4.64504C32.0008 4.82662 32.0123 5.01327 32.0244 5.20499C32.0378 5.39418 32.0502 5.58052 32.0617 5.76401C32.065 5.83866 32.0571 5.88857 32.038 5.91375C32.0214 5.94021 31.9998 5.95779 31.9731 5.96647C31.9427 5.9764 31.9124 5.97368 31.8821 5.95831C31.8537 5.94232 31.8357 5.89667 31.8279 5.82136L31.7187 4.7809C31.6102 4.83524 31.5135 4.88049 31.4285 4.91664C31.3454 4.95217 31.2859 4.97267 31.2498 4.97814ZM35.0247 4.82532C34.9829 4.83897 34.9465 4.83716 34.9156 4.81989C34.8873 4.8039 34.8681 4.7807 34.8582 4.75028C34.8495 4.72366 34.8528 4.69522 34.8682 4.66496C34.8849 4.63217 34.911 4.59945 34.9466 4.56679C35.0096 4.50204 35.0679 4.43884 35.1214 4.37719C35.1768 4.31492 35.218 4.25415 35.2449 4.19487C35.2719 4.13558 35.277 4.08027 35.2602 4.02894C35.2459 3.98521 35.2208 3.95659 35.1849 3.94308C35.1483 3.92767 35.1053 3.92804 35.0558 3.94417C35.0273 3.95348 34.9892 3.97222 34.9416 4.00038C34.8934 4.02664 34.841 4.05635 34.7845 4.08952C34.7293 4.12017 34.6751 4.1505 34.6217 4.18053C34.5678 4.20865 34.5209 4.22923 34.4809 4.24226C34.4087 4.26584 34.3489 4.26641 34.3016 4.24398C34.2537 4.21965 34.2198 4.17706 34.2 4.11622C34.19 4.0858 34.1932 4.03427 34.2095 3.96164C34.2257 3.88901 34.2512 3.806 34.286 3.71261C34.322 3.6167 34.3637 3.51893 34.4112 3.4193C34.4586 3.31966 34.5088 3.22542 34.5619 3.13658C34.6168 3.04711 34.6701 2.97187 34.7217 2.91084C34.7752 2.84919 34.8239 2.81123 34.8676 2.79696C34.9113 2.78269 34.9492 2.78609 34.9814 2.80716C35.0135 2.82823 35.0367 2.86063 35.051 2.90436C35.0621 2.93859 35.066 2.96992 35.0627 2.99836C35.0587 3.0249 35.0409 3.05072 35.0091 3.07582C34.9792 3.1003 34.9285 3.12528 34.8568 3.15076C34.8019 3.2339 34.745 3.32715 34.6862 3.43051C34.6287 3.53134 34.5787 3.63285 34.5363 3.73505C34.4952 3.83472 34.4712 3.92565 34.4644 4.00782C34.5203 3.96643 34.5905 3.92355 34.6749 3.87917C34.7605 3.83227 34.85 3.79362 34.9431 3.76321C35.0895 3.71543 35.2087 3.71333 35.3008 3.75692C35.3942 3.79798 35.4582 3.87175 35.493 3.97822C35.5153 4.04666 35.5167 4.1251 35.4972 4.21352C35.4789 4.29942 35.4458 4.38492 35.3979 4.47C35.3499 4.55508 35.2931 4.62936 35.2276 4.69283C35.1627 4.7582 35.095 4.80236 35.0247 4.82532ZM36.2675 5.28751C36.2352 5.29806 36.2058 5.29503 36.1793 5.27842C36.1548 5.26119 36.1319 5.22025 36.1108 5.15561C36.0804 5.06245 36.0517 4.9519 36.0247 4.82397C35.9977 4.69605 35.9729 4.55896 35.9504 4.41272C35.9298 4.26586 35.9112 4.11838 35.8944 3.97027C35.8795 3.82155 35.8677 3.67917 35.8591 3.54314C35.8524 3.40648 35.8493 3.2844 35.85 3.17688C35.8501 3.06747 35.8541 2.97989 35.8621 2.91417C35.872 2.84782 35.8874 2.81123 35.9083 2.80441C35.9445 2.79262 35.9764 2.79377 36.0041 2.80785C36.0338 2.82132 36.0554 2.84897 36.0691 2.8908C36.0864 2.94403 36.0985 3.03582 36.1053 3.16615C36.1114 3.29458 36.1199 3.46223 36.1306 3.66912C36.1496 3.56615 36.1711 3.45813 36.1952 3.34507C36.2194 3.23201 36.2472 3.12087 36.2789 3.01165C36.31 2.90053 36.3441 2.79892 36.3814 2.70681C36.4206 2.61408 36.4625 2.53623 36.5071 2.47327C36.5518 2.4103 36.6017 2.36982 36.6568 2.35182C36.7158 2.33259 36.7743 2.33453 36.8323 2.35767C36.8897 2.3789 36.941 2.41685 36.9862 2.47153C37.0327 2.52368 37.0684 2.58778 37.0932 2.66383C37.1447 2.82164 37.168 2.98338 37.1632 3.14906C37.1577 3.31283 37.1267 3.46917 37.0701 3.61808C37.0148 3.76447 36.9346 3.89267 36.8296 4.0027C36.7265 4.1121 36.6017 4.19069 36.4553 4.23848C36.4001 4.25647 36.3498 4.26976 36.3042 4.27832C36.2586 4.28689 36.2184 4.29265 36.1836 4.29559C36.2017 4.42853 36.2221 4.56495 36.2446 4.70487C36.2671 4.84478 36.2924 4.99326 36.3205 5.15028C36.3279 5.19207 36.3274 5.22274 36.319 5.2423C36.3113 5.26375 36.2941 5.27883 36.2675 5.28751ZM36.7789 2.55181C36.739 2.56485 36.6989 2.60318 36.6587 2.6668C36.6203 2.72981 36.5822 2.80958 36.5443 2.90611C36.5076 3.00012 36.4728 3.10299 36.4399 3.21473C36.4063 3.32457 36.3752 3.43569 36.3467 3.54809C36.3182 3.66049 36.2922 3.76469 36.2689 3.86067C36.2474 3.95604 36.2301 4.03531 36.2171 4.09847C36.3641 4.04627 36.4848 3.97429 36.5789 3.88254C36.6725 3.78889 36.7449 3.6853 36.7962 3.57178C36.8469 3.45635 36.8802 3.33924 36.8962 3.22044C36.9134 3.09911 36.9176 2.98624 36.9087 2.88183C36.8993 2.77551 36.8828 2.68623 36.8592 2.61398C36.8418 2.56075 36.815 2.54002 36.7789 2.55181ZM38.2056 3.74924C38.0934 3.78585 37.9911 3.77193 37.8985 3.70747C37.8059 3.64301 37.7373 3.54233 37.6926 3.40544C37.6765 3.35601 37.6661 3.30155 37.6614 3.24207C37.658 3.18007 37.6602 3.12253 37.6682 3.06945C37.6505 3.06048 37.6342 3.04583 37.6191 3.0255C37.6034 3.00327 37.5897 2.97409 37.5779 2.93796C37.5413 2.82579 37.5268 2.71691 37.5344 2.61134C37.542 2.50576 37.5661 2.40851 37.6065 2.31959C37.6462 2.22876 37.698 2.15192 37.7616 2.08908C37.8271 2.02561 37.8998 1.98084 37.9797 1.95478C38.1109 1.91196 38.2329 1.92474 38.3456 1.99312C38.4578 2.0596 38.5452 2.18886 38.6079 2.38089C38.6408 2.48165 38.6591 2.58929 38.6628 2.70379C38.6684 2.81767 38.6614 2.93147 38.6417 3.04519C38.6239 3.15829 38.5941 3.26372 38.5524 3.3615C38.5126 3.45865 38.4631 3.54214 38.4038 3.61197C38.3458 3.67928 38.2798 3.72504 38.2056 3.74924ZM37.8247 2.91105C37.8411 2.92253 37.8533 2.94064 37.8614 2.96535C37.8707 2.99387 37.8743 3.02425 37.8722 3.0565C37.872 3.08812 37.8743 3.13051 37.879 3.18366C37.8837 3.23682 37.901 3.30903 37.9308 3.40029C37.9606 3.49155 38.0116 3.5254 38.0838 3.50181C38.1637 3.47575 38.2276 3.42018 38.2756 3.3351C38.3229 3.24811 38.3568 3.14555 38.3771 3.0274C38.3975 2.90926 38.4033 2.78849 38.3946 2.66511C38.3871 2.5392 38.3667 2.42491 38.3331 2.32224C38.3114 2.2557 38.2839 2.21315 38.2505 2.1946C38.2164 2.17415 38.1671 2.17447 38.1025 2.19557C38.0359 2.21729 37.974 2.26275 37.9166 2.33197C37.8605 2.39866 37.8211 2.47778 37.7984 2.56935C37.7757 2.66091 37.7799 2.75423 37.8109 2.84929C37.8177 2.87021 37.8223 2.89079 37.8247 2.91105ZM38.8698 2.49106C38.8172 2.50402 38.7826 2.4785 38.7659 2.41452C38.7629 2.39869 38.7674 2.37721 38.7796 2.35009C38.7912 2.32107 38.809 2.30158 38.8331 2.29161C38.8902 2.26667 38.9596 2.23453 39.0415 2.1952C39.1246 2.15334 39.2156 2.10679 39.3146 2.05555C39.3032 1.95618 39.2941 1.85082 39.2872 1.73946C39.2803 1.6281 39.2772 1.51867 39.2779 1.41115C39.2779 1.30173 39.283 1.2012 39.293 1.10956C39.3031 1.01791 39.3206 0.942761 39.3457 0.884098C39.3598 0.856358 39.3741 0.835892 39.3888 0.822702C39.4028 0.807611 39.4164 0.797893 39.4297 0.793549C39.4563 0.784861 39.481 0.789443 39.5036 0.807294C39.5282 0.824525 39.5451 0.8474 39.5544 0.875919C39.5594 0.891129 39.5615 0.90727 39.5608 0.924342C39.5575 1.04323 39.5594 1.18776 39.5666 1.35794C39.5738 1.52811 39.5827 1.71348 39.5935 1.91404C39.7591 1.82843 39.9241 1.74092 40.0884 1.65151C40.2528 1.56209 40.3934 1.4836 40.5102 1.41603C40.5414 1.38903 40.5699 1.38288 40.5957 1.39759C40.6234 1.41168 40.6407 1.42918 40.6475 1.45009C40.6562 1.47671 40.6551 1.49915 40.6443 1.51743C40.6353 1.53508 40.6248 1.55114 40.6127 1.56561L40.6107 1.5694C40.5777 1.59702 40.5265 1.6337 40.4573 1.67943C40.3875 1.72327 40.3068 1.77273 40.2154 1.82781C40.1234 1.881 40.0247 1.93635 39.9193 1.99388C39.8159 2.05078 39.7128 2.10548 39.61 2.15796C39.6209 2.33955 39.6323 2.5262 39.6444 2.71791C39.6578 2.9071 39.6702 3.09344 39.6817 3.27693C39.685 3.35158 39.6771 3.4015 39.658 3.42668C39.6414 3.45314 39.6198 3.47071 39.5932 3.4794C39.5627 3.48933 39.5324 3.48661 39.5021 3.47124C39.4738 3.45525 39.4557 3.4096 39.448 3.33429L39.3387 2.29383C39.2302 2.34817 39.1335 2.39342 39.0485 2.42957C38.9655 2.4651 38.9059 2.4856 38.8698 2.49106Z" fill="black"/>
</svg>
